<svg width="642" height="627" viewBox="0 0 642 627" fill="none" xmlns="http://www.w3.org/2000/svg">
<g clip-path="url(#clip0_126_2)">
<path d="M198.102 459.504H117.745C115.719 459.504 114.07 457.856 114.07 455.83C114.07 453.804 115.719 452.156 117.745 452.156H198.102C200.128 452.156 201.775 453.804 201.775 455.83C201.775 457.856 200.128 459.504 198.102 459.504Z" fill="#05D9E8"/>
<path d="M54.5879 479.17C54.5879 479.831 55.1179 480.36 55.778 480.36H260.068C260.728 480.36 261.258 479.831 261.258 479.17C261.258 478.511 260.728 477.98 260.068 477.98H55.778C55.1179 477.98 54.5879 478.511 54.5879 479.17Z" fill="#3F3D56"/>
<path d="M485.607 239.402C521.506 239.402 550.607 210.301 550.607 174.402C550.607 138.504 521.506 109.402 485.607 109.402C449.709 109.402 420.607 138.504 420.607 174.402C420.607 210.301 449.709 239.402 485.607 239.402Z" fill="#FF2A6D"/>
<path d="M0 561.307C0 561.967 0.53003 562.497 1.19006 562.497H523.48C524.14 562.497 524.67 561.967 524.67 561.307C524.67 560.647 524.14 560.117 523.48 560.117H1.19006C0.53003 560.117 0 560.647 0 561.307Z" fill="#3F3D56"/>
<path d="M7.55454 480.948L5.88379 479.118L168.948 330.321L227.696 356.657L291.137 247.863L343.259 222.74L391.551 303.227C417.624 235.728 483.011 165.109 561.362 93.4609L563.289 95.0215C489.804 165.376 426.93 236.05 391.249 307.542L346.58 232.875C344.47 229.347 340.035 227.985 336.308 229.719C307.818 242.976 284.054 264.615 268.194 291.742L228.454 359.713L219.383 355.647C189.045 342.047 153.529 347.747 128.97 370.157L7.55454 480.948Z" fill="#3F3D56"/>
<path d="M565.038 107.007L562.562 107.179L558.568 98.5214L549.624 96.7047L549.276 94.2475L564.02 92.1523L565.038 107.007Z" fill="#3F3D56"/>
<path d="M310.685 159.98L319.45 126.283L353.597 124.641L363.813 171.091L310.685 159.98Z" fill="#FFB6B6"/>
<path opacity="0.1" d="M310.685 159.98L319.45 126.283L353.597 124.641L363.813 171.091L310.685 159.98Z" fill="black"/>
<path d="M333.154 145.14C355.917 145.14 374.37 126.686 374.37 103.923C374.37 81.1602 355.917 62.707 333.154 62.707C310.391 62.707 291.938 81.1602 291.938 103.923C291.938 126.686 310.391 145.14 333.154 145.14Z" fill="#FFB6B6"/>
<path d="M355.894 112.649C355.894 112.649 340.237 81.6261 321.892 83.4172C303.546 85.2083 293.882 87.3865 293.882 87.3865C293.882 87.3865 288.436 63.2247 314.074 53.9309C314.074 53.9309 281.476 21.797 320.287 6.03393C359.098 -9.72917 380.815 10.3747 380.815 10.3747C380.815 10.3747 409.544 39.0541 373.361 60.4894C373.361 60.4894 400.228 96.6281 367.7 126.415C367.7 126.415 374.975 102.311 367.384 106.756C359.792 111.201 355.894 112.649 355.894 112.649Z" fill="#2F2E41"/>
<path d="M287.678 330.41L282.196 335.665L242.588 420.59L238.253 561.062H304.799L336.015 491.498L357.047 560.39H416.881L430.752 435.331L393.466 346.885L287.678 330.41Z" fill="#2F2E41"/>
<path d="M356.614 156.555H312.173L263.833 182.568L275.105 232.86C275.105 232.86 272.504 263.209 278.574 285.754C284.644 308.299 282.042 337.781 282.042 337.781L393.466 346.886L396.935 244.566L395.2 176.065L356.614 156.555Z" fill="#E6E6E6"/>
<path d="M271.204 183.004C271.204 183.004 244.323 183.871 239.988 201.213C235.652 218.555 232.184 307.868 232.184 307.868C232.184 307.868 234.785 360.864 263.833 335.667C292.881 310.469 290.28 234.163 290.28 234.163L271.204 183.004Z" fill="#E6E6E6"/>
<path d="M531.927 625.393H373.519C368.154 625.393 363.789 621.029 363.789 615.663V451.905C363.789 446.54 368.154 442.176 373.519 442.176H531.927C537.293 442.176 541.657 446.54 541.657 451.905V615.663C541.657 621.029 537.293 625.393 531.927 625.393Z" fill="white"/>
<path d="M531.927 626.393H373.518C367.602 626.393 362.788 621.58 362.788 615.664V451.905C362.788 445.989 367.602 441.176 373.518 441.176H531.927C537.843 441.176 542.656 445.989 542.656 451.905V615.664C542.656 621.58 537.843 626.393 531.927 626.393ZM373.518 443.176C368.704 443.176 364.788 447.092 364.788 451.905V615.664C364.788 620.477 368.704 624.393 373.518 624.393H531.927C536.74 624.393 540.656 620.477 540.656 615.664V451.905C540.656 447.092 536.74 443.176 531.927 443.176H373.518Z" fill="#3F3D56"/>
<path d="M458.974 582.373H445.918C444.328 582.373 443.035 581.375 443.035 580.148V523.936C443.035 522.709 444.328 521.711 445.918 521.711H458.974C460.564 521.711 461.857 522.709 461.857 523.936V580.148C461.857 581.375 460.564 582.373 458.974 582.373Z" fill="#05D9E8"/>
<path d="M415.81 549.246C414.525 549.246 413.48 550.053 413.48 551.044V580.084C413.48 581.075 414.525 581.882 415.81 581.882H428.866C430.15 581.882 431.195 581.075 431.195 580.084V551.044C431.195 550.053 430.15 549.246 428.866 549.246H415.81Z" fill="#05D9E8"/>
<path d="M489.082 582.372H476.026C474.437 582.372 473.144 581.374 473.144 580.146V488.026C473.144 486.799 474.437 485.801 476.026 485.801H489.082C490.672 485.801 491.965 486.799 491.965 488.026V580.146C491.965 581.374 490.672 582.372 489.082 582.372Z" fill="#05D9E8"/>
<path d="M208.125 178.575H193.211C191.395 178.575 189.918 177.434 189.918 176.033V111.823C189.918 110.421 191.395 109.281 193.211 109.281H208.125C209.941 109.281 211.418 110.421 211.418 111.823V176.033C211.418 177.434 209.941 178.575 208.125 178.575Z" fill="#05D9E8"/>
<path d="M158.819 140.734C157.352 140.734 156.158 141.656 156.158 142.788V175.96C156.158 177.092 157.352 178.014 158.819 178.014H173.733C175.2 178.014 176.393 177.092 176.393 175.96V142.788C176.393 141.656 175.2 140.734 173.733 140.734H158.819Z" fill="#05D9E8"/>
<path d="M242.517 178.573H227.604C225.788 178.573 224.311 177.433 224.311 176.032V70.8035C224.311 69.4019 225.788 68.2617 227.604 68.2617H242.517C244.333 68.2617 245.81 69.4019 245.81 70.8035V176.032C245.81 177.433 244.333 178.573 242.517 178.573Z" fill="#05D9E8"/>
<path d="M428.438 466.001C436.162 465.261 441.482 454.823 440.319 442.681C439.922 437.824 438.367 433.133 435.784 429.001L434.296 415.259L434.524 415.19L438.266 350.032C439.136 334.882 433.139 319.995 421.585 310.158C414.711 304.305 407.379 301.342 402.664 308.737C394.84 321.006 404.974 371.583 411.629 400.338L414.209 431.066C412.457 435.615 411.819 440.517 412.35 445.362C413.51 457.5 420.713 466.74 428.438 466.001Z" fill="#FFB6B6"/>
<path d="M385.662 177.801C385.662 177.801 408.207 169.13 418.612 195.144C429.018 221.157 440.29 349.489 440.29 349.489L387.396 339.951L385.662 177.801Z" fill="#E6E6E6"/>
<path d="M76.0919 165.078H45.7348C43.7089 165.078 42.0605 163.43 42.0605 161.404C42.0605 159.378 43.709 157.73 45.7348 157.73H76.0919C78.1178 157.73 79.7654 159.378 79.7654 161.404C79.7654 163.43 78.1178 165.078 76.0919 165.078Z" fill="#E6E6E6"/>
<path d="M76.0919 113H45.7348C43.7089 113 42.0605 111.352 42.0605 109.326C42.0605 107.3 43.709 105.652 45.7348 105.652H76.0919C78.1178 105.652 79.7654 107.3 79.7654 109.326C79.7654 111.352 78.1178 113 76.0919 113Z" fill="#E6E6E6"/>
<path d="M76.0919 75.4416H45.7348C43.7089 75.4416 42.0605 73.7931 42.0605 71.7673C42.0605 69.7414 43.709 68.0938 45.7348 68.0938H76.0919C78.1178 68.0938 79.7654 69.7414 79.7654 71.7673C79.7654 73.7932 78.1178 75.4416 76.0919 75.4416Z" fill="#E6E6E6"/>
<path d="M40.8428 178.756C40.8428 179.416 41.3728 179.946 42.0328 179.946H246.323C246.983 179.946 247.513 179.416 247.513 178.756C247.513 178.096 246.983 177.566 246.323 177.566H42.0328C41.3728 177.566 40.8428 178.096 40.8428 178.756Z" fill="#3F3D56"/>
<path d="M434.843 486.753C434.843 487.413 435.373 487.943 436.033 487.943H640.323C640.983 487.943 641.513 487.413 641.513 486.753C641.513 486.093 640.983 485.562 640.323 485.562H436.033C435.373 485.562 434.843 486.093 434.843 486.753Z" fill="#3F3D56"/>
<path d="M374.843 583.753C374.843 584.413 375.373 584.943 376.033 584.943H580.323C580.983 584.943 581.513 584.413 581.513 583.753C581.513 583.093 580.983 582.562 580.323 582.562H376.033C375.373 582.562 374.843 583.093 374.843 583.753Z" fill="#3F3D56"/>
<path d="M237.467 172.737C229.742 173.476 224.423 183.915 225.585 196.057C225.983 200.914 227.538 205.604 230.12 209.737L231.609 223.479L231.381 223.547L227.639 288.705C226.769 303.855 232.766 318.742 244.32 328.58C251.193 334.432 258.526 337.395 263.241 330.001C271.065 317.731 260.93 267.154 254.275 238.399L251.695 207.672C253.448 203.123 254.086 198.221 253.555 193.375C252.395 181.237 245.191 171.997 237.467 172.737Z" fill="#FFB6B6"/>
</g>
<defs>
<clipPath id="clip0_126_2">
<rect width="641.513" height="626.392" fill="white"/>
</clipPath>
</defs>
</svg>
