<svg width="787" height="573" viewBox="0 0 787 573" fill="none" xmlns="http://www.w3.org/2000/svg">
<g clip-path="url(#clip0_129_1048)">
<path d="M458.322 100.882C473.068 100.882 485.023 88.9276 485.023 74.1812C485.023 59.4348 473.068 47.4805 458.322 47.4805C443.575 47.4805 431.621 59.4348 431.621 74.1812C431.621 88.9276 443.575 100.882 458.322 100.882Z" fill="#FF2A6D"/>
<path d="M665.448 497.15C705.135 466.921 724.091 416.125 712.224 367.668C711.929 366.464 711.618 365.263 711.29 364.064C703.423 335.301 683.959 307.964 655.59 298.773C631.771 291.056 605.771 296.99 580.921 293.921C532.139 287.897 494.32 248.427 467.71 207.102C441.099 165.777 420.648 119.519 385.288 85.3779C327.003 29.1026 231.926 16.9864 159.661 53.6175C87.3967 90.2487 41.3649 171.518 43.328 252.513C45.2912 333.508 93.3743 410.945 163.203 452.03C188.855 467.123 218.524 477.815 248.051 474.074C273.671 470.827 296.95 457.061 322.45 452.974C362.541 446.548 402.377 464.675 437.052 485.798C471.728 506.921 505.223 531.958 544.627 541.75C582.888 551.259 630.29 523.928 665.448 497.15Z" fill="#F2F2F2"/>
<path d="M608.426 55.32C607.556 54.74 606.676 54.19 605.806 53.63C580.657 37.5458 553.702 24.4791 525.496 14.7L518.956 104.92H477.496V1.53C474.886 0.989999 472.256 0.48 469.626 0V104.92H420.356C393.232 104.92 367.22 94.1452 348.04 74.9659C328.861 55.7865 318.086 29.7738 318.086 2.65012C315.446 3.22012 312.826 3.83003 310.206 4.48003V104.92H270.076L263.846 18.89C234.861 30.0063 207.343 44.6248 181.906 62.42C181.466 62.72 181.026 63.03 180.596 63.33C178.386 64.88 176.206 66.46 174.036 68.06V412.25H292.306L290.216 383.3L278.716 224.35H510.306L498.806 383.3L496.716 412.25H613.676V58.8C611.936 57.62 610.186 56.46 608.426 55.32ZM310.206 198.1H276.816L270.646 112.8H310.206V198.1ZM469.626 198.1H413.546V196.41C413.546 195.598 413.386 194.793 413.075 194.043C412.764 193.292 412.308 192.61 411.733 192.036C411.158 191.462 410.475 191.007 409.724 190.697C408.973 190.388 408.169 190.229 407.356 190.23H382.976C382.165 190.23 381.361 190.389 380.611 190.7C379.861 191.01 379.179 191.465 378.606 192.039C378.032 192.613 377.576 193.295 377.266 194.045C376.955 194.795 376.796 195.598 376.796 196.41V198.1H318.086V112.8H469.626V198.1ZM477.496 198.1V112.8H518.386L512.216 198.1H477.496Z" fill="#3F3D56"/>
<path d="M0 434.291C8.68725 444.585 18.0835 454.258 28.12 463.241L758.7 464.241C768.736 455.258 778.133 445.585 786.82 435.291L0 434.291Z" fill="#3F3D56"/>
<path d="M495.43 341.591V427.295C495.431 428.387 495.865 429.434 496.637 430.207C497.409 430.979 498.457 431.413 499.549 431.414H626.553C627.645 431.413 628.693 430.979 629.465 430.207C630.237 429.434 630.671 428.387 630.672 427.295V341.591C630.67 340.5 630.235 339.454 629.463 338.683C628.691 337.912 627.644 337.478 626.553 337.477H499.549C498.457 337.478 497.411 337.912 496.639 338.683C495.867 339.454 495.432 340.5 495.43 341.591Z" fill="#3F3D56"/>
<path d="M498.409 342.659V426.24C498.41 426.823 498.642 427.382 499.055 427.795C499.468 428.208 500.027 428.44 500.611 428.441H625.496C626.08 428.44 626.639 428.208 627.052 427.795C627.464 427.382 627.696 426.823 627.697 426.24V342.659C627.697 342.075 627.466 341.514 627.053 341.101C626.64 340.687 626.08 340.454 625.496 340.453H500.611C500.026 340.454 499.466 340.687 499.054 341.101C498.641 341.514 498.409 342.075 498.409 342.659Z" fill="#05D9E8"/>
<path d="M492.774 444.01C493.006 444.302 493.302 444.537 493.639 444.698C493.975 444.86 494.344 444.942 494.717 444.94H630.709C631.081 444.94 631.448 444.857 631.784 444.696C632.119 444.536 632.415 444.303 632.649 444.014C632.884 443.726 633.051 443.388 633.138 443.027C633.226 442.665 633.231 442.289 633.155 441.925L631.044 431.897C630.957 431.489 630.768 431.108 630.496 430.79C630.224 430.473 629.877 430.229 629.486 430.08C629.203 429.969 628.902 429.912 628.598 429.912H496.82C496.516 429.912 496.215 429.969 495.932 430.08C495.541 430.229 495.194 430.473 494.922 430.79C494.649 431.108 494.461 431.489 494.374 431.897L492.263 441.925C492.187 442.288 492.194 442.664 492.283 443.025C492.371 443.386 492.539 443.723 492.774 444.01Z" fill="#2F2E41"/>
<path d="M623.932 434.23H627.144C627.413 434.23 627.632 434.012 627.632 433.742V432.206C627.632 431.936 627.413 431.717 627.144 431.717H623.932C623.662 431.717 623.443 431.936 623.443 432.206V433.742C623.443 434.012 623.662 434.23 623.932 434.23Z" fill="#3F3D56"/>
<path d="M615.555 434.23H618.767C619.036 434.23 619.255 434.012 619.255 433.742V432.206C619.255 431.936 619.036 431.717 618.767 431.717H615.555C615.285 431.717 615.066 431.936 615.066 432.206V433.742C615.066 434.012 615.285 434.23 615.555 434.23Z" fill="#3F3D56"/>
<path d="M607.178 434.23H610.39C610.659 434.23 610.878 434.012 610.878 433.742V432.206C610.878 431.936 610.659 431.717 610.39 431.717H607.178C606.908 431.717 606.689 431.936 606.689 432.206V433.742C606.689 434.012 606.908 434.23 607.178 434.23Z" fill="#3F3D56"/>
<path d="M598.801 434.23H602.013C602.282 434.23 602.501 434.012 602.501 433.742V432.206C602.501 431.936 602.282 431.717 602.013 431.717H598.801C598.531 431.717 598.312 431.936 598.312 432.206V433.742C598.312 434.012 598.531 434.23 598.801 434.23Z" fill="#3F3D56"/>
<path d="M590.424 434.23H593.636C593.905 434.23 594.124 434.012 594.124 433.742V432.206C594.124 431.936 593.905 431.717 593.636 431.717H590.424C590.154 431.717 589.936 431.936 589.936 432.206V433.742C589.936 434.012 590.154 434.23 590.424 434.23Z" fill="#3F3D56"/>
<path d="M582.047 434.23H585.259C585.528 434.23 585.747 434.012 585.747 433.742V432.206C585.747 431.936 585.528 431.717 585.259 431.717H582.047C581.777 431.717 581.559 431.936 581.559 432.206V433.742C581.559 434.012 581.777 434.23 582.047 434.23Z" fill="#3F3D56"/>
<path d="M573.67 434.23H576.882C577.152 434.23 577.37 434.012 577.37 433.742V432.206C577.37 431.936 577.152 431.717 576.882 431.717H573.67C573.4 431.717 573.182 431.936 573.182 432.206V433.742C573.182 434.012 573.4 434.23 573.67 434.23Z" fill="#3F3D56"/>
<path d="M565.293 434.23H568.505C568.775 434.23 568.993 434.012 568.993 433.742V432.206C568.993 431.936 568.775 431.717 568.505 431.717H565.293C565.023 431.717 564.805 431.936 564.805 432.206V433.742C564.805 434.012 565.023 434.23 565.293 434.23Z" fill="#3F3D56"/>
<path d="M556.916 434.23H560.128C560.398 434.23 560.616 434.012 560.616 433.742V432.206C560.616 431.936 560.398 431.717 560.128 431.717H556.916C556.646 431.717 556.428 431.936 556.428 432.206V433.742C556.428 434.012 556.646 434.23 556.916 434.23Z" fill="#3F3D56"/>
<path d="M548.539 434.23H551.751C552.021 434.23 552.239 434.012 552.239 433.742V432.206C552.239 431.936 552.021 431.717 551.751 431.717H548.539C548.269 431.717 548.051 431.936 548.051 432.206V433.742C548.051 434.012 548.269 434.23 548.539 434.23Z" fill="#3F3D56"/>
<path d="M540.162 434.23H543.374C543.644 434.23 543.862 434.012 543.862 433.742V432.206C543.862 431.936 543.644 431.717 543.374 431.717H540.162C539.892 431.717 539.674 431.936 539.674 432.206V433.742C539.674 434.012 539.892 434.23 540.162 434.23Z" fill="#3F3D56"/>
<path d="M531.785 434.23H534.997C535.267 434.23 535.485 434.012 535.485 433.742V432.206C535.485 431.936 535.267 431.717 534.997 431.717H531.785C531.515 431.717 531.297 431.936 531.297 432.206V433.742C531.297 434.012 531.515 434.23 531.785 434.23Z" fill="#3F3D56"/>
<path d="M523.408 434.23H526.62C526.89 434.23 527.108 434.012 527.108 433.742V432.206C527.108 431.936 526.89 431.717 526.62 431.717H523.408C523.138 431.717 522.92 431.936 522.92 432.206V433.742C522.92 434.012 523.138 434.23 523.408 434.23Z" fill="#3F3D56"/>
<path d="M515.031 434.23H518.243C518.513 434.23 518.731 434.012 518.731 433.742V432.206C518.731 431.936 518.513 431.717 518.243 431.717H515.031C514.762 431.717 514.543 431.936 514.543 432.206V433.742C514.543 434.012 514.762 434.23 515.031 434.23Z" fill="#3F3D56"/>
<path d="M506.654 434.23H509.866C510.136 434.23 510.354 434.012 510.354 433.742V432.206C510.354 431.936 510.136 431.717 509.866 431.717H506.654C506.385 431.717 506.166 431.936 506.166 432.206V433.742C506.166 434.012 506.385 434.23 506.654 434.23Z" fill="#3F3D56"/>
<path d="M498.277 434.23H501.489C501.759 434.23 501.978 434.012 501.978 433.742V432.206C501.978 431.936 501.759 431.717 501.489 431.717H498.277C498.008 431.717 497.789 431.936 497.789 432.206V433.742C497.789 434.012 498.008 434.23 498.277 434.23Z" fill="#3F3D56"/>
<path d="M624.031 438.418H627.243C627.513 438.418 627.731 438.199 627.731 437.93V436.393C627.731 436.123 627.513 435.905 627.243 435.905H624.031C623.762 435.905 623.543 436.123 623.543 436.393V437.93C623.543 438.199 623.762 438.418 624.031 438.418Z" fill="#3F3D56"/>
<path d="M615.654 438.418H618.866C619.136 438.418 619.354 438.199 619.354 437.93V436.393C619.354 436.123 619.136 435.905 618.866 435.905H615.654C615.385 435.905 615.166 436.123 615.166 436.393V437.93C615.166 438.199 615.385 438.418 615.654 438.418Z" fill="#3F3D56"/>
<path d="M607.277 438.418H610.489C610.759 438.418 610.978 438.199 610.978 437.93V436.393C610.978 436.123 610.759 435.905 610.489 435.905H607.277C607.008 435.905 606.789 436.123 606.789 436.393V437.93C606.789 438.199 607.008 438.418 607.277 438.418Z" fill="#3F3D56"/>
<path d="M598.9 438.418H602.112C602.382 438.418 602.601 438.199 602.601 437.93V436.393C602.601 436.123 602.382 435.905 602.112 435.905H598.9C598.631 435.905 598.412 436.123 598.412 436.393V437.93C598.412 438.199 598.631 438.418 598.9 438.418Z" fill="#3F3D56"/>
<path d="M590.523 438.418H593.735C594.005 438.418 594.224 438.199 594.224 437.93V436.393C594.224 436.123 594.005 435.905 593.735 435.905H590.523C590.254 435.905 590.035 436.123 590.035 436.393V437.93C590.035 438.199 590.254 438.418 590.523 438.418Z" fill="#3F3D56"/>
<path d="M582.146 438.418H585.359C585.628 438.418 585.847 438.199 585.847 437.93V436.393C585.847 436.123 585.628 435.905 585.359 435.905H582.146C581.877 435.905 581.658 436.123 581.658 436.393V437.93C581.658 438.199 581.877 438.418 582.146 438.418Z" fill="#3F3D56"/>
<path d="M573.769 438.418H576.982C577.251 438.418 577.47 438.199 577.47 437.93V436.393C577.47 436.123 577.251 435.905 576.982 435.905H573.769C573.5 435.905 573.281 436.123 573.281 436.393V437.93C573.281 438.199 573.5 438.418 573.769 438.418Z" fill="#3F3D56"/>
<path d="M565.392 438.418H568.605C568.874 438.418 569.093 438.199 569.093 437.93V436.393C569.093 436.123 568.874 435.905 568.605 435.905H565.392C565.123 435.905 564.904 436.123 564.904 436.393V437.93C564.904 438.199 565.123 438.418 565.392 438.418Z" fill="#3F3D56"/>
<path d="M557.015 438.418H560.227C560.496 438.418 560.715 438.199 560.715 437.93V436.393C560.715 436.123 560.496 435.905 560.227 435.905H557.015C556.745 435.905 556.526 436.123 556.526 436.393V437.93C556.526 438.199 556.745 438.418 557.015 438.418Z" fill="#3F3D56"/>
<path d="M548.639 438.418H551.851C552.12 438.418 552.339 438.199 552.339 437.93V436.393C552.339 436.123 552.12 435.905 551.851 435.905H548.639C548.369 435.905 548.15 436.123 548.15 436.393V437.93C548.15 438.199 548.369 438.418 548.639 438.418Z" fill="#3F3D56"/>
<path d="M540.261 438.418H543.473C543.742 438.418 543.961 438.199 543.961 437.93V436.393C543.961 436.123 543.742 435.905 543.473 435.905H540.261C539.991 435.905 539.772 436.123 539.772 436.393V437.93C539.772 438.199 539.991 438.418 540.261 438.418Z" fill="#3F3D56"/>
<path d="M531.884 438.418H535.096C535.365 438.418 535.584 438.199 535.584 437.93V436.393C535.584 436.123 535.365 435.905 535.096 435.905H531.884C531.614 435.905 531.396 436.123 531.396 436.393V437.93C531.396 438.199 531.614 438.418 531.884 438.418Z" fill="#3F3D56"/>
<path d="M523.507 438.418H526.719C526.988 438.418 527.207 438.199 527.207 437.93V436.393C527.207 436.123 526.988 435.905 526.719 435.905H523.507C523.237 435.905 523.019 436.123 523.019 436.393V437.93C523.019 438.199 523.237 438.418 523.507 438.418Z" fill="#3F3D56"/>
<path d="M515.13 438.418H518.342C518.611 438.418 518.83 438.199 518.83 437.93V436.393C518.83 436.123 518.611 435.905 518.342 435.905H515.13C514.86 435.905 514.642 436.123 514.642 436.393V437.93C514.642 438.199 514.86 438.418 515.13 438.418Z" fill="#3F3D56"/>
<path d="M506.753 438.418H509.965C510.235 438.418 510.453 438.199 510.453 437.93V436.393C510.453 436.123 510.235 435.905 509.965 435.905H506.753C506.483 435.905 506.265 436.123 506.265 436.393V437.93C506.265 438.199 506.483 438.418 506.753 438.418Z" fill="#3F3D56"/>
<path d="M498.376 438.418H501.588C501.858 438.418 502.076 438.199 502.076 437.93V436.393C502.076 436.123 501.858 435.905 501.588 435.905H498.376C498.106 435.905 497.888 436.123 497.888 436.393V437.93C497.888 438.199 498.106 438.418 498.376 438.418Z" fill="#3F3D56"/>
<path d="M554.502 443.445H587.033C587.303 443.445 587.521 443.227 587.521 442.957V441.42C587.521 441.151 587.303 440.932 587.033 440.932H554.502C554.232 440.932 554.014 441.151 554.014 441.42V442.957C554.014 443.227 554.232 443.445 554.502 443.445Z" fill="#3F3D56"/>
<path d="M520.036 358.736H517.192C516.33 358.736 515.631 359.435 515.631 360.297C515.631 361.16 516.33 361.858 517.192 361.858H520.036C520.898 361.858 521.597 361.16 521.597 360.297C521.597 359.435 520.898 358.736 520.036 358.736Z" fill="white"/>
<path d="M552.559 358.736H549.715C548.853 358.736 548.154 359.435 548.154 360.297C548.154 361.16 548.853 361.858 549.715 361.858H552.559C553.421 361.858 554.12 361.16 554.12 360.297C554.12 359.435 553.421 358.736 552.559 358.736Z" fill="white"/>
<path d="M561.774 358.736H558.93C558.068 358.736 557.369 359.435 557.369 360.297C557.369 361.16 558.068 361.858 558.93 361.858H561.774C562.636 361.858 563.335 361.16 563.335 360.297C563.335 359.435 562.636 358.736 561.774 358.736Z" fill="white"/>
<path d="M543.713 358.477H526.039C525.176 358.477 524.478 359.175 524.478 360.038C524.478 360.9 525.176 361.599 526.039 361.599H543.713C544.575 361.599 545.274 360.9 545.274 360.038C545.274 359.175 544.575 358.477 543.713 358.477Z" fill="white"/>
<path d="M587.077 358.477H569.403C568.541 358.477 567.842 359.175 567.842 360.038C567.842 360.9 568.541 361.599 569.403 361.599H587.077C587.939 361.599 588.638 360.9 588.638 360.038C588.638 359.175 587.939 358.477 587.077 358.477Z" fill="white"/>
<path d="M528.708 365.783H525.865C525.003 365.783 524.304 366.482 524.304 367.344C524.304 368.206 525.003 368.905 525.865 368.905H528.708C529.571 368.905 530.27 368.206 530.27 367.344C530.27 366.482 529.571 365.783 528.708 365.783Z" fill="white"/>
<path d="M561.232 365.783H558.388C557.526 365.783 556.827 366.482 556.827 367.344C556.827 368.206 557.526 368.905 558.388 368.905H561.232C562.094 368.905 562.793 368.206 562.793 367.344C562.793 366.482 562.094 365.783 561.232 365.783Z" fill="white"/>
<path d="M570.447 365.783H567.603C566.741 365.783 566.042 366.482 566.042 367.344C566.042 368.206 566.741 368.905 567.603 368.905H570.447C571.309 368.905 572.008 368.206 572.008 367.344C572.008 366.482 571.309 365.783 570.447 365.783Z" fill="white"/>
<path d="M552.385 365.523H534.711C533.849 365.523 533.15 366.222 533.15 367.085C533.15 367.947 533.849 368.646 534.711 368.646H552.385C553.248 368.646 553.947 367.947 553.947 367.085C553.947 366.222 553.248 365.523 552.385 365.523Z" fill="white"/>
<path d="M595.75 365.523H578.076C577.214 365.523 576.515 366.222 576.515 367.085C576.515 367.947 577.214 368.646 578.076 368.646H595.75C596.612 368.646 597.311 367.947 597.311 367.085C597.311 366.222 596.612 365.523 595.75 365.523Z" fill="white"/>
<path d="M537.381 372.83H534.538C533.675 372.83 532.977 373.529 532.977 374.391C532.977 375.253 533.675 375.952 534.538 375.952H537.381C538.243 375.952 538.942 375.253 538.942 374.391C538.942 373.529 538.243 372.83 537.381 372.83Z" fill="white"/>
<path d="M569.905 372.83H567.061C566.199 372.83 565.5 373.529 565.5 374.391C565.5 375.253 566.199 375.952 567.061 375.952H569.905C570.767 375.952 571.466 375.253 571.466 374.391C571.466 373.529 570.767 372.83 569.905 372.83Z" fill="white"/>
<path d="M579.12 372.83H576.276C575.414 372.83 574.715 373.529 574.715 374.391C574.715 375.253 575.414 375.952 576.276 375.952H579.12C579.982 375.952 580.681 375.253 580.681 374.391C580.681 373.529 579.982 372.83 579.12 372.83Z" fill="white"/>
<path d="M561.058 372.57H543.384C542.522 372.57 541.823 373.269 541.823 374.131C541.823 374.994 542.522 375.692 543.384 375.692H561.058C561.92 375.692 562.619 374.994 562.619 374.131C562.619 373.269 561.92 372.57 561.058 372.57Z" fill="white"/>
<path d="M604.423 372.57H586.749C585.886 372.57 585.188 373.269 585.188 374.131C585.188 374.994 585.886 375.692 586.749 375.692H604.423C605.285 375.692 605.984 374.994 605.984 374.131C605.984 373.269 605.285 372.57 604.423 372.57Z" fill="white"/>
<path d="M546.054 379.877H543.211C542.348 379.877 541.649 380.576 541.649 381.438C541.649 382.3 542.348 382.999 543.211 382.999H546.054C546.916 382.999 547.615 382.3 547.615 381.438C547.615 380.576 546.916 379.877 546.054 379.877Z" fill="white"/>
<path d="M578.578 379.877H575.734C574.872 379.877 574.173 380.576 574.173 381.438C574.173 382.3 574.872 382.999 575.734 382.999H578.578C579.44 382.999 580.139 382.3 580.139 381.438C580.139 380.576 579.44 379.877 578.578 379.877Z" fill="white"/>
<path d="M587.792 379.877H584.949C584.087 379.877 583.388 380.576 583.388 381.438C583.388 382.3 584.087 382.999 584.949 382.999H587.792C588.655 382.999 589.354 382.3 589.354 381.438C589.354 380.576 588.655 379.877 587.792 379.877Z" fill="white"/>
<path d="M569.731 379.617H552.057C551.195 379.617 550.496 380.316 550.496 381.178C550.496 382.04 551.195 382.739 552.057 382.739H569.731C570.593 382.739 571.292 382.04 571.292 381.178C571.292 380.316 570.593 379.617 569.731 379.617Z" fill="white"/>
<path d="M552.559 407.898H549.715C548.853 407.898 548.154 408.597 548.154 409.46C548.154 410.322 548.853 411.021 549.715 411.021H552.559C553.421 411.021 554.12 410.322 554.12 409.46C554.12 408.597 553.421 407.898 552.559 407.898Z" fill="white"/>
<path d="M561.774 407.898H558.93C558.068 407.898 557.369 408.597 557.369 409.46C557.369 410.322 558.068 411.021 558.93 411.021H561.774C562.636 411.021 563.335 410.322 563.335 409.46C563.335 408.597 562.636 407.898 561.774 407.898Z" fill="white"/>
<path d="M587.077 408.158H569.403C568.541 408.158 567.842 408.857 567.842 409.719C567.842 410.581 568.541 411.28 569.403 411.28H587.077C587.939 411.28 588.638 410.581 588.638 409.719C588.638 408.857 587.939 408.158 587.077 408.158Z" fill="white"/>
<path d="M520.036 407.898H517.192C516.33 407.898 515.631 408.597 515.631 409.46C515.631 410.322 516.33 411.021 517.192 411.021H520.036C520.898 411.021 521.597 410.322 521.597 409.46C521.597 408.597 520.898 407.898 520.036 407.898Z" fill="white"/>
<path d="M543.713 408.158H526.039C525.176 408.158 524.478 408.857 524.478 409.719C524.478 410.581 525.176 411.28 526.039 411.28H543.713C544.575 411.28 545.274 410.581 545.274 409.719C545.274 408.857 544.575 408.158 543.713 408.158Z" fill="white"/>
<path d="M528.708 400.852H525.865C525.003 400.852 524.304 401.55 524.304 402.413C524.304 403.275 525.003 403.974 525.865 403.974H528.708C529.571 403.974 530.27 403.275 530.27 402.413C530.27 401.55 529.571 400.852 528.708 400.852Z" fill="white"/>
<path d="M561.232 400.852H558.388C557.526 400.852 556.827 401.55 556.827 402.413C556.827 403.275 557.526 403.974 558.388 403.974H561.232C562.094 403.974 562.793 403.275 562.793 402.413C562.793 401.55 562.094 400.852 561.232 400.852Z" fill="white"/>
<path d="M570.447 400.852H567.603C566.741 400.852 566.042 401.55 566.042 402.413C566.042 403.275 566.741 403.974 567.603 403.974H570.447C571.309 403.974 572.008 403.275 572.008 402.413C572.008 401.55 571.309 400.852 570.447 400.852Z" fill="white"/>
<path d="M552.385 401.111H534.711C533.849 401.111 533.15 401.81 533.15 402.672C533.15 403.535 533.849 404.233 534.711 404.233H552.385C553.248 404.233 553.947 403.535 553.947 402.672C553.947 401.81 553.248 401.111 552.385 401.111Z" fill="white"/>
<path d="M537.381 393.805H534.538C533.675 393.805 532.977 394.504 532.977 395.366C532.977 396.228 533.675 396.927 534.538 396.927H537.381C538.243 396.927 538.942 396.228 538.942 395.366C538.942 394.504 538.243 393.805 537.381 393.805Z" fill="white"/>
<path d="M569.905 393.805H567.061C566.199 393.805 565.5 394.504 565.5 395.366C565.5 396.228 566.199 396.927 567.061 396.927H569.905C570.767 396.927 571.466 396.228 571.466 395.366C571.466 394.504 570.767 393.805 569.905 393.805Z" fill="white"/>
<path d="M579.12 393.805H576.276C575.414 393.805 574.715 394.504 574.715 395.366C574.715 396.228 575.414 396.927 576.276 396.927H579.12C579.982 396.927 580.681 396.228 580.681 395.366C580.681 394.504 579.982 393.805 579.12 393.805Z" fill="white"/>
<path d="M561.058 394.064H543.384C542.522 394.064 541.823 394.763 541.823 395.626C541.823 396.488 542.522 397.187 543.384 397.187H561.058C561.92 397.187 562.619 396.488 562.619 395.626C562.619 394.763 561.92 394.064 561.058 394.064Z" fill="white"/>
<path d="M546.054 386.758H543.211C542.348 386.758 541.649 387.457 541.649 388.319C541.649 389.181 542.348 389.88 543.211 389.88H546.054C546.916 389.88 547.615 389.181 547.615 388.319C547.615 387.457 546.916 386.758 546.054 386.758Z" fill="white"/>
<path d="M578.578 386.758H575.734C574.872 386.758 574.173 387.457 574.173 388.319C574.173 389.181 574.872 389.88 575.734 389.88H578.578C579.44 389.88 580.139 389.181 580.139 388.319C580.139 387.457 579.44 386.758 578.578 386.758Z" fill="white"/>
<path d="M587.792 386.758H584.949C584.087 386.758 583.388 387.457 583.388 388.319C583.388 389.181 584.087 389.88 584.949 389.88H587.792C588.655 389.88 589.354 389.181 589.354 388.319C589.354 387.457 588.655 386.758 587.792 386.758Z" fill="white"/>
<path d="M569.731 387.018H552.057C551.195 387.018 550.496 387.717 550.496 388.579C550.496 389.441 551.195 390.14 552.057 390.14H569.731C570.593 390.14 571.292 389.441 571.292 388.579C571.292 387.717 570.593 387.018 569.731 387.018Z" fill="white"/>
<path d="M504.917 490.482L491.567 469.38L533.469 435.978L550.765 416.817C553.012 414.327 555.873 412.471 559.062 411.434C562.251 410.397 565.656 410.214 568.938 410.906C572.219 411.597 575.262 413.137 577.762 415.372C580.261 417.608 582.131 420.46 583.183 423.644C584.742 428.363 584.406 433.503 582.248 437.979C580.089 442.455 576.276 445.918 571.613 447.635L544.264 457.711L504.917 490.482Z" fill="#FFB6B6"/>
<path d="M191.69 337.48V440.04H263.54V337.48C263.542 336.742 263.306 336.023 262.869 335.43C262.432 334.836 261.815 334.398 261.11 334.18C260.778 334.07 260.43 334.016 260.08 334.02H195.16C194.705 334.019 194.255 334.108 193.834 334.281C193.413 334.455 193.031 334.709 192.708 335.031C192.386 335.352 192.13 335.734 191.956 336.154C191.781 336.574 191.691 337.025 191.69 337.48ZM219.73 372.72C219.749 370.698 220.566 368.765 222.002 367.342C223.438 365.919 225.378 365.121 227.4 365.121C229.422 365.121 231.363 365.919 232.799 367.342C234.235 368.765 235.052 370.698 235.07 372.72V384.62C235.06 386.647 234.247 388.588 232.81 390.018C231.373 391.448 229.428 392.251 227.4 392.251C225.373 392.251 223.428 391.448 221.991 390.018C220.553 388.588 219.741 386.647 219.73 384.62V372.72Z" fill="#2F2E41"/>
<path d="M191.47 436.762V446.652C191.471 447.164 191.675 447.655 192.036 448.018C192.398 448.381 192.887 448.587 193.4 448.592H261.83C262.343 448.589 262.833 448.384 263.195 448.02C263.557 447.656 263.76 447.164 263.76 446.652V436.762H191.47Z" fill="#3F3D56"/>
<path d="M78.6602 182.963V370.223C78.662 372.609 79.6109 374.897 81.2983 376.584C82.9857 378.272 85.2738 379.221 87.6602 379.223H365.16C367.547 379.221 369.835 378.272 371.522 376.584C373.209 374.897 374.158 372.609 374.16 370.223V182.963C374.154 180.578 373.204 178.293 371.517 176.608C369.83 174.923 367.544 173.976 365.16 173.973H87.6602C85.2759 173.976 82.99 174.924 81.3031 176.609C79.6162 178.294 78.6658 180.578 78.6602 182.963Z" fill="#3F3D56"/>
<path d="M85.1699 185.293V367.913C85.1721 369.188 85.6796 370.41 86.5811 371.311C87.4827 372.213 88.7049 372.72 89.9799 372.723H362.85C364.125 372.72 365.347 372.213 366.249 371.311C367.15 370.41 367.658 369.188 367.66 367.913V185.293C367.66 184.016 367.153 182.792 366.252 181.888C365.35 180.984 364.126 180.475 362.85 180.473H89.9799C88.7034 180.475 87.48 180.984 86.5783 181.888C85.6765 182.792 85.1701 184.016 85.1699 185.293Z" fill="white"/>
<path d="M135.81 447.922C136.088 448.27 136.441 448.551 136.843 448.743C137.245 448.935 137.685 449.034 138.13 449.032H300.47C300.914 449.031 301.353 448.932 301.753 448.74C302.154 448.549 302.507 448.271 302.787 447.926C303.066 447.582 303.266 447.179 303.37 446.747C303.474 446.316 303.481 445.866 303.39 445.432L300.87 433.462C300.766 432.974 300.541 432.519 300.216 432.14C299.891 431.761 299.477 431.47 299.01 431.292C298.673 431.159 298.313 431.091 297.95 431.092H140.64C140.278 431.091 139.918 431.159 139.58 431.292C139.114 431.47 138.699 431.761 138.374 432.14C138.05 432.519 137.825 432.974 137.72 433.462L135.2 445.432C135.111 445.866 135.119 446.315 135.224 446.746C135.33 447.176 135.53 447.578 135.81 447.922Z" fill="#2F2E41"/>
<path d="M353.994 205.628H98.6708C98.4054 205.622 98.1529 205.513 97.9673 205.323C97.7816 205.133 97.6777 204.878 97.6777 204.613C97.6777 204.348 97.7816 204.093 97.9673 203.903C98.1529 203.713 98.4054 203.604 98.6708 203.598H353.994C354.26 203.604 354.512 203.713 354.698 203.903C354.883 204.093 354.987 204.348 354.987 204.613C354.987 204.878 354.883 205.133 354.698 205.323C354.512 205.513 354.26 205.622 353.994 205.628Z" fill="#3F3D56"/>
<path d="M116.052 198.412C119.338 198.412 122.002 195.689 122.002 192.329C122.002 188.97 119.338 186.246 116.052 186.246C112.766 186.246 110.102 188.97 110.102 192.329C110.102 195.689 112.766 198.412 116.052 198.412Z" fill="#3F3D56"/>
<path d="M136.608 198.412C139.894 198.412 142.558 195.689 142.558 192.329C142.558 188.97 139.894 186.246 136.608 186.246C133.321 186.246 130.657 188.97 130.657 192.329C130.657 195.689 133.321 198.412 136.608 198.412Z" fill="#3F3D56"/>
<path d="M157.163 198.412C160.45 198.412 163.114 195.689 163.114 192.329C163.114 188.97 160.45 186.246 157.163 186.246C153.877 186.246 151.213 188.97 151.213 192.329C151.213 195.689 153.877 198.412 157.163 198.412Z" fill="#3F3D56"/>
<path d="M341.616 187.75H327.016C326.728 187.757 326.453 187.876 326.251 188.083C326.049 188.289 325.937 188.566 325.937 188.855C325.937 189.144 326.049 189.421 326.251 189.627C326.453 189.834 326.728 189.953 327.016 189.96H341.616C341.906 189.956 342.184 189.838 342.387 189.631C342.591 189.424 342.706 189.145 342.706 188.855C342.706 188.565 342.591 188.286 342.387 188.079C342.184 187.872 341.906 187.754 341.616 187.75Z" fill="#3F3D56"/>
<path d="M341.616 191.902H327.016C326.728 191.909 326.453 192.028 326.251 192.234C326.049 192.441 325.936 192.718 325.936 193.007C325.936 193.296 326.049 193.574 326.251 193.78C326.453 193.987 326.728 194.106 327.016 194.112H341.616C341.907 194.109 342.185 193.991 342.389 193.784C342.594 193.577 342.708 193.298 342.708 193.007C342.708 192.717 342.594 192.437 342.389 192.231C342.185 192.024 341.907 191.906 341.616 191.902Z" fill="#3F3D56"/>
<path d="M341.616 196.051H327.016C326.728 196.058 326.453 196.177 326.251 196.383C326.049 196.59 325.937 196.867 325.937 197.156C325.937 197.444 326.049 197.722 326.251 197.928C326.453 198.135 326.728 198.254 327.016 198.261H341.616C341.906 198.257 342.184 198.138 342.387 197.932C342.591 197.725 342.706 197.446 342.706 197.156C342.706 196.865 342.591 196.587 342.387 196.38C342.184 196.173 341.906 196.055 341.616 196.051Z" fill="#3F3D56"/>
<path d="M693.596 441.102C694.036 442.385 694.872 443.495 695.983 444.273C697.094 445.051 698.423 445.458 699.779 445.433L726.271 444.751C727.637 444.725 728.958 444.257 730.036 443.417C731.114 442.578 731.891 441.412 732.252 440.094L736.001 400.007C737.331 400.61 738.779 400.907 740.239 400.878C741.507 400.846 742.757 400.565 743.916 400.05C745.076 399.535 746.123 398.797 746.997 397.878C747.871 396.958 748.556 395.876 749.012 394.692C749.468 393.508 749.686 392.246 749.654 390.977C749.623 389.709 749.341 388.459 748.826 387.3C748.312 386.14 747.573 385.093 746.654 384.219C745.735 383.344 744.652 382.66 743.468 382.204C742.284 381.748 741.022 381.53 739.754 381.561C739.17 381.56 738.588 381.62 738.017 381.742C737.397 381.071 736.643 380.537 735.803 380.174C734.964 379.812 734.058 379.63 733.143 379.639L692.393 380.691C692.055 380.704 691.719 380.746 691.388 380.816C690.494 380.983 689.646 381.339 688.902 381.86C688.157 382.382 687.533 383.057 687.072 383.84C686.61 384.623 686.321 385.496 686.225 386.4C686.129 387.304 686.228 388.218 686.514 389.081L693.596 441.102ZM736.769 397.285L739.437 387.733C739.74 386.629 739.747 385.465 739.457 384.358C739.587 384.358 739.701 384.296 739.83 384.296C741.66 384.258 743.429 384.947 744.751 386.212C746.073 387.477 746.839 389.214 746.882 391.043C746.925 392.872 746.241 394.644 744.979 395.969C743.718 397.294 741.983 398.065 740.154 398.113C738.972 398.15 737.801 397.864 736.769 397.285Z" fill="#2F2E41"/>
<path d="M691.388 380.815C692.256 385.779 702.017 389.269 713.754 388.663C724.546 388.165 733.371 384.376 734.988 379.884C734.389 379.707 733.767 379.624 733.143 379.638L692.393 380.69C692.055 380.703 691.719 380.745 691.388 380.815Z" fill="#3F3D56"/>
<path d="M715.905 419.072C715.958 419.059 716.009 419.036 716.055 419.006L721.809 415.24C721.878 415.195 721.935 415.133 721.975 415.06C722.014 414.987 722.035 414.905 722.035 414.822C722.035 414.739 722.015 414.657 721.975 414.584C721.936 414.511 721.878 414.449 721.809 414.404L715.829 410.487C715.774 410.451 715.713 410.426 715.648 410.413C715.584 410.401 715.517 410.401 715.453 410.415C715.388 410.428 715.327 410.454 715.273 410.491C715.218 410.528 715.172 410.575 715.136 410.63C715.099 410.685 715.075 410.747 715.062 410.811C715.05 410.876 715.051 410.942 715.064 411.007C715.078 411.071 715.104 411.132 715.141 411.187C715.179 411.241 715.226 411.287 715.281 411.323L720.622 414.821L715.508 418.169C715.409 418.234 715.336 418.332 715.303 418.445C715.269 418.559 715.276 418.68 715.324 418.789C715.372 418.897 715.456 418.985 715.562 419.037C715.669 419.089 715.79 419.101 715.905 419.072Z" fill="#05D9E8"/>
<path d="M706.818 419.493C706.914 419.468 707.001 419.416 707.068 419.341C707.134 419.267 707.177 419.175 707.19 419.076C707.204 418.977 707.188 418.877 707.144 418.788C707.1 418.698 707.03 418.624 706.944 418.574L701.641 415.534L706.766 411.727C706.819 411.688 706.863 411.639 706.897 411.582C706.931 411.526 706.953 411.464 706.963 411.399C706.972 411.334 706.969 411.268 706.953 411.204C706.937 411.14 706.908 411.08 706.869 411.028C706.83 410.975 706.781 410.931 706.725 410.897C706.668 410.863 706.606 410.841 706.541 410.832C706.476 410.822 706.41 410.825 706.346 410.841C706.283 410.857 706.223 410.886 706.17 410.925L700.432 415.187C700.365 415.237 700.312 415.302 700.276 415.377C700.241 415.452 700.225 415.535 700.23 415.618C700.235 415.701 700.261 415.781 700.304 415.852C700.348 415.922 700.409 415.981 700.481 416.022L706.446 419.442C706.559 419.506 706.692 419.525 706.818 419.493Z" fill="#05D9E8"/>
<path d="M715.332 422.373C715.38 422.361 715.426 422.341 715.469 422.315C715.525 422.281 715.574 422.236 715.613 422.183C715.651 422.13 715.679 422.07 715.695 422.006C715.71 421.942 715.713 421.876 715.703 421.811C715.693 421.746 715.67 421.684 715.636 421.628L707.481 408.22C707.412 408.107 707.3 408.026 707.172 407.994C707.043 407.963 706.907 407.985 706.794 408.054C706.681 408.123 706.599 408.234 706.568 408.362C706.537 408.491 706.558 408.627 706.626 408.74L714.782 422.149C714.837 422.24 714.921 422.311 715.02 422.351C715.119 422.392 715.228 422.399 715.332 422.373Z" fill="#05D9E8"/>
<path d="M256.84 260.828H212.649C210.846 260.828 209.385 262.29 209.385 264.092V268.41C209.385 270.212 210.846 271.674 212.649 271.674H256.84C258.643 271.674 260.104 270.212 260.104 268.41V264.092C260.104 262.29 258.643 260.828 256.84 260.828Z" fill="#05D9E8"/>
<path d="M282.598 282.52H186.89C185.087 282.52 183.626 283.981 183.626 285.784V290.101C183.626 291.904 185.087 293.365 186.89 293.365H282.598C284.401 293.365 285.862 291.904 285.862 290.101V285.784C285.862 283.981 284.401 282.52 282.598 282.52Z" fill="#E6E6E6"/>
<path d="M282.598 304.211H186.89C185.087 304.211 183.626 305.672 183.626 307.475V311.792C183.626 313.595 185.087 315.057 186.89 315.057H282.598C284.401 315.057 285.862 313.595 285.862 311.792V307.475C285.862 305.672 284.401 304.211 282.598 304.211Z" fill="#E6E6E6"/>
<path d="M290.711 376.844L290.928 377.529L290.939 377.552L297.464 397.39L304.971 420.251L319.093 463.212L319.23 469.885V469.908L320.28 523.593L317.371 530.871L320.645 542.803C320.645 542.803 319.139 524.766 311.062 535.124C306.488 541.011 301.138 547.034 296.746 552.681C303.145 555.27 309.648 557.613 316.253 559.708C317.679 560.164 319.116 560.598 320.553 561.031C320.861 561.123 321.169 561.214 321.477 561.305C343.372 567.78 366.007 571.418 388.828 572.131C390.015 572.165 391.178 572.188 392.308 572.211C392.707 572.222 393.095 572.234 393.483 572.234C394.76 572.245 396.027 572.256 397.304 572.256C399.882 572.256 402.449 572.218 405.004 572.142C423.918 571.609 442.721 569.066 461.096 564.556C460.97 556.97 460.628 548.106 460.138 538.638C459.909 533.995 454.787 528.964 454.479 524.105C454.263 520.454 458.86 517.02 458.62 513.313C457.069 490.486 455.13 499.249 453.692 483.084C453.544 481.498 453.407 479.981 453.282 478.533C452.358 468.152 451.719 461.661 451.719 461.661L457.856 422.977L467.496 362.243L466.754 361.022L465.921 360.611L415.077 335.446L412.317 328.373C411.512 326.336 410.117 324.585 408.309 323.347C406.502 322.109 404.366 321.44 402.175 321.426L368.682 321.289C366.944 321.281 365.229 321.688 363.68 322.476C362.13 323.263 360.791 324.409 359.773 325.818L350.704 338.378L290.711 376.844Z" fill="#3F3D56"/>
<path d="M326.817 453.653L319.23 469.886L314.051 480.974L305.142 527.621L300.682 532.355L296.86 515.595L256.862 524.476C255.55 517.187 256.511 524.723 255.701 516.726C255.929 516.498 256.169 516.27 256.408 516.042C257.047 515.448 257.583 514.889 257.572 514.353C257.116 486.77 258.485 439.827 269.915 411.388C271.705 406.744 274.066 402.341 276.942 398.28C277.17 397.972 277.387 397.664 277.604 397.356C282.874 389.975 286.205 382.709 290.928 377.541V377.53C290.957 377.506 290.984 377.479 291.008 377.45C291.025 377.441 291.041 377.43 291.054 377.416L323.497 360.213L324.889 399.318L325.881 427.427L326.817 453.653Z" fill="#3F3D56"/>
<path d="M443.802 458.264L453.278 478.539L456.585 485.599L465.492 532.241L469.938 536.964L473.768 520.208L475.568 519.839L508.026 513.117L517.487 543.163C519.619 539.61 520.459 535.43 519.865 531.33C519.271 527.229 517.279 523.459 514.226 520.658C513.58 520.073 513.041 519.504 513.057 518.966C513.595 486.522 511.611 427.282 493.689 402.9C487.998 395.162 484.583 387.455 479.614 382.071C479.598 382.056 479.598 382.04 479.583 382.04L467.492 362.242L466.753 361.027L465.923 360.611L443.802 458.264Z" fill="#3F3D56"/>
<path d="M386.396 311.757C411.005 311.757 430.954 291.808 430.954 267.199C430.954 242.59 411.005 222.641 386.396 222.641C361.787 222.641 341.838 242.59 341.838 267.199C341.838 291.808 361.787 311.757 386.396 311.757Z" fill="#FFB6B6"/>
<path d="M446.623 236.076C446.277 235.707 445.861 235.412 445.399 235.207C444.937 235.003 444.438 234.893 443.933 234.886L444.603 233.026C444.821 232.44 444.88 231.807 444.774 231.191C444.667 230.574 444.398 229.998 443.995 229.519C443.592 229.041 443.07 228.679 442.481 228.469C441.891 228.259 441.257 228.21 440.643 228.326L438.203 228.796L438.433 227.166C438.521 226.559 438.449 225.939 438.226 225.368C438.002 224.797 437.633 224.294 437.156 223.909C436.679 223.523 436.109 223.269 435.504 223.17C434.898 223.071 434.278 223.132 433.703 223.346C433.18 223.552 432.617 223.638 432.057 223.598C431.496 223.559 430.951 223.394 430.463 223.116C429.972 222.847 429.546 222.474 429.214 222.023C428.883 221.572 428.653 221.055 428.543 220.506L427.693 216.406L427.603 216.186C423.463 209.286 415.503 204.266 405.763 202.426C397.093 200.776 388.203 201.616 379.633 202.406C376.233 202.726 372.393 203.086 369.193 205.046C366.473 206.726 364.173 210.086 364.643 213.476C356.193 210.886 347.133 216.056 342.643 222.576C337.323 230.336 336.453 240.056 336.313 247.656C335.933 265.636 339.643 280.346 347.313 291.386C347.873 292.186 348.013 293.856 349.123 294.416L348.893 294.046C350.133 294.666 351.393 295.666 350.923 296.736C349.573 299.816 358.543 306.626 364.863 308.876C376.393 312.986 391.723 312.636 402.503 311.156L402.883 308.606C406.773 308.076 409.513 307.066 410.283 305.486C411.643 304.326 412.803 303.286 413.813 302.326L413.823 302.316C413.843 302.296 413.883 302.266 413.903 302.246C418.773 297.576 419.903 294.916 420.413 290.866C420.903 286.896 420.033 282.866 419.143 279.236C437.883 282.136 411.763 259.276 429.223 254.856C429.423 254.794 429.627 254.744 429.833 254.706C430.343 254.586 430.853 254.466 431.343 254.326C433.705 253.685 435.966 252.719 438.063 251.456C442.943 248.486 444.553 244.546 447.073 240.106C447.436 239.474 447.589 238.742 447.508 238.017C447.427 237.293 447.117 236.613 446.623 236.076Z" fill="#2F2E41"/>
<path d="M543.992 461.438C543.982 463.188 543.962 465.638 543.882 468.668C543.872 469.088 543.862 469.518 543.852 469.958C543.722 475.528 543.592 480.198 543.382 485.388C543.372 485.748 543.362 486.098 543.342 486.458C543.062 493.698 542.622 502.128 541.862 515.478C540.452 540.138 537.992 518.868 535.522 527.518C535.402 527.948 535.272 528.458 535.152 529.058C534.778 531.235 534.147 533.359 533.272 535.388C531.962 536.168 530.612 536.918 529.282 537.668C525.492 539.778 521.642 541.808 517.762 543.738C515.582 544.818 513.392 545.878 511.192 546.898C510.842 547.058 510.502 547.218 510.162 547.368C498.896 552.579 487.285 557.009 475.412 560.628C473.092 561.328 470.782 562.008 468.442 562.638C466.002 563.318 463.562 563.958 461.092 564.558C442.717 569.069 423.915 571.613 405.002 572.148C402.452 572.228 399.882 572.258 397.302 572.258C396.022 572.258 394.762 572.248 393.482 572.238C393.092 572.238 392.702 572.228 392.312 572.218C391.182 572.188 390.012 572.168 388.832 572.138C366.011 571.426 343.376 567.786 321.482 561.308L320.552 561.038C319.112 560.598 317.682 560.168 316.252 559.708C309.652 557.618 303.149 555.278 296.742 552.688C291.852 550.718 287.019 548.604 282.242 546.348C282.198 546.336 282.158 546.315 282.122 546.288C281.122 545.828 280.112 545.348 279.112 544.858C278.982 544.788 278.842 544.718 278.702 544.648C274.972 542.828 271.282 540.921 267.632 538.928C264.562 531.878 260.242 530.528 257.562 524.328C256.782 522.486 256.218 520.559 255.882 518.588C255.882 518.568 255.872 518.548 255.872 518.518C256.152 522.238 254.682 511.918 255.862 518.478C255.852 518.358 255.842 518.228 255.832 518.078C255.802 517.718 255.762 517.278 255.702 516.728C252.272 483.238 252.492 444.938 251.002 413.378C250.902 411.338 250.799 409.384 250.692 407.518C250.662 406.898 250.622 406.288 250.582 405.688C250.652 405.508 250.732 405.318 250.822 405.138C250.841 405.086 250.865 405.036 250.892 404.988C250.922 404.926 250.955 404.865 250.992 404.808C251.012 404.778 251.042 404.738 251.062 404.708C251.077 404.673 251.093 404.64 251.112 404.608C251.202 404.468 251.302 404.318 251.412 404.178C251.462 404.118 251.502 404.068 251.552 404.018C251.587 403.966 251.627 403.92 251.672 403.878C251.703 403.83 251.74 403.786 251.782 403.748C251.822 403.708 251.862 403.658 251.912 403.608C251.933 403.576 251.961 403.549 251.992 403.528C252.071 403.437 252.158 403.353 252.252 403.278C252.609 402.949 252.99 402.648 253.392 402.378C253.532 402.288 253.682 402.198 253.822 402.098C254.83 401.495 255.891 400.986 256.992 400.578C257.372 400.438 257.752 400.308 258.162 400.168C258.312 400.128 258.452 400.078 258.602 400.028C258.822 399.958 259.042 399.888 259.272 399.838C260.412 399.498 261.642 399.208 262.972 398.938C263.132 398.908 263.302 398.878 263.472 398.838C263.712 398.788 263.962 398.748 264.212 398.708C264.552 398.648 264.902 398.588 265.252 398.528C268.222 398.058 271.592 397.708 275.312 397.478C275.662 397.458 276.012 397.438 276.362 397.418C276.772 397.398 277.182 397.378 277.602 397.358C277.952 397.338 278.312 397.328 278.672 397.318C279.022 397.298 279.382 397.288 279.752 397.278C280.762 397.248 281.802 397.218 282.862 397.198C285.882 397.138 289.062 397.158 292.402 397.228C293.952 397.268 295.532 397.308 297.152 397.378C297.262 397.378 297.362 397.388 297.462 397.388C298.872 397.438 300.292 397.498 301.752 397.578C302.772 397.628 303.802 397.678 304.832 397.738C305.802 397.798 306.782 397.858 307.772 397.928C308.542 397.968 309.312 398.028 310.092 398.078C310.752 398.128 311.412 398.178 312.072 398.218L312.972 398.278C313.462 398.318 313.952 398.348 314.452 398.398C315.552 398.488 316.652 398.578 317.772 398.668C318.882 398.768 320.012 398.868 321.142 398.968C322.272 399.068 323.412 399.178 324.552 399.288C324.672 399.298 324.782 399.308 324.892 399.318C325.932 399.428 326.972 399.528 328.022 399.638C328.262 399.658 328.512 399.678 328.752 399.708C329.753 399.808 330.774 399.926 331.784 400.033C332.094 400.067 332.402 400.099 332.713 400.133C333.505 400.219 334.285 400.294 335.082 400.388C336.132 400.508 337.202 400.618 338.242 400.758C339.052 400.848 339.862 400.938 340.672 401.038C341.942 401.188 343.232 401.348 344.522 401.518C345.012 401.578 345.502 401.638 345.992 401.708C349.672 402.168 353.392 402.678 357.172 403.208C362.902 404.018 368.722 404.898 374.582 405.848C380.452 406.798 386.355 407.801 392.292 408.858C393.792 409.128 395.292 409.398 396.802 409.678C397.482 409.808 398.162 409.938 398.842 410.068C400.002 410.278 401.162 410.498 402.322 410.718C403.482 410.938 404.642 411.158 405.802 411.388C407.182 411.658 408.572 411.928 409.952 412.198C419.042 413.998 428.082 415.918 436.902 417.928C438.352 418.258 439.802 418.598 441.242 418.928C444.122 419.598 446.975 420.278 449.802 420.968C450.582 421.148 451.352 421.338 452.122 421.528C454.042 422.008 455.962 422.488 457.852 422.978L458.182 423.068C459.572 423.408 460.932 423.758 462.292 424.118C465.502 424.958 468.659 425.808 471.762 426.668C473.822 427.238 475.859 427.814 477.872 428.398C480.882 429.268 483.832 430.148 486.702 431.038C487.412 431.258 488.122 431.478 488.822 431.688C490.922 432.338 492.992 432.998 495.002 433.658C496.602 434.178 498.162 434.708 499.702 435.238C501.242 435.768 502.752 436.298 504.232 436.828C505.182 437.168 506.122 437.528 507.062 437.868C508.412 438.368 509.742 438.868 511.042 439.368C511.442 439.518 511.832 439.678 512.222 439.828C512.472 439.938 512.712 440.028 512.952 440.128C513.422 440.318 513.902 440.498 514.362 440.688C514.832 440.868 515.292 441.058 515.752 441.258C516.202 441.438 516.662 441.628 517.102 441.818C517.552 441.998 517.992 442.188 518.432 442.388C518.802 442.538 519.162 442.698 519.512 442.858C520.222 443.168 520.932 443.478 521.622 443.798C521.962 443.958 522.302 444.108 522.642 444.268L523.422 444.628C523.532 444.688 523.642 444.738 523.752 444.788C524.002 444.908 524.262 445.038 524.512 445.158C525.092 445.428 525.662 445.718 526.222 445.988C526.972 446.368 527.702 446.748 528.402 447.118C529.112 447.498 529.802 447.878 530.462 448.248C530.572 448.308 530.672 448.368 530.782 448.428C530.932 448.508 531.082 448.598 531.232 448.678C531.742 448.968 532.232 449.268 532.722 449.558C533.682 450.148 534.592 450.728 535.442 451.308C535.632 451.438 535.812 451.567 536.002 451.687C536.632 452.137 537.232 452.578 537.792 453.028C537.792 453.038 537.792 453.038 537.802 453.038C537.992 453.178 538.172 453.328 538.352 453.468C538.502 453.608 538.662 453.728 538.812 453.868C539.332 454.318 539.812 454.747 540.252 455.187C540.399 455.323 540.54 455.467 540.672 455.618C540.73 455.666 540.784 455.719 540.832 455.778C541.032 455.978 541.212 456.177 541.382 456.377C541.408 456.405 541.432 456.435 541.452 456.468C541.692 456.748 541.912 457.028 542.122 457.308C542.222 457.448 542.332 457.588 542.422 457.728C542.542 457.898 542.662 458.078 542.762 458.248C542.852 458.388 542.932 458.538 543.012 458.678C543.224 459.038 543.405 459.416 543.552 459.808C543.664 460.073 543.755 460.347 543.822 460.627C543.898 460.893 543.954 461.164 543.992 461.438Z" fill="#2F2E41"/>
<path opacity="0.2" d="M543.992 461.438C543.982 463.188 543.962 465.638 543.882 468.668C543.872 469.088 543.852 469.518 543.842 469.958C543.742 474.208 543.592 479.458 543.382 485.388C543.372 485.748 543.362 486.098 543.342 486.458C543.062 493.698 542.622 502.128 541.862 515.478C540.452 540.138 537.992 518.868 535.522 527.518C528.662 523.298 521.142 518.878 513.102 514.338C511.652 513.518 510.189 512.694 508.712 511.868C492.632 502.898 474.672 493.498 455.922 484.188C455.182 483.818 454.432 483.448 453.692 483.088C410.742 461.858 363.862 441.208 325.882 427.428C318.552 424.768 311.552 422.368 304.972 420.258C291.112 415.828 279.132 412.728 269.912 411.388C260.312 409.988 253.682 410.488 251.002 413.378C250.902 411.338 250.799 409.384 250.692 407.518C250.652 406.898 250.612 406.288 250.572 405.688C250.634 405.523 250.714 405.366 250.792 405.208C250.803 405.184 250.811 405.161 250.822 405.138C250.841 405.086 250.865 405.036 250.892 404.988C250.922 404.926 250.955 404.866 250.992 404.808C251.025 404.737 251.065 404.67 251.112 404.608C251.202 404.468 251.302 404.318 251.412 404.178C251.493 404.073 251.58 403.973 251.672 403.878C251.703 403.83 251.74 403.786 251.782 403.748C251.822 403.708 251.862 403.658 251.912 403.608C251.934 403.576 251.961 403.549 251.992 403.528C252.071 403.437 252.158 403.353 252.252 403.278C252.609 402.949 252.99 402.649 253.392 402.378C253.532 402.288 253.682 402.198 253.822 402.098C254.83 401.495 255.891 400.986 256.992 400.578C257.372 400.438 257.752 400.308 258.162 400.168C258.312 400.128 258.452 400.078 258.602 400.028C258.822 399.958 259.042 399.888 259.272 399.838C260.412 399.498 261.642 399.208 262.972 398.938C263.372 398.858 263.792 398.778 264.212 398.708C264.552 398.648 264.902 398.588 265.252 398.528C268.222 398.058 271.592 397.708 275.312 397.478C275.662 397.458 276.012 397.438 276.362 397.418C276.772 397.398 277.182 397.378 277.602 397.358C277.952 397.338 278.312 397.328 278.672 397.318C279.022 397.298 279.382 397.288 279.752 397.278C280.762 397.248 281.802 397.218 282.862 397.198C285.882 397.148 289.062 397.168 292.402 397.238C293.952 397.268 295.532 397.318 297.152 397.388C297.252 397.388 297.362 397.398 297.462 397.398C298.872 397.438 300.302 397.508 301.752 397.578C302.772 397.628 303.802 397.678 304.832 397.738C305.802 397.798 306.782 397.858 307.772 397.928C308.542 397.968 309.312 398.028 310.092 398.078C310.752 398.128 311.412 398.178 312.072 398.218C312.862 398.278 313.652 398.338 314.452 398.398C315.552 398.488 316.652 398.578 317.772 398.668C318.882 398.768 320.012 398.868 321.142 398.968C322.272 399.068 323.412 399.178 324.552 399.288C324.672 399.298 324.782 399.308 324.892 399.318C325.932 399.428 326.972 399.528 328.022 399.638C333.842 400.228 339.832 400.918 345.992 401.708C349.672 402.178 353.399 402.681 357.172 403.218C362.902 404.028 368.722 404.908 374.582 405.848C380.452 406.798 386.356 407.801 392.292 408.858C393.792 409.128 395.292 409.398 396.802 409.678C398.642 410.018 400.482 410.364 402.322 410.718C403.482 410.938 404.642 411.158 405.802 411.388C407.182 411.658 408.572 411.928 409.952 412.198C419.042 413.998 428.082 415.918 436.902 417.928C438.352 418.258 439.802 418.598 441.242 418.928C444.122 419.598 446.976 420.278 449.802 420.968C450.582 421.158 451.352 421.348 452.122 421.538C454.052 422.018 455.962 422.498 457.852 422.978V422.988C457.962 423.008 458.072 423.038 458.182 423.068C459.562 423.418 460.932 423.768 462.292 424.128C465.502 424.968 468.659 425.814 471.762 426.668C473.822 427.248 475.862 427.818 477.872 428.398C480.882 429.278 483.832 430.158 486.702 431.038C487.412 431.258 488.122 431.478 488.822 431.688C490.922 432.348 492.982 433.004 495.002 433.658C496.602 434.178 498.162 434.708 499.702 435.238C501.242 435.768 502.752 436.298 504.232 436.828C505.192 437.168 506.132 437.518 507.062 437.858C508.422 438.358 509.742 438.858 511.042 439.368C511.442 439.518 511.832 439.678 512.222 439.828C512.952 440.108 513.662 440.398 514.362 440.688C514.832 440.868 515.292 441.058 515.752 441.258C516.202 441.438 516.662 441.628 517.102 441.818C517.552 441.998 517.992 442.188 518.432 442.388C518.802 442.538 519.162 442.698 519.512 442.858C520.222 443.168 520.932 443.478 521.622 443.798C521.962 443.958 522.302 444.108 522.642 444.268L523.422 444.628C523.532 444.688 523.642 444.738 523.752 444.788C524.602 445.188 525.422 445.588 526.222 445.988C526.972 446.368 527.702 446.748 528.402 447.118C529.232 447.558 530.022 447.988 530.782 448.428C530.932 448.508 531.082 448.598 531.232 448.678C531.742 448.968 532.232 449.268 532.722 449.558C533.682 450.148 534.592 450.728 535.442 451.308C536.282 451.888 537.062 452.458 537.792 453.028C537.792 453.038 537.792 453.038 537.802 453.038C538.152 453.318 538.492 453.598 538.812 453.868C539.332 454.318 539.812 454.748 540.252 455.188C540.4 455.323 540.54 455.467 540.672 455.618C540.73 455.666 540.784 455.719 540.832 455.778C541.042 456.008 541.252 456.238 541.452 456.468C541.692 456.748 541.912 457.028 542.122 457.308C542.222 457.448 542.332 457.588 542.422 457.728C542.542 457.898 542.662 458.078 542.762 458.248C542.852 458.388 542.932 458.538 543.012 458.678C543.225 459.038 543.405 459.416 543.552 459.808C543.662 460.074 543.752 460.348 543.822 460.628C543.898 460.893 543.955 461.164 543.992 461.438Z" fill="black"/>
</g>
<defs>
<clipPath id="clip0_129_1048">
<rect width="786.82" height="572.258" fill="white"/>
</clipPath>
</defs>
</svg>
