<svg width="512" height="512" viewBox="0 0 512 512" fill="none" xmlns="http://www.w3.org/2000/svg">
<path opacity="0.392" d="M51.7004 157.1L284.2 37.9004L275.8 205.7L43.4004 324.9L51.7004 157.1Z" fill="#ABACB1"/>
<path d="M51.7004 157.1L284.2 37.9004L282.8 64.3004L50.4004 183.5L51.7004 157.1Z" fill="#D4D6EF"/>
<g opacity="0.9">
<path d="M105 189L68.2998 207.9L68.7998 197.6L105.5 178.8L105 189ZM254.5 102.4L241.6 109L241.1 119.2L254 112.6L254.5 102.4ZM190.2 145.3L163.7 158.9L164.2 148.7L190.7 135.1L190.2 145.3ZM239.4 120.1L205.1 137.7L205.6 127.5L239.9 109.9L239.4 120.1Z" fill="#A6A8CD"/>
<path d="M203.2 138.7L192.6 144.1L193.1 133.9L203.7 128.5L203.2 138.7Z" fill="#C252E1"/>
<path d="M161.499 160.099L106.899 188.099L107.399 177.799L161.999 149.799L161.499 160.099Z" fill="#FFD300"/>
<path d="M265.7 204.8L214.5 231.1L215 220.9L266.2 194.6L265.7 204.8ZM163.7 257.2L137.1 270.8L137.6 260.6L164.2 247L163.7 257.2ZM212.8 232L178.5 249.6L179 239.3L213.3 221.8L212.8 232Z" fill="#A6A8CD"/>
<path d="M176.6 250.599L166 255.999L166.5 245.799L177.1 240.299L176.6 250.599Z" fill="#C252E1"/>
<path d="M134.899 271.899L80.3994 299.899L80.8994 289.699L135.399 261.699L134.899 271.899Z" fill="#14E5F5"/>
<path d="M101.199 176.999L55.3994 200.499L55.8994 190.299L101.699 166.699L101.199 176.999Z" fill="#14E5F5"/>
<path d="M155.099 149.3L104.899 175.1L105.399 164.8L155.599 139.1L155.099 149.3ZM266.099 92.3996L215.899 118.1L216.399 107.9L266.599 82.0996L266.099 92.3996ZM193.799 129.5L157.599 148L158.099 137.8L194.299 119.2L193.799 129.5Z" fill="#A6A8CD"/>
<path d="M213.599 119.3L195.699 128.5L196.299 118.2L214.099 109.1L213.599 119.3Z" fill="#14E5F5"/>
<path d="M96.8996 262.999L51.0996 286.499L51.5996 276.299L97.3996 252.799L96.8996 262.999Z" fill="#14E5F5"/>
<path d="M269.2 165.299L225.7 187.599L225.2 197.899L268.7 175.599L269.2 165.299ZM184.7 217.999L152.3 234.599L152.8 224.399L185.2 207.799L184.7 217.999Z" fill="#A6A8CD"/>
<path d="M199.6 210.4L189 215.8L189.5 205.6L200.1 200.1L199.6 210.4Z" fill="#C252E1"/>
<path d="M149.7 235.999L99.5 261.699L100 251.499L150.2 225.699L149.7 235.999Z" fill="#FFD300"/>
<path d="M220.9 200.098L203 209.298L203.5 198.998L221.4 189.898L220.9 200.098Z" fill="#14E5F5"/>
<path d="M99.0992 220.1L53.1992 243.7L53.6992 233.4L99.5992 209.9L99.0992 220.1Z" fill="#14E5F5"/>
<path d="M158.9 189.4L101.6 218.8L102.1 208.6L159.4 179.2L158.9 189.4ZM263.9 135.6L213.7 161.4L214.2 151.1L264.4 125.4L263.9 135.6Z" fill="#A6A8CD"/>
<path d="M191.6 172.7L161.6 188.1L162.1 177.9L192.1 162.5L191.6 172.7Z" fill="#14E5F5"/>
<path d="M211.5 162.501L193.6 171.701L194.1 161.501L212 152.301L211.5 162.501Z" fill="#A6A8CD"/>
<path d="M117.8 196.499L67.5996 222.299L68.0996 211.999L118.3 186.299L117.8 196.499Z" fill="#A6A8CD"/>
<path d="M206.399 151.099L156.199 176.799L156.699 166.599L206.899 140.799L206.399 151.099Z" fill="#FFD300"/>
<path d="M153.5 178.198L121.1 194.798L121.7 184.598L154 167.998L153.5 178.198Z" fill="#A6A8CD"/>
<path d="M237.599 135.099L219.699 144.199L220.299 133.999L238.099 124.799L237.599 135.099Z" fill="#C252E1"/>
<path d="M114.2 268.498L64 294.298L64.5 283.998L114.7 258.298L114.2 268.498ZM208.6 220.098L160.7 244.698L161.2 234.398L209.1 209.898L208.6 220.098ZM158.7 245.698L115.8 267.698L116.4 257.498L159.2 235.498L158.7 245.698Z" fill="#A6A8CD"/>
<path d="M234 207.099L210 219.399L210.5 209.199L234.5 196.799L234 207.099Z" fill="#FFD300"/>
<path d="M87.4992 240.1L66.1992 251.1L66.6992 240.8L87.9992 229.9L87.4992 240.1Z" fill="#FFD300"/>
<path d="M188.299 188.399L137.399 214.599L137.899 204.299L188.799 178.199L188.299 188.399ZM135.399 215.599L89.7988 238.999L90.2988 228.699L135.899 205.299L135.399 215.599Z" fill="#A6A8CD"/>
<path d="M210.099 177.2L192.199 186.4L192.699 176.2L210.599 167L210.099 177.2Z" fill="#14E5F5"/>
<path d="M113.6 240.8L81.5 257.2L82 247L114.1 230.5L113.6 240.8Z" fill="#FFD300"/>
<path d="M203.2 194.8L116 239.5L116.5 229.3L203.7 184.6L203.2 194.8ZM232.7 179.7L205.4 193.7L205.9 183.4L233.2 169.5L232.7 179.7Z" fill="#A6A8CD"/>
</g>
<path d="M349.3 239.5L347.8 268.1C347.7 269.6 347.3 271.1 346.5 272.6L348 244C348.8 242.5 349.2 240.9 349.3 239.5Z" fill="#DDDFF4"/>
<mask id="mask0_110_614" style="mask-type:luminance" maskUnits="userSpaceOnUse" x="346" y="239" width="4" height="34">
<path d="M349.3 239.5L347.8 268.1C347.7 269.6 347.3 271.1 346.5 272.6L348 244C348.8 242.5 349.2 240.9 349.3 239.5Z" fill="white"/>
</mask>
<g mask="url(#mask0_110_614)">
<path d="M349.3 239.5L347.8 268.1C347.7 269.6 347.3 271.1 346.5 272.6L348 244C348.8 242.5 349.2 240.9 349.3 239.5Z" fill="#DDDFF4"/>
</g>
<path d="M328.6 244.1L327.1 272.7C327.2 271 326 269.4 323.6 267.8C320.4 265.7 316.8 264.9 312.9 265.4C309 265.9 304.5 267.4 299.5 270C297.9 270.8 296.1 271.8 294.3 272.7C292.5 273.7 290.9 274.6 289.6 275.5L291 247C292.3 246.1 293.9 245.2 295.7 244.2C297.5 243.2 299.3 242.3 300.9 241.5C305.9 238.9 310.4 237.3 314.3 236.9C318.2 236.4 321.8 237.2 325 239.3C327.5 240.8 328.7 242.4 328.6 244.1V244.1Z" fill="#DDDFF4"/>
<mask id="mask1_110_614" style="mask-type:luminance" maskUnits="userSpaceOnUse" x="289" y="236" width="40" height="40">
<path d="M328.6 244.1L327.1 272.7C327.2 271 326 269.4 323.6 267.8C320.4 265.7 316.8 264.9 312.9 265.4C309 265.9 304.5 267.4 299.5 270C297.9 270.8 296.1 271.8 294.3 272.7C292.5 273.7 290.9 274.6 289.6 275.5L291 247C292.3 246.1 293.9 245.2 295.7 244.2C297.5 243.2 299.3 242.3 300.9 241.5C305.9 238.9 310.4 237.3 314.3 236.9C318.2 236.4 321.8 237.2 325 239.3C327.5 240.8 328.7 242.4 328.6 244.1V244.1Z" fill="white"/>
</mask>
<g mask="url(#mask1_110_614)">
<path d="M328.6 244.1L327.1 272.7C327.2 271 326 269.4 323.6 267.8C320.4 265.7 316.8 264.9 312.9 265.4C309 265.9 304.5 267.4 299.5 270C297.9 270.8 296.1 271.8 294.3 272.7C292.5 273.7 290.9 274.6 289.6 275.5L291 247C292.3 246.1 293.9 245.2 295.7 244.2C297.5 243.2 299.3 242.3 300.9 241.5C305.9 238.9 310.4 237.3 314.3 236.9C318.2 236.4 321.8 237.2 325 239.3C327.5 240.8 328.7 242.4 328.6 244.1Z" fill="#D4D6EF"/>
</g>
<path d="M365.7 264.7L364.2 293.3C364.3 291.3 362.9 289.4 359.9 287.5C356.2 285.1 352.1 284.2 347.6 284.6C343.1 285.1 338.1 286.7 332.7 289.6L334.2 261C339.6 258.2 344.6 256.5 349.1 256C353.6 255.5 357.7 256.5 361.4 258.9C364.4 260.8 365.8 262.7 365.7 264.7Z" fill="#DDDFF4"/>
<mask id="mask2_110_614" style="mask-type:luminance" maskUnits="userSpaceOnUse" x="332" y="255" width="34" height="39">
<path d="M365.7 264.7L364.2 293.3C364.3 291.3 362.9 289.4 359.9 287.5C356.2 285.1 352.1 284.2 347.6 284.6C343.1 285.1 338.1 286.7 332.7 289.6L334.2 261C339.6 258.2 344.6 256.5 349.1 256C353.6 255.5 357.7 256.5 361.4 258.9C364.4 260.8 365.8 262.7 365.7 264.7Z" fill="white"/>
</mask>
<g mask="url(#mask2_110_614)">
<path d="M365.7 264.7L364.2 293.3C364.3 291.3 362.9 289.4 359.9 287.5C356.2 285.1 352.1 284.2 347.6 284.6C343.1 285.1 338.1 286.7 332.7 289.6L334.2 261C339.6 258.2 344.6 256.5 349.1 256C353.6 255.5 357.7 256.5 361.4 258.9C364.4 260.8 365.8 262.7 365.7 264.7Z" fill="#D4D6EF"/>
</g>
<path d="M391.1 263.199L389.6 291.799C389.5 292.899 389.3 293.899 388.9 294.999L390.4 266.399C390.8 265.399 391 264.299 391.1 263.199Z" fill="#DDDFF4"/>
<mask id="mask3_110_614" style="mask-type:luminance" maskUnits="userSpaceOnUse" x="388" y="263" width="4" height="32">
<path d="M391.1 263.199L389.6 291.799C389.5 292.899 389.3 293.899 388.9 294.999L390.4 266.399C390.8 265.399 391 264.299 391.1 263.199Z" fill="white"/>
</mask>
<g mask="url(#mask3_110_614)">
<path d="M391.1 263.199L389.6 291.799C389.5 292.899 389.3 293.899 388.9 294.999L390.4 266.399C390.8 265.399 391 264.299 391.1 263.199Z" fill="#DDDFF4"/>
</g>
<path d="M334.2 261L332.7 289.6L320.8 295.7L322.3 267.2L334.2 261Z" fill="#D4D6EF"/>
<path d="M337.4 298.501L335.9 327.101L258.1 276.801L259.6 248.301L337.4 298.501Z" fill="#DDDFF4"/>
<path d="M390.4 266.5L388.9 295.1C386.7 301.2 379.2 307.5 366.4 314.1C361.8 316.5 357 318.8 352.2 321C347.3 323.2 341.9 325.3 336 327.2L337.5 298.6C343.5 296.7 348.9 294.6 353.7 292.4C358.6 290.2 363.3 287.9 367.9 285.5C380.7 278.9 388.2 272.5 390.4 266.5Z" fill="#DDDFF4"/>
<mask id="mask4_110_614" style="mask-type:luminance" maskUnits="userSpaceOnUse" x="336" y="266" width="55" height="62">
<path d="M390.4 266.5L388.9 295.1C386.7 301.2 379.2 307.5 366.4 314.1C361.8 316.5 357 318.8 352.2 321C347.3 323.2 341.9 325.3 336 327.2L337.5 298.6C343.5 296.7 348.9 294.6 353.7 292.4C358.6 290.2 363.3 287.9 367.9 285.5C380.7 278.9 388.2 272.5 390.4 266.5Z" fill="white"/>
</mask>
<g mask="url(#mask4_110_614)">
<path d="M390.4 266.5L388.9 295.1C386.7 301.2 379.2 307.5 366.4 314.1C361.8 316.5 357 318.8 352.2 321C347.3 323.2 341.9 325.3 336 327.2L337.5 298.6C343.5 296.7 348.9 294.6 353.7 292.4C358.6 290.2 363.3 287.9 367.9 285.5C380.7 278.9 388.2 272.5 390.4 266.5Z" fill="#D4D6EF"/>
</g>
<path d="M390.4 266.5C388.2 272.6 380.7 278.9 367.9 285.5C363.3 287.9 358.5 290.199 353.7 292.399C348.8 294.599 343.4 296.7 337.5 298.6L259.6 248.3C262.8 245.8 266.6 243.299 270.8 240.699C275.1 238.099 279.2 235.699 283.2 233.699C288.6 230.899 293.9 228.6 299.1 226.8C304.3 224.9 309.5 223.699 314.5 223.199C319.5 222.699 324.4 222.9 329.1 223.8C333.8 224.7 338.3 226.6 342.6 229.3C349 233.4 350.8 238.4 348 244.1C355.3 242.6 361.6 242.399 366.8 243.499C372.1 244.599 376.8 246.499 381 249.199C389.5 254.599 392.6 260.4 390.4 266.5ZM347.9 278.5C349.6 277.7 351.4 276.799 353.4 275.799C359.1 272.899 362.9 270 364.9 267.2C366.9 264.4 365.7 261.7 361.6 259C357.9 256.6 353.8 255.7 349.3 256.1C344.8 256.6 339.8 258.2 334.4 261.1L322.5 267.299L343.2 280.7C344.5 280 346.2 279.2 347.9 278.5ZM308.5 258.299L317.8 253.499C323.7 250.499 327.1 247.9 328.2 245.6C329.3 243.4 328.3 241.199 325.1 239.199C321.9 237.099 318.3 236.3 314.4 236.8C310.5 237.3 306 238.799 301 241.399C299.4 242.199 297.6 243.2 295.8 244.1C294 245.1 292.4 245.999 291.1 246.899L308.5 258.299Z" fill="white"/>
<path d="M256.8 266L255.3 294.6L217.3 314.2L218.8 285.6L256.8 266ZM283.1 287.9L281.6 316.5L247.8 333.9L249.3 305.4L283.1 287.9Z" fill="#D4D6EF"/>
<path d="M264.8 337.499L263.3 366.099L183.1 314.199L184.6 285.699L264.8 337.499Z" fill="#DDDFF4"/>
<path d="M324.7 306.6L323.2 335.1L263.3 366.1L264.8 337.5L324.7 306.6Z" fill="#D4D6EF"/>
<path d="M324.7 306.599L264.8 337.499L184.6 285.699L241.6 256.199L256.8 265.999L218.8 285.599L234.5 295.799L268.3 278.399L283.1 287.899L249.3 305.399L268.7 317.899L309.5 296.799L324.7 306.599Z" fill="white"/>
<path d="M197 344.5L195.5 373.1C192.6 370 189.4 366.7 185.9 363.1C182.4 359.5 178.6 355.9 174.7 352.2C170.7 348.5 166.8 344.8 162.8 341.2C158.8 337.5 155 334 151.2 330.7L152.7 302.1C156.4 305.5 160.3 309 164.3 312.6C168.3 316.3 172.2 319.9 176.2 323.6C180.2 327.3 183.9 330.9 187.4 334.5C191 338.1 194.2 341.4 197 344.5Z" fill="#DDDFF4"/>
<mask id="mask5_110_614" style="mask-type:luminance" maskUnits="userSpaceOnUse" x="151" y="302" width="46" height="72">
<path d="M197 344.5L195.5 373.1C192.6 370 189.4 366.7 185.9 363.1C182.4 359.5 178.6 355.9 174.7 352.2C170.7 348.5 166.8 344.8 162.8 341.2C158.8 337.5 155 334 151.2 330.7L152.7 302.1C156.4 305.5 160.3 309 164.3 312.6C168.3 316.3 172.2 319.9 176.2 323.6C180.2 327.3 183.9 330.9 187.4 334.5C191 338.1 194.2 341.4 197 344.5Z" fill="white"/>
</mask>
<g mask="url(#mask5_110_614)">
<path d="M197 344.5L195.5 373.1C192.6 370 189.4 366.7 185.9 363.1C182.4 359.5 178.6 355.9 174.7 352.2C170.7 348.5 166.8 344.8 162.8 341.2C158.8 337.5 155 334 151.2 330.7L152.7 302.1C156.4 305.5 160.3 309 164.3 312.6C168.3 316.3 172.2 319.9 176.2 323.6C180.2 327.3 183.9 330.9 187.4 334.5C191 338.1 194.2 341.4 197 344.5Z" fill="#DDDFF4"/>
</g>
<path d="M213.4 364.1L211.9 392.7C201.6 389.4 191.1 385.8 180.3 381.9L147.9 370.2L149.4 341.6C160.2 345.5 171 349.5 181.8 353.3C192.6 357.1 203.2 360.7 213.4 364.1Z" fill="#DDDFF4"/>
<mask id="mask6_110_614" style="mask-type:luminance" maskUnits="userSpaceOnUse" x="147" y="341" width="67" height="52">
<path d="M213.4 364.1L211.9 392.7C201.6 389.4 191.1 385.8 180.3 381.9L147.9 370.2L149.4 341.6C160.2 345.5 171 349.5 181.8 353.3C192.6 357.1 203.2 360.7 213.4 364.1Z" fill="white"/>
</mask>
<g mask="url(#mask6_110_614)">
<path d="M213.4 364.1L211.9 392.7C201.6 389.4 191.1 385.8 180.3 381.9L147.9 370.2L149.4 341.6C160.2 345.5 171 349.5 181.8 353.3C192.6 357.1 203.2 360.7 213.4 364.1Z" fill="#DDDFF4"/>
</g>
<path d="M230.8 355.1L229.3 383.6L211.9 392.6L213.4 364.1L230.8 355.1Z" fill="#D4D6EF"/>
<path d="M150.801 368.4L149.301 397C147.001 393.8 144.401 390.5 141.501 387C138.601 383.5 135.701 380.1 132.801 376.7C129.901 373.3 127.001 370 124.101 366.9C121.301 363.8 118.701 361 116.601 358.6L118.101 330C120.301 332.5 122.801 335.2 125.601 338.3C128.401 341.4 131.301 344.7 134.301 348.1C137.201 351.5 140.101 355 143.001 358.4C145.901 361.9 148.501 365.2 150.801 368.4Z" fill="#DDDFF4"/>
<mask id="mask7_110_614" style="mask-type:luminance" maskUnits="userSpaceOnUse" x="116" y="330" width="35" height="67">
<path d="M150.801 368.4L149.301 397C147.001 393.8 144.401 390.5 141.501 387C138.601 383.5 135.701 380.1 132.801 376.7C129.901 373.3 127.001 370 124.101 366.9C121.301 363.8 118.701 361 116.601 358.6L118.101 330C120.301 332.5 122.801 335.2 125.601 338.3C128.401 341.4 131.301 344.7 134.301 348.1C137.201 351.5 140.101 355 143.001 358.4C145.901 361.9 148.501 365.2 150.801 368.4Z" fill="white"/>
</mask>
<g mask="url(#mask7_110_614)">
<path d="M150.801 368.4L149.301 397C147.001 393.8 144.401 390.5 141.501 387C138.601 383.5 135.701 380.1 132.801 376.7C129.901 373.3 127.001 370 124.101 366.9C121.301 363.8 118.701 361 116.601 358.6L118.101 330C120.301 332.5 122.801 335.2 125.601 338.3C128.401 341.4 131.301 344.7 134.301 348.1C137.201 351.5 140.101 355 143.001 358.4C145.901 361.9 148.501 365.2 150.801 368.4Z" fill="#DDDFF4"/>
</g>
<path d="M163.9 389.701L162.4 418.301C145.6 412.501 128.5 406.101 111 399.101C93.5002 392.101 76.5002 385.001 60.2002 377.801L61.7002 349.201C78.0002 356.401 94.9002 363.501 112.5 370.501C130 377.501 147.1 383.901 163.9 389.701Z" fill="#DDDFF4"/>
<mask id="mask8_110_614" style="mask-type:luminance" maskUnits="userSpaceOnUse" x="60" y="349" width="104" height="70">
<path d="M163.9 389.701L162.4 418.301C145.6 412.501 128.5 406.101 111 399.101C93.5002 392.101 76.5002 385.001 60.2002 377.801L61.7002 349.201C78.0002 356.401 94.9002 363.501 112.5 370.501C130 377.501 147.1 383.901 163.9 389.701Z" fill="white"/>
</mask>
<g mask="url(#mask8_110_614)">
<path d="M163.9 389.701L162.4 418.301C145.6 412.501 128.5 406.101 111 399.101C93.5002 392.101 76.5002 385.001 60.2002 377.801L61.7002 349.201C78.0002 356.401 94.9002 363.501 112.5 370.501C130 377.501 147.1 383.901 163.9 389.701Z" fill="#DDDFF4"/>
</g>
<path d="M181.3 380.701L179.8 409.201L162.4 418.201L163.9 389.701L181.3 380.701Z" fill="#D4D6EF"/>
<path d="M172.5 291.9C183.1 302.1 193.4 312.6 203.5 323.4C213.6 334.2 222.7 344.8 230.8 355.1L213.4 364.1C203.1 360.8 192.6 357.2 181.8 353.3L149.4 341.6C155 348.2 160.5 354.8 166.1 361.5C171.6 368.1 176.7 374.5 181.3 380.8L163.9 389.8C147.1 384 130 377.6 112.5 370.6C95.0002 363.6 78.0002 356.5 61.7002 349.3L82.3002 338.7C87.7002 341.2 93.3002 343.8 99.2002 346.5C105.1 349.2 111 351.8 117 354.5C123 357.1 128.9 359.7 134.6 362.1C140.3 364.5 145.7 366.7 150.8 368.7C148.5 365.5 145.9 362.2 143 358.7C140.1 355.2 137.2 351.8 134.3 348.4C131.4 345 128.5 341.7 125.6 338.6C122.8 335.5 120.2 332.7 118.1 330.3L134.3 321.9C138.4 323.4 143.1 325.2 148.2 327.1C153.4 329.1 158.7 331.1 164.3 333.1C169.9 335.2 175.5 337.2 181.1 339.2C186.7 341.2 192 343.1 196.9 344.8C194 341.7 190.8 338.4 187.3 334.8C183.8 331.2 180 327.6 176.1 323.9C172.1 320.2 168.2 316.5 164.2 312.9C160.2 309.3 156.4 305.7 152.6 302.4L172.5 291.9Z" fill="white"/>
<path d="M384.8 102L378.8 217.2L355.8 229.1L361.9 113.9L384.8 102Z" fill="#E60049"/>
<path d="M361.9 113.901L355.8 229.101L334 215.001L340.1 99.8008L361.9 113.901Z" fill="#FF2A6D"/>
<path d="M384.8 102L361.9 113.9L340.1 99.8L363 88L384.8 102Z" fill="#FF578C"/>
<path d="M409.7 174.9L406.4 235.1L383.4 246.9L386.7 186.8L409.7 174.9Z" fill="#3DC9D6"/>
<path d="M386.7 186.799L383.4 246.899L361.6 232.799L364.9 172.699L386.7 186.799Z" fill="#14E5F5"/>
<path d="M409.7 174.901L386.7 186.801L364.9 172.701L387.9 160.801L409.7 174.901Z" fill="#15ECFD"/>
<path d="M438.7 163.4L434 252.9L411 264.7L415.8 175.2L438.7 163.4Z" fill="#E6BF00"/>
<path d="M415.8 175.202L411 264.702L389.2 250.702L394 161.102L415.8 175.202Z" fill="#FFD300"/>
<path d="M438.7 163.401L415.8 175.201L394 161.101L416.9 149.301L438.7 163.401Z" fill="#FFF454"/>
<path d="M463.7 234.4L461.6 270.7L438.6 282.6L440.8 246.2L463.7 234.4Z" fill="#BCBFDF"/>
<path d="M440.8 246.201L438.6 282.601L416.8 268.501L419 232.201L440.8 246.201Z" fill="#DDDFF4"/>
<path d="M463.7 234.401L440.8 246.201L419 232.201L441.9 220.301L463.7 234.401Z" fill="#E9EAF5"/>
<path d="M339.7 398.299L339 411.999C339.3 406.399 335.9 400.599 328.7 395.999C314.4 386.799 290.6 385.599 275.6 393.399C268.1 397.299 264.2 402.599 263.9 408.099L264.6 394.499C264.9 388.999 268.8 383.599 276.3 379.799C291.3 371.999 315.1 373.199 329.4 382.399C336.6 386.899 340 392.699 339.7 398.299V398.299Z" fill="#BCBFDF"/>
<mask id="mask9_110_614" style="mask-type:luminance" maskUnits="userSpaceOnUse" x="263" y="374" width="77" height="38">
<path d="M339.7 398.299L339 411.999C339.3 406.399 335.9 400.599 328.7 395.999C314.4 386.799 290.6 385.599 275.6 393.399C268.1 397.299 264.2 402.599 263.9 408.099L264.6 394.499C264.9 388.999 268.8 383.599 276.3 379.799C291.3 371.999 315.1 373.199 329.4 382.399C336.6 386.899 340 392.699 339.7 398.299V398.299Z" fill="white"/>
</mask>
<g mask="url(#mask9_110_614)">
<path d="M339.701 398.3L339.001 412C339.101 409.3 338.401 406.7 336.901 404.1L337.601 390.5C339.101 393 339.801 395.7 339.701 398.3ZM337.601 390.4L336.901 404C335.201 401.1 332.501 398.4 328.701 395.9C319.201 389.8 305.501 387.2 293.001 388.4L293.701 374.8C306.201 373.6 319.901 376.1 329.401 382.3C333.201 384.7 335.901 387.5 337.601 390.4ZM293.601 374.8L292.901 388.4C286.601 389 280.601 390.6 275.501 393.2C268.001 397.1 264.101 402.4 263.801 407.9L264.501 394.3C264.801 388.8 268.701 383.4 276.201 379.6C281.301 377.1 287.301 375.5 293.601 374.8Z" fill="#BCBFDF"/>
</g>
<path d="M353.3 399.099L352.6 412.699C352.2 420.199 346.9 427.499 336.7 432.799C316.2 443.399 283.9 441.799 264.4 429.199C254.6 422.899 250 414.999 250.4 407.399L251.1 393.799C250.7 401.399 255.4 409.299 265.1 415.599C284.6 428.199 316.9 429.799 337.4 419.199C347.5 413.899 352.9 406.599 353.3 399.099Z" fill="#BCBFDF"/>
<mask id="mask10_110_614" style="mask-type:luminance" maskUnits="userSpaceOnUse" x="250" y="393" width="104" height="47">
<path d="M353.3 399.099L352.6 412.699C352.2 420.199 346.9 427.499 336.7 432.799C316.2 443.399 283.9 441.799 264.4 429.199C254.6 422.899 250 414.999 250.4 407.399L251.1 393.799C250.7 401.399 255.4 409.299 265.1 415.599C284.6 428.199 316.9 429.799 337.4 419.199C347.5 413.899 352.9 406.599 353.3 399.099Z" fill="white"/>
</mask>
<g mask="url(#mask10_110_614)">
<path d="M353.301 399.1L352.601 412.7C352.201 420.2 346.901 427.5 336.701 432.8C329.801 436.3 321.601 438.5 313.101 439.4L313.801 425.8C322.401 424.9 330.601 422.8 337.401 419.2C347.501 413.9 352.901 406.6 353.301 399.1ZM313.701 425.7L313.001 439.3C295.901 441 277.301 437.5 264.301 429.1C259.101 425.8 255.401 422 253.101 418.1L253.801 404.5C256.101 408.4 259.801 412.2 265.001 415.5C278.001 423.9 296.701 427.4 313.701 425.7Z" fill="#BCBFDF"/>
<path d="M253.9 404.499L253.2 418.099C251.1 414.599 250.2 410.899 250.4 407.299L251.1 393.699C250.8 397.299 251.8 400.999 253.9 404.499Z" fill="#BCBFDF"/>
</g>
<path d="M220.5 435.199L258.5 415.599C259.4 415.099 260.6 415.299 261.9 416.099L223.9 435.699C222.6 434.899 221.4 434.699 220.5 435.199V435.199Z" fill="#3F4361"/>
<mask id="mask11_110_614" style="mask-type:luminance" maskUnits="userSpaceOnUse" x="220" y="415" width="42" height="21">
<path d="M220.5 435.199L258.5 415.599C259.4 415.099 260.6 415.299 261.9 416.099L223.9 435.699C222.6 434.899 221.4 434.699 220.5 435.199V435.199Z" fill="white"/>
</mask>
<g mask="url(#mask11_110_614)">
<path d="M220.5 435.199L258.5 415.599C259.4 415.099 260.6 415.299 261.9 416.099L223.9 435.699C222.6 434.899 221.4 434.699 220.5 435.199Z" fill="#3F4361"/>
</g>
<path d="M264.7 427.598L226.7 447.198C227.6 446.698 228.2 445.698 228.3 444.198C228.5 441.098 226.5 437.298 223.9 435.598L261.9 415.998C264.5 417.698 266.4 421.498 266.3 424.598C266.2 426.098 265.6 427.198 264.7 427.598V427.598Z" fill="#3F4361"/>
<mask id="mask12_110_614" style="mask-type:luminance" maskUnits="userSpaceOnUse" x="223" y="415" width="44" height="33">
<path d="M264.7 427.598L226.7 447.198C227.6 446.698 228.2 445.698 228.3 444.198C228.5 441.098 226.5 437.298 223.9 435.598L261.9 415.998C264.5 417.698 266.4 421.498 266.3 424.598C266.2 426.098 265.6 427.198 264.7 427.598V427.598Z" fill="white"/>
</mask>
<g mask="url(#mask12_110_614)">
<path d="M223.9 435.698L261.9 416.098C264.5 417.798 266.4 421.598 266.3 424.698C266.2 426.198 265.6 427.298 264.7 427.698L226.7 447.298C227.6 446.798 228.2 445.798 228.3 444.298C228.5 441.198 226.5 437.398 223.9 435.698Z" fill="#3F4361"/>
</g>
<path d="M223.9 435.698C226.5 437.398 228.4 441.198 228.3 444.298C228.1 447.398 225.9 448.498 223.3 446.798C220.7 445.098 218.8 441.298 218.9 438.198C219.1 435.098 221.3 433.998 223.9 435.698Z" fill="#3F4361"/>
<path d="M183.801 447.8L238.101 419.7C239.801 418.8 242.001 419.1 244.401 420.6L190.101 448.7C187.701 447.2 185.501 446.9 183.801 447.8Z" fill="#545982"/>
<mask id="mask13_110_614" style="mask-type:luminance" maskUnits="userSpaceOnUse" x="183" y="419" width="62" height="30">
<path d="M183.801 447.8L238.101 419.7C239.801 418.8 242.001 419.1 244.401 420.6L190.101 448.7C187.701 447.2 185.501 446.9 183.801 447.8Z" fill="white"/>
</mask>
<g mask="url(#mask13_110_614)">
<path d="M183.801 447.8L238.101 419.7C239.801 418.8 242.001 419.1 244.401 420.6L190.101 448.7C187.701 447.2 185.501 446.9 183.801 447.8Z" fill="#545982"/>
</g>
<path d="M249.601 441.899L195.301 469.999C196.901 469.199 198.001 467.199 198.201 464.499C198.501 458.899 194.901 451.899 190.101 448.799L244.401 420.699C249.101 423.799 252.701 430.799 252.501 436.399C252.301 439.099 251.201 440.999 249.601 441.899V441.899Z" fill="#545982"/>
<mask id="mask14_110_614" style="mask-type:luminance" maskUnits="userSpaceOnUse" x="190" y="420" width="63" height="50">
<path d="M249.601 441.899L195.301 469.999C196.901 469.199 198.001 467.199 198.201 464.499C198.501 458.899 194.901 451.899 190.101 448.799L244.401 420.699C249.101 423.799 252.701 430.799 252.501 436.399C252.301 439.099 251.201 440.999 249.601 441.899V441.899Z" fill="white"/>
</mask>
<g mask="url(#mask14_110_614)">
<path d="M190.101 448.7L244.401 420.6C249.101 423.7 252.701 430.7 252.501 436.3C252.401 439.1 251.301 441 249.601 441.8L195.301 469.9C196.901 469.1 198.001 467.1 198.201 464.4C198.401 458.8 194.801 451.8 190.101 448.7Z" fill="#545982"/>
</g>
<path d="M190.1 448.7C194.8 451.8 198.4 458.8 198.2 464.4C197.9 470 193.8 472.1 189.1 469C184.4 465.9 180.7 458.9 181 453.3C181.3 447.7 185.3 445.6 190.1 448.7Z" fill="#3F4361"/>
<path opacity="0.5" d="M274.7 414.599C289 423.799 312.8 424.999 327.8 417.199C342.8 409.399 343.4 395.699 329.2 386.399C314.9 377.199 291.1 375.999 276.1 383.799C261 391.599 260.4 405.399 274.7 414.599Z" fill="#2B7EFD"/>
<path opacity="0.5" d="M327.8 417.198C312.8 424.998 289 423.798 274.7 414.598C268.1 410.398 264.7 405.198 264.4 399.998C265.8 401.398 267.4 402.698 269.4 403.998C283.7 413.198 307.5 414.398 322.5 406.598C330.6 402.398 334.5 396.398 334.2 390.398C343 399.298 340.8 410.498 327.8 417.198Z" fill="#2B7EFD"/>
<path d="M339.2 377.199C358.7 389.799 357.8 408.499 337.4 419.099C316.9 429.699 284.6 428.099 265.1 415.499C245.6 402.899 246.5 384.199 266.9 373.599C287.4 363.099 319.8 364.699 339.2 377.199ZM274.9 410.399C289.2 419.599 313 420.799 328 412.999C343 405.199 343.6 391.499 329.4 382.199C315.1 372.999 291.3 371.799 276.3 379.599C261.2 387.399 260.6 401.199 274.9 410.399Z" fill="#E9EAF5"/>
</svg>
