<svg width="512" height="512" viewBox="0 0 512 512" fill="none" xmlns="http://www.w3.org/2000/svg">
<path d="M224.6 431L224.5 436.9L184.2 459.4L184.4 453.5L224.6 431Z" fill="#C6CAFA"/>
<path d="M227.8 426.699L227.7 432.499C227.7 434.099 226.6 435.599 224.5 436.799L224.6 430.999C226.7 429.899 227.7 428.299 227.8 426.699Z" fill="#C6CAFA"/>
<path d="M169.2 453.3L169.1 459.1L83.4002 407.7L83.5002 401.9L169.2 453.3ZM80.3002 403.2L80.4002 397.4C80.4002 399 81.4002 400.6 83.5002 401.9L83.4002 407.7C81.3002 406.5 80.2002 404.8 80.3002 403.2Z" fill="#D4D8FC"/>
<path d="M184.4 453.499L184.3 459.299C180.1 461.699 173.3 461.499 169.1 458.999L169.2 453.199C173.3 455.799 180.1 455.899 184.4 453.499Z" fill="#CDD1FB"/>
<path d="M224.7 422.201C228.9 424.701 228.8 428.601 224.6 431.001L184.4 453.501C180.2 455.901 173.4 455.701 169.2 453.201L83.4999 401.801C79.2999 399.301 79.3999 395.401 83.5999 393.001L123.8 370.501C128 368.101 134.8 368.301 139 370.801L224.7 422.201Z" fill="#D4D8FC"/>
<path d="M224.7 422.2L217.2 417.7L161.5 448.6L169.2 453.2C173.4 455.7 180.2 455.8 184.4 453.5L224.6 431C228.8 428.7 228.8 424.7 224.7 422.2ZM139 370.9C134.8 368.4 128 368.3 123.8 370.6L83.5999 393.1C79.3999 395.5 79.2999 399.4 83.4999 401.9L86.0999 403.5L141.8 372.6L139 370.9Z" fill="#F1F1F1"/>
<path d="M217.1 417.7L161.5 448.6L103.3 413.8L95.8001 409.3L92.0001 407L86.1001 403.5L100.2 395.6L111.1 389.6L141.8 372.5L147.7 376.1L217.1 417.7Z" fill="#1587FD"/>
<path d="M147.7 376.1L92.0001 407L86.1001 403.5L100.2 395.6L111.1 389.6L141.8 372.5L147.7 376.1Z" fill="#3C49F7"/>
<path d="M117.7 386.901C116.3 387.701 115.8 388.801 116.3 389.801L116.8 389.701C116.4 388.801 116.8 387.801 118.1 387.101C119.3 386.401 121.1 386.201 122.6 386.501L122.7 386.201C121 385.901 119.1 386.101 117.7 386.901Z" fill="#F1F1F1"/>
<path d="M118.8 387.601C117.9 388.101 117.5 388.901 117.8 389.601L118.3 389.501C118 388.901 118.3 388.301 119.1 387.801C119.9 387.401 121 387.201 122 387.401L122.1 387.101C121.1 386.901 119.8 387.001 118.8 387.601Z" fill="#F1F1F1"/>
<path d="M120 388.3C119.5 388.6 119.3 389 119.5 389.4L120 389.3C119.9 389 120 388.7 120.4 388.5C120.8 388.3 121.3 388.2 121.7 388.3L121.8 388C121.2 387.9 120.5 388 120 388.3ZM121.9 389.4C121.6 389.6 121.2 389.5 120.9 389.4C120.8 389.3 120.7 389.3 120.7 389.2C120.6 389.1 120.7 388.9 120.9 388.8C121.1 388.7 121.4 388.7 121.6 388.7C121.7 388.7 121.8 388.8 121.9 388.8C122.2 389 122.2 389.3 121.9 389.4Z" fill="#F1F1F1"/>
<path d="M133 381.899L133.7 382.299L133.3 382.499L132.6 382.099L131.5 382.699L131.2 382.499L129.9 380.499L130.3 380.299L132.7 381.699L133 381.499L133.3 381.699L133 381.899ZM131.5 382.299L132.3 381.899L130.6 380.899L131.5 382.299ZM132.4 379.499L131.2 380.199L130.9 379.999L132.5 379.099L132.8 379.299L135 381.599L134.6 381.799L132.4 379.499ZM134.3 378.699L135.4 379.299C135.7 379.499 135.8 379.699 135.5 379.899C135.2 380.099 134.8 379.999 134.5 379.799L133.4 379.199C133.1 378.999 133 378.799 133.3 378.599C133.6 378.399 134 378.499 134.3 378.699ZM133.5 379.099L134.6 379.799C134.8 379.899 135 379.899 135.2 379.799C135.4 379.699 135.3 379.599 135.1 379.499L134 378.799C133.8 378.699 133.6 378.699 133.4 378.799C133.3 378.799 133.3 378.999 133.5 379.099ZM134.9 377.699L136.9 380.499L136.7 380.599L134.7 377.799L134.9 377.699ZM137.2 378.499L138.3 379.099C138.6 379.299 138.7 379.499 138.4 379.699C138.1 379.899 137.7 379.799 137.4 379.599L136.3 378.999C136 378.799 135.9 378.599 136.3 378.399C136.6 378.199 136.9 378.299 137.2 378.499ZM136.5 378.899L137.6 379.599C137.8 379.699 138 379.699 138.2 379.599C138.4 379.499 138.3 379.399 138.1 379.299L137 378.599C136.8 378.499 136.6 378.499 136.4 378.599C136.3 378.699 136.3 378.799 136.5 378.899Z" fill="#F1F1F1"/>
<path d="M141.6 379.101L137 376.301L139.7 374.801L144.3 377.601L141.6 379.101ZM137.7 376.301L141.6 378.601L143.5 377.501L139.6 375.201L137.7 376.301Z" fill="#F1F1F1"/>
<path d="M143.9 377.6L141.6 378.9L139.7 377.7L142 376.5L143.9 377.6ZM139.1 375.4L138 376L137.2 375.6L138.4 374.9L139.1 375.4Z" fill="#F1F1F1"/>
<path d="M127.8 386.399L126.6 387.099L124.3 385.699L125.5 384.999L127.8 386.399ZM129.5 385.399L128.3 386.099L125.2 384.199L126.4 383.499L129.5 385.399ZM131.3 384.399L130.1 385.099L125.4 382.299L126.6 381.699L131.3 384.399Z" fill="#F1F1F1"/>
<path d="M116.9 381.399L107 386.999C106.3 387.399 105.2 387.399 104.5 386.999C103.8 386.599 103.8 385.999 104.5 385.599L114.4 380.099C115.1 379.699 116.2 379.699 116.9 380.099C117.6 380.399 117.6 381.099 116.9 381.399ZM121.8 377.299C120.8 376.699 119.3 376.699 118.3 377.199C117.3 377.699 117.3 378.699 118.3 379.199C119.3 379.799 120.8 379.799 121.8 379.299C122.8 378.799 122.8 377.899 121.8 377.299Z" fill="#3D263D"/>
<path d="M102.881 388.494C102.887 388.107 102.31 387.784 101.593 387.772C100.875 387.76 100.288 388.064 100.281 388.45C100.275 388.837 100.851 389.16 101.569 389.172C102.287 389.184 102.874 388.88 102.881 388.494Z" fill="#3D263D"/>
<path d="M99.4001 389.799C98.9001 389.499 98.1001 389.499 97.6001 389.799C97.1001 390.099 97.1001 390.499 97.6001 390.799C98.1001 391.099 98.9001 391.099 99.4001 390.799C99.8001 390.499 99.8001 390.099 99.4001 389.799Z" fill="#3D263D"/>
<path d="M193.2 443.601C192.8 443.601 192.4 443.501 192.1 443.301L187 440.201C186.6 440.001 186.4 439.701 186.5 439.301C186.5 439.001 186.7 438.701 187.1 438.501L199 431.901C199.6 431.601 200.6 431.601 201.2 431.901L206.3 435.001C206.7 435.201 206.9 435.501 206.8 435.901C206.8 436.201 206.6 436.501 206.2 436.701L194.3 443.301C194 443.501 193.6 443.601 193.2 443.601ZM199.9 432.401C199.6 432.401 199.3 432.401 199.1 432.601L187.2 439.201C187 439.301 187 439.401 187 439.401C187 439.501 187.1 439.501 187.2 439.601L192.3 442.701C192.7 442.901 193.4 442.901 193.8 442.701L205.7 436.101C205.9 436.001 205.9 435.901 205.9 435.901C205.9 435.801 205.8 435.801 205.7 435.701L200.6 432.601C200.5 432.501 200.2 432.401 199.9 432.401Z" fill="#CDD1FB"/>
<path d="M98.3 415.6L88.5 409.8L88.6 406.5L98.4 412.3L98.3 415.6Z" fill="#BCBEDF"/>
<path d="M272.5 345.299L272.4 352.199C272.3 359.499 267.4 366.599 257.7 371.999C238.3 382.799 207 382.299 187.9 370.799C178.3 364.999 173.5 357.599 173.7 350.199L173.8 343.299C173.7 350.699 178.4 358.099 188 363.899C207.2 375.399 238.4 375.899 257.8 365.099C267.5 359.699 272.4 352.599 272.5 345.299Z" fill="#B3B3B3"/>
<mask id="mask0_110_805" style="mask-type:luminance" maskUnits="userSpaceOnUse" x="173" y="343" width="100" height="37">
<path d="M272.5 345.299L272.4 352.199C272.3 359.499 267.4 366.599 257.7 371.999C238.3 382.799 207 382.299 187.9 370.799C178.3 364.999 173.5 357.599 173.7 350.199L173.8 343.299C173.7 350.699 178.4 358.099 188 363.899C207.2 375.399 238.4 375.899 257.8 365.099C267.5 359.699 272.4 352.599 272.5 345.299Z" fill="white"/>
</mask>
<g mask="url(#mask0_110_805)">
<path d="M272.5 345.299L272.4 352.199C272.3 355.999 270.9 359.799 268.3 363.299L268.4 356.399C271.1 352.899 272.4 349.099 272.5 345.299ZM268.4 356.399L268.3 363.299C265.9 366.499 262.3 369.499 257.8 371.999C248.3 377.299 236 379.899 223.6 379.799L223.7 372.899C236.1 372.999 248.4 370.399 257.9 365.099C262.4 362.599 266 359.599 268.4 356.399ZM223.6 372.899L223.5 379.799C210.6 379.699 197.7 376.699 187.9 370.799C178.3 364.999 173.5 357.599 173.7 350.199L173.8 343.299C173.7 350.699 178.4 358.099 188 363.899C197.8 369.799 210.7 372.799 223.6 372.899Z" fill="#B3B3B3"/>
</g>
<path d="M258.3 324.699C277.5 336.199 277.3 354.299 257.9 365.099C238.5 375.899 207.2 375.399 188.1 363.899C168.9 352.399 169.1 334.299 188.5 323.499C207.9 312.699 239.1 313.199 258.3 324.699Z" fill="#B3B3B3"/>
<mask id="mask1_110_805" style="mask-type:luminance" maskUnits="userSpaceOnUse" x="173" y="339" width="100" height="37">
<path d="M272.6 341.199L272.5 348.099C272.4 355.399 267.5 362.499 257.8 367.899C238.4 378.699 207.1 378.199 188 366.699C178.4 360.899 173.6 353.499 173.8 346.099L173.9 339.199C173.8 346.599 178.5 353.999 188.1 359.799C207.3 371.299 238.5 371.799 257.9 360.999C267.6 355.699 272.4 348.499 272.6 341.199Z" fill="white"/>
</mask>
<g mask="url(#mask1_110_805)">
<path d="M272.6 341.199L272.5 348.099C272.4 351.899 271 355.699 268.4 359.199L268.5 352.299C271.1 348.799 272.5 344.999 272.6 341.199Z" fill="#D4D6EF"/>
<path d="M268.5 352.299L268.4 359.199C266 362.399 262.4 365.399 257.9 367.899C248.4 373.199 236.1 375.799 223.7 375.699L223.8 368.799C236.2 368.899 248.5 366.299 258 360.999C262.5 358.499 266 355.499 268.5 352.299ZM223.7 368.799L223.6 375.699C210.7 375.599 197.8 372.599 188 366.699C178.4 360.899 173.6 353.499 173.8 346.099L173.9 339.199C173.8 346.599 178.5 353.999 188.1 359.799C197.9 365.699 210.8 368.799 223.7 368.799Z" fill="#D4D6EF"/>
</g>
<path d="M258.4 320.6C277.6 332.1 277.4 350.2 258 361C238.6 371.8 207.3 371.3 188.2 359.8C169 348.3 169.2 330.2 188.6 319.4C207.9 308.6 239.2 309.1 258.4 320.6Z" fill="#E9EAF5"/>
<path d="M198.4 349.3L186.6 342.2L202.7 259L214.5 266.1L198.4 349.3Z" fill="#B3B3B3"/>
<path d="M214.5 266.1L202.7 259L245 235.6L256.8 242.7L214.5 266.1Z" fill="#B3B3B3"/>
<path d="M256.799 242.699L240.699 325.899L198.399 349.299L214.499 266.099L256.799 242.699Z" fill="#B3B3B3"/>
<path d="M334 40.1993L342 44.9993C340.3 43.9993 338 44.0993 335.4 45.4993L327.4 40.6993C330 39.2993 332.3 39.1993 334 40.1993Z" fill="#C6CAFA"/>
<mask id="mask2_110_805" style="mask-type:luminance" maskUnits="userSpaceOnUse" x="327" y="39" width="15" height="7">
<path d="M334 40.1993L342 44.9993C340.3 43.9993 338 44.0993 335.4 45.4993L327.4 40.6993C330 39.2993 332.3 39.1993 334 40.1993Z" fill="white"/>
</mask>
<g mask="url(#mask2_110_805)">
<path d="M335.4 45.5986L327.4 40.7986C330 39.2986 332.4 39.1986 334 40.2986L342 45.0986C340.3 43.9986 338 44.0986 335.4 45.5986Z" fill="#C6CAFA"/>
</g>
<path d="M101.4 357.3L93.3998 352.5C91.6998 351.5 90.6998 349.4 90.7998 346.5L98.7998 351.3C98.6998 354.2 99.6998 356.3 101.4 357.3Z" fill="#C6CAFA"/>
<mask id="mask3_110_805" style="mask-type:luminance" maskUnits="userSpaceOnUse" x="90" y="346" width="12" height="12">
<path d="M101.4 357.3L93.3998 352.5C91.6998 351.5 90.6998 349.4 90.7998 346.5L98.7998 351.3C98.6998 354.2 99.6998 356.3 101.4 357.3Z" fill="white"/>
</mask>
<g mask="url(#mask3_110_805)">
<path d="M101.4 357.3L93.3998 352.5C91.6998 351.5 90.6998 349.4 90.7998 346.5L98.7998 351.3C98.6998 354.2 99.6998 356.3 101.4 357.3Z" fill="#C6CAFA"/>
</g>
<path d="M98.7998 351.3L90.7998 346.5L92.9998 181.5L101 186.3L98.7998 351.3Z" fill="#C6CAFA"/>
<path d="M110.6 170.399L102.6 165.599L327.4 40.6992L335.4 45.5992L110.6 170.399Z" fill="#C6CAFA"/>
<path d="M101 186.3L93 181.5C93.1 175.6 97.3 168.5 102.5 165.6L110.5 170.4C105.4 173.3 101.1 180.4 101 186.3Z" fill="#C6CAFA"/>
<mask id="mask4_110_805" style="mask-type:luminance" maskUnits="userSpaceOnUse" x="93" y="165" width="18" height="22">
<path d="M101 186.3L93 181.5C93.1 175.6 97.3 168.5 102.5 165.6L110.5 170.4C105.4 173.3 101.1 180.4 101 186.3Z" fill="white"/>
</mask>
<g mask="url(#mask4_110_805)">
<path d="M101 186.3L93 181.5C93.1 175.6 97.3 168.5 102.5 165.6L110.5 170.4C105.4 173.3 101.1 180.4 101 186.3Z" fill="#C6CAFA"/>
</g>
<path d="M335.4 45.5987C340.6 42.6987 344.7 45.1987 344.6 51.0987L342.3 216.099C342.2 221.999 338 229.099 332.8 231.999L108 356.799C102.8 359.699 98.6996 357.199 98.7996 351.299L101.1 186.299C101.2 180.399 105.4 173.299 110.6 170.399L335.4 45.5987Z" fill="#E9EAF5"/>
<path d="M103.9 340.099L103.7 351.399C103.7 352.299 103.8 352.799 103.9 352.999C104.1 352.999 104.7 352.899 105.5 352.399L330.3 227.499C334 225.499 337.2 219.999 337.3 215.899L337.4 210.299L103.9 340.099Z" fill="#E9EAF5"/>
<path d="M337.5 210.299L103.9 340.099L104 336.399L106.1 186.399C106.2 182.199 109.4 176.799 113.1 174.799L336.1 50.7988L337.8 49.8988C338.7 49.3988 339.2 49.2988 339.4 49.2988C339.5 49.4988 339.6 49.9988 339.6 50.8988L337.5 210.299Z" fill="#BCBEDF"/>
<path d="M333.9 208.598L118.9 328.098L104 336.398L104.5 299.498L105.1 257.298L105.6 222.398L106.1 186.398C106.2 182.198 109.4 176.798 113.1 174.798L149.2 154.798L192.6 130.698L237.2 105.898L303.4 69.0984L336.2 50.8984L333.9 208.598Z" fill="#1587FD"/>
<g opacity="0.3">
<path d="M192.5 130.6L105 257.3L105.5 222.3L149.1 154.7L192.5 130.6Z" fill="#05D9E8"/>
</g>
<g opacity="0.3">
<path d="M303.3 69.0996L118.9 328.1L104 336.4L104.5 299.5L237.1 105.8L303.3 69.0996Z" fill="#1587FD"/>
</g>
<path d="M416.9 335.301L416.6 350.801L360 382.401L360.3 366.901L416.9 335.301Z" fill="#E60049"/>
<path d="M360.3 366.9L360 382.4L282.8 392.3L283.1 376.7L360.3 366.9Z" fill="#963028"/>
<mask id="mask5_110_805" style="mask-type:luminance" maskUnits="userSpaceOnUse" x="280" y="365" width="4" height="28">
<path d="M280.5 380.9L280.8 365.4C280.7 369.2 281.5 373 283.1 376.8L282.8 392.3C281.2 388.4 280.4 384.6 280.5 380.9Z" fill="white"/>
</mask>
<g mask="url(#mask5_110_805)">
<path d="M283.1 376.701L282.8 392.201C281.2 388.401 280.5 384.501 280.5 380.801L280.8 365.301C280.7 369.101 281.5 372.901 283.1 376.701Z" fill="#E60049"/>
</g>
<path d="M416.9 335.301L360.3 366.901L283.1 376.801C272.8 352.001 298.9 327.401 341.6 321.901C369.2 318.401 396.9 323.301 416.9 335.301Z" fill="#FF2A6D"/>
<path d="M360.3 366.9L315.4 404.3C310.7 402.4 306.6 400.3 302.8 398.1C293 392.2 286.5 385.2 283 376.7L360.3 366.9Z" fill="#E9EAF5"/>
<path d="M360.3 366.9L360 382.4L315.1 419.9L315.4 404.3L360.3 366.9Z" fill="#84858D"/>
<mask id="mask6_110_805" style="mask-type:luminance" maskUnits="userSpaceOnUse" x="282" y="376" width="34" height="44">
<path d="M315.4 404.299L315.1 419.799C310.4 417.899 306.3 415.799 302.5 413.599C292.7 407.699 286.2 400.699 282.7 392.199L283 376.699C286.5 385.199 293 392.199 302.8 398.099C306.6 400.399 310.8 402.399 315.4 404.299Z" fill="white"/>
</mask>
<g mask="url(#mask6_110_805)">
<path d="M315.4 404.299L315.1 419.799C310.4 417.899 306.3 415.799 302.5 413.599C292.7 407.699 286.2 400.699 282.7 392.199L283 376.699C286.5 385.199 293 392.199 302.8 398.099C306.6 400.399 310.8 402.399 315.4 404.299Z" fill="#D4D6EF"/>
</g>
<mask id="mask7_110_805" style="mask-type:luminance" maskUnits="userSpaceOnUse" x="315" y="382" width="121" height="47">
<path d="M435.7 382.4L435.4 397.9C421.6 421.9 376.6 434.4 334.9 425.8C327.6 424.3 321.5 422.5 315.1 419.9L315.4 404.4C321.8 407 327.9 408.8 335.2 410.3C376.9 418.8 421.9 406.3 435.7 382.4Z" fill="white"/>
</mask>
<g mask="url(#mask7_110_805)">
<path d="M435.7 382.4L435.4 397.9C421.6 421.9 376.6 434.4 334.9 425.8C327.6 424.3 321.5 422.5 315.1 419.9L315.4 404.4C321.8 407 327.9 408.8 335.2 410.3C376.9 418.8 421.9 406.3 435.7 382.4Z" fill="#E6BF00"/>
</g>
<path d="M435.7 382.4C421.9 406.4 376.9 418.9 335.2 410.3C327.9 408.8 321.8 407 315.4 404.4L360.3 367L435.7 382.4Z" fill="#FFD300"/>
<mask id="mask8_110_805" style="mask-type:luminance" maskUnits="userSpaceOnUse" x="459" y="346" width="5" height="30">
<path d="M463.6 346L463.3 361.5C463.2 366.3 461.8 371.2 459 376L459.3 360.5C462.1 355.7 463.5 350.8 463.6 346Z" fill="white"/>
</mask>
<g mask="url(#mask8_110_805)">
<path d="M463.6 346L463.3 361.5C463.2 366.3 461.8 371.2 459 376L459.3 360.5C462.1 355.7 463.5 350.8 463.6 346Z" fill="#1541D6"/>
</g>
<path d="M459.3 360.6L459 376.1L383.6 360.6L383.9 345.1L459.3 360.6Z" fill="#144AFC"/>
<path d="M440.4 313.5C462.1 326.5 469 343.7 459.3 360.6L383.9 345.1L440.4 313.5Z" fill="#1365FD"/>
<path d="M128.5 318.1L124.2 315.5L125.9 185.4L130.3 188L128.5 318.1Z" fill="#BCBEDF"/>
<path d="M130.3 188L125.9 185.4L316.8 79.4004L321.2 82.0004L130.3 188Z" fill="white"/>
<path d="M321.2 82L319.4 212L128.5 318.1L130.3 188L321.2 82Z" fill="#E9EAF5"/>
<g opacity="0.4">
<path d="M135.2 309.901L137.2 191.001H137.3L317.1 91.2012L315 210.001H314.9L135.2 309.901ZM137.3 191.101L135.3 309.501L314.7 209.901L316.7 91.5012L137.3 191.101Z" fill="#3D263D"/>
<path d="M137 210.902L136.9 210.702L316.4 111.002L316.6 111.202L137 210.902ZM136.6 230.702L136.5 230.502L316.1 130.702L316.2 130.902L136.6 230.702ZM136.3 250.502L136.2 250.302L315.8 150.502L315.9 150.702L136.3 250.502ZM135.7 269.802L315.5 170.402L315.6 170.602L135.8 270.002L135.7 269.802ZM135.7 290.002L135.5 289.802L315.1 190.002L315.2 190.202L135.7 290.002Z" fill="#3D263D"/>
<path d="M296.8 219.901L298.8 101.301H299L297 219.901H296.8ZM278.8 229.901L280.8 111.301H281L279 229.901H278.8ZM260.9 239.801L262.9 121.201H263.1L261.1 239.801H260.9ZM242.9 249.801L244.9 131.201H245.1L243.1 249.801H242.9ZM225 259.801L227 141.201H227.2L225.2 259.801H225ZM207 269.701L209 151.101H209.2L207.2 269.701H207ZM189 279.801L191 161.201H191.2L189.2 279.801H189ZM171.1 289.701L173.1 171.101H173.3L171.3 289.701H171.1ZM153.2 299.701L155.2 181.101H155.4L153.4 299.701H153.2Z" fill="#3D263D"/>
</g>
<path d="M153.2 299.701L135.3 309.701L136.2 255.001L154.1 245.101L153.2 299.701ZM180.2 284.701L162.2 294.701L162.5 277.701L180.5 267.701L180.2 284.701ZM287.9 224.901L270 234.901L271.4 146.201L289.4 136.201L287.9 224.901ZM234 254.801L216.1 264.801L216.8 224.501L234.7 214.501L234 254.801ZM314.9 209.901L296.9 219.901L297.5 186.301L315.4 176.401L314.9 209.901ZM207.1 269.801L189.1 279.701L190.9 175.001L208.8 165.001L207.1 269.801ZM261 239.801L243 249.801L244.1 182.701L262.1 172.701L261 239.801Z" fill="#A6A7CD"/>
<path d="M198.3 219.399L193.9 216.799L194.6 165.199L199 167.799L198.3 219.399Z" fill="#BCBEDF"/>
<path d="M199 167.8L194.6 165.2L385.5 59.0996L389.9 61.7996L199 167.8Z" fill="white"/>
<path d="M389.9 61.7988L389.1 113.399L198.3 219.399L199 167.799L389.9 61.7988Z" fill="#EEEFF8"/>
<path d="M215.4 175.9C215.7 176.4 216 177 216.4 177.7C216.8 178.4 217.2 179.2 217.6 180.1C218 181 218.4 181.8 218.8 182.8C219.2 183.7 219.6 184.6 220 185.4C220.4 184.2 220.8 182.9 221.3 181.5C221.7 180.1 222.2 178.7 222.7 177.4C223.2 176.1 223.6 174.8 224 173.6C224.4 172.4 224.8 171.4 225.1 170.6L228.7 168.6C228.8 169.9 229 171.3 229.1 172.9C229.2 174.5 229.3 176.2 229.4 177.9C229.5 179.6 229.6 181.4 229.6 183.2C229.7 185 229.7 186.6 229.8 188.2L225.9 190.4C225.9 188.5 225.8 186.3 225.8 184.1C225.8 181.8 225.7 179.5 225.5 177.3C225.2 178.3 224.8 179.4 224.4 180.6L223.2 184.2C222.8 185.4 222.4 186.6 222.1 187.7C221.7 188.8 221.4 189.7 221.2 190.5L218.4 192.1C218.2 191.6 217.9 191 217.6 190.3C217.3 189.6 216.9 188.8 216.6 188C216.2 187.2 215.9 186.4 215.5 185.6C215.1 184.8 214.8 184.1 214.5 183.4C214.3 185.9 214.1 188.3 214 190.6C213.9 193 213.8 195.2 213.7 197.2L209.8 199.4C209.9 197.8 210 196 210.1 194.1C210.2 192.2 210.4 190.4 210.5 188.5C210.6 186.6 210.8 184.8 211 183.1C211.2 181.3 211.4 179.8 211.5 178.3L215.4 175.9ZM250.4 166.5C250.4 168.2 250.1 169.9 249.6 171.5C249.1 173.1 248.5 174.5 247.7 175.8C246.9 177.1 246 178.3 244.9 179.4C243.8 180.5 242.6 181.3 241.4 182C240.2 182.7 239 183.1 238 183.2C236.9 183.3 236 183.2 235.2 182.8C234.4 182.4 233.8 181.6 233.4 180.5C233 179.4 232.8 178 232.8 176.3C232.8 174.6 233.1 172.9 233.6 171.3C234.1 169.7 234.8 168.2 235.6 166.9C236.4 165.6 237.4 164.4 238.5 163.3C239.6 162.3 240.7 161.4 241.9 160.8C243.1 160.1 244.3 159.7 245.3 159.6C246.4 159.5 247.3 159.6 248.1 160.1C248.9 160.6 249.5 161.3 249.9 162.4C250.2 163.4 250.4 164.8 250.4 166.5ZM236.8 174C236.8 175 236.9 175.8 237.1 176.5C237.3 177.2 237.6 177.7 238 178.1C238.4 178.5 238.9 178.6 239.5 178.6C240.1 178.6 240.7 178.4 241.5 178C242.2 177.6 242.9 177.1 243.5 176.4C244.1 175.8 244.6 175 245 174.2C245.4 173.4 245.7 172.5 246 171.6C246.2 170.7 246.3 169.7 246.4 168.7C246.4 167.7 246.3 166.9 246.1 166.2C245.9 165.5 245.6 165 245.2 164.6C244.8 164.2 244.3 164.1 243.7 164.1C243.1 164.1 242.5 164.3 241.7 164.7C240.9 165.1 240.3 165.6 239.7 166.3C239.1 166.9 238.6 167.7 238.2 168.5C237.8 169.3 237.5 170.2 237.2 171.1C237 172.1 236.8 173.1 236.8 174ZM265.4 168.2C264.3 166.5 263.1 164.9 261.8 163.4C260.5 161.9 259.1 160.5 257.7 159.3L257.5 172.6L253.6 174.8L253.9 154.5L257.2 152.7C257.8 153 258.4 153.5 259 154C259.7 154.6 260.3 155.2 261 155.8L263.1 157.9C263.8 158.7 264.4 159.4 265 160.1L265.2 148.1L269.2 145.9L268.9 166.2L265.4 168.2ZM273.2 143.8L277.2 141.6L276.9 161.9L272.9 164.1L273.2 143.8ZM294.5 131.9L294.4 135.8L289 138.8L288.7 155.2L284.7 157.4L285 141L279.6 144L279.7 140.1L294.5 131.9ZM313.2 131.6C313.2 133.3 312.9 135 312.4 136.6C311.9 138.2 311.3 139.6 310.5 140.9C309.7 142.2 308.8 143.4 307.7 144.5C306.6 145.6 305.4 146.4 304.2 147.1C303 147.8 301.8 148.2 300.8 148.3C299.7 148.4 298.8 148.3 298 147.9C297.2 147.5 296.6 146.7 296.2 145.6C295.8 144.5 295.6 143.1 295.6 141.4C295.6 139.7 295.9 138 296.4 136.4C296.9 134.8 297.6 133.3 298.4 132C299.2 130.7 300.2 129.5 301.3 128.4C302.4 127.4 303.5 126.5 304.7 125.9C305.9 125.2 307.1 124.8 308.1 124.7C309.2 124.6 310.1 124.7 310.9 125.2C311.7 125.7 312.3 126.4 312.7 127.5C313 128.5 313.2 129.9 313.2 131.6ZM299.7 139.1C299.7 140.1 299.8 140.9 300 141.6C300.2 142.3 300.5 142.8 300.9 143.2C301.3 143.6 301.8 143.7 302.4 143.7C303 143.7 303.6 143.5 304.4 143.1C305.1 142.7 305.8 142.2 306.4 141.5C307 140.9 307.5 140.1 307.9 139.3C308.3 138.5 308.6 137.6 308.9 136.7C309.1 135.8 309.2 134.8 309.3 133.8C309.3 132.8 309.2 132 309 131.3C308.8 130.6 308.5 130.1 308.1 129.7C307.7 129.3 307.2 129.2 306.6 129.2C306 129.2 305.4 129.4 304.6 129.8C303.8 130.2 303.2 130.7 302.6 131.4C302 132 301.5 132.8 301.1 133.6C300.7 134.4 300.4 135.3 300.1 136.2C299.8 137.2 299.7 138.1 299.7 139.1ZM321.9 116.5C324.6 115 326.6 114.4 328 114.7C329.4 115 330.1 116.3 330 118.6C330 120 329.7 121.3 329.1 122.5C328.5 123.7 327.7 124.9 326.6 126C327 126.3 327.3 126.7 327.7 127.1C328.1 127.5 328.5 128 328.8 128.5C329.2 129 329.5 129.5 329.9 130.1C330.2 130.7 330.6 131.2 330.9 131.8L326.4 134.3C326.1 133.8 325.8 133.3 325.4 132.8C325 132.3 324.7 131.8 324.4 131.4C324.1 131 323.7 130.5 323.4 130.1C323.1 129.7 322.7 129.4 322.4 129.1L320.4 130.2L320.3 137.6L316.3 139.8L316.6 119.8C317.5 119.1 318.4 118.5 319.3 117.9C320.4 117.4 321.2 116.9 321.9 116.5ZM322.1 120.2C321.8 120.4 321.5 120.5 321.3 120.7C321.1 120.8 320.9 121 320.6 121.1L320.5 126.6L321.6 126C323.1 125.2 324.2 124.4 324.8 123.6C325.5 122.8 325.8 121.9 325.8 120.9C325.8 119.9 325.5 119.4 324.8 119.3C324.3 119.2 323.4 119.5 322.1 120.2ZM333.8 110.1L337.8 107.9L337.5 128.2L333.5 130.4L333.8 110.1ZM353.5 119.3C352.4 117.6 351.2 116 349.9 114.5C348.6 113 347.2 111.6 345.8 110.4L345.6 123.7L341.7 125.9L342 105.6L345.3 103.8C345.9 104.1 346.5 104.6 347.1 105.1C347.8 105.7 348.4 106.3 349.1 106.9L351.2 109C351.9 109.7 352.5 110.5 353.1 111.2L353.3 99.1996L357.3 96.9996L357 117.3L353.5 119.3ZM369.9 93.5996C368 94.5996 366.7 95.9996 365.8 97.5996C365 99.1996 364.5 101.1 364.5 103.1C364.5 104.1 364.6 104.9 364.8 105.6C365 106.3 365.3 106.8 365.7 107.2C366.1 107.6 366.6 107.7 367.2 107.7C367.8 107.7 368.5 107.4 369.3 107C369.7 106.8 370.1 106.5 370.4 106.3C370.7 106.1 371 105.9 371.2 105.7L371.3 98.5996L375.3 96.3996L375.1 106.5C374.6 107 373.8 107.6 372.8 108.5C371.7 109.3 370.4 110.2 368.9 111C367.6 111.7 366.4 112.2 365.3 112.3C364.2 112.4 363.3 112.3 362.6 111.8C361.8 111.3 361.3 110.6 360.9 109.5C360.5 108.4 360.3 107 360.3 105.4C360.3 103.7 360.6 102.1 361.1 100.5C361.6 98.8996 362.2 97.4996 363.1 96.0996C363.9 94.6996 364.9 93.4996 366 92.4996C367.1 91.3996 368.3 90.5996 369.5 89.8996C370.3 89.3996 371.1 89.0996 371.8 88.7996C372.5 88.5996 373.1 88.3996 373.5 88.2996C374 88.1996 374.4 88.0996 374.7 88.0996H375.4L374.2 92.3996C373.7 92.3996 373 92.3996 372.3 92.5996C371.5 92.7996 370.7 93.0996 369.9 93.5996Z" fill="#7B7C9F"/>
<path d="M74.5002 317.4L70.2002 314.8L70.7002 276.5L75.0002 279.1L74.5002 317.4Z" fill="#BCBEDF"/>
<path d="M75.0002 279.101L70.7002 276.501L168.2 222.301L172.6 225.001L75.0002 279.101Z" fill="white"/>
<path d="M172.6 225L172.1 263.3L74.5 317.4L75 279.1L172.6 225Z" fill="#EEEFF8"/>
<path d="M94.2002 278.9L94.1002 281.9L89.9002 284.2L89.8002 297L86.7002 298.7L86.9002 286L82.7002 288.3L82.8002 285.3L94.2002 278.9ZM100.2 275.4C102.3 274.3 103.8 273.8 104.9 274C106 274.2 106.5 275.2 106.5 277C106.5 278.1 106.2 279.1 105.8 280.1C105.3 281 104.7 281.9 103.9 282.8C104.2 283 104.5 283.3 104.8 283.7C105.1 284 105.4 284.4 105.7 284.8C106 285.2 106.3 285.6 106.5 286C106.8 286.4 107 286.9 107.2 287.3L103.7 289.2C103.5 288.8 103.2 288.4 103 288.1C102.7 287.7 102.5 287.3 102.2 287C101.9 286.7 101.7 286.3 101.4 286C101.1 285.7 100.9 285.4 100.6 285.2L99.1002 286.1L99.0002 291.9L95.9002 293.6L96.2002 278.1L98.3002 276.6C99.0002 276.1 99.6002 275.7 100.2 275.4ZM100.3 278.3C100.1 278.4 99.9002 278.5 99.7002 278.7C99.5002 278.8 99.4002 278.9 99.2002 279L99.1002 283.3L100 282.8C101.2 282.2 102 281.5 102.5 280.9C103 280.3 103.3 279.6 103.3 278.8C103.3 278 103.1 277.6 102.6 277.6C102.1 277.5 101.3 277.8 100.3 278.3ZM119 280.7C118.9 280.2 118.7 279.8 118.5 279.3C118.3 278.8 118.2 278.3 118 277.9L112.6 280.9C112.4 281.6 112.2 282.2 112 282.9C111.8 283.6 111.6 284.2 111.5 284.9L108.3 286.7C108.8 284.7 109.4 282.9 109.9 281.2C110.4 279.5 110.9 277.9 111.3 276.4C111.8 274.9 112.2 273.4 112.7 272C113.2 270.6 113.6 269.2 114.1 267.9L117 266.3C117.4 267.1 117.9 268 118.3 268.9C118.7 269.8 119.1 270.8 119.6 271.8C120 272.8 120.5 273.9 120.9 275.1C121.3 276.3 121.8 277.6 122.3 279L119 280.7ZM115.5 270.6C115.4 270.9 115.3 271.2 115.2 271.7C115.1 272.2 114.9 272.7 114.7 273.3C114.5 273.9 114.3 274.6 114.1 275.3C113.9 276 113.7 276.8 113.4 277.6L117.3 275.4C117.1 274.8 116.9 274.3 116.7 273.8C116.5 273.3 116.3 272.8 116.2 272.4C116 272 115.9 271.6 115.8 271.3C115.7 271 115.6 270.8 115.5 270.6ZM124.1 277.9L124.4 262.1L133.6 257V260L127.5 263.4L127.4 266.7L132.9 263.7V266.7L127.4 269.7L127.3 276.2L124.1 277.9ZM135.6 271.6L135.9 255.8L145.1 250.7V253.7L139 257.1L138.9 260.4L144.4 257.4V260.4L138.9 263.4L138.8 269.9L135.6 271.6ZM147.2 249.5L150.3 247.8L150 263.6L146.9 265.3L147.2 249.5ZM159.6 258.6C157.4 259.8 155.7 260.1 154.5 259.3C153.3 258.5 152.8 256.8 152.8 254.2C152.8 252.9 153 251.6 153.4 250.4C153.8 249.2 154.3 248 154.9 247C155.5 245.9 156.3 245 157.2 244.2C158.1 243.4 159 242.7 160 242.1C160.6 241.8 161.1 241.5 161.6 241.4C162.1 241.2 162.5 241.1 162.8 241C163.2 240.9 163.5 240.9 163.7 240.9H164.2L163.3 244.3C162.9 244.3 162.4 244.3 161.8 244.5C161.2 244.6 160.6 244.9 159.9 245.3C159.4 245.6 159 245.9 158.5 246.4C158 246.8 157.6 247.4 157.3 248C156.9 248.6 156.7 249.3 156.4 250C156.2 250.8 156.1 251.6 156 252.5C156 253.2 156 253.9 156.2 254.4C156.3 255 156.5 255.4 156.9 255.7C157.2 256 157.6 256.1 158.1 256.1C158.6 256.1 159.2 255.9 159.9 255.5C160.4 255.2 160.8 255 161.1 254.7C161.5 254.4 161.8 254.2 162.1 254C162.4 253.8 162.6 253.5 162.8 253.3L163.4 252.7L164.2 255.1C163.8 255.6 163.1 256.3 162.3 256.9C161.5 257.3 160.6 258 159.6 258.6Z" fill="#7B7C9F"/>
<path d="M92.9002 340C92.5002 340 92.1002 339.8 91.7002 339.5C91.0002 338.8 90.9002 337.7 91.6002 337L154.7 267.8C155.4 267.1 156.5 267 157.2 267.7C157.9 268.4 158 269.5 157.3 270.2L94.2002 339.4C93.9002 339.8 93.4002 340 92.9002 340Z" fill="#FF2A6D"/>
<path d="M205.6 274.701H205.5L155.9 270.801C154.9 270.701 154.2 269.901 154.3 268.901C154.4 267.901 155.2 267.201 156.2 267.301L205.8 271.201C206.8 271.301 207.5 272.101 207.4 273.101C207.3 274.001 206.5 274.701 205.6 274.701Z" fill="#FF2A6D"/>
<path d="M205.6 274.699C205.3 274.699 204.9 274.599 204.6 274.399C203.8 273.799 203.6 272.699 204.1 271.899L246.3 210.099C246.9 209.299 248 209.099 248.8 209.599C249.6 210.199 249.8 211.299 249.3 212.099L207.1 273.899C206.8 274.399 206.2 274.699 205.6 274.699Z" fill="#FF2A6D"/>
<path d="M247.8 212.899C247.3 212.899 246.8 212.699 246.4 212.199C245.8 211.399 245.9 210.299 246.7 209.699L317.7 154.499C318.5 153.899 319.6 153.999 320.2 154.799C320.8 155.599 320.7 156.699 319.9 157.299L248.9 212.499C248.6 212.799 248.2 212.899 247.8 212.899Z" fill="#FF2A6D"/>
<path d="M318.8 157.7C318.6 157.7 318.4 157.7 318.1 157.6C317.2 157.2 316.8 156.2 317.2 155.3L343.6 92.6C344 91.7 345 91.3 345.9 91.7C346.8 92.1 347.2 93.1 346.8 94L320.4 156.7C320.1 157.3 319.5 157.7 318.8 157.7Z" fill="#FF2A6D"/>
<path d="M88.4002 332.3L88.2002 345L99.3002 338.8L99.5002 326.1L88.4002 332.3ZM151.6 265.8L151.4 278.5L162.5 272.4L162.7 259.6L151.6 265.8ZM200.2 268.1L200 280.8L211.1 274.7L211.3 262L200.2 268.1ZM246.8 203.1L246.6 215.8L257.7 209.6L257.9 196.9L246.8 203.1ZM317.1 163L328.3 156.8L328.5 144.1L317.4 150.3L317.1 163ZM343.2 85.1996L343 97.8996L354.1 91.7996L354.3 79.0996L343.2 85.1996Z" fill="#E60049"/>
<path opacity="0.5" d="M192.2 426.7L167.5 440.6L150.6 430.4V427L175.2 416.5L192.2 426.7ZM172.3 414.7L147.6 428.6L130.7 418.4V415.1L155.4 404.6L172.3 414.7Z" fill="#BCBEDF"/>
<path opacity="0.5" d="M152.5 403.001L127.8 416.901L110.9 406.701V403.301L135.5 392.801L152.5 403.001Z" fill="#BCBEDF"/>
<path d="M144.1 322.4L142.5 403.8L126.6 412.6L128.2 331.3L144.1 322.4Z" fill="#E60049"/>
<path d="M128.2 331.3L126.6 412.6L110.9 403.2L112.5 321.9L128.2 331.3Z" fill="#FF2A6D"/>
<path d="M144.1 322.4L128.2 331.3L112.5 321.9L128.4 313L144.1 322.4Z" fill="#FF578C"/>
<path d="M163.3 373.201L162.4 415.701L146.5 424.601L147.4 382.101L163.3 373.201Z" fill="#BCBEDF"/>
<path d="M147.4 382.101L146.5 424.601L130.8 415.201L131.7 372.701L147.4 382.101Z" fill="#DDDEF4"/>
<path d="M163.3 373.201L147.4 382.101L131.7 372.701L147.6 363.801L163.3 373.201Z" fill="#E9EAF5"/>
<path d="M183.5 364.4L182.2 427.6L166.4 436.5L167.6 373.3L183.5 364.4Z" fill="#E6BF00"/>
<path d="M167.6 373.3L166.4 436.5L150.7 427.1L151.9 363.9L167.6 373.3Z" fill="#E6BF00"/>
<path d="M183.5 364.4L167.6 373.3L151.9 363.9L167.8 355L183.5 364.4Z" fill="#FFD300"/>
</svg>
