<svg width="765" height="484" viewBox="0 0 765 484" fill="none" xmlns="http://www.w3.org/2000/svg">
<g clip-path="url(#clip0_129_974)">
<path d="M758.378 317H463.386C461.865 316.998 460.407 316.393 459.331 315.318C458.256 314.243 457.651 312.785 457.649 311.264V5.73633C457.651 4.21548 458.256 2.75741 459.331 1.68201C460.407 0.606604 461.865 0.00169926 463.386 0H758.378C759.898 0.00169661 761.357 0.606604 762.432 1.68201C763.507 2.75741 764.112 4.21548 764.114 5.73633V311.264C764.112 312.785 763.507 314.243 762.432 315.318C761.357 316.393 759.898 316.998 758.378 317ZM463.386 2C462.395 2.00113 461.445 2.39514 460.745 3.0956C460.045 3.79605 459.651 4.74574 459.649 5.73633V311.264C459.651 312.254 460.045 313.204 460.745 313.904C461.445 314.605 462.395 314.999 463.386 315H758.378C759.368 314.999 760.318 314.605 761.018 313.904C761.719 313.204 762.113 312.254 762.114 311.264V5.73633C762.113 4.74574 761.719 3.79605 761.018 3.0956C760.318 2.39514 759.368 2.00113 758.378 2H463.386Z" fill="#3F3D56"/>
<path d="M666.485 128.405C673.076 140.578 675.49 154.578 673.355 168.255C671.221 181.932 664.657 194.531 654.67 204.117C644.683 213.702 631.826 219.746 618.073 221.318C604.32 222.891 590.431 219.907 578.538 212.823C566.645 205.739 557.406 194.947 552.239 182.105C547.072 169.263 546.263 155.08 549.935 141.733C553.608 128.387 561.56 116.614 572.57 108.224C583.58 99.8331 597.039 95.2879 610.882 95.2861C611.384 95.2861 611.883 95.2935 612.382 95.3051L611.714 68.2996C611.436 68.2971 611.16 68.2891 610.882 68.2891C590.965 68.2948 571.611 74.8936 555.838 87.0558C540.066 99.2179 528.763 116.259 523.694 135.52C518.625 154.781 520.075 175.179 527.817 193.529C535.559 211.88 549.159 227.151 566.492 236.96C583.826 246.77 603.92 250.565 623.637 247.753C643.355 244.942 661.587 235.683 675.489 221.42C689.391 207.158 698.18 188.694 700.486 168.911C702.791 149.128 698.483 129.138 688.233 112.061L666.485 128.405Z" fill="#05D9E8"/>
<path d="M666.484 128.406L688.232 112.063C680.29 98.8283 669.083 87.8546 655.685 80.1922C642.287 72.5298 627.147 68.4353 611.713 68.3008L612.381 95.3063C623.516 95.5671 634.384 98.7659 643.885 104.578C653.386 110.391 661.182 118.611 666.484 128.406Z" fill="#E6E6E6"/>
<path d="M656.802 235.933L655.686 237.039L687.364 269.016L688.48 267.911L656.802 235.933Z" fill="#3F3D56"/>
<path d="M677.139 40.1906L655.12 79.4492L656.491 80.2179L678.51 40.9593L677.139 40.1906Z" fill="#3F3D56"/>
<path d="M711.627 280.816H664.877C664.046 280.816 663.249 280.485 662.662 279.898C662.074 279.31 661.743 278.514 661.742 277.683V271.099C661.743 270.268 662.074 269.471 662.662 268.884C663.249 268.296 664.046 267.966 664.877 267.965H711.627C712.458 267.966 713.255 268.296 713.842 268.884C714.43 269.471 714.761 270.268 714.762 271.099V277.683C714.761 278.514 714.43 279.31 713.842 279.898C713.255 280.485 712.458 280.816 711.627 280.816Z" fill="#05D9E8"/>
<path d="M699.775 41.1333H653.024C652.194 41.1323 651.397 40.8018 650.81 40.2143C650.222 39.6268 649.892 38.8304 649.891 37.9995V31.415C649.892 30.5842 650.222 29.7877 650.81 29.2002C651.397 28.6127 652.194 28.2823 653.024 28.2812H699.775C700.606 28.2823 701.403 28.6127 701.99 29.2002C702.578 29.7877 702.908 30.5842 702.909 31.415V37.9995C702.908 38.8304 702.578 39.6269 701.99 40.2143C701.403 40.8018 700.606 41.1323 699.775 41.1333Z" fill="#E6E6E6"/>
<path d="M410.494 145.873H77.125C75.6761 145.871 74.2871 145.295 73.2626 144.27C72.2381 143.246 71.6618 141.857 71.6602 140.408V6.46484C71.6618 5.01598 72.2381 3.62693 73.2626 2.60243C74.2871 1.57793 75.6761 1.00164 77.125 1H410.494C411.943 1.00169 413.332 1.578 414.356 2.60249C415.381 3.62699 415.957 5.01602 415.959 6.46484V140.408C415.957 141.857 415.381 143.246 414.356 144.27C413.332 145.295 411.943 145.871 410.494 145.873ZM77.125 3C76.2064 3.001 75.3257 3.36636 74.6761 4.01593C74.0265 4.6655 73.6612 5.54622 73.6602 6.46484V140.408C73.6612 141.326 74.0265 142.207 74.6761 142.857C75.3257 143.506 76.2064 143.872 77.125 143.873H410.494C411.413 143.872 412.293 143.506 412.943 142.857C413.592 142.207 413.958 141.326 413.959 140.408V6.46484C413.958 5.54625 413.592 4.66557 412.943 4.01601C412.293 3.36644 411.413 3.00105 410.494 3H77.125Z" fill="#3F3D56"/>
<path d="M207.077 112.632H174.777C173.952 112.63 173.154 112.336 172.525 111.801C171.897 111.266 171.478 110.525 171.345 109.711C169.238 96.0269 169.238 82.101 171.345 68.417C171.478 67.6025 171.897 66.8619 172.525 66.327C173.154 65.7921 173.952 65.4977 174.777 65.4961H207.077C207.6 65.4945 208.117 65.6122 208.588 65.8404C209.059 66.0686 209.472 66.4013 209.795 66.813C210.125 67.2306 210.355 67.718 210.469 68.2381C210.582 68.7582 210.575 69.2974 210.449 69.8145C207.428 82.4696 207.428 95.6583 210.449 108.313C210.575 108.831 210.582 109.37 210.469 109.89C210.355 110.41 210.125 110.897 209.795 111.315C209.472 111.727 209.059 112.059 208.588 112.288C208.117 112.516 207.6 112.633 207.077 112.632Z" fill="#E6E6E6"/>
<path d="M315.222 112.632H282.922C282.096 112.63 281.298 112.336 280.67 111.801C280.041 111.266 279.623 110.525 279.489 109.711C277.382 96.0269 277.382 82.101 279.489 68.417C279.623 67.6026 280.041 66.862 280.67 66.3271C281.298 65.7923 282.096 65.4978 282.922 65.4961H315.222C315.745 65.4945 316.262 65.6123 316.733 65.8406C317.204 66.0689 317.617 66.4016 317.94 66.8135C318.27 67.231 318.5 67.7183 318.613 68.2384C318.727 68.7584 318.72 69.2975 318.593 69.8145C315.572 82.4697 315.572 95.6583 318.593 108.313C318.72 108.83 318.727 109.37 318.613 109.89C318.5 110.41 318.27 110.897 317.94 111.315C317.617 111.726 317.204 112.059 316.733 112.287C316.262 112.516 315.745 112.634 315.222 112.632Z" fill="#E6E6E6"/>
<path d="M152.137 81.3779H119.838C119.012 81.3764 118.214 81.0819 117.586 80.547C116.957 80.0121 116.539 79.2715 116.405 78.457C114.298 64.773 114.298 50.8471 116.405 37.1631C116.539 36.3486 116.957 35.608 117.586 35.0731C118.214 34.5382 119.012 34.2438 119.838 34.2422H152.137C152.661 34.2406 153.178 34.3583 153.649 34.5865C154.12 34.8147 154.532 35.1474 154.855 35.5591C155.185 35.9767 155.416 36.4641 155.529 36.9842C155.643 37.5043 155.636 38.0435 155.51 38.5606C152.488 51.2157 152.488 64.4044 155.509 77.0596C155.636 77.5766 155.643 78.1158 155.529 78.6359C155.416 79.156 155.186 79.6434 154.855 80.061C154.532 80.4728 154.12 80.8054 153.649 81.0336C153.178 81.2618 152.661 81.3796 152.137 81.3779Z" fill="#05D9E8"/>
<path d="M261.371 81.378H229.071C228.547 81.3796 228.03 81.2618 227.559 81.0335C227.088 80.8053 226.676 80.4725 226.353 80.0606C226.023 79.6431 225.792 79.1557 225.679 78.6357C225.566 78.1156 225.572 77.5766 225.699 77.0596C228.72 64.4044 228.72 51.2157 225.699 38.5606C225.572 38.0436 225.566 37.5045 225.679 36.9845C225.792 36.4644 226.023 35.9771 226.353 35.5596C226.676 35.1477 227.088 34.8149 227.559 34.5866C228.03 34.3583 228.547 34.2405 229.071 34.2422H261.371C262.196 34.2438 262.994 34.5382 263.622 35.0731C264.251 35.608 264.669 36.3486 264.803 37.1631C266.91 50.8471 266.91 64.773 264.803 78.457C264.669 79.2715 264.251 80.0121 263.622 80.547C262.994 81.0819 262.196 81.3764 261.371 81.378Z" fill="#05D9E8"/>
<path d="M367.781 81.378H335.481C334.958 81.3796 334.441 81.2618 333.97 81.0335C333.499 80.8053 333.086 80.4725 332.763 80.0606C332.433 79.6431 332.202 79.1557 332.089 78.6357C331.976 78.1156 331.983 77.5766 332.109 77.0596C335.13 64.4044 335.13 51.2157 332.109 38.5606C331.983 38.0436 331.976 37.5045 332.089 36.9845C332.202 36.4644 332.433 35.9771 332.763 35.5596C333.086 35.1477 333.499 34.8149 333.97 34.5866C334.441 34.3583 334.958 34.2405 335.481 34.2422H367.781C368.606 34.2439 369.404 34.5383 370.033 35.0732C370.661 35.6081 371.08 36.3487 371.213 37.1631C373.32 50.8471 373.32 64.773 371.213 78.457C371.08 79.2715 370.661 80.0121 370.033 80.5469C369.404 81.0818 368.606 81.3763 367.781 81.378Z" fill="#FF2A6D"/>
<path d="M187.937 319.467C186.399 319.154 184.947 318.507 183.685 317.572C182.424 316.636 181.382 315.436 180.634 314.055C179.887 312.674 179.451 311.146 179.358 309.578C179.265 308.01 179.516 306.441 180.095 304.981L135.761 209.79L158.251 203.469L194.798 299.143C197.186 300.278 199.075 302.249 200.107 304.684C201.138 307.119 201.241 309.847 200.395 312.352C199.55 314.857 197.814 316.965 195.518 318.277C193.222 319.588 190.525 320.012 187.937 319.467Z" fill="#A0616A"/>
<path d="M102.079 471.362H114.339L120.171 424.074H102.077L102.079 471.362Z" fill="#A0616A"/>
<path d="M137.982 482.746L99.4517 482.748L99.451 467.861L123.095 467.86C127.043 467.86 130.83 469.428 133.622 472.22C136.414 475.011 137.982 478.798 137.982 482.746Z" fill="#2F2E41"/>
<path d="M38.3535 458.148L49.6225 462.975L73.6045 421.804L56.9715 414.68L38.3535 458.148Z" fill="#A0616A"/>
<path d="M66.875 482.75L31.4564 467.58L37.3176 453.895L59.0518 463.204C62.6812 464.759 65.5443 467.691 67.0115 471.357C68.4786 475.022 68.4295 479.121 66.875 482.75Z" fill="#2F2E41"/>
<path d="M132.39 165.13C145.955 165.13 156.951 154.134 156.951 140.569C156.951 127.004 145.955 116.008 132.39 116.008C118.825 116.008 107.829 127.004 107.829 140.569C107.829 154.134 118.825 165.13 132.39 165.13Z" fill="#A0616A"/>
<path d="M114.646 459.805L101.15 457.233C100.041 457.028 99.0496 456.412 98.3756 455.507C97.7016 454.602 97.3944 453.476 97.5154 452.355L106.465 365.096C106.55 364.263 106.335 363.428 105.857 362.741C105.379 362.053 104.671 361.56 103.861 361.35C103.051 361.14 102.192 361.228 101.441 361.597C100.69 361.965 100.095 362.591 99.7659 363.36L60.6946 454.527C60.4597 455.075 60.1184 455.571 59.6904 455.986C59.2625 456.4 58.7564 456.726 58.2015 456.943C57.6467 457.161 57.0542 457.266 56.4584 457.253C55.8625 457.24 55.2753 457.108 54.7307 456.866L43.7539 451.987C42.7292 451.536 41.9103 450.718 41.4584 449.694C41.0066 448.669 40.9544 447.513 41.3122 446.452L68.0344 366.285C68.1096 366.06 68.1617 365.827 68.1897 365.591L76.8638 292.344C76.9583 291.544 77.2657 290.785 77.7538 290.144C78.2419 289.504 78.8929 289.006 79.6389 288.703L107.027 277.577C107.838 277.248 108.726 277.162 109.585 277.33C110.443 277.497 111.234 277.911 111.861 278.521L146.431 312.183C146.97 312.705 147.369 313.354 147.591 314.07C147.814 314.787 147.853 315.548 147.706 316.283L119.902 456.261C119.696 457.281 119.144 458.199 118.339 458.859C117.534 459.52 116.526 459.881 115.485 459.884C115.203 459.884 114.923 459.857 114.646 459.805Z" fill="#2F2E41"/>
<path d="M99.26 296.382C94.4753 290.842 90.9834 288.327 88.5952 288.724C86.2256 289.106 84.8586 292.417 83.4111 295.922C81.4355 300.706 79.1963 306.129 73.6768 306.553C72.8174 306.7 71.9339 306.603 71.1272 306.273C70.3204 305.942 69.6229 305.391 69.1145 304.682C64.7729 298.225 75.1865 276.858 76.1379 274.938L75.6496 173.878C75.6429 173.062 75.8584 172.261 76.2729 171.558C76.6875 170.856 77.2855 170.28 78.0026 169.892C106.619 154.461 145.26 181.299 152.715 186.837C153.311 187.279 153.789 187.861 154.105 188.533C154.421 189.205 154.565 189.944 154.525 190.685C153.626 207.611 149.138 293.006 149.138 312.055C149.138 317.328 147.319 320.679 143.732 322.013C142.521 322.442 141.243 322.652 139.958 322.632C129.012 322.632 111.085 310.073 99.26 296.382Z" fill="#CCCCCC"/>
<path d="M139.197 247.309C138.598 246.92 138.102 246.393 137.75 245.773C137.398 245.152 137.2 244.456 137.174 243.743L135.235 198.477C135.116 195.69 135.992 192.952 137.707 190.752C139.422 188.552 141.864 187.034 144.596 186.469C147.327 185.905 150.171 186.331 152.617 187.672C155.063 189.012 156.953 191.179 157.947 193.785L172.455 231.802C172.879 232.917 172.843 234.155 172.356 235.244C171.868 236.333 170.969 237.184 169.855 237.611L143.274 247.754C142.608 248.012 141.891 248.106 141.181 248.029C140.471 247.951 139.791 247.704 139.197 247.309Z" fill="#CCCCCC"/>
<path d="M71.6489 318.036C70.3457 317.16 69.2506 316.008 68.4407 314.663C67.6308 313.317 67.1258 311.81 66.9612 310.248C66.7966 308.687 66.9765 307.108 67.4881 305.623C67.9998 304.138 68.8308 302.783 69.9226 301.654L65.2324 196.75L88.4342 199.482L85.7408 301.863C87.5158 303.823 88.5102 306.366 88.5356 309.01C88.561 311.654 87.6156 314.215 85.8785 316.209C84.1415 318.203 81.7335 319.49 79.1109 319.827C76.4883 320.163 73.8332 319.526 71.6489 318.036Z" fill="#A0616A"/>
<path d="M55.5375 224.686C55.117 224.11 54.8412 223.44 54.7336 222.735C54.6259 222.029 54.6895 221.308 54.9189 220.633L69.2465 177.65C70.1285 175.004 71.9234 172.758 74.3101 171.314C76.6967 169.87 79.5194 169.322 82.2728 169.769C85.0263 170.216 87.5309 171.628 89.3384 173.752C91.146 175.877 92.1385 178.576 92.1384 181.365V222.055C92.137 223.249 91.6625 224.392 90.8189 225.236C89.9752 226.08 88.8314 226.554 87.6384 226.555H59.1882C58.4744 226.559 57.7702 226.391 57.1349 226.066C56.4995 225.741 55.9517 225.268 55.5375 224.686Z" fill="#CCCCCC"/>
<path d="M116.53 157.091C115.61 157.811 114.462 158.176 113.295 158.118C112.129 158.06 111.022 157.583 110.179 156.774C104.915 151.854 100.472 145.97 98.224 139.156C95.6478 131.348 96.3059 122.204 101.239 115.626C105.41 110.066 112.011 106.925 118.514 104.469C121.052 103.396 123.734 102.7 126.474 102.402C129.241 102.115 132.014 102.894 134.228 104.58C135.307 105.441 136.101 106.608 136.507 107.927C136.913 109.247 136.912 110.658 136.504 111.977C139.838 108.948 143.906 106.843 148.305 105.872C151.089 105.133 154.032 105.255 156.745 106.221C160.516 107.772 162.966 111.56 164.094 115.478C165.028 118.467 165.103 121.657 164.313 124.687C163.906 126.193 163.189 127.597 162.206 128.809C161.223 130.02 159.997 131.012 158.607 131.719C155.157 133.345 151.062 132.731 147.455 131.494C143.848 130.256 140.427 128.43 136.696 127.641C132.965 126.852 128.657 127.312 126.017 130.064C124.158 132.003 123.426 134.729 122.761 137.331L119.302 150.865C118.921 152.836 118.19 154.724 117.146 156.438C116.971 156.683 116.763 156.902 116.53 157.091Z" fill="#2F2E41"/>
<path d="M216.137 352.378H183.838C183.012 352.376 182.214 352.082 181.586 351.547C180.957 351.012 180.539 350.271 180.405 349.457C178.298 335.773 178.298 321.847 180.405 308.163C180.539 307.349 180.957 306.608 181.586 306.073C182.214 305.538 183.012 305.244 183.838 305.242H216.137C216.661 305.241 217.178 305.358 217.649 305.587C218.12 305.815 218.533 306.148 218.856 306.56C219.186 306.977 219.416 307.464 219.529 307.985C219.643 308.505 219.636 309.044 219.509 309.561C216.488 322.216 216.488 335.404 219.509 348.06C219.636 348.577 219.643 349.116 219.529 349.636C219.416 350.156 219.186 350.643 218.856 351.061C218.533 351.472 218.12 351.805 217.649 352.034C217.178 352.262 216.661 352.38 216.137 352.378Z" fill="#05D9E8"/>
<path d="M162 484H1C0.734784 484 0.480429 483.895 0.292892 483.707C0.105356 483.52 0 483.265 0 483C0 482.735 0.105356 482.48 0.292892 482.293C0.480429 482.105 0.734784 482 1 482H162C162.265 482 162.52 482.105 162.707 482.293C162.895 482.48 163 482.735 163 483C163 483.265 162.895 483.52 162.707 483.707C162.52 483.895 162.265 484 162 484Z" fill="#3F3D56"/>
</g>
<defs>
<clipPath id="clip0_129_974">
<rect width="764.114" height="484" fill="white"/>
</clipPath>
</defs>
</svg>
