<svg width="710" height="559" viewBox="0 0 710 559" fill="none" xmlns="http://www.w3.org/2000/svg">
<g clip-path="url(#clip0_129_1185)">
<path d="M644.137 0.363281H0.275391V412.721H644.137V0.363281Z" fill="#E6E6E6"/>
<path d="M625.725 52.0859H18.6855V388.329H625.725V52.0859Z" fill="white"/>
<path d="M643.862 0H0V27.3536H643.862V0Z" fill="#05D9E8"/>
<path d="M20.3276 19.0536C23.1276 19.0536 25.3974 16.7838 25.3974 13.9838C25.3974 11.1839 23.1276 8.91406 20.3276 8.91406C17.5276 8.91406 15.2578 11.1839 15.2578 13.9838C15.2578 16.7838 17.5276 19.0536 20.3276 19.0536Z" fill="white"/>
<path d="M39.5698 19.0536C42.3697 19.0536 44.6396 16.7838 44.6396 13.9838C44.6396 11.1839 42.3697 8.91406 39.5698 8.91406C36.7698 8.91406 34.5 11.1839 34.5 13.9838C34.5 16.7838 36.7698 19.0536 39.5698 19.0536Z" fill="white"/>
<path d="M58.8139 19.0536C61.6139 19.0536 63.8837 16.7838 63.8837 13.9838C63.8837 11.1839 61.6139 8.91406 58.8139 8.91406C56.014 8.91406 53.7441 11.1839 53.7441 13.9838C53.7441 16.7838 56.014 19.0536 58.8139 19.0536Z" fill="white"/>
<path d="M229.824 86.9727H73.8438V353.439H229.824V86.9727Z" fill="#E6E6E6"/>
<path d="M386.734 86.9727H256.75V160.321H386.734V86.9727Z" fill="#FF2A6D"/>
<path d="M386.734 180.746H256.75V259.665H386.734V180.746Z" fill="#E6E6E6"/>
<path d="M386.734 280.09H256.75V353.438H386.734V280.09Z" fill="#E6E6E6"/>
<path d="M570.568 86.9727H414.588V203.097H570.568V86.9727Z" fill="#E6E6E6"/>
<path d="M570.568 237.316H414.588V353.441H570.568V237.316Z" fill="#E6E6E6"/>
<path d="M510.479 211.441V186.441C510.479 177.557 514.008 169.036 520.29 162.753C526.573 156.471 535.094 152.941 543.979 152.941C552.863 152.941 561.384 156.471 567.667 162.753C573.949 169.036 577.479 177.557 577.479 186.441V211.441C577.477 212.634 577.003 213.778 576.159 214.622C575.315 215.466 574.172 215.94 572.979 215.941H514.979C513.785 215.94 512.642 215.466 511.798 214.622C510.954 213.778 510.48 212.634 510.479 211.441Z" fill="#2F2E41"/>
<path d="M593.515 536.785L581.699 540.055L563.463 496.037L580.902 491.211L593.515 536.785Z" fill="#FFB8B8"/>
<path d="M572.324 539.018L595.111 532.711L599.082 547.059L561.947 557.336C561.426 555.452 561.281 553.483 561.52 551.543C561.759 549.603 562.378 547.729 563.342 546.028C564.305 544.327 565.595 542.832 567.136 541.629C568.677 540.427 570.44 539.539 572.324 539.018Z" fill="#2F2E41"/>
<path d="M470.327 545.874H458.067L452.234 498.586H470.329L470.327 545.874Z" fill="#FFB8B8"/>
<path d="M449.311 542.371H472.955V557.258H434.424C434.424 555.303 434.809 553.367 435.557 551.561C436.305 549.755 437.402 548.114 438.784 546.731C440.166 545.349 441.808 544.252 443.614 543.504C445.42 542.756 447.356 542.371 449.311 542.371Z" fill="#2F2E41"/>
<path d="M455.545 281.599C456.42 282.78 457.543 283.755 458.836 284.455C460.129 285.155 461.559 285.564 463.027 285.651C464.494 285.739 465.963 285.503 467.33 284.962C468.696 284.42 469.928 283.585 470.937 282.516L503.527 297.174L500.563 278.843L470.069 267.734C468.161 266.157 465.741 265.336 463.267 265.424C460.794 265.513 458.439 266.506 456.649 268.215C454.858 269.924 453.757 272.231 453.554 274.697C453.35 277.164 454.059 279.62 455.545 281.599Z" fill="#FFB8B8"/>
<path d="M523.258 391.837C513.019 391.837 502.419 390.312 493.509 385.776C488.779 383.415 484.588 380.104 481.197 376.049C477.805 371.994 475.287 367.283 473.8 362.21C469.158 347.511 475.011 333.07 480.672 319.105C484.179 310.451 487.492 302.278 488.352 294.221L488.652 291.361C489.991 278.513 491.147 267.418 497.549 263.256C500.868 261.099 505.329 260.976 511.19 262.879L566.235 280.76L564.211 385.251L563.876 385.362C563.588 385.459 544.184 391.837 523.258 391.837Z" fill="#2F2E41"/>
<path d="M510.229 230.349C510.229 230.349 537.229 222.349 558.229 225.349C558.229 225.349 546.229 291.349 550.229 313.349C554.229 335.349 480.729 321.849 495.729 300.849L500.729 275.849C500.729 275.849 490.729 265.849 499.729 253.849L510.229 230.349Z" fill="#05D9E8"/>
<path d="M496.948 389.856L463.672 383.617L475.29 294.21C476.071 291.714 494.068 235.067 502.241 232.002C508.176 229.912 514.245 228.226 520.407 226.956L521.591 226.719L514.919 236.728L488.354 300.382L496.948 389.856Z" fill="#2F2E41"/>
<path d="M479.61 534.919L436.615 527.753L460.743 429.229L496.647 294.492L497.001 296.885C497.029 297.063 500.383 314.665 550.152 306.854L550.589 306.786L550.71 307.212L610.862 519.75L561.872 527.915L517.189 372.848L479.61 534.919Z" fill="#2F2E41"/>
<path d="M539.201 406.585L539.228 405.828C539.258 404.988 542.216 321.456 541.228 287.861C540.237 254.152 551.15 224.96 551.26 224.669L551.349 224.435L551.59 224.365C565.71 220.332 577.959 232.371 578.081 232.493L578.253 232.665L574.232 265.841L591.448 386.483L539.201 406.585Z" fill="#2F2E41"/>
<path d="M537.094 215.356C550.659 215.356 561.655 204.36 561.655 190.795C561.655 177.231 550.659 166.234 537.094 166.234C523.53 166.234 512.533 177.231 512.533 190.795C512.533 204.36 523.53 215.356 537.094 215.356Z" fill="#FFB8B8"/>
<path d="M502.553 188.441C502.561 181.416 505.355 174.68 510.323 169.712C515.291 164.744 522.027 161.949 529.053 161.941H534.053C541.079 161.949 547.815 164.744 552.782 169.712C557.75 174.68 560.545 181.416 560.553 188.441V188.941H549.986L546.382 178.85L545.661 188.941H540.2L538.382 183.85L538.018 188.941H502.553V188.441Z" fill="#2F2E41"/>
<path d="M534.678 218.752C534.182 218.08 533.885 217.282 533.823 216.449C533.761 215.616 533.935 214.783 534.325 214.045C539.624 203.967 547.043 185.345 537.195 173.86L536.488 173.035H565.075V215.955L539.106 220.537C538.843 220.584 538.576 220.607 538.309 220.607C537.6 220.607 536.901 220.439 536.27 220.117C535.639 219.794 535.093 219.326 534.678 218.752Z" fill="#2F2E41"/>
<path d="M419.58 41.5474C399.576 24.6678 375.097 13.9663 349.122 10.7452C323.147 7.52407 296.796 11.9222 273.275 23.4045C249.754 34.8867 230.077 52.958 216.639 75.4192C203.201 97.8805 196.582 123.763 197.586 149.918C198.59 176.073 207.174 201.372 222.295 222.737C237.415 244.102 258.419 260.611 282.751 270.257C307.083 279.902 333.694 282.267 359.346 277.064C384.998 271.861 408.584 259.314 427.235 240.95L592.853 380.698C595.373 382.828 598.636 383.871 601.925 383.595C605.213 383.32 608.257 381.749 610.388 379.229C612.518 376.71 613.56 373.446 613.285 370.158C613.01 366.87 611.439 363.826 608.919 361.695L608.901 361.68L443.283 221.932C462.523 194.319 470.757 160.516 466.372 127.148C461.988 93.7805 445.3 63.2527 419.58 41.5474ZM408.903 208.475C396.001 223.766 378.854 234.888 359.631 240.433C340.408 245.979 319.972 245.7 300.908 239.631C281.843 233.563 265.006 221.977 252.526 206.339C240.046 190.702 232.484 171.715 230.795 151.779C229.106 131.843 233.366 111.854 243.038 94.3402C252.709 76.826 267.357 62.5729 285.129 53.3835C302.9 44.194 322.998 40.4809 342.88 42.7137C362.762 44.9465 381.536 53.0248 396.827 65.9272C406.98 74.4941 415.346 84.9768 421.447 96.7769C427.549 108.577 431.266 121.463 432.388 134.7C433.509 147.937 432.013 161.265 427.983 173.923C423.954 186.582 417.47 198.322 408.903 208.475Z" fill="#3F3D56"/>
<path opacity="0.3" d="M266.355 220.551C246.949 204.175 234.411 181.1 231.231 155.907C228.051 130.715 234.461 105.247 249.189 84.5625C247.255 86.5103 245.385 88.5503 243.58 90.6824C235.013 100.835 228.53 112.576 224.5 125.234C220.471 137.893 218.974 151.221 220.095 164.458C221.217 177.694 224.934 190.581 231.036 202.381C237.138 214.181 245.504 224.663 255.656 233.23C265.809 241.797 277.55 248.28 290.208 252.31C302.867 256.339 316.195 257.836 329.431 256.715C342.668 255.593 355.555 251.876 367.355 245.774C379.155 239.673 389.637 231.307 398.204 221.154C400.006 219.019 401.702 216.833 403.293 214.595C385.381 232.593 361.355 243.196 335.987 244.3C310.618 245.403 285.762 236.926 266.355 220.551Z" fill="black"/>
<path d="M544.98 324.534C546.408 324.883 547.895 324.915 549.337 324.627C550.778 324.339 552.139 323.739 553.324 322.868C554.508 321.998 555.488 320.878 556.193 319.588C556.897 318.298 557.311 316.869 557.404 315.402L591.837 305.844L577.84 293.641L547.288 304.587C544.813 304.595 542.426 305.51 540.581 307.159C538.735 308.808 537.558 311.077 537.274 313.536C536.99 315.994 537.617 318.472 539.037 320.499C540.457 322.526 542.572 323.962 544.98 324.534Z" fill="#FFB8B8"/>
<path d="M559.293 319.479L557.197 299.573L585.96 283.704L567.207 261.003L570.267 235.504L577.887 232.238L578.124 232.543C581.717 237.163 613.229 277.824 613.229 282.85C613.229 288.013 607.201 303.173 598.953 307.297C590.997 311.275 561.122 319.007 559.854 319.334L559.293 319.479Z" fill="#2F2E41"/>
<path d="M708.533 558.594H327.533C327.268 558.594 327.014 558.488 326.826 558.301C326.639 558.113 326.533 557.859 326.533 557.594C326.533 557.329 326.639 557.074 326.826 556.887C327.014 556.699 327.268 556.594 327.533 556.594H708.533C708.798 556.594 709.053 556.699 709.24 556.887C709.428 557.074 709.533 557.329 709.533 557.594C709.533 557.859 709.428 558.113 709.24 558.301C709.053 558.488 708.798 558.594 708.533 558.594Z" fill="#CCCCCC"/>
</g>
<defs>
<clipPath id="clip0_129_1185">
<rect width="709.533" height="558.594" fill="white"/>
</clipPath>
</defs>
</svg>
