<svg width="790" height="513" viewBox="0 0 790 513" fill="none" xmlns="http://www.w3.org/2000/svg">
<g clip-path="url(#clip0_139_2)">
<path d="M720.563 510.691L698 442.6C698 442.6 722.818 467.419 722.818 487.782L718.364 440.691C718.364 440.691 731.091 457.873 729.818 483.964C728.545 510.055 720.563 510.691 720.563 510.691Z" fill="#E6E6E6"/>
<path d="M236.021 448.692L214 382.238C214 382.238 238.222 406.46 238.222 426.334L233.874 380.375C233.874 380.375 246.295 397.144 245.053 422.607C243.811 448.071 236.021 448.692 236.021 448.692Z" fill="#E6E6E6"/>
<path d="M579.726 479.358C579.764 523.073 493.061 509.627 386.917 509.718C280.773 509.81 195.381 523.405 195.344 479.69C195.306 435.975 281.977 426.393 388.121 426.301C494.266 426.21 579.689 435.644 579.726 479.358Z" fill="#E6E6E6"/>
<path d="M790 509.691H0V511.691H790V509.691Z" fill="#3F3D56"/>
<path d="M505.336 420.322H491.459L484.855 366.797H505.336V420.322Z" fill="#A0616A"/>
<path d="M480.006 416.359H508.311V433.21H464.697V431.668C464.697 427.608 466.31 423.714 469.181 420.843C472.052 417.972 475.946 416.359 480.006 416.359Z" fill="#2F2E41"/>
<path d="M607.336 499.322H593.459L586.855 445.797H607.336V499.322Z" fill="#A0616A"/>
<path d="M582.006 495.359H610.311V512.21H566.697V510.668C566.697 506.608 568.31 502.714 571.181 499.843C574.052 496.972 577.946 495.359 582.006 495.359Z" fill="#2F2E41"/>
<path d="M671.345 340.309C672.304 339.145 672.997 337.785 673.374 336.325C673.751 334.865 673.804 333.34 673.528 331.857C673.251 330.374 672.654 328.97 671.776 327.744C670.899 326.517 669.763 325.498 668.449 324.758L636.219 193.465L615.611 202.331L653.947 329.28C652.849 331.57 652.63 334.183 653.331 336.623C654.031 339.064 655.603 341.163 657.747 342.522C659.892 343.882 662.461 344.407 664.967 343.999C667.473 343.591 669.742 342.278 671.345 340.309Z" fill="#A0616A"/>
<path d="M646.207 74.9636C645.057 73.7611 643.657 72.8255 642.106 72.2226C640.555 71.6197 638.891 71.3642 637.23 71.4741C635.57 71.5839 633.954 72.0565 632.496 72.8585C631.038 73.6605 629.773 74.7725 628.792 76.116L578.906 81.8431L586.495 101.085L631.863 92.5937C634.229 94.0934 637.063 94.6729 639.828 94.2225C642.594 93.7721 645.097 92.323 646.866 90.1499C648.634 87.9767 649.543 85.2305 649.422 82.4316C649.3 79.6326 648.156 76.9755 646.207 74.9636Z" fill="#A0616A"/>
<path d="M564 326.691L585.768 490.066L612.862 484.488C612.862 484.488 608.877 365.506 622.424 351.162C635.971 336.819 605 311.691 605 311.691L564 326.691Z" fill="#2F2E41"/>
<path d="M573 281.692L563 296.692C563 296.692 486 264.693 486 315.692C486 366.691 481.594 401.301 480 403.692C478.406 406.083 498.438 412.286 508 410.692C508 410.692 519.797 328.473 519 323.692C519 323.692 594.533 360.725 608.877 357.538C623.221 354.35 626.609 343.067 629 336.692C631.39 330.317 628 279.692 628 279.692L580.19 265.102L573 281.692Z" fill="#2F2E41"/>
<path d="M574.349 191.631L571.499 188.211C571.499 188.211 539.575 116.382 552.117 97.0002C564.658 77.618 619.384 74.7677 621.095 75.9078C622.805 77.0479 617.01 91.8506 621 98.6914C621 98.6914 578.606 107.883 575.756 109.023C572.905 110.163 597.722 152.296 597.722 152.296L594.872 177.949L574.349 191.631Z" fill="#CCCCCC"/>
<path d="M630.216 156.287C630.216 156.287 600.572 159.708 599.432 159.708C598.292 159.708 597.722 152.297 597.722 152.297L571.499 188.211C571.499 188.211 558.58 292.402 562 290.692C565.421 288.982 628.506 298.803 629.076 294.243C629.646 289.682 628.506 266.88 630.216 265.74C631.926 264.6 659.859 193.912 659.859 193.912C659.859 193.912 657.009 179.09 647.318 173.959C637.627 168.829 630.216 156.287 630.216 156.287Z" fill="#CCCCCC"/>
<path d="M650.737 184.223L659.858 193.914C659.858 193.914 673.41 305.274 665.999 308.694C658.588 312.114 643.999 311.694 643.999 311.694L629.645 258.901L650.737 184.223Z" fill="#CCCCCC"/>
<path d="M601.729 149.235C616.22 149.235 627.968 137.488 627.968 122.997C627.968 108.505 616.22 96.7578 601.729 96.7578C587.238 96.7578 575.49 108.505 575.49 122.997C575.49 137.488 587.238 149.235 601.729 149.235Z" fill="#A0616A"/>
<path d="M595.574 127.093C595.219 121.649 588.35 121.462 582.895 121.411C577.439 121.359 570.916 121.554 567.829 117.055C565.789 114.082 566.179 109.955 567.864 106.768C569.55 103.58 572.322 101.129 575.05 98.7701C582.091 92.6813 589.348 86.6408 597.802 82.7435C606.255 78.8463 616.162 77.2715 624.93 80.4C635.7 84.2431 650.259 104.026 651.516 115.392C652.773 126.758 648.231 138.344 640.574 146.838C632.917 155.331 615.392 151.904 604.363 154.926C611.068 145.436 606.649 128.193 595.908 123.762L595.574 127.093Z" fill="#2F2E41"/>
<path d="M361.722 466.494C396.51 466.494 424.711 438.293 424.711 403.505C424.711 368.717 396.51 340.516 361.722 340.516C326.934 340.516 298.732 368.717 298.732 403.505C298.732 438.293 326.934 466.494 361.722 466.494Z" fill="#FF2A6D"/>
<path d="M319.657 336.041C310.927 336.041 302.384 333.512 295.062 328.758C287.741 324.004 281.953 317.229 278.402 309.255L178.45 84.1628C175.139 76.7067 173.388 68.6521 173.304 60.4943C173.22 52.3365 174.806 44.2477 177.963 36.7253C181.121 29.2028 185.783 22.4055 191.664 16.7513C197.546 11.097 204.521 6.70526 212.162 3.84592C219.802 0.98658 227.947 -0.279929 236.095 0.124257C244.244 0.528443 252.223 2.59478 259.543 6.19625C266.864 9.79772 273.37 14.8582 278.663 21.0667C283.955 27.2753 287.922 34.5006 290.32 42.2986L362.697 277.711C364.769 284.449 365.232 291.579 364.049 298.529C362.865 305.479 360.068 312.054 355.883 317.726C351.697 323.399 346.239 328.011 339.948 331.192C333.657 334.372 326.707 336.033 319.657 336.041Z" fill="#FF2A6D"/>
</g>
<defs>
<clipPath id="clip0_139_2">
<rect width="790" height="512.208" fill="white"/>
</clipPath>
</defs>
</svg>
