<svg xmlns="http://www.w3.org/2000/svg" version="1.1" xmlns:xlink="http://www.w3.org/1999/xlink" xmlns:svgjs="http://svgjs.com/svgjs" x="0" y="0" viewBox="0 0 32 32" style="enable-background:new 0 0 512 512" xml:space="preserve" class=""><g><path xmlns="http://www.w3.org/2000/svg" d="M26.67,13.87H1.07A1.07,1.07,0,0,1,0,12.8V9.6A5.34,5.34,0,0,1,5.33,4.27H22.4A5.34,5.34,0,0,1,27.73,9.6v3.2A1.07,1.07,0,0,1,26.67,13.87ZM2.14,11.73H25.6V9.6a3.2,3.2,0,0,0-3.2-3.2H5.33a3.2,3.2,0,0,0-3.2,3.2Z" fill="#53bd35" data-original="#000000" class=""></path><path xmlns="http://www.w3.org/2000/svg" d="M30.93,27.73a1.07,1.07,0,0,1-1.07-1.07V5.33a3.2,3.2,0,0,0-3.2-3.2H5.34A1.07,1.07,0,0,1,5.34,0H26.67A5.34,5.34,0,0,1,32,5.33V26.66A1.07,1.07,0,0,1,30.93,27.73Z" fill="#53bd35" data-original="#000000" class=""></path><path xmlns="http://www.w3.org/2000/svg" d="M17.85,9.89a1.07,1.07,0,0,1,0-2.13h0a1.07,1.07,0,1,1,0,2.13Z" fill="#53bd35" data-original="#000000" class=""></path><path xmlns="http://www.w3.org/2000/svg" d="M21.05,9.89a1.07,1.07,0,0,1,0-2.13h0a1.07,1.07,0,1,1,0,2.13Z" fill="#53bd35" data-original="#000000" class=""></path><path xmlns="http://www.w3.org/2000/svg" d="M8.54,10H6.4a1.07,1.07,0,0,1,0-2.13H8.54a1.07,1.07,0,1,1,0,2.13Z" fill="#53bd35" data-original="#000000" class=""></path><path xmlns="http://www.w3.org/2000/svg" d="M21.32,29.11H19.66a1.07,1.07,0,0,1-1-.78,3.52,3.52,0,0,0-.31-.75,1.07,1.07,0,0,1,.18-1.27l1.17-1.17-1.08-1.08-1.17,1.17a1.07,1.07,0,0,1-1.27.18,4.38,4.38,0,0,0-.8-.33,1.07,1.07,0,0,1-.75-1V22.41H13.09v1.64a1.07,1.07,0,0,1-.75,1,4.73,4.73,0,0,0-.81.34,1.07,1.07,0,0,1-1.26-.19L9.11,24.06,8,25.13,9.2,26.3a1.07,1.07,0,0,1,.19,1.26,4.74,4.74,0,0,0-.34.81,1.07,1.07,0,0,1-1,.75H6.39a1.07,1.07,0,1,1,0-2.13h.47l-.34-.34a2.14,2.14,0,0,1,0-3L7.6,22.55a2.14,2.14,0,0,1,3,0l.34.34v-.48a2.14,2.14,0,0,1,2.13-2.13h1.53a2.14,2.14,0,0,1,2.13,2.13v.48l.34-.34a2.14,2.14,0,0,1,3,0l1.08,1.08a2.13,2.13,0,0,1,0,3l-.33.33h.48a1.07,1.07,0,1,1,0,2.13Z" fill="#53bd35" data-original="#000000" class=""></path><path xmlns="http://www.w3.org/2000/svg" d="M26.67,16a1.07,1.07,0,0,0-1.07,1.07v9.6a3.2,3.2,0,0,1-3.2,3.2H18a4.11,4.11,0,0,0-8.22,0H5.33a3.2,3.2,0,0,1-3.2-3.2v-9.6a1.07,1.07,0,1,0-2.13,0v9.6A5.34,5.34,0,0,0,5.33,32H22.4a5.34,5.34,0,0,0,5.33-5.33v-9.6A1.07,1.07,0,0,0,26.67,16ZM13.85,27.89a2,2,0,0,1,2,2h-4A2,2,0,0,1,13.85,27.89Z" fill="#53bd35" data-original="#000000" class=""></path></g></svg>