<svg xmlns="http://www.w3.org/2000/svg" version="1.1" xmlns:xlink="http://www.w3.org/1999/xlink" xmlns:svgjs="http://svgjs.com/svgjs" width="1920" height="1080" preserveAspectRatio="none" viewBox="0 0 1920 1080"><g mask="url(&quot;#SvgjsMask1188&quot;)" fill="none"><path d="M0 452.81L10 582.65L20 715.45L30 834.49L40 953.43L50 966.74L60 1064.35L70 1054.16L80 1037.08L90 1018.27L100 956.76L110 952.48L120 971.28L130 1064.22L140 976.86L150 1040.86L160 980L170 871.43L180 843.2L190 923.61L200 945.51L210 961.05L220 1027.24L230 894.08L240 953.28L250 960.25L260 935.62L270 846.62L280 782.61L290 684L300 621.55L310 716.27L320 759L330 781.38L340 751.18L350 756.38L360 835.78L370 701.59L380 600.71L390 613.99L400 584.94L410 687.48L420 722.54L430 761.36L440 778.47L450 851.39L460 875.75L470 900.84L480 813.63L490 799.69L500 908.29L510 1036.38L520 951.61L530 1066.37L540 1061.71L550 965.74L560 892.1L570 932.21L580 851.65L590 786.96L600 901.13L610 938.82L620 846.89L630 765.66L640 772.79L650 700.82L660 669.48L670 719.87L680 854.77L690 979.2L700 911.84L710 1038.74L720 918.72L730 1050.27L740 1014.35L750 1076.64L760 962.73L770 1029.25L780 945.05L790 948.37L800 908.13L810 876.35L820 840.52L830 843.47L840 865.6L850 991.26L860 1020.07L870 1065.63L880 1070.3L890 1007.52L900 877.89L910 967.33L920 1019.8L930 1075.67L940 941.19L950 897.78L960 1024.85L970 1070.36L980 980.4L990 989.66L1000 982.05L1010 1000.75L1020 907L1030 853.74L1040 794.57L1050 834.78L1060 847.75L1070 812.61L1080 869.37L1090 948.16L1100 896.94L1110 991.75L1120 945.92L1130 967.18L1140 902.52L1150 789.9L1160 683.15L1170 669.47L1180 749.58L1190 848.97L1200 723.54L1210 744.13L1220 873.61L1230 829.58L1240 797.26L1250 666.53L1260 641.06L1270 686.82L1280 596.73L1290 610.2L1300 571.47L1310 572.61L1320 609.72L1330 658.48L1340 552.27L1350 521.52L1360 625.23L1370 728.38L1380 624.46L1390 549.82L1400 529.12L1410 423.53L1420 383.9L1430 510.31L1440 641.24L1450 575.24L1460 458.36L1470 439.7L1480 567.38L1490 519.33L1500 485.97L1510 578.86L1520 495.94L1530 602.87L1540 647.27L1550 599.56L1560 499.55L1570 548.63L1580 502.25L1590 551.96L1600 577.48L1610 677.77L1620 634.19L1630 508.8L1640 410.81L1650 456.5L1660 386.17L1670 349.42L1680 385.21L1690 446.49L1700 344.09L1710 358.82L1720 265.14L1730 193.11L1740 308.71L1750 366.88L1760 241.73L1770 191.36L1780 309.37L1790 301.61L1800 367.51L1810 293.29L1820 199.36L1830 204.97L1840 327.01L1850 268.94L1860 151.92L1870 183.64L1880 78.91L1890 61.88L1900 42.75L1910 156.89L1920 82.27" stroke="rgba(38, 202, 88, 0.4)" stroke-width="2"></path><path d="M0 452.81L10 582.65L20 715.45L30 834.49L40 953.43L50 966.74L60 1064.35L70 1054.16L80 1037.08L90 1018.27L100 956.76L110 952.48L120 971.28L130 1064.22L140 976.86L150 1040.86L160 980L170 871.43L180 843.2L190 923.61L200 945.51L210 961.05L220 1027.24L230 894.08L240 953.28L250 960.25L260 935.62L270 846.62L280 782.61L290 684L300 621.55L310 716.27L320 759L330 781.38L340 751.18L350 756.38L360 835.78L370 701.59L380 600.71L390 613.99L400 584.94L410 687.48L420 722.54L430 761.36L440 778.47L450 851.39L460 875.75L470 900.84L480 813.63L490 799.69L500 908.29L510 1036.38L520 951.61L530 1066.37L540 1061.71L550 965.74L560 892.1L570 932.21L580 851.65L590 786.96L600 901.13L610 938.82L620 846.89L630 765.66L640 772.79L650 700.82L660 669.48L670 719.87L680 854.77L690 979.2L700 911.84L710 1038.74L720 918.72L730 1050.27L740 1014.35L750 1076.64L760 962.73L770 1029.25L780 945.05L790 948.37L800 908.13L810 876.35L820 840.52L830 843.47L840 865.6L850 991.26L860 1020.07L870 1065.63L880 1070.3L890 1007.52L900 877.89L910 967.33L920 1019.8L930 1075.67L940 941.19L950 897.78L960 1024.85L970 1070.36L980 980.4L990 989.66L1000 982.05L1010 1000.75L1020 907L1030 853.74L1040 794.57L1050 834.78L1060 847.75L1070 812.61L1080 869.37L1090 948.16L1100 896.94L1110 991.75L1120 945.92L1130 967.18L1140 902.52L1150 789.9L1160 683.15L1170 669.47L1180 749.58L1190 848.97L1200 723.54L1210 744.13L1220 873.61L1230 829.58L1240 797.26L1250 666.53L1260 641.06L1270 686.82L1280 596.73L1290 610.2L1300 571.47L1310 572.61L1320 609.72L1330 658.48L1340 552.27L1350 521.52L1360 625.23L1370 728.38L1380 624.46L1390 549.82L1400 529.12L1410 423.53L1420 383.9L1430 510.31L1440 641.24L1450 575.24L1460 458.36L1470 439.7L1480 567.38L1490 519.33L1500 485.97L1510 578.86L1520 495.94L1530 602.87L1540 647.27L1550 599.56L1560 499.55L1570 548.63L1580 502.25L1590 551.96L1600 577.48L1610 677.77L1620 634.19L1630 508.8L1640 410.81L1650 456.5L1660 386.17L1670 349.42L1680 385.21L1690 446.49L1700 344.09L1710 358.82L1720 265.14L1730 193.11L1740 308.71L1750 366.88L1760 241.73L1770 191.36L1780 309.37L1790 301.61L1800 367.51L1810 293.29L1820 199.36L1830 204.97L1840 327.01L1850 268.94L1860 151.92L1870 183.64L1880 78.91L1890 61.88L1900 42.75L1910 156.89L1920 82.27L1920 1080L0 1080z" fill="url(#SvgjsLinearGradient1189)"></path></g><defs><mask id="SvgjsMask1188"><rect width="1920" height="1080" fill="#ffffff"></rect></mask><linearGradient x1="50%" y1="0%" x2="50%" y2="100%" id="SvgjsLinearGradient1189"><stop stop-opacity="0.65" stop-color="rgba(38, 202, 88, 0.4)" offset="0"></stop><stop stop-opacity="0" stop-color="rgba(206, 246, 218, 0.4)" offset="0.8"></stop></linearGradient></defs></svg>