<svg xmlns="http://www.w3.org/2000/svg" version="1.1" xmlns:xlink="http://www.w3.org/1999/xlink" xmlns:svgjs="http://svgjs.com/svgjs" x="0" y="0" viewBox="0 0 32 32" style="enable-background:new 0 0 512 512" xml:space="preserve" class=""><g><path xmlns="http://www.w3.org/2000/svg" d="m18.13 0a13.85 13.85 0 0 0 -10.53 22.86l-7.29 7.32a1.07 1.07 0 0 0 0 1.51 1.08 1.08 0 0 0 1.51 0l8-8a1.1 1.1 0 0 0 0-1.51 11.69 11.69 0 1 1 3.62 2.48 1.07 1.07 0 1 0 -.85 2 13.87 13.87 0 1 0 5.54-26.66z" fill="#53bd35" data-original="#000000" class=""></path><path xmlns="http://www.w3.org/2000/svg" d="m16.1 14.2 3.52 2.65a1.07 1.07 0 0 0 1.47-.19l4.27-5.33a1.09 1.09 0 0 0 -.84-1.73h-3.19a1.07 1.07 0 1 0 0 2.13h1l-2.23 2.79-3.44-2.59a1.07 1.07 0 0 0 -1.4.1l-4.26 4.28a1.07 1.07 0 0 0 0 1.51 1.08 1.08 0 0 0 1.51 0z" fill="#53bd35" data-original="#000000" class=""></path></g></svg>