<svg xmlns="http://www.w3.org/2000/svg" version="1.1" xmlns:xlink="http://www.w3.org/1999/xlink" xmlns:svgjs="http://svgjs.com/svgjs" x="0" y="0" viewBox="0 0 32 32" style="enable-background:new 0 0 512 512" xml:space="preserve"><g><path xmlns="http://www.w3.org/2000/svg" d="m12 12.5a4 4 0 1 0 4-4 4 4 0 0 0 -4 4zm6 0a2 2 0 1 1 -2-2 2 2 0 0 1 2 2z" fill="#53bd35" data-original="#000000"></path><path xmlns="http://www.w3.org/2000/svg" d="m19.24 20.87.32.95a1 1 0 1 0 1.9-.63l-.32-.95a4 4 0 0 0 -3.79-2.73h-2.69a4 4 0 0 0 -3.79 2.73l-.32.95a1 1 0 1 0 1.9.63l.32-.95a2 2 0 0 1 1.9-1.37h2.68a2 2 0 0 1 1.89 1.37z" fill="#53bd35" data-original="#000000"></path><path xmlns="http://www.w3.org/2000/svg" d="m11.6 26.08a11 11 0 0 1 -6.55-9.08h.95a1 1 0 0 0 0-2h-.95a11 11 0 0 1 9.95-9.95v.95a1 1 0 0 0 2 0v-4a1 1 0 0 0 -2 0v1.05a13 13 0 0 0 -11.95 11.95h-1.05a1 1 0 0 0 0 2h1a13 13 0 0 0 7.8 10.92 1 1 0 0 0 1.32-.52 1 1 0 0 0 -.52-1.32z" fill="#53bd35" data-original="#000000"></path><path xmlns="http://www.w3.org/2000/svg" d="m30 15h-1a13 13 0 0 0 -7.8-10.92 1 1 0 1 0 -.8 1.83 11 11 0 0 1 6.55 9.09h-.95a1 1 0 0 0 0 2h.95a11 11 0 0 1 -9.95 9.95v-.95a1 1 0 0 0 -2 0v4a1 1 0 0 0 2 0v-1.05a13 13 0 0 0 11.95-11.95h1.05a1 1 0 0 0 0-2z" fill="#53bd35" data-original="#000000"></path></g></svg>