<svg width="512" height="512" viewBox="0 0 512 512" fill="none" xmlns="http://www.w3.org/2000/svg">
<mask id="mask0_30_69" style="mask-type:luminance" maskUnits="userSpaceOnUse" x="199" y="196" width="1" height="12">
<path d="M199.4 196.5L199.6 207.3C199.6 207.5 199.6 207.6 199.5 207.8L199.3 197C199.4 196.8 199.4 196.6 199.4 196.5Z" fill="white"/>
</mask>
<g mask="url(#mask0_30_69)">
<path d="M199.4 196.5L199.6 207.3C199.6 207.5 199.6 207.6 199.5 207.8L199.3 197C199.4 196.8 199.4 196.6 199.4 196.5Z" fill="#FFC800"/>
</g>
<path d="M199.3 197L199.5 207.8L193.9 220.2L193.7 209.4L199.3 197Z" fill="#FFB300"/>
<mask id="mask1_30_69" style="mask-type:luminance" maskUnits="userSpaceOnUse" x="193" y="209" width="1" height="12">
<path d="M193.8 220.601L193.6 209.801C193.6 209.601 193.6 209.501 193.7 209.301L193.9 220.101C193.8 220.301 193.8 220.501 193.8 220.601Z" fill="white"/>
</mask>
<g mask="url(#mask1_30_69)">
<path d="M193.7 209.4L193.9 220.2C193.8 220.4 193.8 220.5 193.8 220.7L193.6 209.9C193.6 209.7 193.6 209.5 193.7 209.4Z" fill="#FFC800"/>
</g>
<mask id="mask2_30_69" style="mask-type:luminance" maskUnits="userSpaceOnUse" x="128" y="217" width="3" height="13">
<path d="M128.5 227.8L128.3 217C128.3 217.5 128.6 217.9 129.3 218.3C129.6 218.5 130 218.6 130.4 218.7L130.6 229.5C130.1 229.4 129.8 229.3 129.5 229.1C128.9 228.8 128.5 228.3 128.5 227.8Z" fill="white"/>
</mask>
<g mask="url(#mask2_30_69)">
<path d="M130.5 218.7L130.7 229.5C130.2 229.4 129.9 229.3 129.6 229.1C129 228.8 128.7 228.3 128.6 227.8L128.4 217C128.4 217.5 128.7 217.9 129.4 218.3C129.6 218.5 130 218.6 130.5 218.7Z" fill="#FFC800"/>
</g>
<path d="M151.2 222.799L151.3 233.599L130.6 229.499L130.5 218.699L151.2 222.799Z" fill="#FFC800"/>
<mask id="mask3_30_69" style="mask-type:luminance" maskUnits="userSpaceOnUse" x="151" y="222" width="3" height="13">
<path d="M153.1 223.801L153.3 234.601C153.1 234.401 152.9 234.101 152.6 234.001C152.3 233.801 151.9 233.701 151.5 233.601L151.3 222.801C151.7 222.901 152.1 223.001 152.4 223.201C152.6 223.401 152.9 223.601 153.1 223.801Z" fill="white"/>
</mask>
<g mask="url(#mask3_30_69)">
<path d="M153.1 223.801L153.3 234.601C153.1 234.401 152.9 234.101 152.6 234.001C152.3 233.801 151.9 233.701 151.5 233.601L151.3 222.801C151.7 222.901 152.1 223.001 152.4 223.201C152.6 223.401 152.9 223.601 153.1 223.801Z" fill="#FFC800"/>
</g>
<mask id="mask4_30_69" style="mask-type:luminance" maskUnits="userSpaceOnUse" x="204" y="222" width="4" height="13">
<path d="M207.1 222.199L207.3 232.999C207.3 233.899 206.1 234.799 204.3 234.899L204.1 224.099C205.9 223.999 207.2 223.199 207.1 222.199Z" fill="white"/>
</mask>
<g mask="url(#mask4_30_69)">
<path d="M207.1 222.199L207.3 232.999C207.3 233.899 206.1 234.799 204.3 234.899L204.1 224.099C205.9 223.999 207.2 223.199 207.1 222.199Z" fill="#FFC800"/>
</g>
<path d="M204.2 224.1L204.3 234.9L182.4 235.9L182.2 225.1L204.2 224.1Z" fill="#FFB300"/>
<mask id="mask5_30_69" style="mask-type:luminance" maskUnits="userSpaceOnUse" x="179" y="225" width="4" height="12">
<path d="M182.2 225.1L182.4 235.9C181.5 235.9 180.6 236.2 180.1 236.6L179.9 225.8C180.4 225.4 181.3 225.1 182.2 225.1Z" fill="white"/>
</mask>
<g mask="url(#mask5_30_69)">
<path d="M182.2 225.1L182.4 235.9C181.5 235.9 180.6 236.2 180.1 236.6L179.9 225.8C180.4 225.4 181.3 225.1 182.2 225.1Z" fill="#FFC800"/>
</g>
<path d="M161 235.601L161.2 246.401L153.2 234.601L153.1 223.801L161 235.601Z" fill="#FFB300"/>
<path d="M179.9 225.801L180 236.601L166.6 246.801L166.5 236.001L179.9 225.801Z" fill="#FFC800"/>
<path d="M198.5 195.2C199.3 195.6 199.7 196.3 199.4 197L193.8 209.4C193.6 209.9 193.7 210.5 194.2 210.9L206.6 221.3C208 222.5 206.6 224.1 204.2 224.2L182.2 225.1C181.3 225.1 180.4 225.4 179.9 225.8L166.5 236C165.3 236.9 163.1 237 161.8 236.2C161.5 236 161.2 235.8 161.1 235.6L153.2 223.8C153 223.6 152.8 223.3 152.5 223.2C152.2 223 151.8 222.9 151.4 222.8L130.7 218.7C130.2 218.6 129.9 218.5 129.6 218.3C128.3 217.6 128.3 216.3 129.8 215.6L146.8 207.4C147.5 207.1 147.9 206.6 148 206L148.6 193.3C148.7 191.9 151.4 191 153.5 191.8L172 198.5C172.8 198.8 173.7 198.8 174.6 198.7L195.7 194.9C196.6 194.6 197.7 194.8 198.5 195.2Z" fill="#FBD60D"/>
<mask id="mask6_30_69" style="mask-type:luminance" maskUnits="userSpaceOnUse" x="161" y="235" width="6" height="13">
<path d="M166.5 236L166.7 246.8C165.5 247.7 163.3 247.8 162 247C161.7 246.8 161.4 246.6 161.3 246.4L161.1 235.6C161.3 235.9 161.5 236.1 161.8 236.2C163 237 165.2 236.9 166.5 236Z" fill="white"/>
</mask>
<g mask="url(#mask6_30_69)">
<path d="M166.5 236L166.7 246.8C165.5 247.7 163.3 247.8 162 247C161.7 246.8 161.4 246.6 161.3 246.4L161.1 235.6C161.3 235.9 161.5 236.1 161.8 236.2C163 237 165.2 236.9 166.5 236Z" fill="#FFC800"/>
</g>
<mask id="mask7_30_69" style="mask-type:luminance" maskUnits="userSpaceOnUse" x="207" y="186" width="1" height="12">
<path d="M207.5 186.5L207.7 197.3C207.7 197.5 207.7 197.6 207.6 197.8L207.4 187C207.4 186.8 207.5 186.6 207.5 186.5Z" fill="white"/>
</mask>
<g mask="url(#mask7_30_69)">
<path d="M207.5 186.5L207.7 197.3C207.7 197.5 207.7 197.6 207.6 197.8L207.4 187C207.4 186.8 207.5 186.6 207.5 186.5Z" fill="#FFC800"/>
</g>
<path d="M207.4 187L207.5 197.8L201.9 210.1L201.7 199.3L207.4 187Z" fill="#FFB300"/>
<mask id="mask8_30_69" style="mask-type:luminance" maskUnits="userSpaceOnUse" x="201" y="199" width="1" height="12">
<path d="M201.8 210.601L201.6 199.801C201.6 199.601 201.6 199.501 201.7 199.301L201.9 210.101C201.8 210.301 201.8 210.501 201.8 210.601Z" fill="white"/>
</mask>
<g mask="url(#mask8_30_69)">
<path d="M201.7 199.301L201.9 210.101C201.8 210.301 201.8 210.401 201.8 210.601L201.6 199.801C201.6 199.701 201.7 199.501 201.7 199.301Z" fill="#FFC800"/>
</g>
<mask id="mask9_30_69" style="mask-type:luminance" maskUnits="userSpaceOnUse" x="136" y="207" width="3" height="13">
<path d="M136.6 217.8L136.4 207C136.4 207.5 136.7 208 137.4 208.3C137.7 208.5 138.1 208.6 138.5 208.7L138.7 219.5C138.2 219.4 137.9 219.3 137.6 219.1C136.9 218.8 136.6 218.3 136.6 217.8Z" fill="white"/>
</mask>
<g mask="url(#mask9_30_69)">
<path d="M138.5 208.7L138.7 219.5C138.2 219.4 137.9 219.3 137.6 219.1C137 218.8 136.7 218.3 136.6 217.8L136.4 207C136.4 207.5 136.7 208 137.4 208.3C137.6 208.5 138 208.6 138.5 208.7Z" fill="#FFC800"/>
</g>
<path d="M159.2 212.801L159.4 223.601L138.7 219.501L138.5 208.701L159.2 212.801Z" fill="#FFC800"/>
<mask id="mask10_30_69" style="mask-type:luminance" maskUnits="userSpaceOnUse" x="159" y="212" width="3" height="13">
<path d="M161.1 213.801L161.3 224.601C161.1 224.401 160.9 224.101 160.6 224.001C160.3 223.801 159.9 223.701 159.5 223.601L159.3 212.801C159.7 212.901 160.1 213.001 160.4 213.201C160.7 213.301 160.9 213.601 161.1 213.801Z" fill="white"/>
</mask>
<g mask="url(#mask10_30_69)">
<path d="M161.1 213.801L161.3 224.601C161.1 224.401 160.9 224.101 160.6 224.001C160.3 223.801 159.9 223.701 159.5 223.601L159.3 212.801C159.7 212.901 160.1 213.001 160.4 213.201C160.7 213.301 160.9 213.601 161.1 213.801Z" fill="#FFC800"/>
</g>
<mask id="mask11_30_69" style="mask-type:luminance" maskUnits="userSpaceOnUse" x="212" y="212" width="4" height="13">
<path d="M215.2 212.201L215.4 223.001C215.4 223.901 214.2 224.801 212.4 224.901L212.2 214.101C214 214.001 215.2 213.101 215.2 212.201Z" fill="white"/>
</mask>
<g mask="url(#mask11_30_69)">
<path d="M215.2 212.201L215.4 223.001C215.4 223.901 214.2 224.801 212.4 224.901L212.2 214.101C214 214.001 215.2 213.101 215.2 212.201Z" fill="#FFC800"/>
</g>
<path d="M212.2 214.1L212.3 224.9L190.4 225.8L190.2 215L212.2 214.1Z" fill="#FFB300"/>
<mask id="mask12_30_69" style="mask-type:luminance" maskUnits="userSpaceOnUse" x="187" y="215" width="4" height="12">
<path d="M190.2 215L190.4 225.8C189.5 225.8 188.6 226.1 188.1 226.5L187.9 215.7C188.5 215.3 189.3 215.1 190.2 215Z" fill="white"/>
</mask>
<g mask="url(#mask12_30_69)">
<path d="M190.2 215L190.4 225.8C189.5 225.8 188.6 226.1 188.1 226.5L187.9 215.7C188.5 215.3 189.3 215.1 190.2 215Z" fill="#FFC800"/>
</g>
<path d="M169 225.601L169.2 236.401L161.3 224.601L161.1 213.801L169 225.601Z" fill="#FFB300"/>
<path d="M187.9 215.801L188.1 226.601L174.6 236.801L174.5 226.001L187.9 215.801Z" fill="#FFC800"/>
<path d="M206.5 185.2C207.3 185.6 207.7 186.3 207.4 187L201.8 199.4C201.6 199.9 201.7 200.5 202.2 200.9L214.6 211.3C216 212.5 214.6 214.1 212.2 214.2L190.2 215.1C189.3 215.1 188.4 215.4 187.9 215.8L174.5 226C173.3 226.9 171.1 227 169.8 226.2C169.5 226 169.2 225.8 169.1 225.6L161.2 213.8C161 213.6 160.8 213.3 160.5 213.2C160.2 213 159.8 212.9 159.4 212.8L138.7 208.7C138.2 208.6 137.9 208.5 137.6 208.3C136.3 207.6 136.3 206.3 137.8 205.6L154.8 197.4C155.5 197.1 155.9 196.6 156 196L156.6 183.3C156.7 181.9 159.4 181 161.5 181.8L180 188.5C180.8 188.8 181.7 188.8 182.6 188.7L203.7 184.9C204.6 184.6 205.7 184.8 206.5 185.2Z" fill="#FBD60D"/>
<mask id="mask13_30_69" style="mask-type:luminance" maskUnits="userSpaceOnUse" x="169" y="225" width="6" height="13">
<path d="M174.5 226L174.7 236.8C173.5 237.7 171.3 237.8 170 237C169.7 236.8 169.4 236.6 169.3 236.4L169.1 225.6C169.3 225.9 169.5 226.1 169.8 226.2C171.1 227 173.3 226.9 174.5 226Z" fill="white"/>
</mask>
<g mask="url(#mask13_30_69)">
<path d="M174.5 226L174.7 236.8C173.5 237.7 171.3 237.8 170 237C169.7 236.8 169.4 236.6 169.3 236.4L169.1 225.6C169.3 225.9 169.5 226.1 169.8 226.2C171.1 227 173.3 226.9 174.5 226Z" fill="#FFC800"/>
</g>
<path d="M412.8 352.5L419.8 348.3C422.5 346.7 424.1 343.3 424 338.5L417 342.7C417.1 347.5 415.4 350.9 412.8 352.5Z" fill="#3B283D"/>
<mask id="mask14_30_69" style="mask-type:luminance" maskUnits="userSpaceOnUse" x="412" y="338" width="13" height="15">
<path d="M412.8 352.5L419.8 348.3C422.5 346.7 424.1 343.3 424 338.5L417 342.7C417.1 347.5 415.4 350.9 412.8 352.5Z" fill="white"/>
</mask>
<g mask="url(#mask14_30_69)">
<path d="M412.8 352.5L419.8 348.3C422.5 346.7 424.1 343.3 424 338.5L417 342.7C417.1 347.5 415.4 350.9 412.8 352.5Z" fill="#3B283D"/>
</g>
<path d="M417 342.701L424 338.501L421.7 196.301L414.8 200.501L417 342.701Z" fill="#3B283D"/>
<path d="M399.2 174.6L406.2 170.4L200.4 56.5996L193.5 60.7996L399.2 174.6Z" fill="#3B283D"/>
<path d="M414.8 200.5L421.8 196.3C421.7 186.7 414.7 175.1 406.2 170.5L399.2 174.7C407.7 179.3 414.6 190.9 414.8 200.5Z" fill="#3B283D"/>
<mask id="mask15_30_69" style="mask-type:luminance" maskUnits="userSpaceOnUse" x="399" y="170" width="23" height="31">
<path d="M414.8 200.5L421.8 196.3C421.7 186.7 414.7 175.1 406.2 170.5L399.2 174.7C407.7 179.3 414.6 190.9 414.8 200.5Z" fill="white"/>
</mask>
<g mask="url(#mask15_30_69)">
<path d="M414.8 200.501L421.8 196.301C421.7 192.601 420.7 188.601 418.9 184.901L411.9 189.101C413.7 192.801 414.7 196.801 414.8 200.501ZM411.9 189.101L418.9 184.901C417.5 182.001 415.7 179.201 413.7 176.701L406.7 180.901C408.8 183.301 410.5 186.101 411.9 189.101Z" fill="#3B283D"/>
<path d="M406.7 180.9L413.7 176.7C411.5 174.1 408.9 171.9 406.3 170.4L399.3 174.6C401.9 176.1 404.5 178.3 406.7 180.9Z" fill="#3B283D"/>
</g>
<path d="M193.5 60.8004C185.1 56.1004 178.3 60.1004 178.5 69.7004L180.7 211.9C180.8 221.5 187.8 233.1 196.3 237.7L402 351.6C410.4 356.3 417.2 352.3 417 342.7L414.8 200.5C414.7 190.9 407.7 179.3 399.2 174.7L193.5 60.8004Z" fill="#2F1E30"/>
<path d="M189 211.9C189.1 218.5 194.5 227.4 200.3 230.6L406 344.4C407.2 345 408 345.2 408.4 345.3C408.5 344.9 408.7 344.2 408.7 342.9V341.6L406.5 200.7C406.4 194.1 401 185.2 395.2 182L191.4 69.0996L189.5 67.9996C188.3 67.3996 187.5 67.1996 187.1 67.0996C187 67.4996 186.8 68.1996 186.8 69.4996L189 211.9Z" fill="#10191B"/>
<path d="M193.6 210.1C193.7 216.7 199.1 225.6 204.9 228.8L408.8 341.6L406.6 200.7C406.5 194.1 401.1 185.2 395.3 182L191.4 69.0996L193.6 210.1Z" fill="#13A2FD"/>
<path d="M189.6 55.7005L182.6 59.9005C185.3 58.2005 189.1 58.4005 193.4 60.8005L200.4 56.6005C196.2 54.2005 192.4 54.1005 189.6 55.7005Z" fill="#3B283D"/>
<path d="M40.2998 321.301L40.4998 329.401C40.5998 332.501 42.6998 335.601 46.7998 338.001L46.5998 329.901C42.4998 327.501 40.3998 324.401 40.2998 321.301Z" fill="#7E82E0"/>
<mask id="mask16_30_69" style="mask-type:luminance" maskUnits="userSpaceOnUse" x="40" y="321" width="7" height="17">
<path d="M40.2998 321.301L40.4998 329.401C40.5998 332.501 42.6998 335.601 46.7998 338.001L46.5998 329.901C42.4998 327.501 40.3998 324.401 40.2998 321.301Z" fill="white"/>
</mask>
<g mask="url(#mask16_30_69)">
<path d="M40.2998 321.301L40.4998 329.401C40.4998 330.401 40.6998 331.401 41.1998 332.301L40.9998 324.201C40.5998 323.201 40.2998 322.301 40.2998 321.301Z" fill="#7E82E0"/>
<path d="M41 324.201L41.2 332.301C42.1 334.401 44 336.401 46.9 338.001L46.7 329.901C43.8 328.201 41.9 326.301 41 324.201Z" fill="#7E82E0"/>
</g>
<path d="M410.1 368.602L409.9 360.502C410 363.702 407.9 366.902 403.8 369.402L404 377.502C408.1 375.002 410.1 371.802 410.1 368.602Z" fill="#7E82E0"/>
<mask id="mask17_30_69" style="mask-type:luminance" maskUnits="userSpaceOnUse" x="403" y="360" width="8" height="18">
<path d="M410.1 368.602L409.9 360.502C410 363.702 407.9 366.902 403.8 369.402L404 377.502C408.1 375.002 410.1 371.802 410.1 368.602Z" fill="white"/>
</mask>
<g mask="url(#mask17_30_69)">
<path d="M403.7 369.402L403.9 377.502C408.1 375.002 410.1 371.802 410 368.602L409.8 360.502C410 363.702 407.9 366.902 403.7 369.402Z" fill="#7E82E0"/>
</g>
<path d="M46.6997 329.801L46.7997 338.001L251.3 451.801L251.1 443.701L46.6997 329.801Z" fill="#7E82E0"/>
<path d="M281.3 443.1L281.4 451.3L403.9 377.5L403.7 369.4L281.3 443.1Z" fill="#7E82E0"/>
<path d="M251.1 443.702L251.3 451.802C259.7 456.502 273.2 456.202 281.5 451.202L281.3 443.102C273 448.102 259.5 448.402 251.1 443.702Z" fill="#7E82E0"/>
<mask id="mask18_30_69" style="mask-type:luminance" maskUnits="userSpaceOnUse" x="251" y="443" width="31" height="13">
<path d="M251.1 443.702L251.3 451.802C259.7 456.502 273.2 456.202 281.5 451.202L281.3 443.102C273 448.102 259.5 448.402 251.1 443.702Z" fill="white"/>
</mask>
<g mask="url(#mask18_30_69)">
<path d="M251.1 443.702L251.3 451.802C255.6 454.202 261.2 455.302 266.8 455.102L266.6 447.002C261 447.202 255.4 446.102 251.1 443.702ZM266.6 447.002L266.8 455.102C272.1 454.902 277.4 453.602 281.5 451.202L281.3 443.102C277.2 445.602 272 446.902 266.6 447.002Z" fill="#7E82E0"/>
</g>
<path d="M46.3998 312.401C38.0998 317.401 38.1998 325.201 46.5998 329.901L251 443.701C259.4 448.401 272.9 448.101 281.2 443.101L403.7 369.401C412 364.401 411.9 356.601 403.5 351.901L199.1 238.101C190.7 233.401 177.2 233.701 168.9 238.701L46.3998 312.401Z" fill="#E0E8FE"/>
<path d="M87.6999 301.501C88.0999 303.601 89.7999 305.601 92.5999 307.201L287 415.301C293.6 419.001 304.3 418.801 310.9 414.901L392.6 365.701C395.2 364.201 396.7 362.301 397.3 360.301C398.1 357.301 396.5 354.101 392.5 351.801L198.1 243.801C191.5 240.101 180.8 240.301 174.2 244.201L92.4999 293.401C88.6999 295.601 87.0999 298.601 87.6999 301.501Z" fill="#7E82E0"/>
<path d="M87.6997 301.502C88.0997 303.602 89.7997 305.602 92.5997 307.202L287 415.302C293.6 419.002 304.3 418.802 310.9 414.902L392.6 365.702C395.2 364.202 396.7 362.302 397.3 360.302C396.8 358.202 395.2 356.102 392.4 354.602L198 246.502C191.4 242.802 180.7 243.002 174.1 246.902L92.3997 296.102C89.7997 297.702 88.1997 299.502 87.6997 301.502Z" fill="#B2BCF9"/>
<path d="M173.6 254.301L173.7 255.601L186 262.501V261.201L173.6 254.301ZM186 261.201V262.501L198.2 255.201V253.801L186 261.201ZM189.1 262.901L189.2 264.301L201.5 271.101V269.801L189.1 262.901ZM201.5 269.801V271.101L213.7 263.801V262.501L201.5 269.801ZM204.6 271.501L204.7 272.901L217 279.801V278.401L204.6 271.501ZM217 278.401V279.801L229.2 272.501V271.101L217 278.401ZM220.2 280.201V281.501L232.5 288.401V287.101L220.2 280.201ZM232.5 287.101V288.401L244.7 281.101V279.701L232.5 287.101ZM235.7 288.801V290.201L248 297.001V295.701L235.7 288.801ZM248 295.701V297.001L260.2 289.701V288.401L248 295.701ZM251.2 297.401V298.801L263.5 305.701V304.301L251.2 297.401ZM263.5 304.301V305.701L275.7 298.401V297.001L263.5 304.301ZM266.7 306.101V307.401L279.1 314.301L279 313.001L266.7 306.101ZM279 313.001L279.1 314.301L291.2 307.001V305.601L279 313.001ZM282.2 314.701V316.101L294.6 322.901L294.5 321.601L282.2 314.701ZM294.5 321.601L294.6 322.901L306.7 315.601V314.301L294.5 321.601ZM297.7 323.301V324.701L310.1 331.601L310 330.201L297.7 323.301ZM310 330.201L310.1 331.601L322.2 324.301V322.901L310 330.201ZM313.2 332.001V333.301L325.6 340.201L325.5 338.901L313.2 332.001ZM325.5 338.901L325.6 340.201L337.7 332.901V331.501L325.5 338.901ZM328.7 340.601V342.001L341.1 348.801L341 347.501L328.7 340.601ZM341 347.501L341.1 348.801L353.2 341.501V340.201L341 347.501ZM344.2 349.301V350.601L356.6 357.501L356.5 356.101L344.2 349.301ZM356.5 356.101L356.6 357.501L368.7 350.201V348.801L356.5 356.101ZM359.7 357.901V359.201L372.1 366.101V364.801L359.7 357.901ZM372.1 364.801V366.101L384.2 358.801V357.401L372.1 364.801ZM159.1 263.801L159.2 265.201L184.3 279.201V277.801L159.1 263.801ZM184.3 277.801V279.201L196.5 271.801L196.4 270.501L184.3 277.801ZM187.1 279.401V280.701L199.4 287.601V286.201L187.1 279.401ZM199.4 286.201V287.601L211.6 280.301V278.901L199.4 286.201ZM201.9 287.601V289.001L214.2 295.801V294.501L201.9 287.601Z" fill="#2F1E30"/>
<path d="M214.2 294.499V295.799L226.4 288.499V287.199L214.2 294.499ZM216.6 295.799L216.7 297.199L229 304.099V302.699L216.6 295.799ZM229 302.699V304.099L241.2 296.699V295.399L229 302.699ZM231.4 304.099L231.5 305.399L243.8 312.299V310.899L231.4 304.099ZM243.8 310.899V312.299L256 304.999L255.9 303.599L243.8 310.899ZM246.2 312.299L246.3 313.699L258.6 320.499V319.199L246.2 312.299ZM258.6 319.199V320.499L270.8 313.199L270.7 311.899L258.6 319.199ZM261 320.499L261.1 321.899L273.4 328.799V327.399L261 320.499Z" fill="#2F1E30"/>
<path d="M273.4 327.4V328.8L285.6 321.5L285.5 320.1L273.4 327.4ZM275.8 328.8V330.1L288.2 337V335.7L275.8 328.8ZM288.2 335.7V337L300.4 329.7L300.3 328.3L288.2 335.7ZM290.6 337V338.4L303 345.3V343.9L290.6 337ZM303 343.9V345.3L315.1 337.9V336.6L303 343.9ZM305.4 345.3V346.6L317.8 353.5L317.7 352.1L305.4 345.3ZM317.7 352.1L317.8 353.5L329.9 346.2V344.8L317.7 352.1ZM320.2 353.5V354.8L332.6 361.7L332.5 360.4L320.2 353.5ZM332.5 360.4L332.6 361.7L344.7 354.4V353L332.5 360.4ZM335.1 361.8L335.2 363.2L357 375.3L356.9 373.9L335.1 361.8Z" fill="#2F1E30"/>
<path d="M356.9 373.9L357 375.3L369.1 368V366.6L356.9 373.9ZM143.9 273L144 274.3L175.3 291.7L175.2 290.4L143.9 273Z" fill="#2F1E30"/>
<path d="M175.2 290.4L175.3 291.7L187.4 284.4V283.1L175.2 290.4ZM178 292L178.1 293.3L190.4 300.2V298.8L178 292ZM190.4 298.8V300.2L202.6 292.9V291.5L190.4 298.8ZM192.6 300.1L192.7 301.4L205 308.3V306.9L192.6 300.1ZM205 306.9V308.3L217.2 301L217.1 299.6L205 306.9ZM207.2 308.2V309.5L219.6 316.4L219.5 315.1L207.2 308.2Z" fill="#2F1E30"/>
<path d="M219.5 315.099L219.6 316.399L231.7 309.099V307.699L219.5 315.099ZM221.8 316.299V317.699L234.1 324.499V323.199L221.8 316.299Z" fill="#2F1E30"/>
<path d="M234.1 323.2V324.5L246.3 317.2V315.9L234.1 323.2ZM236.4 324.4V325.8L248.7 332.7V331.3L236.4 324.4Z" fill="#2F1E30"/>
<path d="M248.7 331.3V332.7L260.9 325.3V324L248.7 331.3ZM250.9 332.5L251 333.9L263.3 340.8V339.4L250.9 332.5ZM263.3 339.4V340.8L275.5 333.4L275.4 332.1L263.3 339.4ZM265.5 340.7V342L277.9 348.9L277.8 347.5L265.5 340.7ZM277.8 347.5L277.9 348.9L290 341.6V340.2L277.8 347.5ZM280.1 348.8V350.1L292.5 357L292.4 355.7L280.1 348.8Z" fill="#2F1E30"/>
<path d="M292.4 355.701L292.5 357.001L304.6 349.701V348.301L292.4 355.701Z" fill="#2F1E30"/>
<path d="M294.7 356.9V358.2L307 365.1V363.8L294.7 356.9ZM307 363.8V365.1L319.2 357.8V356.4L307 363.8Z" fill="#2F1E30"/>
<path d="M310.3 365.6V366.9L341.8 384.5L341.7 383.1L310.3 365.6ZM341.7 383.1L341.8 384.5L353.9 377.1V375.8L341.7 383.1Z" fill="#2F1E30"/>
<path d="M144.6 290.7L144.7 292L151.7 296V294.6L144.6 290.7ZM151.7 294.6V296L163.7 288.8V287.4L151.7 294.6Z" fill="#2F1E30"/>
<path d="M129.2 300.001V301.301L144.7 292.001L144.6 290.701L129.2 300.001ZM113.6 291.301V292.601L129.2 301.301V300.001L113.6 291.301ZM166.7 303.201V304.601L178.9 297.301L178.8 295.901L166.7 303.201Z" fill="#2F1E30"/>
<path d="M154.3 296.4V297.7L166.7 304.6V303.2L154.3 296.4ZM144.7 308.6V309.9L156.9 302.6L156.8 301.3L144.7 308.6Z" fill="#2F1E30"/>
<path d="M132.3 301.701V303.101L144.7 309.901V308.601L132.3 301.701Z" fill="#2F1E30"/>
<path d="M97.7998 300.699L97.8998 302.099L129.1 319.499V318.199L97.7998 300.699ZM129.1 318.199V319.499L141.3 312.199V310.799L129.1 318.199Z" fill="#2F1E30"/>
<path d="M169 304.5L169.1 305.9L181.4 312.8V311.4L169 304.5ZM181.4 311.4V312.8L193.6 305.4L193.5 304.1L181.4 311.4Z" fill="#2F1E30"/>
<path d="M183.7 312.701L183.8 314.101L196.1 321.001V319.601L183.7 312.701ZM196.1 319.601V321.001L208.3 313.601V312.301L196.1 319.601Z" fill="#2F1E30"/>
<path d="M198.5 320.9V322.3L210.8 329.2V327.8L198.5 320.9ZM210.8 327.8V329.2L223 321.8V320.5L210.8 327.8Z" fill="#2F1E30"/>
<path d="M213.2 329.1V330.5L225.6 337.4L225.5 336L213.2 329.1Z" fill="#2F1E30"/>
<path d="M225.5 335.999L225.6 337.399L237.7 329.999V328.699L225.5 335.999Z" fill="#2F1E30"/>
<path d="M227.9 337.301V338.701L240.3 345.601L240.2 344.201L227.9 337.301Z" fill="#2F1E30"/>
<path d="M240.2 344.2L240.3 345.6L252.4 338.2V336.9L240.2 344.2Z" fill="#2F1E30"/>
<path d="M242.6 345.5V346.9L255 353.7V352.4L242.6 345.5ZM255 352.4V353.7L267.2 346.4L267.1 345.1L255 352.4Z" fill="#2F1E30"/>
<path d="M257.3 353.701L257.4 355.101L269.7 361.901V360.601L257.3 353.701Z" fill="#2F1E30"/>
<path d="M269.7 360.601V361.901L281.9 354.601L281.8 353.301L269.7 360.601Z" fill="#2F1E30"/>
<path d="M272.1 361.9V363.3L284.4 370.1V368.8L272.1 361.9Z" fill="#2F1E30"/>
<path d="M284.399 368.8V370.1L296.599 362.8V361.5L284.399 368.8Z" fill="#2F1E30"/>
<path d="M286.8 370.099V371.499L299.1 378.299V376.999L286.8 370.099ZM299.1 376.999V378.299L311.3 370.999V369.699L299.1 376.999Z" fill="#2F1E30"/>
<path d="M302.1 378.699L302.2 379.999L326.6 393.599L326.5 392.199L302.1 378.699ZM326.5 392.199L326.6 393.599L338.7 386.299V384.899L326.5 392.199Z" fill="#2F1E30"/>
<path d="M147 309.9V311.3L159.4 318.1V316.8L147 309.9ZM159.4 316.8V318.1L171.6 310.8L171.5 309.4L159.4 316.8Z" fill="#2F1E30"/>
<path d="M161.7 318.1L161.8 319.5L174.1 326.3V325L161.7 318.1ZM174.1 325V326.3L186.3 319V317.6L174.1 325Z" fill="#2F1E30"/>
<path d="M176.5 326.301V327.601L188.8 334.501V333.201L176.5 326.301ZM188.8 333.201V334.501L201 327.201V325.801L188.8 333.201Z" fill="#2F1E30"/>
<path d="M191.2 334.5V335.8L203.6 342.7L203.5 341.4L191.2 334.5Z" fill="#2F1E30"/>
<path d="M203.5 341.4L203.6 342.7L215.7 335.4V334L203.5 341.4Z" fill="#2F1E30"/>
<path d="M205.9 342.699V343.999L218.3 350.899L218.2 349.599L205.9 342.699Z" fill="#2F1E30"/>
<path d="M218.2 349.599L218.3 350.899L230.4 343.599V342.199L218.2 349.599Z" fill="#2F1E30"/>
<path d="M220.6 350.9V352.2L233 359.1V357.7L220.6 350.9ZM233 357.7V359.1L245.2 351.8L245.1 350.4L233 357.7Z" fill="#2F1E30"/>
<path d="M235.3 359.1L235.4 360.4L247.7 367.3V365.9L235.3 359.1Z" fill="#2F1E30"/>
<path d="M247.7 365.9V367.3L259.9 360L259.8 358.6L247.7 365.9Z" fill="#2F1E30"/>
<path d="M250 367.301L250.1 368.601L262.4 375.501V374.101L250 367.301ZM262.4 374.101V375.501L274.6 368.201V366.801L262.4 374.101Z" fill="#2F1E30"/>
<path d="M264.8 375.5V376.8L277.1 383.7V382.3L264.8 375.5ZM277.1 382.3V383.7L289.3 376.4V375L277.1 382.3Z" fill="#2F1E30"/>
<path d="M279.9 383.9V385.2L311.4 402.8L311.3 401.4L279.9 383.9ZM311.3 401.4L311.4 402.8L323.5 395.4V394.1L311.3 401.4Z" fill="#2F1E30"/>
<path d="M131.9 319.701L132 321.101L144.3 328.001V326.601L131.9 319.701ZM144.3 326.601V328.001L156.5 320.601V319.301L144.3 326.601Z" fill="#2F1E30"/>
<path d="M146.5 327.9L146.6 329.2L158.9 336.1V334.7L146.5 327.9ZM158.9 334.7V336.1L171.1 328.8V327.4L158.9 334.7Z" fill="#2F1E30"/>
<path d="M161.1 336L161.2 337.3L173.5 344.2V342.9L161.1 336ZM173.5 342.9V344.2L185.7 336.9V335.5L173.5 342.9Z" fill="#2F1E30"/>
<path d="M175.7 344.099L175.8 345.499L188.1 352.399V350.999L175.7 344.099ZM188.1 350.999V352.399L200.3 344.999V343.699L188.1 350.999Z" fill="#2F1E30"/>
<path d="M190.3 352.199V353.599L246.4 384.799L246.3 383.399L190.3 352.199Z" fill="#2F1E30"/>
<path d="M246.3 383.4L246.4 384.8L258.5 377.5V376.1L246.3 383.4Z" fill="#2F1E30"/>
<path d="M249.2 385L249.3 386.4L261.6 393.3V391.9L249.2 385ZM261.6 391.9V393.3L273.8 386V384.6L261.6 391.9Z" fill="#2F1E30"/>
<path d="M264.1 393.301L264.2 394.701L295.6 412.201V410.901L264.1 393.301ZM295.6 410.901V412.201L307.8 404.901V403.501L295.6 410.901Z" fill="#2F1E30"/>
<path d="M173.6 254.3L186 261.2L198.2 253.8L185.8 247L173.6 254.3Z" fill="#3B283D"/>
<path d="M189.1 262.9L201.5 269.8L213.7 262.5L201.3 255.6L189.1 262.9Z" fill="#3B283D"/>
<path d="M204.6 271.499L217 278.399L229.2 271.099L216.8 264.199L204.6 271.499Z" fill="#3B283D"/>
<path d="M220.2 280.2L232.5 287.1L244.7 279.7L232.3 272.9L220.2 280.2Z" fill="#3B283D"/>
<path d="M235.7 288.8L248 295.7L260.2 288.4L247.8 281.5L235.7 288.8Z" fill="#3B283D"/>
<path d="M251.2 297.4L263.5 304.3L275.7 297L263.3 290.1L251.2 297.4Z" fill="#3B283D"/>
<path d="M266.7 306.101L279 313.001L291.2 305.601L278.8 298.801L266.7 306.101Z" fill="#3B283D"/>
<path d="M282.2 314.7L294.5 321.6L306.7 314.3L294.3 307.4L282.2 314.7Z" fill="#3B283D"/>
<path d="M297.7 323.3L310 330.2L322.2 322.9L309.8 316L297.7 323.3Z" fill="#3B283D"/>
<path d="M313.2 331.999L325.5 338.899L337.7 331.499L325.4 324.699L313.2 331.999Z" fill="#3B283D"/>
<path d="M328.7 340.601L341 347.501L353.2 340.201L340.9 333.301L328.7 340.601Z" fill="#3B283D"/>
<path d="M344.2 349.3L356.5 356.1L368.7 348.8L356.4 341.9L344.2 349.3Z" fill="#3B283D"/>
<path d="M359.7 357.9L372.1 364.8L384.2 357.4L371.9 350.6L359.7 357.9Z" fill="#3B283D"/>
<path d="M159.1 263.8L184.3 277.8L196.4 270.5L171.3 256.5L159.1 263.8Z" fill="#3B283D"/>
<path d="M187.1 279.4L199.4 286.2L211.6 278.9L199.2 272L187.1 279.4Z" fill="#3B283D"/>
<path d="M201.9 287.601L214.2 294.501L226.4 287.201L214 280.301L201.9 287.601Z" fill="#3B283D"/>
<path d="M216.6 295.8L229 302.7L241.2 295.4L228.8 288.5L216.6 295.8Z" fill="#3B283D"/>
<path d="M231.4 304.101L243.8 310.901L255.9 303.601L243.6 296.801L231.4 304.101Z" fill="#3B283D"/>
<path d="M246.2 312.3L258.6 319.2L270.7 311.9L258.4 305L246.2 312.3Z" fill="#3B283D"/>
<path d="M261 320.499L273.4 327.399L285.5 320.099L273.2 313.199L261 320.499Z" fill="#3B283D"/>
<path d="M275.8 328.8L288.2 335.7L300.3 328.3L288 321.5L275.8 328.8Z" fill="#3B283D"/>
<path d="M290.6 336.999L303 343.899L315.1 336.599L302.8 329.699L290.6 336.999Z" fill="#3B283D"/>
<path d="M305.4 345.3L317.7 352.1L329.9 344.8L317.6 337.9L305.4 345.3Z" fill="#3B283D"/>
<path d="M320.2 353.499L332.5 360.399L344.7 352.999L332.3 346.199L320.2 353.499Z" fill="#3B283D"/>
<path d="M335.1 361.8L356.9 373.9L369.1 366.6L347.3 354.5L335.1 361.8Z" fill="#3B283D"/>
<path d="M143.9 273L175.2 290.4L187.4 283.1L156.1 265.6L143.9 273Z" fill="#3B283D"/>
<path d="M178 292L190.4 298.8L202.6 291.5L190.2 284.6L178 292Z" fill="#3B283D"/>
<path d="M192.6 300.099L205 306.899L217.1 299.599L204.8 292.699L192.6 300.099Z" fill="#3B283D"/>
<path d="M207.2 308.2L219.5 315.1L231.7 307.7L219.4 300.9L207.2 308.2Z" fill="#3B283D"/>
<path d="M221.8 316.3L234.1 323.2L246.3 315.9L233.9 309L221.8 316.3Z" fill="#3B283D"/>
<path d="M236.4 324.4L248.7 331.3L260.9 324L248.5 317.1L236.4 324.4Z" fill="#3B283D"/>
<path d="M250.9 332.499L263.3 339.399L275.4 332.099L263.1 325.199L250.9 332.499Z" fill="#3B283D"/>
<path d="M265.5 340.701L277.8 347.501L290 340.201L277.7 333.301L265.5 340.701Z" fill="#3B283D"/>
<path d="M280.1 348.8L292.4 355.7L304.6 348.3L292.3 341.5L280.1 348.8Z" fill="#3B283D"/>
<path d="M294.7 356.9L307 363.8L319.2 356.4L306.8 349.6L294.7 356.9Z" fill="#3B283D"/>
<path d="M310.3 365.601L341.7 383.101L353.9 375.801L322.4 358.301L310.3 365.601Z" fill="#3B283D"/>
<path d="M113.6 291.301L129.2 300.001L144.6 290.701L151.7 294.601L163.7 287.401L140.9 274.801L113.6 291.301Z" fill="#3B283D"/>
<path d="M154.3 296.4L166.7 303.2L178.8 295.9L166.5 289L154.3 296.4Z" fill="#3B283D"/>
<path d="M132.3 301.7L144.7 308.6L156.8 301.3L144.5 294.4L132.3 301.7Z" fill="#3B283D"/>
<path d="M97.7998 300.7L129.1 318.2L141.3 310.8L110 293.4L97.7998 300.7Z" fill="#3B283D"/>
<path d="M169 304.499L181.4 311.399L193.5 304.099L181.2 297.199L169 304.499Z" fill="#3B283D"/>
<path d="M183.7 312.7L196.1 319.6L208.3 312.3L195.9 305.4L183.7 312.7Z" fill="#3B283D"/>
<path d="M198.5 320.9L210.8 327.8L223 320.5L210.6 313.6L198.5 320.9Z" fill="#3B283D"/>
<path d="M213.2 329.101L225.5 336.001L237.7 328.701L225.3 321.801L213.2 329.101Z" fill="#3B283D"/>
<path d="M227.9 337.3L240.2 344.2L252.4 336.9L240.1 330L227.9 337.3Z" fill="#3B283D"/>
<path d="M242.6 345.499L255 352.399L267.1 345.099L254.8 338.199L242.6 345.499Z" fill="#3B283D"/>
<path d="M257.3 353.7L269.7 360.6L281.8 353.3L269.5 346.4L257.3 353.7Z" fill="#3B283D"/>
<path d="M272.1 361.9L284.4 368.8L296.6 361.5L284.2 354.6L272.1 361.9Z" fill="#3B283D"/>
<path d="M286.8 370.101L299.1 377.001L311.3 369.701L298.9 362.801L286.8 370.101Z" fill="#3B283D"/>
<path d="M302.1 378.701L326.5 392.201L338.7 384.901L314.3 371.301L302.1 378.701Z" fill="#3B283D"/>
<path d="M147 309.9L159.4 316.8L171.5 309.4L159.2 302.6L147 309.9Z" fill="#3B283D"/>
<path d="M161.7 318.101L174.1 325.001L186.3 317.601L173.9 310.801L161.7 318.101Z" fill="#3B283D"/>
<path d="M176.5 326.3L188.8 333.2L201 325.8L188.6 319L176.5 326.3Z" fill="#3B283D"/>
<path d="M191.2 334.499L203.5 341.399L215.7 333.999L203.3 327.199L191.2 334.499Z" fill="#3B283D"/>
<path d="M205.9 342.7L218.2 349.6L230.4 342.2L218.1 335.4L205.9 342.7Z" fill="#3B283D"/>
<path d="M220.6 350.9L233 357.7L245.1 350.4L232.8 343.5L220.6 350.9Z" fill="#3B283D"/>
<path d="M235.3 359.099L247.7 365.899L259.8 358.599L247.5 351.699L235.3 359.099Z" fill="#3B283D"/>
<path d="M250 367.3L262.4 374.1L274.6 366.8L262.2 359.9L250 367.3Z" fill="#3B283D"/>
<path d="M264.8 375.5L277.1 382.3L289.3 375L276.9 368.1L264.8 375.5Z" fill="#3B283D"/>
<path d="M279.9 383.9L311.3 401.4L323.5 394.1L292 376.5L279.9 383.9Z" fill="#3B283D"/>
<path d="M131.9 319.7L144.3 326.6L156.5 319.3L144.1 312.4L131.9 319.7Z" fill="#3B283D"/>
<path d="M146.5 327.9L158.9 334.7L171.1 327.4L158.7 320.5L146.5 327.9Z" fill="#3B283D"/>
<path d="M161.1 335.999L173.5 342.899L185.7 335.499L173.3 328.699L161.1 335.999Z" fill="#3B283D"/>
<path d="M175.7 344.101L188.1 351.001L200.3 343.701L187.9 336.801L175.7 344.101Z" fill="#3B283D"/>
<path d="M190.3 352.2L246.3 383.4L258.5 376.1L202.5 344.9L190.3 352.2Z" fill="#3B283D"/>
<path d="M249.2 384.999L261.6 391.899L273.8 384.599L261.4 377.699L249.2 384.999Z" fill="#3B283D"/>
<path d="M264.1 393.3L295.6 410.9L307.8 403.5L276.3 386L264.1 393.3Z" fill="#3B283D"/>
<path d="M134.2 372.3C134.5 372.7 135 373.1 135.6 373.5L184.1 400.3C186.5 401.6 190.4 401.6 192.7 400.1L214.9 386.8C215.5 386.4 216 386 216.2 385.6C217 384.3 216.6 382.8 214.8 381.9L166.3 355C163.9 353.7 160 353.8 157.7 355.2L135.5 368.5C133.8 369.5 133.4 371 134.2 372.3Z" fill="#7E82E0"/>
<path d="M134.2 372.3C134.5 372.7 135 373.1 135.6 373.5L184.1 400.3C186.5 401.6 190.4 401.6 192.7 400.1L214.9 386.8C215.5 386.4 216 386 216.2 385.6C215.9 385.2 215.4 384.8 214.8 384.4L166.3 357.6C163.9 356.3 160 356.3 157.7 357.8L135.6 371C135 371.4 134.5 371.8 134.2 372.3Z" fill="#B2BCF9"/>
<mask id="mask19_30_69" style="mask-type:luminance" maskUnits="userSpaceOnUse" x="426" y="395" width="1" height="12">
<path d="M426.7 395.699L426.9 406.499C426.9 406.699 426.9 406.799 426.8 406.999L426.6 396.199C426.6 395.999 426.7 395.899 426.7 395.699Z" fill="white"/>
</mask>
<g mask="url(#mask19_30_69)">
<path d="M426.7 395.699L426.9 406.499C426.9 406.699 426.9 406.799 426.8 406.999L426.6 396.199C426.6 395.999 426.7 395.899 426.7 395.699Z" fill="#FFC800"/>
</g>
<path d="M426.6 396.199L426.7 406.999L421.1 419.399L420.9 408.599L426.6 396.199Z" fill="#FFB300"/>
<mask id="mask20_30_69" style="mask-type:luminance" maskUnits="userSpaceOnUse" x="420" y="408" width="2" height="12">
<path d="M421 419.9L420.8 409.1C420.8 408.9 420.8 408.8 420.9 408.6L421.1 419.4C421 419.5 421 419.7 421 419.9Z" fill="white"/>
</mask>
<g mask="url(#mask20_30_69)">
<path d="M420.9 408.6L421.1 419.4C421 419.6 421 419.7 421 419.9L420.8 409.1C420.8 408.9 420.9 408.7 420.9 408.6Z" fill="#FFC800"/>
</g>
<mask id="mask21_30_69" style="mask-type:luminance" maskUnits="userSpaceOnUse" x="355" y="416" width="3" height="13">
<path d="M355.8 427.099L355.6 416.299C355.6 416.799 355.9 417.299 356.6 417.599C356.9 417.799 357.3 417.899 357.7 417.999L357.9 428.799C357.4 428.699 357.1 428.599 356.8 428.399C356.1 427.999 355.8 427.499 355.8 427.099Z" fill="white"/>
</mask>
<g mask="url(#mask21_30_69)">
<path d="M357.7 417.899L357.9 428.699C357.4 428.599 357.1 428.499 356.8 428.299C356.2 427.999 355.9 427.499 355.8 426.999L355.6 416.199C355.6 416.699 355.9 417.199 356.6 417.499C356.9 417.699 357.2 417.899 357.7 417.899Z" fill="#FFC800"/>
</g>
<path d="M378.4 421.998L378.6 432.798L357.9 428.698L357.7 417.898L378.4 421.998Z" fill="#FFC800"/>
<mask id="mask22_30_69" style="mask-type:luminance" maskUnits="userSpaceOnUse" x="378" y="422" width="3" height="12">
<path d="M380.3 423L380.5 433.8C380.3 433.6 380.1 433.3 379.8 433.2C379.5 433 379.1 432.9 378.7 432.8L378.5 422C378.9 422.1 379.3 422.2 379.6 422.4C379.9 422.6 380.1 422.8 380.3 423Z" fill="white"/>
</mask>
<g mask="url(#mask22_30_69)">
<path d="M380.3 423L380.5 433.8C380.3 433.6 380.1 433.3 379.8 433.2C379.5 433 379.1 432.9 378.7 432.8L378.5 422C378.9 422.1 379.3 422.2 379.6 422.4C379.9 422.6 380.1 422.8 380.3 423Z" fill="#FFC800"/>
</g>
<mask id="mask23_30_69" style="mask-type:luminance" maskUnits="userSpaceOnUse" x="431" y="421" width="4" height="14">
<path d="M434.4 421.5L434.6 432.3C434.6 433.2 433.4 434.1 431.6 434.2L431.4 423.4C433.2 423.3 434.4 422.4 434.4 421.5Z" fill="white"/>
</mask>
<g mask="url(#mask23_30_69)">
<path d="M434.4 421.5L434.6 432.3C434.6 433.2 433.4 434.1 431.6 434.2L431.4 423.4C433.2 423.3 434.4 422.4 434.4 421.5Z" fill="#FFC800"/>
</g>
<path d="M431.4 423.299L431.6 434.099L409.6 435.099L409.4 424.299L431.4 423.299Z" fill="#FFB300"/>
<mask id="mask24_30_69" style="mask-type:luminance" maskUnits="userSpaceOnUse" x="407" y="424" width="3" height="12">
<path d="M409.4 424.299L409.6 435.099C408.7 435.099 407.8 435.399 407.3 435.799L407.1 424.999C407.7 424.599 408.5 424.299 409.4 424.299Z" fill="white"/>
</mask>
<g mask="url(#mask24_30_69)">
<path d="M409.4 424.299L409.6 435.099C408.7 435.099 407.8 435.399 407.3 435.799L407.1 424.999C407.7 424.599 408.5 424.299 409.4 424.299Z" fill="#FFC800"/>
</g>
<path d="M388.3 434.8L388.4 445.6L380.5 433.9L380.3 423L388.3 434.8Z" fill="#FFB300"/>
<path d="M407.1 425L407.3 435.8L393.9 446L393.7 435.2L407.1 425Z" fill="#FFC800"/>
<path d="M425.7 394.4C426.5 394.8 426.9 395.5 426.6 396.2L421 408.6C420.8 409.1 420.9 409.7 421.4 410.1L433.8 420.5C435.2 421.7 433.8 423.3 431.4 423.4L409.4 424.3C408.5 424.3 407.6 424.6 407.1 425L393.7 435.2C392.5 436.1 390.3 436.2 389 435.4C388.7 435.2 388.4 435 388.3 434.8L380.4 423C380.2 422.8 380 422.5 379.7 422.4C379.4 422.2 379 422.1 378.6 422L357.9 417.9C357.4 417.8 357.1 417.7 356.8 417.5C355.5 416.8 355.5 415.5 357 414.8L374 406.6C374.7 406.3 375.1 405.8 375.2 405.2L375.8 392.5C375.9 391.1 378.6 390.2 380.7 391L399.2 397.7C400 398 400.9 398 401.8 397.9L422.9 394.1C423.8 393.8 425 394 425.7 394.4Z" fill="#FBD60D"/>
<mask id="mask25_30_69" style="mask-type:luminance" maskUnits="userSpaceOnUse" x="388" y="434" width="6" height="13">
<path d="M393.7 435.199L393.9 445.999C392.7 446.899 390.5 446.999 389.2 446.199C388.9 445.999 388.6 445.799 388.5 445.599L388.3 434.799C388.5 435.099 388.7 435.299 389 435.399C390.3 436.199 392.5 436.199 393.7 435.199Z" fill="white"/>
</mask>
<g mask="url(#mask25_30_69)">
<path d="M393.7 435.199L393.9 445.999C392.7 446.899 390.5 446.999 389.2 446.199C388.9 445.999 388.6 445.799 388.5 445.599L388.3 434.799C388.5 435.099 388.7 435.299 389 435.399C390.3 436.199 392.5 436.199 393.7 435.199Z" fill="#FFC800"/>
</g>
<mask id="mask26_30_69" style="mask-type:luminance" maskUnits="userSpaceOnUse" x="434" y="385" width="1" height="12">
<path d="M434.7 385.699L434.9 396.499C434.9 396.699 434.9 396.799 434.8 396.999L434.6 386.199C434.7 385.999 434.7 385.799 434.7 385.699Z" fill="white"/>
</mask>
<g mask="url(#mask26_30_69)">
<path d="M434.7 385.699L434.9 396.499C434.9 396.699 434.9 396.799 434.8 396.999L434.6 386.199C434.7 385.999 434.7 385.799 434.7 385.699Z" fill="#FFC800"/>
</g>
<path d="M434.6 386.199L434.8 396.999L429.1 409.399L429 398.599L434.6 386.199Z" fill="#FFB300"/>
<mask id="mask27_30_69" style="mask-type:luminance" maskUnits="userSpaceOnUse" x="428" y="398" width="2" height="12">
<path d="M429 409.8L428.8 399C428.8 398.8 428.8 398.7 428.9 398.5L429.1 409.3C429.1 409.5 429 409.7 429 409.8Z" fill="white"/>
</mask>
<g mask="url(#mask27_30_69)">
<path d="M429 398.6L429.2 409.4C429.1 409.6 429.1 409.7 429.1 409.9L428.9 399.1C428.9 398.9 428.9 398.7 429 398.6Z" fill="#FFC800"/>
</g>
<mask id="mask28_30_69" style="mask-type:luminance" maskUnits="userSpaceOnUse" x="363" y="406" width="3" height="13">
<path d="M363.8 416.999L363.6 406.199C363.6 406.699 363.9 407.199 364.6 407.499C364.9 407.699 365.3 407.799 365.7 407.899L365.9 418.699C365.4 418.599 365.1 418.499 364.8 418.299C364.1 417.999 363.8 417.499 363.8 416.999Z" fill="white"/>
</mask>
<g mask="url(#mask28_30_69)">
<path d="M365.7 407.899L365.9 418.699C365.4 418.599 365.1 418.499 364.8 418.299C364.2 417.999 363.9 417.499 363.8 416.999L363.6 406.199C363.6 406.699 363.9 407.199 364.6 407.499C364.9 407.699 365.3 407.799 365.7 407.899Z" fill="#FFC800"/>
</g>
<path d="M386.4 412L386.6 422.8L365.9 418.7L365.7 407.9L386.4 412Z" fill="#FFC800"/>
<mask id="mask29_30_69" style="mask-type:luminance" maskUnits="userSpaceOnUse" x="386" y="412" width="3" height="12">
<path d="M388.3 413L388.5 423.8C388.3 423.6 388.1 423.3 387.8 423.2C387.5 423 387.1 422.9 386.7 422.8L386.5 412C386.9 412.1 387.3 412.2 387.6 412.4C387.9 412.6 388.2 412.8 388.3 413Z" fill="white"/>
</mask>
<g mask="url(#mask29_30_69)">
<path d="M388.3 413L388.5 423.8C388.3 423.6 388.1 423.3 387.8 423.2C387.5 423 387.1 422.9 386.7 422.8L386.5 412C386.9 412.1 387.3 412.2 387.6 412.4C387.9 412.6 388.2 412.8 388.3 413Z" fill="#FFC800"/>
</g>
<mask id="mask30_30_69" style="mask-type:luminance" maskUnits="userSpaceOnUse" x="439" y="411" width="4" height="14">
<path d="M442.4 411.4L442.6 422.2C442.6 423.1 441.4 424 439.6 424.1L439.4 413.3C441.2 413.2 442.4 412.4 442.4 411.4Z" fill="white"/>
</mask>
<g mask="url(#mask30_30_69)">
<path d="M442.4 411.4L442.6 422.2C442.6 423.1 441.4 424 439.6 424.1L439.4 413.3C441.2 413.2 442.4 412.4 442.4 411.4Z" fill="#FFC800"/>
</g>
<path d="M439.4 413.299L439.6 424.099L417.6 425.099L417.5 414.199L439.4 413.299Z" fill="#FFB300"/>
<mask id="mask31_30_69" style="mask-type:luminance" maskUnits="userSpaceOnUse" x="415" y="414" width="3" height="12">
<path d="M417.5 414.199L417.7 424.999C416.8 424.999 415.9 425.299 415.4 425.699L415.2 414.899C415.7 414.599 416.5 414.299 417.5 414.199Z" fill="white"/>
</mask>
<g mask="url(#mask31_30_69)">
<path d="M417.5 414.199L417.7 424.999C416.8 424.999 415.9 425.299 415.4 425.699L415.2 414.899C415.7 414.599 416.5 414.299 417.5 414.199Z" fill="#FFC800"/>
</g>
<path d="M396.3 424.8L396.4 435.6L388.5 423.8L388.3 413L396.3 424.8Z" fill="#FFB300"/>
<path d="M415.1 415L415.3 425.8L401.9 436L401.7 425.2L415.1 415Z" fill="#FFC800"/>
<path d="M433.7 384.4C434.5 384.8 434.9 385.5 434.6 386.2L429 398.6C428.8 399.1 428.9 399.7 429.4 400.1L441.8 410.5C443.2 411.7 441.8 413.3 439.4 413.4L417.4 414.3C416.5 414.3 415.6 414.6 415.1 415L401.7 425.2C400.5 426.1 398.3 426.2 397 425.4C396.7 425.2 396.4 425 396.3 424.8L388.4 413C388.2 412.8 388 412.5 387.7 412.4C387.4 412.2 387 412.1 386.6 412L365.9 407.9C365.4 407.8 365.1 407.7 364.8 407.5C363.5 406.8 363.5 405.5 365 404.8L382 396.6C382.7 396.3 383.1 395.8 383.2 395.2L383.8 382.5C383.9 381.1 386.6 380.2 388.7 381L407.2 387.7C408 388 408.9 388 409.8 387.9L430.9 384.1C431.8 383.8 433 384 433.7 384.4Z" fill="#FBD60D"/>
<mask id="mask32_30_69" style="mask-type:luminance" maskUnits="userSpaceOnUse" x="396" y="424" width="6" height="13">
<path d="M401.7 425.199L401.9 435.999C400.7 436.899 398.5 436.999 397.2 436.199C396.9 435.999 396.6 435.799 396.5 435.599L396.3 424.799C396.5 425.099 396.7 425.299 397 425.399C398.3 426.199 400.5 426.099 401.7 425.199Z" fill="white"/>
</mask>
<g mask="url(#mask32_30_69)">
<path d="M401.7 425.199L401.9 435.999C400.7 436.899 398.5 436.999 397.2 436.199C396.9 435.999 396.6 435.799 396.5 435.599L396.3 424.799C396.5 425.099 396.7 425.299 397 425.399C398.3 426.199 400.5 426.099 401.7 425.199Z" fill="#FFC800"/>
</g>
<mask id="mask33_30_69" style="mask-type:luminance" maskUnits="userSpaceOnUse" x="428" y="373" width="1" height="12">
<path d="M428.3 373.299L428.5 384.099C428.5 384.299 428.5 384.399 428.4 384.599L428.2 373.799C428.3 373.599 428.3 373.399 428.3 373.299Z" fill="white"/>
</mask>
<g mask="url(#mask33_30_69)">
<path d="M428.3 373.299L428.5 384.099C428.5 384.299 428.5 384.399 428.4 384.599L428.2 373.799C428.3 373.599 428.3 373.399 428.3 373.299Z" fill="#FFC800"/>
</g>
<path d="M428.2 373.799L428.4 384.599L422.8 396.999L422.6 386.199L428.2 373.799Z" fill="#FFB300"/>
<mask id="mask34_30_69" style="mask-type:luminance" maskUnits="userSpaceOnUse" x="422" y="386" width="1" height="12">
<path d="M422.7 397.4L422.5 386.6C422.5 386.4 422.5 386.3 422.6 386.1L422.8 396.9C422.7 397.1 422.7 397.3 422.7 397.4Z" fill="white"/>
</mask>
<g mask="url(#mask34_30_69)">
<path d="M422.6 386.199L422.8 396.999C422.7 397.199 422.7 397.299 422.7 397.499L422.5 386.699C422.5 386.499 422.5 386.299 422.6 386.199Z" fill="#FFC800"/>
</g>
<mask id="mask35_30_69" style="mask-type:luminance" maskUnits="userSpaceOnUse" x="357" y="393" width="3" height="14">
<path d="M357.4 404.599L357.2 393.799C357.2 394.299 357.5 394.799 358.2 395.099C358.5 395.299 358.9 395.399 359.3 395.499L359.5 406.299C359 406.199 358.7 406.099 358.4 405.899C357.8 405.599 357.4 405.099 357.4 404.599Z" fill="white"/>
</mask>
<g mask="url(#mask35_30_69)">
<path d="M359.4 395.499L359.6 406.299C359.1 406.199 358.8 406.099 358.5 405.899C357.9 405.599 357.6 405.099 357.5 404.599L357.3 393.799C357.3 394.299 357.6 394.799 358.3 395.099C358.5 395.299 358.9 395.399 359.4 395.499Z" fill="#FFC800"/>
</g>
<path d="M380.1 399.6L380.2 410.4L359.5 406.3L359.4 395.5L380.1 399.6Z" fill="#FFC800"/>
<mask id="mask36_30_69" style="mask-type:luminance" maskUnits="userSpaceOnUse" x="380" y="399" width="3" height="13">
<path d="M382 400.6L382.2 411.4C382 411.2 381.8 410.9 381.5 410.8C381.2 410.6 380.8 410.5 380.4 410.4L380.2 399.6C380.6 399.7 381 399.8 381.3 400C381.5 400.2 381.8 400.4 382 400.6Z" fill="white"/>
</mask>
<g mask="url(#mask36_30_69)">
<path d="M382 400.6L382.2 411.4C382 411.2 381.8 410.9 381.5 410.8C381.2 410.6 380.8 410.5 380.4 410.4L380.2 399.6C380.6 399.7 381 399.8 381.3 400C381.5 400.2 381.8 400.4 382 400.6Z" fill="#FFC800"/>
</g>
<mask id="mask37_30_69" style="mask-type:luminance" maskUnits="userSpaceOnUse" x="433" y="399" width="4" height="13">
<path d="M436 399L436.2 409.8C436.2 410.7 435 411.6 433.2 411.7L433 400.9C434.8 400.8 436 400 436 399Z" fill="white"/>
</mask>
<g mask="url(#mask37_30_69)">
<path d="M436 399L436.2 409.8C436.2 410.7 435 411.6 433.2 411.7L433 400.9C434.8 400.8 436 400 436 399Z" fill="#FFC800"/>
</g>
<path d="M433 400.898L433.2 411.698L411.3 412.598L411.1 401.798L433 400.898Z" fill="#FFB300"/>
<mask id="mask38_30_69" style="mask-type:luminance" maskUnits="userSpaceOnUse" x="408" y="401" width="4" height="13">
<path d="M411.1 401.799L411.3 412.599C410.4 412.599 409.5 412.899 409 413.299L408.8 402.499C409.3 402.199 410.2 401.899 411.1 401.799Z" fill="white"/>
</mask>
<g mask="url(#mask38_30_69)">
<path d="M411.1 401.799L411.3 412.599C410.4 412.599 409.5 412.899 409 413.299L408.8 402.499C409.3 402.199 410.2 401.899 411.1 401.799Z" fill="#FFC800"/>
</g>
<path d="M389.9 412.4L390.1 423.2L382.1 411.4L382 400.6L389.9 412.4Z" fill="#FFB300"/>
<path d="M408.8 402.6L408.9 413.4L395.5 423.6L395.3 412.8L408.8 402.6Z" fill="#FFC800"/>
<path d="M427.4 371.999C428.2 372.399 428.6 373.099 428.3 373.799L422.7 386.199C422.5 386.699 422.6 387.299 423.1 387.699L435.5 398.099C436.9 399.299 435.5 400.899 433.1 400.999L411.1 401.899C410.2 401.899 409.3 402.199 408.8 402.599L395.4 412.799C394.2 413.699 392 413.799 390.7 412.999C390.4 412.799 390.1 412.599 390 412.399L382.1 400.599C381.9 400.399 381.7 400.099 381.4 399.999C381.1 399.799 380.7 399.699 380.3 399.599L359.6 395.499C359.1 395.399 358.8 395.299 358.5 395.099C357.2 394.399 357.2 393.099 358.7 392.399L375.7 384.199C376.4 383.899 376.8 383.399 376.9 382.799L377.5 370.099C377.6 368.699 380.3 367.799 382.4 368.599L400.9 375.299C401.7 375.599 402.6 375.599 403.5 375.499L424.6 371.699C425.5 371.399 426.6 371.599 427.4 371.999Z" fill="#FFE034"/>
<mask id="mask39_30_69" style="mask-type:luminance" maskUnits="userSpaceOnUse" x="389" y="412" width="7" height="13">
<path d="M395.3 412.798L395.5 423.598C394.3 424.498 392.1 424.598 390.8 423.798C390.5 423.598 390.2 423.398 390.1 423.198L389.9 412.398C390.1 412.698 390.3 412.898 390.6 412.998C391.9 413.798 394.1 413.698 395.3 412.798Z" fill="white"/>
</mask>
<g mask="url(#mask39_30_69)">
<path d="M395.3 412.798L395.5 423.598C394.3 424.498 392.1 424.598 390.8 423.798C390.5 423.598 390.2 423.398 390.1 423.198L389.9 412.398C390.1 412.698 390.3 412.898 390.6 412.998C391.9 413.798 394.1 413.698 395.3 412.798Z" fill="#FFC800"/>
</g>
<path d="M201.5 155.799L210.7 150.199C211 149.999 211.4 149.999 211.8 150.099L202.6 155.699C202.2 155.499 201.8 155.599 201.5 155.799Z" fill="#FFC800"/>
<mask id="mask40_30_69" style="mask-type:luminance" maskUnits="userSpaceOnUse" x="201" y="150" width="11" height="6">
<path d="M201.5 155.799L210.7 150.199C211 149.999 211.4 149.999 211.8 150.099L202.6 155.699C202.2 155.499 201.8 155.599 201.5 155.799Z" fill="white"/>
</mask>
<g mask="url(#mask40_30_69)">
<path d="M201.5 155.799L210.7 150.199C211 149.999 211.4 149.999 211.8 150.099L202.6 155.699C202.2 155.499 201.8 155.599 201.5 155.799Z" fill="#FFC800"/>
</g>
<path d="M257 214.1L247.8 219.7C248.2 219.4 248.5 218.8 248.4 218L257.6 212.4C257.7 213.3 257.5 213.9 257 214.1Z" fill="#FFC800"/>
<mask id="mask41_30_69" style="mask-type:luminance" maskUnits="userSpaceOnUse" x="247" y="212" width="11" height="8">
<path d="M257 214.1L247.8 219.7C248.2 219.4 248.5 218.8 248.4 218L257.6 212.4C257.7 213.3 257.5 213.9 257 214.1Z" fill="white"/>
</mask>
<g mask="url(#mask41_30_69)">
<path d="M248.4 218L257.6 212.4C257.7 213.3 257.4 213.9 257 214.1L247.8 219.7C248.2 219.5 248.5 218.9 248.4 218Z" fill="#FFC800"/>
</g>
<path d="M202.6 155.7L211.9 150.1L227.3 155.1L218 160.7L202.6 155.7Z" fill="#FFC800"/>
<path d="M228.4 155L219.2 160.6C218.9 160.8 218.5 160.8 218.1 160.7L227.3 155.1C227.7 155.3 228.1 155.2 228.4 155Z" fill="#FFC800"/>
<mask id="mask42_30_69" style="mask-type:luminance" maskUnits="userSpaceOnUse" x="218" y="155" width="11" height="6">
<path d="M228.4 155L219.2 160.6C218.9 160.8 218.5 160.8 218.1 160.7L227.3 155.1C227.7 155.3 228.1 155.2 228.4 155Z" fill="white"/>
</mask>
<g mask="url(#mask42_30_69)">
<path d="M218 160.7L227.2 155.1C227.6 155.2 228 155.2 228.3 155L219.1 160.6C218.9 160.8 218.5 160.9 218 160.7Z" fill="#FFC800"/>
</g>
<path d="M246.3 199.2L255.5 193.6L257.6 212.4L248.4 218L246.3 199.2Z" fill="#FFC800"/>
<path d="M246.8 197.399L256 191.799C255.6 192.099 255.4 192.699 255.5 193.499L246.3 199.099C246.2 198.399 246.4 197.799 246.8 197.399Z" fill="#FFC800"/>
<mask id="mask43_30_69" style="mask-type:luminance" maskUnits="userSpaceOnUse" x="246" y="191" width="10" height="9">
<path d="M246.8 197.399L256 191.799C255.6 192.099 255.4 192.699 255.5 193.499L246.3 199.099C246.2 198.399 246.4 197.799 246.8 197.399Z" fill="white"/>
</mask>
<g mask="url(#mask43_30_69)">
<path d="M246.8 197.399L256 191.799C255.6 192.099 255.4 192.699 255.5 193.499L246.3 199.099C246.2 198.399 246.4 197.799 246.8 197.399Z" fill="#FFC800"/>
</g>
<path d="M239 171L248.2 165.4C248.5 166.2 249.1 167 249.7 167.5L240.5 173.1C239.9 172.6 239.3 171.9 239 171Z" fill="#FFC800"/>
<mask id="mask44_30_69" style="mask-type:luminance" maskUnits="userSpaceOnUse" x="239" y="165" width="11" height="9">
<path d="M239 171L248.2 165.4C248.5 166.2 249.1 167 249.7 167.5L240.5 173.1C239.9 172.6 239.3 171.9 239 171Z" fill="white"/>
</mask>
<g mask="url(#mask44_30_69)">
<path d="M239 171L248.2 165.4C248.5 166.2 249.1 167 249.7 167.5L240.5 173.1C239.9 172.6 239.3 171.9 239 171Z" fill="#FFC800"/>
</g>
<path d="M227.4 148.6L236.6 142.999C237 142.699 237.6 142.8 238.2 143.1L229 148.699C228.4 148.399 227.8 148.3 227.4 148.6Z" fill="#FFC800"/>
<mask id="mask45_30_69" style="mask-type:luminance" maskUnits="userSpaceOnUse" x="227" y="142" width="12" height="7">
<path d="M227.4 148.6L236.6 142.999C237 142.699 237.6 142.8 238.2 143.1L229 148.699C228.4 148.399 227.8 148.3 227.4 148.6Z" fill="white"/>
</mask>
<g mask="url(#mask45_30_69)">
<path d="M227.4 148.6L236.6 142.999C237 142.699 237.6 142.8 238.2 143.1L229 148.699C228.4 148.399 227.8 148.3 227.4 148.6Z" fill="#FFC800"/>
</g>
<path d="M231 151.1L240.2 145.5L248.2 165.4L239 171L231 151.1Z" fill="#FFC800"/>
<path d="M229 148.7L238.2 143.1C239 143.5 239.7 144.4 240.2 145.5L231 151.1C230.5 150 229.8 149.2 229 148.7Z" fill="#FFC800"/>
<mask id="mask46_30_69" style="mask-type:luminance" maskUnits="userSpaceOnUse" x="229" y="143" width="12" height="9">
<path d="M229 148.7L238.2 143.1C239 143.5 239.7 144.4 240.2 145.5L231 151.1C230.5 150 229.8 149.2 229 148.7Z" fill="white"/>
</mask>
<g mask="url(#mask46_30_69)">
<path d="M229 148.7L238.2 143.1C239 143.5 239.7 144.4 240.2 145.5L231 151.1C230.5 150 229.8 149.2 229 148.7Z" fill="#FFC800"/>
</g>
<path d="M257.3 190.2L266.5 184.6L256.1 191.8L246.8 197.4L257.3 190.2Z" fill="#FFC800"/>
<path d="M240.5 173.1L249.7 167.5L265.3 179.6L256 185.2L240.5 173.1Z" fill="#FFC800"/>
<path d="M229 148.7C229.8 149.1 230.5 150 231 151.1L239 171C239.3 171.8 239.9 172.6 240.5 173.1L256 185.2C257.7 186.6 258.5 189.3 257.3 190.1L246.8 197.4C246.4 197.7 246.2 198.3 246.2 199.1L248.3 217.9C248.5 219.6 247.4 220.2 246.1 219.5C245.8 219.3 245.5 219.1 245.2 218.7L230.7 203.3C230.4 203 230.1 202.7 229.8 202.5C229.5 202.3 229.2 202.2 228.9 202.2L214.7 201.7C214.4 201.7 214.1 201.6 213.8 201.4C212.5 200.7 211.4 198.8 211.5 197.3L213 180.5C213.1 179.8 212.8 178.9 212.4 178.1L201.5 159C200.3 156.9 200.9 154.9 202.7 155.4L218.1 160.4C218.7 160.6 219.3 160.5 219.6 160L227 149C227.5 148.3 228.2 148.3 229 148.7Z" fill="#FFE034"/>
<path d="M256 185.2L265.2 179.6C266.9 181 267.7 183.7 266.5 184.5L257.3 190.1C258.5 189.3 257.7 186.6 256 185.2Z" fill="#FFC800"/>
<mask id="mask47_30_69" style="mask-type:luminance" maskUnits="userSpaceOnUse" x="256" y="179" width="12" height="12">
<path d="M256 185.2L265.2 179.6C266.9 181 267.7 183.7 266.5 184.5L257.3 190.1C258.5 189.3 257.7 186.6 256 185.2Z" fill="white"/>
</mask>
<g mask="url(#mask47_30_69)">
<path d="M256 185.2L265.2 179.6C266.9 181 267.7 183.7 266.5 184.5L257.3 190.1C258.5 189.3 257.7 186.6 256 185.2Z" fill="#FFC800"/>
</g>
<path d="M263 190.1L272.2 184.5C272.5 184.3 272.9 184.3 273.3 184.4L264.1 190C263.6 189.9 263.3 190 263 190.1Z" fill="#FFC800"/>
<mask id="mask48_30_69" style="mask-type:luminance" maskUnits="userSpaceOnUse" x="263" y="184" width="11" height="7">
<path d="M263 190.1L272.2 184.5C272.5 184.3 272.9 184.3 273.3 184.4L264.1 190C263.6 189.9 263.3 190 263 190.1Z" fill="white"/>
</mask>
<g mask="url(#mask48_30_69)">
<path d="M263 190.1L272.2 184.5C272.5 184.3 272.9 184.3 273.3 184.4L264.1 190C263.6 189.9 263.3 190 263 190.1Z" fill="#FFC800"/>
</g>
<path d="M318.5 248.501L309.3 254.101C309.7 253.801 310 253.201 309.9 252.401L319.1 246.801C319.2 247.601 318.9 248.201 318.5 248.501Z" fill="#FFC800"/>
<mask id="mask49_30_69" style="mask-type:luminance" maskUnits="userSpaceOnUse" x="309" y="246" width="11" height="9">
<path d="M318.5 248.501L309.3 254.101C309.7 253.801 310 253.201 309.9 252.401L319.1 246.801C319.2 247.601 318.9 248.201 318.5 248.501Z" fill="white"/>
</mask>
<g mask="url(#mask49_30_69)">
<path d="M309.8 252.301L319 246.701C319.1 247.601 318.8 248.201 318.4 248.401L309.2 254.001C309.7 253.801 309.9 253.201 309.8 252.301Z" fill="#FFC800"/>
</g>
<path d="M264.1 190.1L273.3 184.5L288.7 189.5L279.5 195.1L264.1 190.1Z" fill="#FFC800"/>
<path d="M289.9 189.4L280.7 195C280.4 195.2 280 195.2 279.6 195.1L288.8 189.5C289.2 189.6 289.6 189.6 289.9 189.4Z" fill="#FFC800"/>
<mask id="mask50_30_69" style="mask-type:luminance" maskUnits="userSpaceOnUse" x="279" y="189" width="11" height="7">
<path d="M289.9 189.4L280.7 195C280.4 195.2 280 195.2 279.6 195.1L288.8 189.5C289.2 189.6 289.6 189.6 289.9 189.4Z" fill="white"/>
</mask>
<g mask="url(#mask50_30_69)">
<path d="M279.5 195.1L288.7 189.5C289.1 189.6 289.499 189.6 289.799 189.4L280.6 195C280.4 195.2 280 195.2 279.5 195.1Z" fill="#FFC800"/>
</g>
<path d="M307.7 233.5L317 227.9L319.1 246.7L309.8 252.3L307.7 233.5Z" fill="#FFC800"/>
<path d="M308.3 231.799L317.5 226.199C317.1 226.499 316.9 227.099 316.9 227.899L307.7 233.499C307.7 232.699 307.9 232.099 308.3 231.799Z" fill="#FFC800"/>
<mask id="mask51_30_69" style="mask-type:luminance" maskUnits="userSpaceOnUse" x="307" y="226" width="11" height="8">
<path d="M308.3 231.799L317.5 226.199C317.1 226.499 316.9 227.099 316.9 227.899L307.7 233.499C307.7 232.699 307.9 232.099 308.3 231.799Z" fill="white"/>
</mask>
<g mask="url(#mask51_30_69)">
<path d="M308.3 231.799L317.5 226.199C317.1 226.499 316.9 227.099 316.9 227.899L307.7 233.499C307.7 232.699 307.9 232.099 308.3 231.799Z" fill="#FFC800"/>
</g>
<path d="M300.4 205.401L309.6 199.801C309.9 200.601 310.5 201.401 311.1 201.901L301.9 207.501C301.3 207.001 300.8 206.201 300.4 205.401Z" fill="#FFC800"/>
<mask id="mask52_30_69" style="mask-type:luminance" maskUnits="userSpaceOnUse" x="300" y="199" width="12" height="9">
<path d="M300.4 205.401L309.6 199.801C309.9 200.601 310.5 201.401 311.1 201.901L301.9 207.501C301.3 207.001 300.8 206.201 300.4 205.401Z" fill="white"/>
</mask>
<g mask="url(#mask52_30_69)">
<path d="M300.4 205.401L309.6 199.801C309.9 200.601 310.5 201.401 311.1 201.901L301.9 207.501C301.3 207.001 300.8 206.201 300.4 205.401Z" fill="#FFC800"/>
</g>
<path d="M288.9 183L298.1 177.4C298.5 177.1 299.1 177.2 299.7 177.5L290.5 183.1C289.9 182.8 289.3 182.7 288.9 183Z" fill="#FFC800"/>
<mask id="mask53_30_69" style="mask-type:luminance" maskUnits="userSpaceOnUse" x="288" y="177" width="12" height="7">
<path d="M288.9 183L298.1 177.4C298.5 177.1 299.1 177.2 299.7 177.5L290.5 183.1C289.9 182.8 289.3 182.7 288.9 183Z" fill="white"/>
</mask>
<g mask="url(#mask53_30_69)">
<path d="M288.9 183L298.1 177.4C298.5 177.1 299.1 177.2 299.7 177.5L290.5 183.1C289.9 182.8 289.3 182.7 288.9 183Z" fill="#FFC800"/>
</g>
<path d="M292.4 185.5L301.7 179.9L309.7 199.8L300.4 205.4L292.4 185.5Z" fill="#FFC800"/>
<path d="M290.5 183.1L299.7 177.5C300.5 177.9 301.2 178.8 301.7 179.9L292.5 185.5C292 184.4 291.2 183.5 290.5 183.1Z" fill="#FFC800"/>
<mask id="mask54_30_69" style="mask-type:luminance" maskUnits="userSpaceOnUse" x="290" y="177" width="12" height="9">
<path d="M290.5 183.1L299.7 177.5C300.5 177.9 301.2 178.8 301.7 179.9L292.5 185.5C292 184.4 291.2 183.5 290.5 183.1Z" fill="white"/>
</mask>
<g mask="url(#mask54_30_69)">
<path d="M290.5 183.1L299.7 177.5C300.5 177.9 301.2 178.8 301.7 179.9L292.5 185.5C292 184.4 291.2 183.5 290.5 183.1Z" fill="#FFC800"/>
</g>
<path d="M318.8 224.5L328 218.9L317.5 226.2L308.3 231.8L318.8 224.5Z" fill="#FFC800"/>
<path d="M302 207.5L311.2 201.9L326.7 214L317.5 219.6L302 207.5Z" fill="#FFC800"/>
<path d="M290.5 183.1C291.3 183.5 292 184.4 292.5 185.5L300.5 205.4C300.8 206.2 301.4 207 302 207.5L317.5 219.6C319.2 221 320 223.7 318.8 224.5L308.3 231.8C307.9 232.1 307.7 232.7 307.8 233.5L309.9 252.3C310.1 254 309 254.6 307.7 253.9C307.4 253.7 307.1 253.5 306.8 253.1L292.3 237.7C292 237.4 291.7 237.1 291.4 236.9C291.1 236.7 290.8 236.6 290.5 236.6L276.3 236.1C276 236.1 275.7 236 275.4 235.8C274.1 235.1 273 233.2 273.1 231.7L274.6 214.9C274.7 214.2 274.4 213.3 274 212.5L263 193.7C261.8 191.6 262.4 189.6 264.2 190.1L279.6 195.1C280.2 195.3 280.8 195.2 281.1 194.7L288.6 183.4C288.9 182.7 289.7 182.7 290.5 183.1Z" fill="#FFE034"/>
<path d="M317.5 219.6L326.7 214C328.4 215.4 329.2 218.1 328 218.9L318.8 224.5C319.9 223.7 319.2 220.9 317.5 219.6Z" fill="#FFC800"/>
<mask id="mask55_30_69" style="mask-type:luminance" maskUnits="userSpaceOnUse" x="317" y="214" width="12" height="11">
<path d="M317.5 219.6L326.7 214C328.4 215.4 329.2 218.1 328 218.9L318.8 224.5C319.9 223.7 319.2 220.9 317.5 219.6Z" fill="white"/>
</mask>
<g mask="url(#mask55_30_69)">
<path d="M317.5 219.6L326.7 214C328.4 215.4 329.2 218.1 328 218.9L318.8 224.5C319.9 223.7 319.2 220.9 317.5 219.6Z" fill="#FFC800"/>
</g>
<path d="M325.625 223.881L334.825 218.281C335.125 218.081 335.524 218.081 335.924 218.181L326.725 223.781C326.225 223.681 325.925 223.781 325.625 223.881Z" fill="#FFC800"/>
<mask id="mask56_30_69" style="mask-type:luminance" maskUnits="userSpaceOnUse" x="325" y="218" width="11" height="6">
<path d="M325.625 223.881L334.825 218.281C335.125 218.081 335.524 218.081 335.924 218.181L326.725 223.781C326.225 223.681 325.925 223.781 325.625 223.881Z" fill="white"/>
</mask>
<g mask="url(#mask56_30_69)">
<path d="M325.625 223.881L334.825 218.281C335.125 218.081 335.524 218.081 335.924 218.181L326.725 223.781C326.225 223.681 325.925 223.781 325.625 223.881Z" fill="#FFC800"/>
</g>
<path d="M381.124 282.282L371.924 287.882C372.324 287.582 372.624 286.982 372.524 286.182L381.724 280.582C381.824 281.382 381.524 281.982 381.124 282.282Z" fill="#FFC800"/>
<mask id="mask57_30_69" style="mask-type:luminance" maskUnits="userSpaceOnUse" x="371" y="280" width="11" height="8">
<path d="M381.124 282.282L371.924 287.882C372.324 287.582 372.624 286.982 372.524 286.182L381.724 280.582C381.824 281.382 381.524 281.982 381.124 282.282Z" fill="white"/>
</mask>
<g mask="url(#mask57_30_69)">
<path d="M372.424 286.082L381.624 280.482C381.724 281.382 381.424 281.982 381.024 282.182L371.824 287.782C372.324 287.582 372.524 286.982 372.424 286.082Z" fill="#FFC800"/>
</g>
<path d="M326.724 223.881L335.924 218.281L351.324 223.281L342.124 228.881L326.724 223.881Z" fill="#FFC800"/>
<path d="M352.524 223.182L343.324 228.782C343.024 228.982 342.624 228.982 342.224 228.882L351.424 223.282C351.824 223.382 352.224 223.382 352.524 223.182Z" fill="#FFC800"/>
<mask id="mask58_30_69" style="mask-type:luminance" maskUnits="userSpaceOnUse" x="342" y="223" width="11" height="6">
<path d="M352.524 223.182L343.324 228.782C343.024 228.982 342.624 228.982 342.224 228.882L351.424 223.282C351.824 223.382 352.224 223.382 352.524 223.182Z" fill="white"/>
</mask>
<g mask="url(#mask58_30_69)">
<path d="M342.124 228.882L351.324 223.282C351.724 223.382 352.124 223.382 352.424 223.182L343.224 228.782C343.024 228.982 342.624 228.982 342.124 228.882Z" fill="#FFC800"/>
</g>
<path d="M370.324 267.282L379.624 261.682L381.724 280.482L372.424 286.082L370.324 267.282Z" fill="#FFC800"/>
<path d="M370.924 265.58L380.124 259.98C379.724 260.28 379.524 260.88 379.524 261.68L370.324 267.28C370.324 266.48 370.524 265.88 370.924 265.58Z" fill="#FFC800"/>
<mask id="mask59_30_69" style="mask-type:luminance" maskUnits="userSpaceOnUse" x="370" y="259" width="11" height="9">
<path d="M370.924 265.58L380.124 259.98C379.724 260.28 379.524 260.88 379.524 261.68L370.324 267.28C370.324 266.48 370.524 265.88 370.924 265.58Z" fill="white"/>
</mask>
<g mask="url(#mask59_30_69)">
<path d="M370.924 265.58L380.124 259.98C379.724 260.28 379.524 260.88 379.524 261.68L370.324 267.28C370.324 266.48 370.524 265.88 370.924 265.58Z" fill="#FFC800"/>
</g>
<path d="M363.024 239.182L372.224 233.582C372.524 234.382 373.124 235.182 373.724 235.682L364.524 241.282C363.924 240.782 363.424 239.982 363.024 239.182Z" fill="#FFC800"/>
<mask id="mask60_30_69" style="mask-type:luminance" maskUnits="userSpaceOnUse" x="363" y="233" width="11" height="9">
<path d="M363.024 239.182L372.224 233.582C372.524 234.382 373.124 235.182 373.724 235.682L364.524 241.282C363.924 240.782 363.424 239.982 363.024 239.182Z" fill="white"/>
</mask>
<g mask="url(#mask60_30_69)">
<path d="M363.024 239.182L372.224 233.582C372.524 234.382 373.124 235.182 373.724 235.682L364.524 241.282C363.924 240.782 363.424 239.982 363.024 239.182Z" fill="#FFC800"/>
</g>
<path d="M351.524 216.781L360.724 211.181C361.124 210.881 361.724 210.981 362.324 211.281L353.124 216.881C352.524 216.581 351.924 216.481 351.524 216.781Z" fill="#FFC800"/>
<mask id="mask61_30_69" style="mask-type:luminance" maskUnits="userSpaceOnUse" x="351" y="211" width="12" height="6">
<path d="M351.524 216.781L360.724 211.181C361.124 210.881 361.724 210.981 362.324 211.281L353.124 216.881C352.524 216.581 351.924 216.481 351.524 216.781Z" fill="white"/>
</mask>
<g mask="url(#mask61_30_69)">
<path d="M351.524 216.781L360.724 211.181C361.124 210.881 361.724 210.981 362.324 211.281L353.124 216.881C352.524 216.581 351.924 216.481 351.524 216.781Z" fill="#FFC800"/>
</g>
<path d="M355.024 219.282L364.324 213.682L372.324 233.582L363.024 239.182L355.024 219.282Z" fill="#FFC800"/>
<path d="M353.125 216.881L362.325 211.281C363.125 211.681 363.825 212.581 364.325 213.681L355.125 219.281C354.625 218.181 353.825 217.281 353.125 216.881Z" fill="#FFC800"/>
<mask id="mask62_30_69" style="mask-type:luminance" maskUnits="userSpaceOnUse" x="353" y="211" width="12" height="9">
<path d="M353.125 216.881L362.325 211.281C363.125 211.681 363.825 212.581 364.325 213.681L355.125 219.281C354.625 218.181 353.825 217.281 353.125 216.881Z" fill="white"/>
</mask>
<g mask="url(#mask62_30_69)">
<path d="M353.125 216.881L362.325 211.281C363.125 211.681 363.825 212.581 364.325 213.681L355.125 219.281C354.625 218.181 353.825 217.281 353.125 216.881Z" fill="#FFC800"/>
</g>
<path d="M381.424 258.282L390.624 252.682L380.124 259.982L370.924 265.582L381.424 258.282Z" fill="#FFC800"/>
<path d="M364.625 241.282L373.825 235.682L389.325 247.782L380.125 253.382L364.625 241.282Z" fill="#FFC800"/>
<path d="M353.124 216.882C353.924 217.282 354.624 218.182 355.124 219.282L363.124 239.182C363.424 239.982 364.024 240.782 364.624 241.282L380.124 253.382C381.824 254.782 382.624 257.482 381.424 258.282L370.924 265.582C370.524 265.882 370.324 266.482 370.424 267.282L372.524 286.082C372.724 287.782 371.624 288.382 370.324 287.682C370.024 287.482 369.724 287.282 369.424 286.882L354.924 271.482C354.624 271.182 354.324 270.882 354.024 270.682C353.724 270.482 353.424 270.382 353.124 270.382L338.924 269.882C338.624 269.882 338.324 269.782 338.024 269.582C336.724 268.882 335.624 266.982 335.724 265.482L337.224 248.682C337.324 247.982 337.024 247.082 336.624 246.282L325.624 227.482C324.424 225.382 325.024 223.382 326.824 223.882L342.224 228.882C342.824 229.082 343.424 228.982 343.724 228.482L351.224 217.182C351.524 216.482 352.324 216.482 353.124 216.882Z" fill="#FFE034"/>
<path d="M380.125 253.381L389.325 247.781C391.025 249.181 391.825 251.881 390.625 252.681L381.424 258.281C382.524 257.481 381.825 254.681 380.125 253.381Z" fill="#FFC800"/>
<mask id="mask63_30_69" style="mask-type:luminance" maskUnits="userSpaceOnUse" x="380" y="247" width="12" height="12">
<path d="M380.125 253.381L389.325 247.781C391.025 249.181 391.825 251.881 390.625 252.681L381.424 258.281C382.524 257.481 381.825 254.681 380.125 253.381Z" fill="white"/>
</mask>
<g mask="url(#mask63_30_69)">
<path d="M380.125 253.381L389.325 247.781C391.025 249.181 391.825 251.881 390.625 252.681L381.424 258.281C382.524 257.481 381.825 254.681 380.125 253.381Z" fill="#FFC800"/>
</g>
<path d="M423.9 94.0999L428.8 91.0999C431.3 89.5999 434.8 89.6999 438.7 91.8999L433.8 94.8999C429.9 92.6999 426.4 92.5999 423.9 94.0999Z" fill="#B2B7DF"/>
<mask id="mask64_30_69" style="mask-type:luminance" maskUnits="userSpaceOnUse" x="423" y="90" width="16" height="5">
<path d="M423.9 94.0999L428.8 91.0999C431.3 89.5999 434.8 89.6999 438.7 91.8999L433.8 94.8999C429.9 92.6999 426.4 92.5999 423.9 94.0999Z" fill="white"/>
</mask>
<g mask="url(#mask64_30_69)">
<path d="M423.9 94.0999L428.8 91.0999C431.3 89.5999 434.8 89.6999 438.7 91.8999L433.8 94.8999C429.9 92.6999 426.4 92.5999 423.9 94.0999Z" fill="#B2B7DF"/>
</g>
<path d="M485.3 164.1L480.4 167.1C482.9 165.6 484.4 162.5 484.3 158.1L489.2 155.1C489.2 159.5 487.8 162.7 485.3 164.1Z" fill="#B2B7DF"/>
<mask id="mask65_30_69" style="mask-type:luminance" maskUnits="userSpaceOnUse" x="480" y="155" width="10" height="13">
<path d="M485.3 164.1L480.4 167.1C482.9 165.6 484.4 162.5 484.3 158.1L489.2 155.1C489.2 159.5 487.8 162.7 485.3 164.1Z" fill="white"/>
</mask>
<g mask="url(#mask65_30_69)">
<path d="M484.3 158.1L489.2 155.1C489.3 159.5 487.8 162.6 485.3 164.1L480.4 167.1C482.9 165.6 484.4 162.5 484.3 158.1Z" fill="#B2B7DF"/>
</g>
<path d="M484 138.3L488.9 135.4L489.2 155.2L484.3 158.1L484 138.3Z" fill="#B2B7DF"/>
<path d="M433.8 94.9004L438.7 91.9004L474.6 111.6L469.7 114.6L433.8 94.9004Z" fill="#B2B7DF"/>
<path d="M469.7 114.6L474.6 111.6C482.4 115.9 488.8 126.5 488.9 135.4L484 138.4C483.9 129.5 477.5 118.9 469.7 114.6Z" fill="#B2B7DF"/>
<mask id="mask66_30_69" style="mask-type:luminance" maskUnits="userSpaceOnUse" x="469" y="111" width="20" height="28">
<path d="M469.7 114.6L474.6 111.6C482.4 115.9 488.8 126.5 488.9 135.4L484 138.4C483.9 129.5 477.5 118.9 469.7 114.6Z" fill="white"/>
</mask>
<g mask="url(#mask66_30_69)">
<path d="M469.7 114.6L474.6 111.6C482.4 115.9 488.8 126.5 488.9 135.4L484 138.4C483.9 129.5 477.5 118.9 469.7 114.6Z" fill="#B2B7DF"/>
</g>
<path d="M469.7 114.6C477.5 118.9 483.9 129.5 484 138.4L484.3 158.2C484.4 167 478.3 170.7 470.5 166.4L437.1 148C434 146.3 430.9 145.6 428.3 146L408.8 149C409.3 146.7 417.9 125 420.3 118.8L420.1 103.1C420 94.2998 426.1 90.5998 433.9 94.8998L469.7 114.6Z" fill="#DEE0F5"/>
<path d="M465.3 124.2C461.7 118.8 454.7 114.3 451.8 118.9C448.7 111 441.7 107.7 438.2 109.2C433 111.5 433.3 124.9 452.3 148.4C470.8 145.7 470.7 132.4 465.3 124.2Z" fill="#FF453F"/>
</svg>
