<svg xmlns="http://www.w3.org/2000/svg" version="1.1" xmlns:xlink="http://www.w3.org/1999/xlink" xmlns:svgjs="http://svgjs.com/svgjs" width="1920" height="3200" preserveAspectRatio="none" viewBox="0 0 1920 3200"><g mask="url(&quot;#SvgjsMask1405&quot;)" fill="none"><path d="M219.89 73.51L332.47 138.51L332.47 268.51L219.89 333.51L107.3 268.51L107.3 138.51zM107.3 658.51L219.89 723.51L219.89 853.51L107.3 918.51L-5.29 853.51L-5.29 723.51zM219.89 853.51L332.47 918.51L332.47 1048.51L219.89 1113.51L107.3 1048.51L107.3 918.51zM107.3 1828.51L219.89 1893.51L219.89 2023.51L107.3 2088.51L-5.29 2023.51L-5.29 1893.51zM107.3 2608.51L219.89 2673.51L219.89 2803.51L107.3 2868.51L-5.29 2803.51L-5.29 2673.51zM332.47 -121.49L445.06 -56.49L445.06 73.51L332.47 138.51L219.89 73.51L219.89 -56.49zM445.06 1243.51L557.65 1308.51L557.65 1438.51L445.06 1503.51L332.47 1438.51L332.47 1308.51zM445.06 1633.51L557.65 1698.51L557.65 1828.51L445.06 1893.51L332.47 1828.51L332.47 1698.51zM332.47 1828.51L445.06 1893.51L445.06 2023.51L332.47 2088.51L219.89 2023.51L219.89 1893.51zM332.47 2608.51L445.06 2673.51L445.06 2803.51L332.47 2868.51L219.89 2803.51L219.89 2673.51zM332.47 2998.51L445.06 3063.51L445.06 3193.51L332.47 3258.51L219.89 3193.51L219.89 3063.51zM670.23 73.51L782.82 138.51L782.82 268.51L670.23 333.51L557.65 268.51L557.65 138.51zM670.23 2023.51L782.82 2088.51L782.82 2218.51L670.23 2283.51L557.65 2218.51L557.65 2088.51zM670.23 2803.51L782.82 2868.51L782.82 2998.51L670.23 3063.51L557.65 2998.51L557.65 2868.51zM895.41 73.51L1007.99 138.51L1007.99 268.51L895.41 333.51L782.82 268.51L782.82 138.51zM782.82 268.51L895.41 333.51L895.41 463.51L782.82 528.51L670.23 463.51L670.23 333.51zM895.41 463.51L1007.99 528.51L1007.99 658.51L895.41 723.51L782.82 658.51L782.82 528.51zM895.41 1243.51L1007.99 1308.51L1007.99 1438.51L895.41 1503.51L782.82 1438.51L782.82 1308.51zM782.82 1438.51L895.41 1503.51L895.41 1633.51L782.82 1698.51L670.23 1633.51L670.23 1503.51zM895.41 2023.51L1007.99 2088.51L1007.99 2218.51L895.41 2283.51L782.82 2218.51L782.82 2088.51zM1120.58 2803.51L1233.16 2868.51L1233.16 2998.51L1120.58 3063.51L1007.99 2998.51L1007.99 2868.51zM1233.16 658.51L1345.75 723.51L1345.75 853.51L1233.16 918.51L1120.58 853.51L1120.58 723.51zM1345.75 2023.51L1458.34 2088.51L1458.34 2218.51L1345.75 2283.51L1233.16 2218.51L1233.16 2088.51zM1345.75 2413.51L1458.34 2478.51L1458.34 2608.51L1345.75 2673.51L1233.16 2608.51L1233.16 2478.51zM1233.16 2608.51L1345.75 2673.51L1345.75 2803.51L1233.16 2868.51L1120.58 2803.51L1120.58 2673.51zM1458.34 1048.51L1570.92 1113.51L1570.92 1243.51L1458.34 1308.51L1345.75 1243.51L1345.75 1113.51zM1683.51 -121.49L1796.1 -56.49L1796.1 73.51L1683.51 138.51L1570.92 73.51L1570.92 -56.49zM1683.51 1438.51L1796.1 1503.51L1796.1 1633.51L1683.51 1698.51L1570.92 1633.51L1570.92 1503.51zM1796.1 1633.51L1908.68 1698.51L1908.68 1828.51L1796.1 1893.51L1683.51 1828.51L1683.51 1698.51zM1908.68 2608.51L2021.27 2673.51L2021.27 2803.51L1908.68 2868.51L1796.1 2803.51L1796.1 2673.51z" stroke="rgba(10, 10, 10, 0.6)" stroke-width="2"></path><path d="M284.17 754.38L440.06 844.38L440.06 1024.38L284.17 1114.38L128.28 1024.38L128.28 844.38zM128.28 2644.38L284.17 2734.38L284.17 2914.38L128.28 3004.38L-27.61 2914.38L-27.61 2734.38zM595.95 214.38L751.84 304.38L751.84 484.38L595.95 574.38L440.06 484.38L440.06 304.38zM595.95 1294.38L751.84 1384.38L751.84 1564.38L595.95 1654.38L440.06 1564.38L440.06 1384.38zM907.73 2914.38L1063.61 3004.38L1063.61 3184.38L907.73 3274.38L751.84 3184.38L751.84 3004.38zM1219.5 754.38L1375.39 844.38L1375.39 1024.38L1219.5 1114.38L1063.61 1024.38L1063.61 844.38zM1063.61 1024.38L1219.5 1114.38L1219.5 1294.38L1063.61 1384.38L907.73 1294.38L907.73 1114.38zM1063.61 2104.38L1219.5 2194.38L1219.5 2374.38L1063.61 2464.38L907.73 2374.38L907.73 2194.38zM1219.5 2914.38L1375.39 3004.38L1375.39 3184.38L1219.5 3274.38L1063.61 3184.38L1063.61 3004.38zM1375.39 484.38L1531.28 574.38L1531.28 754.38L1375.39 844.38L1219.5 754.38L1219.5 574.38zM1531.28 2374.38L1687.17 2464.38L1687.17 2644.38L1531.28 2734.38L1375.39 2644.38L1375.39 2464.38zM1531.28 2914.38L1687.17 3004.38L1687.17 3184.38L1531.28 3274.38L1375.39 3184.38L1375.39 3004.38zM1375.39 3184.38L1531.28 3274.38L1531.28 3454.38L1375.39 3544.38L1219.5 3454.38L1219.5 3274.38zM1687.17 3184.38L1843.06 3274.38L1843.06 3454.38L1687.17 3544.38L1531.28 3454.38L1531.28 3274.38zM2154.84 2914.38L2310.73 3004.38L2310.73 3184.38L2154.84 3274.38L1998.95 3184.38L1998.95 3004.38z" stroke="rgba(40, 40, 40, 0.3)" stroke-width="2"></path></g><defs><mask id="SvgjsMask1405"><rect width="1920" height="3200" fill="#ffffff"></rect></mask></defs></svg>