<svg width="512" height="512" viewBox="0 0 512 512" fill="none" xmlns="http://www.w3.org/2000/svg">
<path d="M143.1 431.701C134.2 432.501 125 428.001 120.1 419.601L51.0001 300.501C44.7001 289.701 47.9001 275.701 58.3001 269.201C68.7001 262.701 86.9001 265.401 93.3001 276.301L164 396.701C170.7 408.001 167.1 422.201 156.1 428.301C153.4 429.701 146.1 431.401 143.1 431.701Z" fill="url(#paint0_linear_110_556)"/>
<path opacity="0.3" d="M58.1998 269.201C68.5998 262.701 86.7998 265.401 93.1998 276.301L157.9 386.301C149.7 385.501 140.3 387.201 130.1 380.301C113.1 368.901 117.8 350.001 103.7 336.201C97.1998 329.901 86.0998 323.901 65.2998 325.001L50.9998 300.501C44.5998 289.701 47.8998 275.701 58.1998 269.201Z" fill="url(#paint1_linear_110_556)"/>
<path d="M24.2001 248.9C24.6001 248.8 25.1001 248.8 25.5001 248.8L56.6001 243.4L69.2001 328.6L39.0001 333C38.3001 333.3 37.5001 333.6 36.7001 333.7C26.0001 335.4 14.6001 317.9 11.1001 294.4C7.60013 271.1 13.5001 250.7 24.2001 248.9Z" fill="url(#paint2_linear_110_556)"/>
<path d="M56.6006 243.399C49.0006 273.699 53.1006 301.999 69.2006 328.599L312.701 369.199L279.801 129.699L56.6006 243.399Z" fill="url(#paint3_linear_110_556)"/>
<path opacity="0.3" d="M239.6 309.1C216.3 303.9 204.4 271.4 178.7 274.4C158.5 276.8 155.5 298.299 135.4 299.299C114.9 300.299 108.2 278 84.4 273.7C73.6 271.7 63 274.1 53 278.9C54.1 296.1 59.4 312.6 69 328.6L312.5 369.2L286.8 290.2C266.1 307.9 251 311.6 239.6 309.1Z" fill="url(#paint4_linear_110_556)"/>
<path d="M249.7 256C259.8 324.3 293.2 375.5 324.3 370.5C355.5 365.4 372.5 306 362.5 237.7C352.4 169.4 319 118.2 287.9 123.2C256.7 128.2 239.6 187.7 249.7 256Z" fill="url(#paint5_linear_110_556)"/>
<path d="M323.7 366.299C330.3 365.199 336.4 361.199 341.7 354.499C347.2 347.599 351.6 338.199 355 326.599C362 302.099 363.3 270.799 358.5 238.399C353.7 205.999 343.5 176.499 329.7 155.399C323.2 145.399 316.2 137.799 309 132.999C301.9 128.299 295 126.399 288.4 127.499C281.8 128.599 275.7 132.599 270.4 139.299C264.9 146.199 260.5 155.599 257.1 167.199C254.2 177.399 252.2 188.899 251.3 201.099C250 218.099 263.2 233.499 266 252.299C269 272.399 261.6 294.399 268.3 310.899C272.4 321.099 277.1 330.299 282.4 338.399C288.9 348.399 295.9 355.999 303.1 360.799C310.1 365.499 317.1 367.299 323.7 366.299Z" fill="url(#paint6_linear_110_556)"/>
<mask id="mask0_110_556" style="mask-type:luminance" maskUnits="userSpaceOnUse" x="250" y="127" width="112" height="240">
<path d="M323.7 366.299C330.3 365.199 336.4 361.199 341.7 354.499C347.2 347.599 351.6 338.199 355 326.599C362 302.099 363.3 270.799 358.5 238.399C353.7 205.999 343.5 176.499 329.7 155.399C323.2 145.399 316.2 137.799 309 132.999C301.9 128.299 295 126.399 288.4 127.499C281.8 128.599 275.7 132.599 270.4 139.299C264.9 146.199 260.5 155.599 257.1 167.199C250.1 191.699 248.8 222.999 253.6 255.399C258.4 287.799 268.6 317.299 282.4 338.399C288.9 348.399 295.9 355.999 303.1 360.799C310.1 365.499 317.1 367.299 323.7 366.299Z" fill="white"/>
</mask>
<g mask="url(#mask0_110_556)">
<path d="M311 247.7C315.6 279 299.6 307.1 275.5 310.4C251.8 313.6 229.2 291.5 224.7 261.1C220.2 230.6 235.4 202.7 259 198.6C282.9 194.4 306.3 216.3 311 247.7Z" fill="url(#paint7_linear_110_556)"/>
</g>
<path d="M374.4 236.799C374.4 236.799 381.1 230.799 384.3 222.499C376.6 215.699 371.3 206.699 369.8 196.399C366.2 171.699 385.2 147.399 413.6 141.899C442.6 136.199 470.4 152.099 475.5 177.799C475.6 178.099 475.6 178.399 475.7 178.799V178.899C475.8 179.199 475.8 179.499 475.9 179.899C476.1 181.399 476.3 182.799 476.3 184.299V186.199C476.3 187.399 476.2 188.699 476.1 189.899C476 190.499 476 191.099 475.9 191.699C475.8 192.099 475.8 192.499 475.7 192.899C474.2 202.299 469.5 211.099 462.6 218.199C462.5 218.399 462.3 218.499 462.2 218.599C459.8 220.999 457.2 223.199 454.3 225.099C454.1 225.199 453.9 225.299 453.8 225.499L449.9 227.899C449.3 228.199 448.7 228.499 448.2 228.799L447 229.399C446.4 229.699 445.8 229.999 445.2 230.199C444.8 230.399 444.4 230.599 444 230.699C438.8 232.899 433.3 234.399 427.4 234.999C427 235.099 426.5 235.099 426.1 235.099H425.7C425.4 235.099 425.1 235.199 424.8 235.199H424.4C424.1 235.199 423.8 235.199 423.5 235.299H418.2C414.8 235.199 411.4 234.799 408.2 234.099C406.3 233.699 404.4 233.199 402.6 232.599C399 236.799 389.5 244.599 374.4 236.799Z" fill="#E60049"/>
<path d="M366 196.799C369.6 221.499 394.9 238.899 423.5 235.599C453.6 232.099 476 207.299 472 180.399C468 153.499 439.5 136.599 409.8 142.399C381.4 147.899 362.3 172.199 366 196.799Z" fill="#FF2A6D"/>
<path d="M385.799 181.2C386.999 174.4 391.7 169 398 167.8C406.3 166.3 414.299 173 415.799 182.8C414.399 173.1 420.099 163.9 428.799 162.4C435.499 161.2 441.999 165 445.399 171.3C457.999 194 421.6 221.7 421.6 221.7C421.6 221.7 381.099 205.3 385.799 181.2Z" fill="white"/>
<path d="M403.1 72.1999C419.2 70.0999 434.2 78.1999 438.8 90.7999C439 91.4999 439.3 92.1999 439.4 92.8999V92.9999C439.5 93.2999 439.6 93.6999 439.6 93.9999V94.1999C439.7 94.4999 439.7 94.8999 439.8 95.2999C442 110.4 429 124.3 411 126.3C410.5 126.4 410 126.4 409.6 126.4H409.5C409 126.4 408.6 126.5 408.1 126.5H404.8C404.4 126.5 404 126.5 403.6 126.4H403.4C403 126.4 402.6 126.3 402.2 126.3H402C401.6 126.3 401.3 126.2 400.9 126.1H400.6C400.2 126 399.9 126 399.5 125.9H399.3C386.7 123.3 376.9 114.5 375.2 103.2C373 88.2999 385.4 74.4999 403.1 72.1999Z" fill="#FFBB21"/>
<path d="M371.8 103.599C374 118.299 390 128.799 407.7 126.899C425.7 124.999 438.8 111.099 436.5 95.8995C434.3 80.7995 417.7 70.3995 399.7 72.6995C382 75.0995 369.6 88.8995 371.8 103.599Z" fill="#FFD300"/>
<path d="M391.399 95.7004C391.999 100 398.399 109.5 402.699 115.7C404.499 118.3 408.299 117.9 409.299 115C411.799 108 415.199 97.3004 414.499 92.9004C413.499 86.2004 407.499 81.3004 401.099 82.2004C394.699 82.9004 390.399 89.0004 391.399 95.7004ZM396.699 95.0004C396.199 91.4004 398.499 88.1004 401.899 87.7004C405.299 87.3004 408.599 89.9004 409.099 93.5004C409.599 97.1004 407.299 100.4 403.799 100.8C400.399 101.2 397.199 98.6004 396.699 95.0004Z" fill="white"/>
<path d="M501.1 309.5C501.1 309.6 501.2 309.8 501.2 309.9C501.2 310 501.3 310.1 501.3 310.3C501.3 310.5 501.4 310.7 501.4 310.8C501.4 310.9 501.4 311 501.5 311.1C501.5 311.4 501.6 311.7 501.6 311.9C501.8 313.1 501.9 314.4 501.9 315.6C501.9 317.7 501.8 319.9 501.4 322C501.3 322.3 501.3 322.6 501.2 322.9C500.9 324.1 500.6 325.3 500.2 326.4C499.3 329 498.1 331.6 496.5 334C496.2 334.5 495.8 335.1 495.4 335.6C495 336.1 494.7 336.6 494.3 337.2C492.7 339.3 490.9 341.2 488.9 343C488.7 343.2 488.4 343.4 488.1 343.7C487.6 344.1 487.1 344.6 486.5 345C484.6 346.5 482.6 347.9 480.5 349.1C479.9 349.5 479.3 349.8 478.6 350.1C478 350.4 477.3 350.7 476.7 351.1C476.1 351.4 475.4 351.7 474.7 352C471.1 353.6 467.1 354.7 463 355.5C462.6 355.6 462.3 355.6 461.9 355.7C461.8 355.7 461.7 355.7 461.6 355.8C461.4 355.8 461.1 355.9 460.9 355.9H460.5C460.3 355.9 460.1 356 459.8 356H459.4C459.2 356 459 356 458.7 356.1H458.3C458.1 356.1 457.9 356.1 457.6 356.2H453.2C451.2 356.2 449.2 356 447.3 355.8C430.9 353.6 418.1 343.2 415.9 328.6C413.1 309.7 429.3 290.5 452.5 285.5C474.9 280.7 495.8 291 500.5 308.7C500.5 308.8 500.6 308.9 500.6 309C501 309.3 501.1 309.4 501.1 309.5Z" fill="#FFBB21"/>
<path d="M413.5 329.1C416.3 348 436.7 360.1 459.5 356C482.8 351.8 499.8 332.4 496.9 312.8C494 293.1 472.4 281.3 449.2 286.2C426.5 291 410.7 310.2 413.5 329.1Z" fill="#FFD300"/>
<path d="M439.4 304.699L444.3 338.099C444.6 340.199 446.5 341.299 447.9 340.099L471.9 318.199C473.4 316.799 472.9 313.699 471.1 312.999L442.1 301.499C440.6 300.799 439.1 302.599 439.4 304.699Z" fill="white"/>
<path d="M372.6 317.5H367C365 317.4 363 317.2 361.1 316.9C347.2 314.5 336.5 305.4 334.7 293.4C332.4 277.8 346 262.4 365.7 259.1C384.8 255.8 402.6 265 406.6 279.9C406.6 280 406.6 280.1 406.7 280.1C406.7 280.2 406.8 280.3 406.8 280.5C406.8 280.6 406.9 280.7 406.9 280.8C406.9 280.9 406.9 281 407 281.1C407 281.2 407.1 281.4 407.1 281.5V281.8C407.1 282 407.2 282.3 407.2 282.5C408.4 290.5 405.5 298.2 399.9 304.4C399.5 304.8 399.2 305.2 398.8 305.6C398.4 306 398 306.4 397.6 306.7L397 307.3C396.6 307.7 396.2 308 395.7 308.4C395.3 308.7 394.8 309.1 394.4 309.4C394 309.7 393.6 310 393.2 310.2C391 311.7 388.5 313 385.9 314.1L384.4 314.7C381.3 315.9 377.9 316.7 374.4 317.1C374.1 317.1 373.8 317.2 373.5 317.2H373.2C373 317.5 372.8 317.5 372.6 317.5Z" fill="#B226D9"/>
<path d="M333 293.9C335.3 309.5 352.5 320.3 371.9 317.8C391.9 315.2 406.5 299.8 404.1 283.3C401.7 266.8 383.2 256.3 363.3 259.7C344.1 262.9 330.7 278.2 333 293.9Z" fill="#C252E1"/>
<path d="M377 307.6L373.9 296.9L368.5 297.7L371.6 308.4L366.3 309.1L363.2 298.5L357.5 299.3L356.7 293.8L361.6 293.1L359.7 286.5L354.2 287.3L353.4 281.7L358.1 281L355 270.7L360.2 269.8L363.3 280.1L368.7 279.3L365.7 268.9L371 268L374.1 278.4L380 277.5L380.8 283.2L375.7 284L377.7 290.7L383.5 289.8L384.3 295.5L379.4 296.2L382.6 307L377 307.6ZM372.1 291.4L370.1 284.7L364.7 285.5L366.6 292.2L372.1 291.4Z" fill="white"/>
<defs>
<linearGradient id="paint0_linear_110_556" x1="136.552" y1="300.624" x2="77.4225" y2="397.174" gradientUnits="userSpaceOnUse">
<stop stop-color="#231444"/>
<stop offset="1" stop-color="#792F89"/>
</linearGradient>
<linearGradient id="paint1_linear_110_556" x1="126.684" y1="294.58" x2="67.1549" y2="391.78" gradientUnits="userSpaceOnUse">
<stop stop-color="#231444"/>
<stop offset="1" stop-color="#792F89"/>
</linearGradient>
<linearGradient id="paint2_linear_110_556" x1="11.2277" y1="260.289" x2="78.1277" y2="318.226" gradientUnits="userSpaceOnUse">
<stop offset="0.004" stop-color="#C07DE3"/>
<stop offset="1" stop-color="#6360F6"/>
</linearGradient>
<linearGradient id="paint3_linear_110_556" x1="141.602" y1="139.253" x2="264.132" y2="493.92" gradientUnits="userSpaceOnUse">
<stop stop-color="#7C6EF9"/>
<stop offset="0.996" stop-color="#3C6BD7"/>
</linearGradient>
<linearGradient id="paint4_linear_110_556" x1="120.892" y1="149.199" x2="242.237" y2="500.44" gradientUnits="userSpaceOnUse">
<stop stop-color="#7C6EF9"/>
<stop offset="0.996" stop-color="#3C6BD7"/>
</linearGradient>
<linearGradient id="paint5_linear_110_556" x1="229.349" y1="180.248" x2="382.942" y2="313.26" gradientUnits="userSpaceOnUse">
<stop offset="0.004" stop-color="#C07DE3"/>
<stop offset="1" stop-color="#6360F6"/>
</linearGradient>
<linearGradient id="paint6_linear_110_556" x1="234.719" y1="255.97" x2="355.738" y2="240.353" gradientUnits="userSpaceOnUse">
<stop stop-color="#231444"/>
<stop offset="1" stop-color="#792F89"/>
</linearGradient>
<linearGradient id="paint7_linear_110_556" x1="227.618" y1="139.247" x2="307.461" y2="370.358" gradientUnits="userSpaceOnUse">
<stop stop-color="#FFAE49"/>
<stop offset="0.996" stop-color="#F3454A"/>
</linearGradient>
</defs>
</svg>
