<svg xmlns="http://www.w3.org/2000/svg" xmlns:xlink="http://www.w3.org/1999/xlink" viewBox="0 0 512 512" style="enable-background:new 0 0 512 512" xml:space="preserve"><style>.st0{display:none}.st1{display:inline}.st2{fill:#fff}.st24{opacity:.3}</style><g id="Illustration"><linearGradient id="SVGID_00000181795858194492807250000015385165772709544837_" gradientUnits="userSpaceOnUse" x1="-2388.206" y1="282.78" x2="-2461.427" y2="369.134" gradientTransform="rotate(-8.811 -1010.027 -16093.815)"><stop offset="0" style="stop-color:#231444"></stop><stop offset="1" style="stop-color:#792f89"></stop></linearGradient><path style="fill:url(#SVGID_00000181795858194492807250000015385165772709544837_)" d="M143.1 431.7c-8.9.8-18.1-3.7-23-12.1L51 300.5c-6.3-10.8-3.1-24.8 7.3-31.3s28.6-3.8 35 7.1L164 396.7c6.7 11.3 3.1 25.5-7.9 31.6-2.7 1.4-10 3.1-13 3.4z"></path><linearGradient id="SVGID_00000046318526623724418000000005344030970519078793_" gradientUnits="userSpaceOnUse" x1="-2397.032" y1="275.296" x2="-2470.747" y2="362.231" gradientTransform="rotate(-8.811 -1010.027 -16093.815)"><stop offset="0" style="stop-color:#231444"></stop><stop offset="1" style="stop-color:#792f89"></stop></linearGradient><path style="opacity:.3;fill:url(#SVGID_00000046318526623724418000000005344030970519078793_)" d="M58.2 269.2c10.4-6.5 28.6-3.8 35 7.1l64.7 110c-8.2-.8-17.6.9-27.8-6-17-11.4-12.3-30.3-26.4-44.1-6.5-6.3-17.6-12.3-38.4-11.2L51 300.5c-6.4-10.8-3.1-24.8 7.2-31.3z"></path><linearGradient id="SVGID_00000022538713465085515860000017504743310974040966_" gradientUnits="userSpaceOnUse" x1="-1507.36" y1="223.721" x2="-1564.595" y2="291.222" gradientTransform="scale(-1 1) rotate(8.812 -996.591 9950.702)"><stop offset=".004" style="stop-color:#c07de3"></stop><stop offset="1" style="stop-color:#6360f6"></stop></linearGradient><path style="fill:url(#SVGID_00000022538713465085515860000017504743310974040966_)" d="M24.2 248.9c.4-.1.9-.1 1.3-.1l31.1-5.4 12.6 85.2L39 333c-.7.3-1.5.6-2.3.7-10.7 1.7-22.1-15.8-25.6-39.3-3.5-23.3 2.4-43.7 13.1-45.5z"></path><linearGradient id="SVGID_00000039101198036978636990000008844244660867048632_" gradientUnits="userSpaceOnUse" x1="-2358.498" y1="124.089" x2="-2291.741" y2="493.339" gradientTransform="rotate(-8.811 -1010.027 -16093.815)"><stop offset="0" style="stop-color:#7c6ef9"></stop><stop offset=".996" style="stop-color:#3c6bd7"></stop></linearGradient><path style="fill:url(#SVGID_00000039101198036978636990000008844244660867048632_)" d="M56.6 243.4c-7.6 30.3-3.5 58.6 12.6 85.2l243.5 40.6-32.9-239.5L56.6 243.4z"></path><linearGradient id="SVGID_00000176025769593438501240000016636891520500425136_" gradientUnits="userSpaceOnUse" x1="-2380.487" y1="130.745" x2="-2314.375" y2="496.428" gradientTransform="rotate(-8.811 -1010.027 -16093.815)"><stop offset="0" style="stop-color:#7c6ef9"></stop><stop offset=".996" style="stop-color:#3c6bd7"></stop></linearGradient><path style="opacity:.3;fill:url(#SVGID_00000176025769593438501240000016636891520500425136_)" d="M239.6 309.1c-23.3-5.2-35.2-37.7-60.9-34.7-20.2 2.4-23.2 23.9-43.3 24.9-20.5 1-27.2-21.3-51-25.6-10.8-2-21.4.4-31.4 5.2 1.1 17.2 6.4 33.7 16 49.7l243.5 40.6-25.7-79c-20.7 17.7-35.8 21.4-47.2 18.9z"></path><linearGradient id="SVGID_00000108292525639511774540000006229866436715575684_" gradientUnits="userSpaceOnUse" x1="-1735.169" y1="178.039" x2="-1866.573" y2="333.01" gradientTransform="scale(-1 1) rotate(8.812 -996.591 9950.702)"><stop offset=".004" style="stop-color:#c07de3"></stop><stop offset="1" style="stop-color:#6360f6"></stop></linearGradient><path style="fill:url(#SVGID_00000108292525639511774540000006229866436715575684_)" d="M249.7 256c10.1 68.3 43.5 119.5 74.6 114.5 31.2-5.1 48.2-64.5 38.2-132.8-10.1-68.3-43.5-119.5-74.6-114.5-31.2 5-48.3 64.5-38.2 132.8z"></path><linearGradient id="SVGID_00000107548901459938425340000018236819041768164746_" gradientUnits="userSpaceOnUse" x1="-1728.875" y1="253.691" x2="-1850.858" y2="256.798" gradientTransform="scale(-1 1) rotate(8.812 -996.591 9950.702)"><stop offset="0" style="stop-color:#231444"></stop><stop offset="1" style="stop-color:#792f89"></stop></linearGradient><path style="fill:url(#SVGID_00000107548901459938425340000018236819041768164746_)" d="M323.7 366.3c6.6-1.1 12.7-5.1 18-11.8 5.5-6.9 9.9-16.3 13.3-27.9 7-24.5 8.3-55.8 3.5-88.2-4.8-32.4-15-61.9-28.8-83-6.5-10-13.5-17.6-20.7-22.4-7.1-4.7-14-6.6-20.6-5.5-6.6 1.1-12.7 5.1-18 11.8-5.5 6.9-9.9 16.3-13.3 27.9-2.9 10.2-4.9 21.7-5.8 33.9-1.3 17 11.9 32.4 14.7 51.2 3 20.1-4.4 42.1 2.3 58.6 4.1 10.2 8.8 19.4 14.1 27.5 6.5 10 13.5 17.6 20.7 22.4 7 4.7 14 6.5 20.6 5.5z"></path><defs><path id="SVGID_00000167360089742413834570000001695047787913451933_" d="M323.7 366.3c6.6-1.1 12.7-5.1 18-11.8 5.5-6.9 9.9-16.3 13.3-27.9 7-24.5 8.3-55.8 3.5-88.2-4.8-32.4-15-61.9-28.8-83-6.5-10-13.5-17.6-20.7-22.4-7.1-4.7-14-6.6-20.6-5.5-6.6 1.1-12.7 5.1-18 11.8-5.5 6.9-9.9 16.3-13.3 27.9-7 24.5-8.3 55.8-3.5 88.2 4.8 32.4 15 61.9 28.8 83 6.5 10 13.5 17.6 20.7 22.4 7 4.7 14 6.5 20.6 5.5z"></path></defs><clipPath id="SVGID_00000144332888800359650920000011988445350343702974_"><use xlink:href="#SVGID_00000167360089742413834570000001695047787913451933_" style="overflow:visible"></use></clipPath><linearGradient id="SVGID_00000132771413318260109320000010034009792646334081_" gradientUnits="userSpaceOnUse" x1="-2273.496" y1="137.258" x2="-2229.995" y2="377.871" gradientTransform="rotate(-8.811 -1010.027 -16093.815)"><stop offset="0" style="stop-color:#ffae49"></stop><stop offset=".996" style="stop-color:#f3454a"></stop></linearGradient><path style="clip-path:url(#SVGID_00000144332888800359650920000011988445350343702974_);fill:url(#SVGID_00000132771413318260109320000010034009792646334081_)" d="M311 247.7c4.6 31.3-11.4 59.4-35.5 62.7-23.7 3.2-46.3-18.9-50.8-49.3-4.5-30.5 10.7-58.4 34.3-62.5 23.9-4.2 47.3 17.7 52 49.1z"></path><linearGradient id="SVGID_00000168109771564267822630000017349616639187997591_" gradientUnits="userSpaceOnUse" x1="-2249.265" y1="168.021" x2="-2217.136" y2="345.735" gradientTransform="rotate(-8.811 -1010.027 -16093.815)"><stop offset="0" style="stop-color:#ffae49"></stop><stop offset=".996" style="stop-color:#f3454a"></stop></linearGradient><path style="opacity:.3;clip-path:url(#SVGID_00000144332888800359650920000011988445350343702974_);fill:url(#SVGID_00000168109771564267822630000017349616639187997591_)" d="M307.1 247.8c3.4 23.3-3.5 43.3-15.2 44.7-11.6 1.4-23.5-15.8-26.9-38.4-3.3-22.6 3.1-42.6 14.6-44.6 11.7-2.1 24.1 15 27.5 38.3z"></path><g><linearGradient id="SVGID_00000023974155709120361270000004432052541530058118_" gradientUnits="userSpaceOnUse" x1="-4023.485" y1="19.179" x2="-4188.631" y2="432.045" gradientTransform="scale(-1 1) rotate(8.812 -2088.194 24122.464)"><stop offset="0" style="stop-color:#231444"></stop><stop offset="1" style="stop-color:#792f89"></stop></linearGradient><path style="fill:url(#SVGID_00000023974155709120361270000004432052541530058118_)" d="M374.4 236.8s6.7-6 9.9-14.3c-7.7-6.8-13-15.8-14.5-26.1-3.6-24.7 15.4-49 43.8-54.5 29-5.7 56.8 10.2 61.9 35.9.1.3.1.6.2 1v.1c.1.3.1.6.2 1 .2 1.5.4 2.9.4 4.4v1.9c0 1.2-.1 2.5-.2 3.7-.1.6-.1 1.2-.2 1.8-.1.4-.1.8-.2 1.2-1.5 9.4-6.2 18.2-13.1 25.3-.1.2-.3.3-.4.4-2.4 2.4-5 4.6-7.9 6.5-.2.1-.4.2-.5.4l-3.9 2.4c-.6.3-1.2.6-1.7.9l-1.2.6c-.6.3-1.2.6-1.8.8-.4.2-.8.4-1.2.5-5.2 2.2-10.7 3.7-16.6 4.3-.4.1-.9.1-1.3.1h-.4c-.3 0-.6.1-.9.1h-.4c-.3 0-.6 0-.9.1h-5.3c-3.4-.1-6.8-.5-10-1.2-1.9-.4-3.8-.9-5.6-1.5-3.6 4.2-13.1 12-28.2 4.2z"></path><linearGradient id="SVGID_00000078735547882361106310000014988611032901571976_" gradientUnits="userSpaceOnUse" x1="-4126.099" y1="176.915" x2="-4049.649" y2="318.706" gradientTransform="scale(-1 1) rotate(8.812 -2088.194 24122.464)"><stop offset="0" style="stop-color:#ff738f"></stop><stop offset="1" style="stop-color:#fb5df5"></stop></linearGradient><path style="fill:url(#SVGID_00000078735547882361106310000014988611032901571976_)" d="M366 196.8c3.6 24.7 28.9 42.1 57.5 38.8 30.1-3.5 52.5-28.3 48.5-55.2-4-26.9-32.5-43.8-62.2-38-28.4 5.5-47.5 29.8-43.8 54.4z"></path><linearGradient id="SVGID_00000055679937421726237860000017820766348245119378_" gradientUnits="userSpaceOnUse" x1="-4126.099" y1="176.915" x2="-4049.649" y2="318.706" gradientTransform="scale(-1 1) rotate(8.812 -2088.194 24122.464)"><stop offset="0" style="stop-color:#ff738f"></stop><stop offset="1" style="stop-color:#fb5df5"></stop></linearGradient><path style="fill:url(#SVGID_00000055679937421726237860000017820766348245119378_)" d="M366 196.8c3.6 24.7 28.9 42.1 57.5 38.8 30.1-3.5 52.5-28.3 48.5-55.2-4-26.9-32.5-43.8-62.2-38-28.4 5.5-47.5 29.8-43.8 54.4z"></path><linearGradient id="SVGID_00000026844970413442656770000015389054020201861821_" gradientUnits="userSpaceOnUse" x1="-3346.19" y1="-52.281" x2="-3274.798" y2="80.131" gradientTransform="scale(-1 1) rotate(-.1 113944.248 -1663082.19)"><stop offset="0" style="stop-color:#ff738f"></stop><stop offset="1" style="stop-color:#fb5df5"></stop></linearGradient><path style="fill:url(#SVGID_00000026844970413442656770000015389054020201861821_)" d="M400.3 231.1s-10.2 16.3-29.7 6.1c0 0 12.7-11.5 11.5-24.4l18.2 18.3z"></path><path class="st2" d="M385.8 181.2c1.2-6.8 5.9-12.2 12.2-13.4 8.3-1.5 16.3 5.2 17.8 15-1.4-9.7 4.3-18.9 13-20.4 6.7-1.2 13.2 2.6 16.6 8.9 12.6 22.7-23.8 50.4-23.8 50.4s-40.5-16.4-35.8-40.5z"></path><g class="st24"><linearGradient id="SVGID_00000022524812682281289190000002705523508514032018_" gradientUnits="userSpaceOnUse" x1="-4145.917" y1="184.615" x2="-4070.479" y2="336.001" gradientTransform="scale(-1 1) rotate(8.812 -2088.194 24122.464)"><stop offset="0" style="stop-color:#ff738f"></stop><stop offset="1" style="stop-color:#fb5df5"></stop></linearGradient><path style="fill:url(#SVGID_00000022524812682281289190000002705523508514032018_)" d="M409 225.3c4.3-14.5-4-26.4 3.3-36.5 7.4-10.4 20.3-3.8 31.9-13.4 4.6-3.7 9.3-10.3 11.8-22.6 8.5 6.9 14.4 16.4 16.1 27.5 4 26.9-18.4 51.7-48.5 55.2-6.7.8-13.2.4-19.3-.9 2.4-3.1 3.8-6.3 4.7-9.3z"></path></g><g><linearGradient id="SVGID_00000132078995064210198400000009133833217935353526_" gradientUnits="userSpaceOnUse" x1="458.395" y1="117.383" x2="507.686" y2="129.027" gradientTransform="rotate(-8.811 280.733 656.781)"><stop offset="0" style="stop-color:#ffae49"></stop><stop offset=".996" style="stop-color:#f3454a"></stop></linearGradient><path style="fill:url(#SVGID_00000132078995064210198400000009133833217935353526_)" d="M403.1 72.2c16.1-2.1 31.1 6 35.7 18.6.2.7.5 1.4.6 2.1v.1c.1.3.2.7.2 1v.2c.1.3.1.7.2 1.1 2.2 15.1-10.8 29-28.8 31-.5.1-1 .1-1.4.1h-.1c-.5 0-.9.1-1.4.1h-3.3c-.4 0-.8 0-1.2-.1h-.2c-.4 0-.8-.1-1.2-.1h-.2c-.4 0-.7-.1-1.1-.2h-.3c-.4-.1-.7-.1-1.1-.2h-.2c-12.6-2.6-22.4-11.4-24.1-22.7-2.2-14.9 10.2-28.7 27.9-31z"></path><linearGradient id="SVGID_00000136385435574183235280000010898330239898412987_" gradientUnits="userSpaceOnUse" x1="-4116.236" y1="103.128" x2="-4072.188" y2="184.826" gradientTransform="scale(-1 1) rotate(8.812 -2088.194 24122.464)"><stop offset="0" style="stop-color:#ffae49"></stop><stop offset=".996" style="stop-color:#f3454a"></stop></linearGradient><path style="fill:url(#SVGID_00000136385435574183235280000010898330239898412987_)" d="M371.8 103.6c2.2 14.7 18.2 25.2 35.9 23.3 18-1.9 31.1-15.8 28.8-31-2.2-15.1-18.8-25.5-36.8-23.2-17.7 2.4-30.1 16.2-27.9 30.9z"></path><path class="st2" d="M391.4 95.7c.6 4.3 7 13.8 11.3 20 1.8 2.6 5.6 2.2 6.6-.7 2.5-7 5.9-17.7 5.2-22.1-1-6.7-7-11.6-13.4-10.7-6.4.7-10.7 6.8-9.7 13.5zm5.3-.7c-.5-3.6 1.8-6.9 5.2-7.3 3.4-.4 6.7 2.2 7.2 5.8.5 3.6-1.8 6.9-5.3 7.3-3.4.4-6.6-2.2-7.1-5.8z"></path><g class="st24"><linearGradient id="SVGID_00000101820550001542901840000017126956696046752957_" gradientUnits="userSpaceOnUse" x1="-4128.602" y1="108.42" x2="-4085.477" y2="194.961" gradientTransform="scale(-1 1) rotate(8.812 -2088.194 24122.464)"><stop offset="0" style="stop-color:#ffae49"></stop><stop offset=".996" style="stop-color:#f3454a"></stop></linearGradient><path style="fill:url(#SVGID_00000101820550001542901840000017126956696046752957_)" d="M398.9 120.8c2.7-8.4-2.3-15.4 2.2-21.2 4.6-5.9 12.3-1.8 19.3-7 2.7-2 5.5-5.6 7-12.5 4.9 4.1 8.3 9.5 9.2 15.8 2.2 15.1-10.8 29-28.8 31-4.1.4-8.1.2-11.8-.5 1.4-2 2.3-3.8 2.9-5.6z"></path></g></g><g><linearGradient id="SVGID_00000057860093527399959000000014431367521468884629_" gradientUnits="userSpaceOnUse" x1="478.41" y1="317.25" x2="508.051" y2="351.172" gradientTransform="rotate(-8.811 280.733 656.781)"><stop offset="0" style="stop-color:#ffae49"></stop><stop offset=".996" style="stop-color:#f3454a"></stop></linearGradient><path style="fill:url(#SVGID_00000057860093527399959000000014431367521468884629_)" d="M501.1 309.5c0 .1.1.3.1.4 0 .1.1.2.1.4s.1.4.1.5c0 .1 0 .2.1.3 0 .3.1.6.1.8.2 1.2.3 2.5.3 3.7 0 2.1-.1 4.3-.5 6.4-.1.3-.1.6-.2.9-.3 1.2-.6 2.4-1 3.5-.9 2.6-2.1 5.2-3.7 7.6-.3.5-.7 1.1-1.1 1.6-.4.5-.7 1-1.1 1.6-1.6 2.1-3.4 4-5.4 5.8-.2.2-.5.4-.8.7-.5.4-1 .9-1.6 1.3-1.9 1.5-3.9 2.9-6 4.1-.6.4-1.2.7-1.9 1-.6.3-1.3.6-1.9 1-.6.3-1.3.6-2 .9-3.6 1.6-7.6 2.7-11.7 3.5-.4.1-.7.1-1.1.2-.1 0-.2 0-.3.1-.2 0-.5.1-.7.1h-.4c-.2 0-.4.1-.7.1h-.4c-.2 0-.4 0-.7.1h-.4c-.2 0-.4 0-.7.1h-4.4c-2 0-4-.2-5.9-.4-16.4-2.2-29.2-12.6-31.4-27.2-2.8-18.9 13.4-38.1 36.6-43.1 22.4-4.8 43.3 5.5 48 23.2 0 .1.1.2.1.3.4.3.5.4.5.5z"></path><linearGradient id="SVGID_00000050623127914978846300000014106386504196397719_" gradientUnits="userSpaceOnUse" x1="-4136.976" y1="321.831" x2="-4077.588" y2="431.978" gradientTransform="scale(-1 1) rotate(8.812 -2088.194 24122.464)"><stop offset="0" style="stop-color:#ffae49"></stop><stop offset=".996" style="stop-color:#f3454a"></stop></linearGradient><path style="fill:url(#SVGID_00000050623127914978846300000014106386504196397719_)" d="M413.5 329.1c2.8 18.9 23.2 31 46 26.9 23.3-4.2 40.3-23.6 37.4-43.2-2.9-19.7-24.5-31.5-47.7-26.6-22.7 4.8-38.5 24-35.7 42.9z"></path><path class="st2" d="m439.4 304.7 4.9 33.4c.3 2.1 2.2 3.2 3.6 2l24-21.9c1.5-1.4 1-4.5-.8-5.2l-29-11.5c-1.5-.7-3 1.1-2.7 3.2z"></path><g class="st24"><linearGradient id="SVGID_00000091728056510818901260000004140071060343651759_" gradientUnits="userSpaceOnUse" x1="-4152.855" y1="327.495" x2="-4094.281" y2="445.039" gradientTransform="scale(-1 1) rotate(8.812 -2088.194 24122.464)"><stop offset="0" style="stop-color:#ffae49"></stop><stop offset=".996" style="stop-color:#f3454a"></stop></linearGradient><path style="fill:url(#SVGID_00000091728056510818901260000004140071060343651759_)" d="M448.1 349c3.5-11.2-3-19.8 2.8-27.8 5.9-8.1 15.9-3.6 24.9-11.1 3.5-2.9 7.2-7.9 9.1-17.1 6.4 4.8 10.8 11.7 12 19.8 2.9 19.7-14.1 39.1-37.4 43.2-5.3.9-10.4 1-15.2.4 1.9-2.6 3.1-5.1 3.8-7.4z"></path></g></g><g><linearGradient id="SVGID_00000091017406912003428090000014602470364935555514_" gradientUnits="userSpaceOnUse" x1="399.24" y1="304.855" x2="453.399" y2="307.757" gradientTransform="rotate(-8.811 280.733 656.781)"><stop offset="0" style="stop-color:#7c6ef9"></stop><stop offset=".996" style="stop-color:#3c6bd7"></stop></linearGradient><path style="fill:url(#SVGID_00000091017406912003428090000014602470364935555514_)" d="M372.6 317.5H367c-2-.1-4-.3-5.9-.6-13.9-2.4-24.6-11.5-26.4-23.5-2.3-15.6 11.3-31 31-34.3 19.1-3.3 36.9 5.9 40.9 20.8 0 .1 0 .2.1.2 0 .1.1.2.1.4 0 .1.1.2.1.3 0 .1 0 .2.1.3 0 .1.1.3.1.4v.3c0 .2.1.5.1.7 1.2 8-1.7 15.7-7.3 21.9-.4.4-.7.8-1.1 1.2-.4.4-.8.8-1.2 1.1l-.6.6c-.4.4-.8.7-1.3 1.1-.4.3-.9.7-1.3 1-.4.3-.8.6-1.2.8-2.2 1.5-4.7 2.8-7.3 3.9l-1.5.6c-3.1 1.2-6.5 2-10 2.4-.3 0-.6.1-.9.1h-.3c-.2.3-.4.3-.6.3z"></path><linearGradient id="SVGID_00000106853795727217510800000000447581958722429371_" gradientUnits="userSpaceOnUse" x1="-4053.373" y1="282.028" x2="-4004.92" y2="371.895" gradientTransform="scale(-1 1) rotate(8.812 -2088.194 24122.464)"><stop offset="0" style="stop-color:#7c6ef9"></stop><stop offset=".996" style="stop-color:#3c6bd7"></stop></linearGradient><path style="fill:url(#SVGID_00000106853795727217510800000000447581958722429371_)" d="M333 293.9c2.3 15.6 19.5 26.4 38.9 23.9 20-2.6 34.6-18 32.2-34.5-2.4-16.5-20.9-27-40.8-23.6-19.2 3.2-32.6 18.5-30.3 34.2z"></path><path class="st2" d="m377 307.6-3.1-10.7-5.4.8 3.1 10.7-5.3.7-3.1-10.6-5.7.8-.8-5.5 4.9-.7-1.9-6.6-5.5.8-.8-5.6 4.7-.7-3.1-10.3 5.2-.9 3.1 10.3 5.4-.8-3-10.4 5.3-.9 3.1 10.4 5.9-.9.8 5.7-5.1.8 2 6.7 5.8-.9.8 5.7-4.9.7 3.2 10.8-5.6.6zm-4.9-16.2-2-6.7-5.4.8 1.9 6.7 5.5-.8z"></path><g class="st24"><linearGradient id="SVGID_00000012441240320865695500000003064102346779327374_" gradientUnits="userSpaceOnUse" x1="-4066.821" y1="287.219" x2="-4019.11" y2="382.965" gradientTransform="scale(-1 1) rotate(8.812 -2088.194 24122.464)"><stop offset=".004" style="stop-color:#c07de3"></stop><stop offset="1" style="stop-color:#6360f6"></stop></linearGradient><path style="fill:url(#SVGID_00000012441240320865695500000003064102346779327374_)" d="M362.3 311.5c3-9.1-2.5-16.5 2.5-22.9 5.1-6.5 13.6-2.4 21.3-8.4 3-2.3 6.2-6.3 7.9-13.9 5.5 4.2 9.3 10.1 10.3 16.9 2.4 16.5-12.2 31.9-32.2 34.5-4.5.6-8.9.4-13-.3 1.5-2 2.5-4.1 3.2-5.9z"></path></g></g></g><linearGradient id="SVGID_00000078020075310815642230000006384689990623691156_" gradientUnits="userSpaceOnUse" x1="-220.496" y1="698.109" x2="-305.798" y2="800.368" gradientTransform="rotate(-14.542 -1184.73 -541.699)"><stop offset="0" style="stop-color:#ff9085"></stop><stop offset="1" style="stop-color:#fb6fbb"></stop></linearGradient></g></svg>