<svg xmlns="http://www.w3.org/2000/svg" xmlns:xlink="http://www.w3.org/1999/xlink" viewBox="0 0 512 512"><path opacity=".392" fill="#ABACB1" d="M51.7 157.1L284.2 37.9l-8.4 167.8L43.4 324.9z"></path><path fill="#D4D6EF" d="M51.7 157.1L284.2 37.9l-1.4 26.4L50.4 183.5z"></path><g opacity=".9"><path fill="#A6A8CD" d="M105 189l-36.7 18.9.5-10.3 36.7-18.8zM254.5 102.4l-12.9 6.6-.5 10.2 12.9-6.6zM190.2 145.3l-26.5 13.6.5-10.2 26.5-13.6zM239.4 120.1l-34.3 17.6.5-10.2 34.3-17.6z"></path><path fill="#9D6ACD" d="M203.2 138.7l-10.6 5.4.5-10.2 10.6-5.4z"></path><path fill="#FFDD15" d="M161.5 160.1l-54.6 28 .5-10.3 54.6-28z"></path><path fill="#A6A8CD" d="M265.7 204.8l-51.2 26.3.5-10.2 51.2-26.3zM163.7 257.2l-26.6 13.6.5-10.2 26.6-13.6zM212.8 232l-34.3 17.6.5-10.3 34.3-17.5z"></path><path fill="#9D6ACD" d="M176.6 250.6L166 256l.5-10.2 10.6-5.5z"></path><path fill="#1592FD" d="M134.9 271.9l-54.5 28 .5-10.2 54.5-28z"></path><g><path fill="#1592FD" d="M101.2 177l-45.8 23.5.5-10.2 45.8-23.6z"></path><path fill="#A6A8CD" d="M155.1 149.3l-50.2 25.8.5-10.3 50.2-25.7zM266.1 92.4l-50.2 25.7.5-10.2 50.2-25.8zM193.8 129.5L157.6 148l.5-10.2 36.2-18.6z"></path><path fill="#1592FD" d="M213.6 119.3l-17.9 9.2.6-10.3 17.8-9.1z"></path></g><g><path fill="#1592FD" d="M96.9 263l-45.8 23.5.5-10.2 45.8-23.5z"></path><path fill="#A6A8CD" d="M269.2 165.3l-43.5 22.3-.5 10.3 43.5-22.3zM184.7 218l-32.4 16.6.5-10.2 32.4-16.6z"></path><path fill="#9D6ACD" d="M199.6 210.4l-10.6 5.4.5-10.2 10.6-5.5z"></path><path fill="#FFDD15" d="M149.7 236l-50.2 25.7.5-10.2 50.2-25.8z"></path><path fill="#1592FD" d="M220.9 200.1l-17.9 9.2.5-10.3 17.9-9.1z"></path></g><g><path fill="#1592FD" d="M99.1 220.1l-45.9 23.6.5-10.3 45.9-23.5z"></path><path fill="#A6A8CD" d="M158.9 189.4l-57.3 29.4.5-10.2 57.3-29.4zM263.9 135.6l-50.2 25.8.5-10.3 50.2-25.7z"></path><path fill="#1592FD" d="M191.6 172.7l-30 15.4.5-10.2 30-15.4z"></path><path fill="#A6A8CD" d="M211.5 162.5l-17.9 9.2.5-10.2 17.9-9.2z"></path></g><g><path fill="#A6A8CD" d="M117.8 196.5l-50.2 25.8.5-10.3 50.2-25.7z"></path><path fill="#FFE538" d="M206.4 151.1l-50.2 25.7.5-10.2 50.2-25.8z"></path><path fill="#A6A8CD" d="M153.5 178.2l-32.4 16.6.6-10.2L154 168z"></path><path fill="#9D6ACD" d="M237.6 135.1l-17.9 9.1.6-10.2 17.8-9.2z"></path></g><g><path fill="#A6A8CD" d="M114.2 268.5L64 294.3l.5-10.3 50.2-25.7zM208.6 220.1l-47.9 24.6.5-10.3 47.9-24.5zM158.7 245.7l-42.9 22 .6-10.2 42.8-22z"></path><path fill="#FFF454" d="M234 207.1l-24 12.3.5-10.2 24-12.4z"></path></g><g><path fill="#FFDD15" d="M87.5 240.1l-21.3 11 .5-10.3L88 229.9z"></path><path fill="#A6A8CD" d="M188.3 188.4l-50.9 26.2.5-10.3 50.9-26.1zM135.4 215.6L89.8 239l.5-10.3 45.6-23.4z"></path><path fill="#1592FD" d="M210.1 177.2l-17.9 9.2.5-10.2 17.9-9.2z"></path></g><g><path fill="#FFDD15" d="M113.6 240.8l-32.1 16.4.5-10.2 32.1-16.5z"></path><path fill="#A6A8CD" d="M203.2 194.8L116 239.5l.5-10.2 87.2-44.7zM232.7 179.7l-27.3 14 .5-10.3 27.3-13.9z"></path></g></g><defs><path id="c" d="M349.3 239.5l-1.5 28.6c-.1 1.5-.5 3-1.3 4.5L348 244c.8-1.5 1.2-3.1 1.3-4.5z"></path></defs><use xlink:href="#c" fill="#DDDFF4"></use><clipPath id="d"><use xlink:href="#c"></use></clipPath><g clip-path="url(#d)"><path fill="#DDDFF4" d="M349.3 239.5l-1.5 28.6c-.1 1.5-.5 3-1.3 4.5L348 244c.8-1.5 1.2-3.1 1.3-4.5z"></path></g><defs><path id="e" d="M328.6 244.1l-1.5 28.6c.1-1.7-1.1-3.3-3.5-4.9-3.2-2.1-6.8-2.9-10.7-2.4-3.9.5-8.4 2-13.4 4.6-1.6.8-3.4 1.8-5.2 2.7-1.8 1-3.4 1.9-4.7 2.8L291 247c1.3-.9 2.9-1.8 4.7-2.8 1.8-1 3.6-1.9 5.2-2.7 5-2.6 9.5-4.2 13.4-4.6 3.9-.5 7.5.3 10.7 2.4 2.5 1.5 3.7 3.1 3.6 4.8z"></path></defs><use xlink:href="#e" fill="#DDDFF4"></use><clipPath id="f"><use xlink:href="#e"></use></clipPath><g clip-path="url(#f)"><path fill="#D4D6EF" d="M328.6 244.1l-1.5 28.6c.1-1.7-1.1-3.3-3.5-4.9-3.2-2.1-6.8-2.9-10.7-2.4-3.9.5-8.4 2-13.4 4.6-1.6.8-3.4 1.8-5.2 2.7-1.8 1-3.4 1.9-4.7 2.8L291 247c1.3-.9 2.9-1.8 4.7-2.8 1.8-1 3.6-1.9 5.2-2.7 5-2.6 9.5-4.2 13.4-4.6 3.9-.5 7.5.3 10.7 2.4 2.5 1.5 3.7 3.1 3.6 4.8z"></path></g><g><defs><path id="g" d="M365.7 264.7l-1.5 28.6c.1-2-1.3-3.9-4.3-5.8-3.7-2.4-7.8-3.3-12.3-2.9-4.5.5-9.5 2.1-14.9 5l1.5-28.6c5.4-2.8 10.4-4.5 14.9-5s8.6.5 12.3 2.9c3 1.9 4.4 3.8 4.3 5.8z"></path></defs><use xlink:href="#g" fill="#DDDFF4"></use><clipPath id="h"><use xlink:href="#g"></use></clipPath><g clip-path="url(#h)"><path fill="#D4D6EF" d="M365.7 264.7l-1.5 28.6c.1-2-1.3-3.9-4.3-5.8-3.7-2.4-7.8-3.3-12.3-2.9-4.5.5-9.5 2.1-14.9 5l1.5-28.6c5.4-2.8 10.4-4.5 14.9-5s8.6.5 12.3 2.9c3 1.9 4.4 3.8 4.3 5.8z"></path></g></g><g><defs><path id="i" d="M391.1 263.2l-1.5 28.6c-.1 1.1-.3 2.1-.7 3.2l1.5-28.6c.4-1 .6-2.1.7-3.2z"></path></defs><use xlink:href="#i" fill="#DDDFF4"></use><clipPath id="j"><use xlink:href="#i"></use></clipPath><g clip-path="url(#j)"><path fill="#DDDFF4" d="M391.1 263.2l-1.5 28.6c-.1 1.1-.3 2.1-.7 3.2l1.5-28.6c.4-1 .6-2.1.7-3.2z"></path></g></g><g><path fill="#D4D6EF" d="M334.2 261l-1.5 28.6-11.9 6.1 1.5-28.5z"></path></g><g><path fill="#DDDFF4" d="M337.4 298.5l-1.5 28.6-77.8-50.3 1.5-28.5z"></path></g><g><defs><path id="k" d="M390.4 266.5l-1.5 28.6c-2.2 6.1-9.7 12.4-22.5 19-4.6 2.4-9.4 4.7-14.2 6.9-4.9 2.2-10.3 4.3-16.2 6.2l1.5-28.6c6-1.9 11.4-4 16.2-6.2 4.9-2.2 9.6-4.5 14.2-6.9 12.8-6.6 20.3-13 22.5-19z"></path></defs><use xlink:href="#k" fill="#DDDFF4"></use><clipPath id="l"><use xlink:href="#k"></use></clipPath><g clip-path="url(#l)"><path fill="#D4D6EF" d="M390.4 266.5l-1.5 28.6c-2.2 6.1-9.7 12.4-22.5 19-4.6 2.4-9.4 4.7-14.2 6.9-4.9 2.2-10.3 4.3-16.2 6.2l1.5-28.6c6-1.9 11.4-4 16.2-6.2 4.9-2.2 9.6-4.5 14.2-6.9 12.8-6.6 20.3-13 22.5-19z"></path></g></g><g><path fill="#FFF" d="M390.4 266.5c-2.2 6.1-9.7 12.4-22.5 19-4.6 2.4-9.4 4.7-14.2 6.9-4.9 2.2-10.3 4.3-16.2 6.2l-77.9-50.3c3.2-2.5 7-5 11.2-7.6 4.3-2.6 8.4-5 12.4-7 5.4-2.8 10.7-5.1 15.9-6.9 5.2-1.9 10.4-3.1 15.4-3.6s9.9-.3 14.6.6c4.7.9 9.2 2.8 13.5 5.5 6.4 4.1 8.2 9.1 5.4 14.8 7.3-1.5 13.6-1.7 18.8-.6 5.3 1.1 10 3 14.2 5.7 8.5 5.4 11.6 11.2 9.4 17.3zm-42.5 12c1.7-.8 3.5-1.7 5.5-2.7 5.7-2.9 9.5-5.8 11.5-8.6s.8-5.5-3.3-8.2c-3.7-2.4-7.8-3.3-12.3-2.9-4.5.5-9.5 2.1-14.9 5l-11.9 6.2 20.7 13.4c1.3-.7 3-1.5 4.7-2.2zm-39.4-20.2l9.3-4.8c5.9-3 9.3-5.6 10.4-7.9 1.1-2.2.1-4.4-3.1-6.4-3.2-2.1-6.8-2.9-10.7-2.4-3.9.5-8.4 2-13.4 4.6-1.6.8-3.4 1.8-5.2 2.7-1.8 1-3.4 1.9-4.7 2.8l17.4 11.4z"></path></g><g><path fill="#D4D6EF" d="M256.8 266l-1.5 28.6-38 19.6 1.5-28.6zM283.1 287.9l-1.5 28.6-33.8 17.4 1.5-28.5z"></path><path fill="#DDDFF4" d="M264.8 337.5l-1.5 28.6-80.2-51.9 1.5-28.5z"></path><path fill="#D4D6EF" d="M324.7 306.6l-1.5 28.5-59.9 31 1.5-28.6z"></path><path fill="#FFF" d="M324.7 306.6l-59.9 30.9-80.2-51.8 57-29.5 15.2 9.8-38 19.6 15.7 10.2 33.8-17.4 14.8 9.5-33.8 17.5 19.4 12.5 40.8-21.1z"></path></g><g><defs><path id="m" d="M197 344.5l-1.5 28.6c-2.9-3.1-6.1-6.4-9.6-10-3.5-3.6-7.3-7.2-11.2-10.9-4-3.7-7.9-7.4-11.9-11-4-3.7-7.8-7.2-11.6-10.5l1.5-28.6c3.7 3.4 7.6 6.9 11.6 10.5 4 3.7 7.9 7.3 11.9 11s7.7 7.3 11.2 10.9c3.6 3.6 6.8 6.9 9.6 10z"></path></defs><use xlink:href="#m" fill="#DDDFF4"></use><clipPath id="n"><use xlink:href="#m"></use></clipPath><g clip-path="url(#n)"><path fill="#DDDFF4" d="M197 344.5l-1.5 28.6c-2.9-3.1-6.1-6.4-9.6-10-3.5-3.6-7.3-7.2-11.2-10.9-4-3.7-7.9-7.4-11.9-11-4-3.7-7.8-7.2-11.6-10.5l1.5-28.6c3.7 3.4 7.6 6.9 11.6 10.5 4 3.7 7.9 7.3 11.9 11s7.7 7.3 11.2 10.9c3.6 3.6 6.8 6.9 9.6 10z"></path></g><defs><path id="o" d="M213.4 364.1l-1.5 28.6c-10.3-3.3-20.8-6.9-31.6-10.8l-32.4-11.7 1.5-28.6c10.8 3.9 21.6 7.9 32.4 11.7 10.8 3.8 21.4 7.4 31.6 10.8z"></path></defs><use xlink:href="#o" fill="#DDDFF4"></use><clipPath id="p"><use xlink:href="#o"></use></clipPath><g clip-path="url(#p)"><path fill="#DDDFF4" d="M213.4 364.1l-1.5 28.6c-10.3-3.3-20.8-6.9-31.6-10.8l-32.4-11.7 1.5-28.6c10.8 3.9 21.6 7.9 32.4 11.7 10.8 3.8 21.4 7.4 31.6 10.8z"></path></g><g><path fill="#D4D6EF" d="M230.8 355.1l-1.5 28.5-17.4 9 1.5-28.5z"></path></g><g><defs><path id="q" d="M150.8 368.4l-1.5 28.6c-2.3-3.2-4.9-6.5-7.8-10-2.9-3.5-5.8-6.9-8.7-10.3-2.9-3.4-5.8-6.7-8.7-9.8-2.8-3.1-5.4-5.9-7.5-8.3l1.5-28.6c2.2 2.5 4.7 5.2 7.5 8.3 2.8 3.1 5.7 6.4 8.7 9.8 2.9 3.4 5.8 6.9 8.7 10.3 2.9 3.5 5.5 6.8 7.8 10z"></path></defs><use xlink:href="#q" fill="#DDDFF4"></use><clipPath id="r"><use xlink:href="#q"></use></clipPath><g clip-path="url(#r)"><path fill="#DDDFF4" d="M150.8 368.4l-1.5 28.6c-2.3-3.2-4.9-6.5-7.8-10-2.9-3.5-5.8-6.9-8.7-10.3-2.9-3.4-5.8-6.7-8.7-9.8-2.8-3.1-5.4-5.9-7.5-8.3l1.5-28.6c2.2 2.5 4.7 5.2 7.5 8.3 2.8 3.1 5.7 6.4 8.7 9.8 2.9 3.4 5.8 6.9 8.7 10.3 2.9 3.5 5.5 6.8 7.8 10z"></path></g></g><g><defs><path id="s" d="M163.9 389.7l-1.5 28.6c-16.8-5.8-33.9-12.2-51.4-19.2S76.5 385 60.2 377.8l1.5-28.6c16.3 7.2 33.2 14.3 50.8 21.3 17.5 7 34.6 13.4 51.4 19.2z"></path></defs><use xlink:href="#s" fill="#DDDFF4"></use><clipPath id="t"><use xlink:href="#s"></use></clipPath><g clip-path="url(#t)"><path fill="#DDDFF4" d="M163.9 389.7l-1.5 28.6c-16.8-5.8-33.9-12.2-51.4-19.2S76.5 385 60.2 377.8l1.5-28.6c16.3 7.2 33.2 14.3 50.8 21.3 17.5 7 34.6 13.4 51.4 19.2z"></path></g></g><g><path fill="#D4D6EF" d="M181.3 380.7l-1.5 28.5-17.4 9 1.5-28.5z"></path></g><g><path fill="#FFF" d="M172.5 291.9c10.6 10.2 20.9 20.7 31 31.5 10.1 10.8 19.2 21.4 27.3 31.7l-17.4 9c-10.3-3.3-20.8-6.9-31.6-10.8l-32.4-11.7c5.6 6.6 11.1 13.2 16.7 19.9 5.5 6.6 10.6 13 15.2 19.3l-17.4 9c-16.8-5.8-33.9-12.2-51.4-19.2S78 356.5 61.7 349.3l20.6-10.6c5.4 2.5 11 5.1 16.9 7.8 5.9 2.7 11.8 5.3 17.8 8 6 2.6 11.9 5.2 17.6 7.6 5.7 2.4 11.1 4.6 16.2 6.6-2.3-3.2-4.9-6.5-7.8-10-2.9-3.5-5.8-6.9-8.7-10.3-2.9-3.4-5.8-6.7-8.7-9.8-2.8-3.1-5.4-5.9-7.5-8.3l16.2-8.4c4.1 1.5 8.8 3.3 13.9 5.2 5.2 2 10.5 4 16.1 6 5.6 2.1 11.2 4.1 16.8 6.1 5.6 2 10.9 3.9 15.8 5.6-2.9-3.1-6.1-6.4-9.6-10-3.5-3.6-7.3-7.2-11.2-10.9-4-3.7-7.9-7.4-11.9-11-4-3.6-7.8-7.2-11.6-10.5l19.9-10.5z"></path></g></g><g><path fill="#C52D24" d="M384.8 102l-6 115.2-23 11.9 6.1-115.2z"></path><path fill="#E53F35" d="M361.9 113.9l-6.1 115.2L334 215l6.1-115.2z"></path><path fill="#F75D50" d="M384.8 102l-22.9 11.9-21.8-14.1L363 88z"></path><path fill="#075AA5" d="M409.7 174.9l-3.3 60.2-23 11.8 3.3-60.1z"></path><path fill="#187CD6" d="M386.7 186.8l-3.3 60.1-21.8-14.1 3.3-60.1z"></path><path fill="#1592FD" d="M409.7 174.9l-23 11.9-21.8-14.1 23-11.9z"></path><g><path fill="#FFD52A" d="M438.7 163.4l-4.7 89.5-23 11.8 4.8-89.5z"></path><path fill="#FFDD15" d="M415.8 175.2l-4.8 89.5-21.8-14 4.8-89.6z"></path><path fill="#FFF454" d="M438.7 163.4l-22.9 11.8-21.8-14.1 22.9-11.8z"></path></g><g><path fill="#BCBFDF" d="M463.7 234.4l-2.1 36.3-23 11.9 2.2-36.4z"></path><path fill="#DDDFF4" d="M440.8 246.2l-2.2 36.4-21.8-14.1 2.2-36.3z"></path><path fill="#E9EAF5" d="M463.7 234.4l-22.9 11.8-21.8-14 22.9-11.9z"></path></g></g><g><defs><path id="ai" d="M339.7 398.3L339 412c.3-5.6-3.1-11.4-10.3-16-14.3-9.2-38.1-10.4-53.1-2.6-7.5 3.9-11.4 9.2-11.7 14.7l.7-13.6c.3-5.5 4.2-10.9 11.7-14.7 15-7.8 38.8-6.6 53.1 2.6 7.2 4.5 10.6 10.3 10.3 15.9z"></path></defs><use xlink:href="#ai" fill="#BCBFDF"></use><clipPath id="aj"><use xlink:href="#ai"></use></clipPath><g clip-path="url(#aj)" fill="#BCBFDF"><path d="M339.7 398.3L339 412c.1-2.7-.6-5.3-2.1-7.9l.7-13.6c1.5 2.5 2.2 5.2 2.1 7.8zM337.6 390.4l-.7 13.6c-1.7-2.9-4.4-5.6-8.2-8.1-9.5-6.1-23.2-8.7-35.7-7.5l.7-13.6c12.5-1.2 26.2 1.3 35.7 7.5 3.8 2.4 6.5 5.2 8.2 8.1zM293.6 374.8l-.7 13.6c-6.3.6-12.3 2.2-17.4 4.8-7.5 3.9-11.4 9.2-11.7 14.7l.7-13.6c.3-5.5 4.2-10.9 11.7-14.7 5.1-2.5 11.1-4.1 17.4-4.8z"></path></g><defs><path id="ak" d="M353.3 399.1l-.7 13.6c-.4 7.5-5.7 14.8-15.9 20.1-20.5 10.6-52.8 9-72.3-3.6-9.8-6.3-14.4-14.2-14-21.8l.7-13.6c-.4 7.6 4.3 15.5 14 21.8 19.5 12.6 51.8 14.2 72.3 3.6 10.1-5.3 15.5-12.6 15.9-20.1z"></path></defs><use xlink:href="#ak" fill="#BCBFDF"></use><clipPath id="al"><use xlink:href="#ak"></use></clipPath><g clip-path="url(#al)" fill="#BCBFDF"><path d="M353.3 399.1l-.7 13.6c-.4 7.5-5.7 14.8-15.9 20.1-6.9 3.5-15.1 5.7-23.6 6.6l.7-13.6c8.6-.9 16.8-3 23.6-6.6 10.1-5.3 15.5-12.6 15.9-20.1zM313.7 425.7l-.7 13.6c-17.1 1.7-35.7-1.8-48.7-10.2-5.2-3.3-8.9-7.1-11.2-11l.7-13.6c2.3 3.9 6 7.7 11.2 11 13 8.4 31.7 11.9 48.7 10.2z"></path><path d="M253.9 404.5l-.7 13.6c-2.1-3.5-3-7.2-2.8-10.8l.7-13.6c-.3 3.6.7 7.3 2.8 10.8z"></path></g><g><defs><path id="am" d="M220.5 435.2l38-19.6c.9-.5 2.1-.3 3.4.5l-38 19.6c-1.3-.8-2.5-1-3.4-.5z"></path></defs><use xlink:href="#am" fill="#3F4361"></use><clipPath id="an"><use xlink:href="#am"></use></clipPath><g clip-path="url(#an)"><path fill="#3F4361" d="M220.5 435.2l38-19.6c.9-.5 2.1-.3 3.4.5l-38 19.6c-1.3-.8-2.5-1-3.4-.5z"></path></g><g><defs><path id="ao" d="M264.7 427.6l-38 19.6c.9-.5 1.5-1.5 1.6-3 .2-3.1-1.8-6.9-4.4-8.6l38-19.6c2.6 1.7 4.5 5.5 4.4 8.6-.1 1.5-.7 2.6-1.6 3z"></path></defs><use xlink:href="#ao" fill="#3F4361"></use><clipPath id="ap"><use xlink:href="#ao"></use></clipPath><g clip-path="url(#ap)"><path fill="#3F4361" d="M223.9 435.7l38-19.6c2.6 1.7 4.5 5.5 4.4 8.6-.1 1.5-.7 2.6-1.6 3l-38 19.6c.9-.5 1.5-1.5 1.6-3 .2-3.1-1.8-6.9-4.4-8.6z"></path></g></g><g><path fill="#3F4361" d="M223.9 435.7c2.6 1.7 4.5 5.5 4.4 8.6-.2 3.1-2.4 4.2-5 2.5-2.6-1.7-4.5-5.5-4.4-8.6.2-3.1 2.4-4.2 5-2.5z"></path></g></g><g><defs><path id="aq" d="M183.8 447.8l54.3-28.1c1.7-.9 3.9-.6 6.3.9l-54.3 28.1c-2.4-1.5-4.6-1.8-6.3-.9z"></path></defs><use xlink:href="#aq" fill="#545982"></use><clipPath id="ar"><use xlink:href="#aq"></use></clipPath><g clip-path="url(#ar)"><path fill="#545982" d="M183.8 447.8l54.3-28.1c1.7-.9 3.9-.6 6.3.9l-54.3 28.1c-2.4-1.5-4.6-1.8-6.3-.9z"></path></g><g><defs><path id="as" d="M249.6 441.9L195.3 470c1.6-.8 2.7-2.8 2.9-5.5.3-5.6-3.3-12.6-8.1-15.7l54.3-28.1c4.7 3.1 8.3 10.1 8.1 15.7-.2 2.7-1.3 4.6-2.9 5.5z"></path></defs><use xlink:href="#as" fill="#545982"></use><clipPath id="at"><use xlink:href="#as"></use></clipPath><g clip-path="url(#at)"><path fill="#545982" d="M190.1 448.7l54.3-28.1c4.7 3.1 8.3 10.1 8.1 15.7-.1 2.8-1.2 4.7-2.9 5.5l-54.3 28.1c1.6-.8 2.7-2.8 2.9-5.5.2-5.6-3.4-12.6-8.1-15.7z"></path></g></g><g><path fill="#3F4361" d="M190.1 448.7c4.7 3.1 8.3 10.1 8.1 15.7-.3 5.6-4.4 7.7-9.1 4.6-4.7-3.1-8.4-10.1-8.1-15.7.3-5.6 4.3-7.7 9.1-4.6z"></path></g></g><path opacity=".5" fill="#2B7EFD" d="M274.7 414.6c14.3 9.2 38.1 10.4 53.1 2.6 15-7.8 15.6-21.5 1.4-30.8-14.3-9.2-38.1-10.4-53.1-2.6-15.1 7.8-15.7 21.6-1.4 30.8z"></path><path opacity=".5" fill="#2B7EFD" d="M327.8 417.2c-15 7.8-38.8 6.6-53.1-2.6-6.6-4.2-10-9.4-10.3-14.6 1.4 1.4 3 2.7 5 4 14.3 9.2 38.1 10.4 53.1 2.6 8.1-4.2 12-10.2 11.7-16.2 8.8 8.9 6.6 20.1-6.4 26.8z"></path><g><path fill="#E9EAF5" d="M339.2 377.2c19.5 12.6 18.6 31.3-1.8 41.9-20.5 10.6-52.8 9-72.3-3.6s-18.6-31.3 1.8-41.9c20.5-10.5 52.9-8.9 72.3 3.6zm-64.3 33.2c14.3 9.2 38.1 10.4 53.1 2.6 15-7.8 15.6-21.5 1.4-30.8-14.3-9.2-38.1-10.4-53.1-2.6-15.1 7.8-15.7 21.6-1.4 30.8z"></path></g></g></svg>