<svg width="122" height="122" viewBox="0 0 122 122" fill="none" xmlns="http://www.w3.org/2000/svg">
<g filter="url(#filter0_i_23_18)">
<path fill-rule="evenodd" clip-rule="evenodd" d="M71.8733 99.6595L71.8721 99.6605L71.8703 99.6589L71.8733 99.6595Z" fill="#05D9E8"/>
<path d="M60.5 121C70.4708 121 79.742 118.551 87.9636 114.353L71.8721 99.6605C71.7644 99.7174 64.4479 101.233 60.5 101.233C38.1093 101.233 20.2668 83.2158 20.2668 61C20.2668 38.7843 38.1093 20.5918 60.5 20.5918C82.8907 20.5918 100.733 38.7843 100.733 61C100.733 72.5452 96.0102 82.8659 88.3134 90.2128L102.657 103.507C113.678 92.6618 120.5 77.6181 120.5 61C120.5 27.7639 93.7362 1 60.5 1C27.2638 1 0.5 27.7639 0.5 61C0.5 94.0612 27.2638 121 60.5 121Z" fill="#05D9E8"/>
<path d="M102.657 103.507C98.4592 107.706 93.3863 111.379 87.9636 114.353L93.7362 119.601H120.5L111.579 111.554L102.657 103.507Z" fill="#FF2A6D"/>
</g>
<path d="M87.9636 114.353C79.742 118.551 70.4708 121 60.5 121C27.2638 121 0.5 94.0612 0.5 61C0.5 27.7639 27.2638 1 60.5 1C93.7362 1 120.5 27.7639 120.5 61C120.5 77.6181 113.678 92.6618 102.657 103.507M87.9636 114.353C93.3863 111.379 98.4592 107.706 102.657 103.507M87.9636 114.353L93.7362 119.601H120.5L111.579 111.554L102.657 103.507M87.9636 114.353L71.8721 99.6605M102.657 103.507L88.3134 90.2128C96.0102 82.8659 100.733 72.5452 100.733 61C100.733 38.7843 82.8907 20.5918 60.5 20.5918C38.1093 20.5918 20.2668 38.7843 20.2668 61C20.2668 83.2158 38.1093 101.233 60.5 101.233C64.4479 101.233 71.7644 99.7174 71.8721 99.6605M71.8721 99.6605L71.8703 99.6589L71.8733 99.6595L71.8721 99.6605Z" stroke="black"/>
<defs>
<filter id="filter0_i_23_18" x="0" y="0.5" width="121.801" height="125" filterUnits="userSpaceOnUse" color-interpolation-filters="sRGB">
<feFlood flood-opacity="0" result="BackgroundImageFix"/>
<feBlend mode="normal" in="SourceGraphic" in2="BackgroundImageFix" result="shape"/>
<feColorMatrix in="SourceAlpha" type="matrix" values="0 0 0 0 0 0 0 0 0 0 0 0 0 0 0 0 0 0 127 0" result="hardAlpha"/>
<feOffset dy="4"/>
<feGaussianBlur stdDeviation="2"/>
<feComposite in2="hardAlpha" operator="arithmetic" k2="-1" k3="1"/>
<feColorMatrix type="matrix" values="0 0 0 0 0 0 0 0 0 0 0 0 0 0 0 0 0 0 0.25 0"/>
<feBlend mode="normal" in2="shape" result="effect1_innerShadow_23_18"/>
</filter>
</defs>
</svg>
