<svg width="136" height="56" viewBox="0 0 136 56" fill="none" xmlns="http://www.w3.org/2000/svg">
<g clip-path="url(#clip0_315_2)">
<path d="M81.8197 25.2819V17.7588H84.8341V36.1077H81.8197V28.1653H73.9558V36.1077H70.9414V17.7588H73.9558V25.2819H81.8197ZM103.836 33.6961C102.001 35.531 99.7559 36.4485 97.0997 36.4485C94.4434 36.4485 92.1891 35.531 90.3368 33.6961C88.5019 31.8438 87.5844 29.5895 87.5844 26.9333C87.5844 24.277 88.5019 22.0315 90.3368 20.1966C92.1891 18.3442 94.4434 17.418 97.0997 17.418C99.7559 17.418 102.001 18.3442 103.836 20.1966C105.689 22.0315 106.615 24.277 106.615 26.9333C106.615 29.5895 105.689 31.8438 103.836 33.6961ZM92.46 31.6516C93.7357 32.8923 95.2823 33.5127 97.0997 33.5127C98.9346 33.5127 100.472 32.8923 101.713 31.6516C102.971 30.3933 103.6 28.8206 103.6 26.9333C103.6 25.0459 102.971 23.4819 101.713 22.2412C100.472 20.983 98.9346 20.3539 97.0997 20.3539C95.2648 20.3539 93.7182 20.983 92.46 22.2412C91.2193 23.4819 90.5989 25.0459 90.5989 26.9333C90.5989 28.8031 91.2193 30.3759 92.46 31.6516ZM114.781 36.4485C113.016 36.4485 111.513 36.0553 110.272 35.2689C109.049 34.4651 108.193 33.3554 107.703 31.9399L110.299 30.4196C111.032 32.4816 112.553 33.5127 114.86 33.5127C115.978 33.5127 116.825 33.2942 117.402 32.8573C117.979 32.4205 118.267 31.835 118.267 31.1011C118.267 30.3671 117.961 29.7992 117.35 29.3973C116.738 28.9953 115.655 28.5584 114.099 28.0866C112.509 27.6148 111.225 27.0556 110.246 26.409C109.058 25.5702 108.464 24.3382 108.464 22.713C108.464 21.0878 109.04 19.8034 110.194 18.8597C111.33 17.8986 112.719 17.418 114.361 17.418C115.812 17.418 117.088 17.7763 118.189 18.4927C119.307 19.1918 120.163 20.1791 120.757 21.4548L118.215 22.9227C117.446 21.2101 116.161 20.3539 114.361 20.3539C113.488 20.3539 112.789 20.5636 112.264 20.983C111.74 21.3849 111.478 21.9354 111.478 22.6344C111.478 23.3159 111.74 23.8576 112.264 24.2596C112.789 24.644 113.759 25.0547 115.174 25.4916C116.048 25.7886 116.555 25.9634 116.694 26.0158C116.922 26.0857 117.376 26.2605 118.057 26.5401C118.617 26.7672 119.062 27.0119 119.394 27.274C120.757 28.34 121.387 29.5982 121.282 31.0487C121.282 32.7088 120.679 34.0282 119.473 35.0068C118.302 35.9679 116.738 36.4485 114.781 36.4485ZM121.772 17.7588H135.14V20.6422H129.976V36.1077H126.962V20.6422H121.772V17.7588Z" fill="white"/>
<path d="M28 56C43.464 56 56 43.464 56 28C56 12.536 43.464 0 28 0C12.536 0 0 12.536 0 28C0 43.464 12.536 56 28 56Z" fill="white"/>
<path d="M56.0006 36.9348C60.6069 36.9348 64.341 33.2006 64.341 28.5943C64.341 23.988 60.6069 20.2539 56.0006 20.2539C51.3943 20.2539 47.6602 23.988 47.6602 28.5943C47.6602 33.2006 51.3943 36.9348 56.0006 36.9348Z" fill="#9D66FF"/>
<path d="M33.6846 18.4297C35.7101 18.4297 37.3425 19.085 38.5816 20.3956C39.8208 21.7063 40.4403 23.4697 40.4403 25.6858V36.7667H36.5799V25.9361C36.5799 24.7207 36.2701 23.7675 35.6506 23.0765C35.031 22.3854 34.185 22.0399 33.1127 22.0399C31.8974 22.0399 30.9442 22.445 30.2531 23.2552C29.5621 24.0416 29.2165 25.2092 29.2165 26.7582V36.7667H25.3561V25.9361C25.3561 24.6969 25.0582 23.7437 24.4625 23.0765C23.8906 22.3854 23.0684 22.0399 21.9961 22.0399C20.8046 22.0399 19.8395 22.445 19.1008 23.2552C18.3859 24.0654 18.0284 25.2331 18.0284 26.7582V36.7667H14.168V18.8944H18.0284V21.039C19.1723 19.2995 20.8761 18.4297 23.1399 18.4297C25.4276 18.4297 27.1195 19.3709 28.2157 21.2535C29.3833 19.3709 31.2063 18.4297 33.6846 18.4297Z" fill="#9D66FF"/>
</g>
<defs>
<clipPath id="clip0_315_2">
<rect width="136" height="56" fill="white"/>
</clipPath>
</defs>
</svg>
