<svg xmlns="http://www.w3.org/2000/svg" xmlns:xlink="http://www.w3.org/1999/xlink" id="&#x421;&#x43B;&#x43E;&#x439;_1" x="0px" y="0px" viewBox="0 0 512 512" xml:space="preserve"><path fill="#C6CAFA" d="M224.6,431l-0.1,5.9l-40.3,22.5l0.2-5.9L224.6,431z"></path><path fill="#C6CAFA" d="M227.8,426.7l-0.1,5.8c0,1.6-1.1,3.1-3.2,4.3l0.1-5.8C226.7,429.9,227.7,428.3,227.8,426.7z"></path><path fill="#D4D8FC" d="M169.2,453.3l-0.1,5.8l-85.7-51.4l0.1-5.8L169.2,453.3z M80.3,403.2l0.1-5.8c0,1.6,1,3.2,3.1,4.5l-0.1,5.8 C81.3,406.5,80.2,404.8,80.3,403.2z"></path><path fill="#CDD1FB" d="M184.4,453.5l-0.1,5.8c-4.2,2.4-11,2.2-15.2-0.3l0.1-5.8C173.3,455.8,180.1,455.9,184.4,453.5z"></path><path fill="#D4D8FC" d="M224.7,422.2c4.2,2.5,4.1,6.4-0.1,8.8l-40.2,22.5c-4.2,2.4-11,2.2-15.2-0.3l-85.7-51.4 c-4.2-2.5-4.1-6.4,0.1-8.8l40.2-22.5c4.2-2.4,11-2.2,15.2,0.3L224.7,422.2z"></path><path fill="#F1F1F1" d="M224.7,422.2l-7.5-4.5l-55.7,30.9l7.7,4.6c4.2,2.5,11,2.6,15.2,0.3l40.2-22.5 C228.8,428.7,228.8,424.7,224.7,422.2z M139,370.9c-4.2-2.5-11-2.6-15.2-0.3l-40.2,22.5c-4.2,2.4-4.3,6.3-0.1,8.8l2.6,1.6l55.7-30.9 L139,370.9z"></path><path fill="#1587FD" d="M217.1,417.7l-55.6,30.9l-58.2-34.8l-7.5-4.5L92,407l-5.9-3.5l14.1-7.9l10.9-6l30.7-17.1l5.9,3.6 L217.1,417.7z"></path><path fill="#3C49F7" d="M147.7,376.1L92,407l-5.9-3.5l14.1-7.9l10.9-6l30.7-17.1L147.7,376.1z"></path><path fill="#F1F1F1" d="M104.7,397l-0.7,0.1l-0.1-0.1c-0.1,0-0.1-0.1-0.2-0.1l0.2-0.4c0-0.1,0-0.1-0.1-0.1l-1-0.2 c-0.1,0-0.2,0-0.2,0.1l-0.2,0.4c-0.2,0-0.3,0-0.5,0.1l-0.5-0.3h-0.3l-0.7,0.4c-0.1,0-0.1,0.1,0,0.2l0.5,0.3 c-0.1,0.1-0.1,0.2-0.1,0.3l-0.7,0.1c-0.1,0-0.2,0.1-0.1,0.1l0.2,0.6c0,0.1,0.1,0.1,0.2,0.1l0.7-0.1c0.1,0,0.1,0.1,0.2,0.1 s0.1,0.1,0.2,0.1l-0.2,0.4c0,0.1,0,0.1,0.1,0.1l1,0.2c0.1,0,0.2,0,0.2-0.1l0.2-0.4c0.2,0,0.4,0,0.5-0.1l0.5,0.3h0.3l0.7-0.4 c0.1,0,0.1-0.1,0-0.2l-0.5-0.3c0.1-0.1,0.1-0.2,0.1-0.3l0.7-0.1c0.1,0,0.2-0.1,0.1-0.1l-0.2-0.6C104.9,397.1,104.8,397,104.7,397z  M103.1,398.1c-0.3,0.2-0.9,0.2-1.2,0c-0.3-0.2-0.3-0.5,0-0.7s0.9-0.2,1.2,0C103.5,397.6,103.5,397.9,103.1,398.1z"></path><g>	<path fill="#F1F1F1" d="M117.7,386.9c-1.4,0.8-1.9,1.9-1.4,2.9l0.5-0.1c-0.4-0.9,0-1.9,1.3-2.6c1.2-0.7,3-0.9,4.5-0.6l0.1-0.3  C121,385.9,119.1,386.1,117.7,386.9z"></path>	<path fill="#F1F1F1" d="M118.8,387.6c-0.9,0.5-1.3,1.3-1,2l0.5-0.1c-0.3-0.6,0-1.2,0.8-1.7c0.8-0.4,1.9-0.6,2.9-0.4l0.1-0.3  C121.1,386.9,119.8,387,118.8,387.6z"></path>	<path fill="#F1F1F1" d="M120,388.3c-0.5,0.3-0.7,0.7-0.5,1.1l0.5-0.1c-0.1-0.3,0-0.6,0.4-0.8c0.4-0.2,0.9-0.3,1.3-0.2l0.1-0.3  C121.2,387.9,120.5,388,120,388.3z M121.9,389.4c-0.3,0.2-0.7,0.1-1,0c-0.1-0.1-0.2-0.1-0.2-0.2c-0.1-0.1,0-0.3,0.2-0.4  s0.5-0.1,0.7-0.1c0.1,0,0.2,0.1,0.3,0.1C122.2,389,122.2,389.3,121.9,389.4z"></path></g><g>	<path fill="#F1F1F1" d="M90.1,403.3c-0.1,0.1-0.2,0.2-0.3,0.4l-0.3-0.2c0.4-0.2,0.3-0.4,0.1-0.6l0.3-0.1l3.4,2l-0.4,0.2L90.1,403.3  L90.1,403.3z M91.2,402.9c-0.5-0.3-0.6-0.7-0.1-0.9c0.5-0.3,1.1-0.2,1.6,0.1l1.7,1c0.5,0.3,0.6,0.7,0.1,1s-1.1,0.2-1.6-0.1  L91.2,402.9z M93.4,403.8c0.3,0.2,0.6,0.2,0.9,0.1c0.3-0.2,0.2-0.3-0.1-0.5l-1.8-1.1c-0.3-0.2-0.6-0.2-0.9-0.1  c-0.3,0.2-0.2,0.3,0.1,0.5L93.4,403.8z M93.8,401.8l0.5,0.3l-0.4,0.2l-0.5-0.3L93.8,401.8z M95.6,402.9l0.5,0.3l-0.4,0.2l-0.5-0.3  L95.6,402.9z M95.5,400.6c1,0.6,0.2,1.5,1,2h0.1l1.1-0.6l0.3,0.2l-1.5,0.8l-0.3-0.2c-1.1-0.7-0.1-1.4-1.1-2  c-0.3-0.2-0.7-0.3-0.9-0.1c-0.3,0.2-0.2,0.3,0.1,0.5l0.3,0.2l-0.4,0.2l-0.3-0.2c-0.5-0.3-0.6-0.7-0.1-0.9  C94.4,400.2,95,400.3,95.5,400.6z M97.4,399.5l-0.3,0.2l-0.1-0.1c-0.3-0.2-0.6-0.2-0.9-0.1c-0.3,0.2-0.2,0.3,0.1,0.6l0.8,0.5  c-0.1-0.2-0.1-0.4,0.2-0.5c0.4-0.2,1-0.2,1.4,0.1l0.5,0.3c0.5,0.3,0.6,0.7,0.1,1s-1.1,0.2-1.7-0.1l-1.7-1c-0.5-0.3-0.6-0.7-0.1-1  C96.3,399.1,96.9,399.2,97.4,399.5z M97.5,400.9l0.5,0.3c0.3,0.2,0.6,0.2,0.9,0.1c0.3-0.2,0.2-0.3-0.1-0.5l-0.5-0.3  c-0.3-0.2-0.6-0.2-0.9-0.1C97.1,400.6,97.1,400.7,97.5,400.9z"></path></g><g>	<path fill="#F1F1F1" d="M133,381.9l0.7,0.4l-0.4,0.2l-0.7-0.4l-1.1,0.6l-0.3-0.2l-1.3-2l0.4-0.2l2.4,1.4l0.3-0.2l0.3,0.2L133,381.9  L133,381.9z M131.5,382.3l0.8-0.4l-1.7-1L131.5,382.3z M132.4,379.5l-1.2,0.7l-0.3-0.2l1.6-0.9l0.3,0.2l2.2,2.3l-0.4,0.2  L132.4,379.5L132.4,379.5z M134.3,378.7l1.1,0.6c0.3,0.2,0.4,0.4,0.1,0.6c-0.3,0.2-0.7,0.1-1-0.1l-1.1-0.6  c-0.3-0.2-0.4-0.4-0.1-0.6C133.6,378.4,134,378.5,134.3,378.7z M133.5,379.1l1.1,0.7c0.2,0.1,0.4,0.1,0.6,0  c0.2-0.1,0.1-0.2-0.1-0.3l-1.1-0.7c-0.2-0.1-0.4-0.1-0.6,0C133.3,378.8,133.3,379,133.5,379.1z M134.9,377.7l2,2.8l-0.2,0.1l-2-2.8  L134.9,377.7z M137.2,378.5l1.1,0.6c0.3,0.2,0.4,0.4,0.1,0.6c-0.3,0.2-0.7,0.1-1-0.1l-1.1-0.6c-0.3-0.2-0.4-0.4,0-0.6  C136.6,378.2,136.9,378.3,137.2,378.5z M136.5,378.9l1.1,0.7c0.2,0.1,0.4,0.1,0.6,0c0.2-0.1,0.1-0.2-0.1-0.3l-1.1-0.7  c-0.2-0.1-0.4-0.1-0.6,0C136.3,378.7,136.3,378.8,136.5,378.9z"></path></g><path fill="#F1F1F1" d="M141.6,379.1l-4.6-2.8l2.7-1.5l4.6,2.8L141.6,379.1z M137.7,376.3l3.9,2.3l1.9-1.1l-3.9-2.3L137.7,376.3z"></path><path fill="#F1F1F1" d="M143.9,377.6l-2.3,1.3l-1.9-1.2l2.3-1.2L143.9,377.6z M139.1,375.4L138,376l-0.8-0.4l1.2-0.7L139.1,375.4z"></path><g>	<path fill="#F1F1F1" d="M127.8,386.4l-1.2,0.7l-2.3-1.4l1.2-0.7L127.8,386.4z M129.5,385.4l-1.2,0.7l-3.1-1.9l1.2-0.7L129.5,385.4z   M131.3,384.4l-1.2,0.7l-4.7-2.8l1.2-0.6L131.3,384.4z"></path></g><g>	<path fill="#3D263D" d="M116.9,381.4L107,387c-0.7,0.4-1.8,0.4-2.5,0s-0.7-1,0-1.4l9.9-5.5c0.7-0.4,1.8-0.4,2.5,0  C117.6,380.4,117.6,381.1,116.9,381.4z M121.8,377.3c-1-0.6-2.5-0.6-3.5-0.1s-1,1.5,0,2c1,0.6,2.5,0.6,3.5,0.1  S122.8,377.9,121.8,377.3z"></path>			<ellipse transform="matrix(1.655938e-02 -0.9999 0.9999 1.655938e-02 -288.5627 483.63)" fill="#3D263D" cx="101.6" cy="388.5" rx="0.7" ry="1.3"></ellipse>	<path fill="#3D263D" d="M99.4,389.8c-0.5-0.3-1.3-0.3-1.8,0s-0.5,0.7,0,1s1.3,0.3,1.8,0C99.8,390.5,99.8,390.1,99.4,389.8z"></path></g><g>	<path fill="#CDD1FB" d="M193.2,443.6c-0.4,0-0.8-0.1-1.1-0.3l-5.1-3.1c-0.4-0.2-0.6-0.5-0.5-0.9c0-0.3,0.2-0.6,0.6-0.8l11.9-6.6  c0.6-0.3,1.6-0.3,2.2,0l5.1,3.1c0.4,0.2,0.6,0.5,0.5,0.9c0,0.3-0.2,0.6-0.6,0.8l-11.9,6.6C194,443.5,193.6,443.6,193.2,443.6  L193.2,443.6z M199.9,432.4c-0.3,0-0.6,0-0.8,0.2l-11.9,6.6c-0.2,0.1-0.2,0.2-0.2,0.2c0,0.1,0.1,0.1,0.2,0.2l5.1,3.1  c0.4,0.2,1.1,0.2,1.5,0l11.9-6.6c0.2-0.1,0.2-0.2,0.2-0.2c0-0.1-0.1-0.1-0.2-0.2l-5.1-3.1C200.5,432.5,200.2,432.4,199.9,432.4z"></path></g><g display="none">	<path display="inline" fill="#D4D8FC" d="M207.5,441.8l-2.8,1.5l3.3,1.7l0.1-3.6L207.5,441.8z"></path>	<path display="inline" fill="#F1F1F1" d="M202.9,444.3l-0.1,3.5l5.2-2.8l-3.3-1.7L202.9,444.3z"></path></g><path display="none" fill="#10191B" d="M207.5,441.8l-0.1,2.9l-4.6,2.5l0.1-2.9L207.5,441.8z"></path><path fill="#BCBEDF" d="M98.3,415.6l-9.8-5.8l0.1-3.3l9.8,5.8L98.3,415.6z"></path><g>	<g>		<path id="a" fill="#B3B3B3" d="M272.5,345.3l-0.1,6.9c-0.1,7.3-5,14.4-14.7,19.8c-19.4,10.8-50.7,10.3-69.8-1.2   c-9.6-5.8-14.4-13.2-14.2-20.6l0.1-6.9c-0.1,7.4,4.6,14.8,14.2,20.6c19.2,11.5,50.4,12,69.8,1.2   C267.5,359.7,272.4,352.6,272.5,345.3z"></path>	</g>	<g>		<defs>			<path id="SVGID_1_" d="M272.5,345.3l-0.1,6.9c-0.1,7.3-5,14.4-14.7,19.8c-19.4,10.8-50.7,10.3-69.8-1.2    c-9.6-5.8-14.4-13.2-14.2-20.6l0.1-6.9c-0.1,7.4,4.6,14.8,14.2,20.6c19.2,11.5,50.4,12,69.8,1.2    C267.5,359.7,272.4,352.6,272.5,345.3z"></path>		</defs>		<clipPath id="SVGID_00000101066730410046556910000016866489709177636530_">			<use xlink:href="#SVGID_1_"></use>		</clipPath>		<g clip-path="url(#SVGID_00000101066730410046556910000016866489709177636530_)">			<path fill="#B3B3B3" d="M272.5,345.3l-0.1,6.9c-0.1,3.8-1.5,7.6-4.1,11.1l0.1-6.9C271.1,352.9,272.4,349.1,272.5,345.3z     M268.4,356.4l-0.1,6.9c-2.4,3.2-6,6.2-10.5,8.7c-9.5,5.3-21.8,7.9-34.2,7.8l0.1-6.9c12.4,0.1,24.7-2.5,34.2-7.8    C262.4,362.6,266,359.6,268.4,356.4z M223.6,372.9l-0.1,6.9c-12.9-0.1-25.8-3.1-35.6-9c-9.6-5.8-14.4-13.2-14.2-20.6l0.1-6.9    c-0.1,7.4,4.6,14.8,14.2,20.6C197.8,369.8,210.7,372.8,223.6,372.9z"></path>		</g>	</g>	<path fill="#B3B3B3" d="M258.3,324.7c19.2,11.5,19,29.6-0.4,40.4s-50.7,10.3-69.8-1.2c-19.2-11.5-19-29.6,0.4-40.4  S239.1,313.2,258.3,324.7z"></path>	<g>		<defs>			<path id="SVGID_00000013904438984483892640000017465065527248933041_" d="M272.6,341.2l-0.1,6.9c-0.1,7.3-5,14.4-14.7,19.8    c-19.4,10.8-50.7,10.3-69.8-1.2c-9.6-5.8-14.4-13.2-14.2-20.6l0.1-6.9c-0.1,7.4,4.6,14.8,14.2,20.6c19.2,11.5,50.4,12,69.8,1.2    C267.6,355.7,272.4,348.5,272.6,341.2z"></path>		</defs>		<clipPath id="SVGID_00000168809393306366785560000003896203072762990771_">			<use xlink:href="#SVGID_00000013904438984483892640000017465065527248933041_"></use>		</clipPath>		<g clip-path="url(#SVGID_00000168809393306366785560000003896203072762990771_)">			<path fill="#D4D6EF" d="M272.6,341.2l-0.1,6.9c-0.1,3.8-1.5,7.6-4.1,11.1l0.1-6.9C271.1,348.8,272.5,345,272.6,341.2z"></path>			<path fill="#D4D6EF" d="M268.5,352.3l-0.1,6.9c-2.4,3.2-6,6.2-10.5,8.7c-9.5,5.3-21.8,7.9-34.2,7.8l0.1-6.9    c12.4,0.1,24.7-2.5,34.2-7.8C262.5,358.5,266,355.5,268.5,352.3z M223.7,368.8l-0.1,6.9c-12.9-0.1-25.8-3.1-35.6-9    c-9.6-5.8-14.4-13.2-14.2-20.6l0.1-6.9c-0.1,7.4,4.6,14.8,14.2,20.6C197.9,365.7,210.8,368.8,223.7,368.8L223.7,368.8z"></path>		</g>	</g>	<g>		<path fill="#E9EAF5" d="M258.4,320.6c19.2,11.5,19,29.6-0.4,40.4s-50.7,10.3-69.8-1.2c-19.2-11.5-19-29.6,0.4-40.4   C207.9,308.6,239.2,309.1,258.4,320.6z"></path>	</g>	<g>		<path fill="#B3B3B3" d="M198.4,349.3l-11.8-7.1l16.1-83.2l11.8,7.1L198.4,349.3z"></path>		<path fill="#B3B3B3" d="M214.5,266.1l-11.8-7.1l42.3-23.4l11.8,7.1L214.5,266.1z"></path>		<path fill="#B3B3B3" d="M256.8,242.7l-16.1,83.2l-42.3,23.4l16.1-83.2L256.8,242.7z"></path>	</g>	<g>		<g>			<path id="e" fill="#C6CAFA" d="M334,40.2l8,4.8c-1.7-1-4-0.9-6.6,0.5l-8-4.8C330,39.3,332.3,39.2,334,40.2z"></path>		</g>		<g>			<defs>				<path id="SVGID_00000181781807701905502940000014359826250451974313_" d="M334,40.2l8,4.8c-1.7-1-4-0.9-6.6,0.5l-8-4.8     C330,39.3,332.3,39.2,334,40.2z"></path>			</defs>			<clipPath id="SVGID_00000013159297396688827170000016165228011795371945_">				<use xlink:href="#SVGID_00000181781807701905502940000014359826250451974313_"></use>			</clipPath>			<g clip-path="url(#SVGID_00000013159297396688827170000016165228011795371945_)">				<path fill="#C6CAFA" d="M335.4,45.6l-8-4.8c2.6-1.5,5-1.6,6.6-0.5l8,4.8C340.3,44,338,44.1,335.4,45.6z"></path>			</g>		</g>		<g>			<path id="g" fill="#C6CAFA" d="M101.4,357.3l-8-4.8c-1.7-1-2.7-3.1-2.6-6l8,4.8C98.7,354.2,99.7,356.3,101.4,357.3z"></path>		</g>		<g>			<defs>				<path id="SVGID_00000068653763697042980030000018171729341963030662_" d="M101.4,357.3l-8-4.8c-1.7-1-2.7-3.1-2.6-6l8,4.8     C98.7,354.2,99.7,356.3,101.4,357.3z"></path>			</defs>			<clipPath id="SVGID_00000177451651391542324700000003238406549862816399_">				<use xlink:href="#SVGID_00000068653763697042980030000018171729341963030662_"></use>			</clipPath>			<g clip-path="url(#SVGID_00000177451651391542324700000003238406549862816399_)">				<path fill="#C6CAFA" d="M101.4,357.3l-8-4.8c-1.7-1-2.7-3.1-2.6-6l8,4.8C98.7,354.2,99.7,356.3,101.4,357.3z"></path>			</g>		</g>		<g>			<path fill="#C6CAFA" d="M98.8,351.3l-8-4.8l2.2-165l8,4.8L98.8,351.3z"></path>		</g>		<g>			<path fill="#C6CAFA" d="M110.6,170.4l-8-4.8L327.4,40.7l8,4.9L110.6,170.4z"></path>		</g>		<g>			<g>				<path id="i" fill="#C6CAFA" d="M101,186.3l-8-4.8c0.1-5.9,4.3-13,9.5-15.9l8,4.8C105.4,173.3,101.1,180.4,101,186.3z"></path>			</g>			<g>				<defs>					<path id="SVGID_00000030475937994930471480000008468484039993473169_" d="M101,186.3l-8-4.8c0.1-5.9,4.3-13,9.5-15.9l8,4.8      C105.4,173.3,101.1,180.4,101,186.3z"></path>				</defs>				<clipPath id="SVGID_00000147180253453217053330000017500834165413899921_">					<use xlink:href="#SVGID_00000030475937994930471480000008468484039993473169_"></use>				</clipPath>				<g clip-path="url(#SVGID_00000147180253453217053330000017500834165413899921_)">					<path fill="#C6CAFA" d="M101,186.3l-8-4.8c0.1-5.9,4.3-13,9.5-15.9l8,4.8C105.4,173.3,101.1,180.4,101,186.3z"></path>				</g>			</g>		</g>		<path fill="#E9EAF5" d="M335.4,45.6c5.2-2.9,9.3-0.4,9.2,5.5l-2.3,165c-0.1,5.9-4.3,13-9.5,15.9L108,356.8   c-5.2,2.9-9.3,0.4-9.2-5.5l2.3-165c0.1-5.9,4.3-13,9.5-15.9L335.4,45.6z"></path>	</g>	<g>		<path fill="#E9EAF5" d="M103.9,340.1l-0.2,11.3c0,0.9,0.1,1.4,0.2,1.6c0.2,0,0.8-0.1,1.6-0.6l224.8-124.9c3.7-2,6.9-7.5,7-11.6   l0.1-5.6L103.9,340.1L103.9,340.1z"></path>		<path fill="#BCBEDF" d="M337.5,210.3L103.9,340.1l0.1-3.7l2.1-150c0.1-4.2,3.3-9.6,7-11.6l223-124l1.7-0.9   c0.9-0.5,1.4-0.6,1.6-0.6c0.1,0.2,0.2,0.7,0.2,1.6L337.5,210.3L337.5,210.3z"></path>		<path fill="#1587FD" d="M333.9,208.6l-215,119.5l-14.9,8.3l0.5-36.9l0.6-42.2l0.5-34.9l0.5-36c0.1-4.2,3.3-9.6,7-11.6l36.1-20   l43.4-24.1l44.6-24.8l66.2-36.8l32.8-18.2L333.9,208.6L333.9,208.6z"></path>	</g>	<g opacity="0.3">		<path fill="#1587FD" d="M192.5,130.6L105,257.3l0.5-35l43.6-67.6L192.5,130.6z"></path>	</g>	<g opacity="0.3">		<path fill="#1587FD" d="M303.3,69.1l-184.4,259l-14.9,8.3l0.5-36.9l132.6-193.7L303.3,69.1z"></path>	</g></g><g>	<path fill="#912F27" d="M416.9,335.3l-0.3,15.5L360,382.4l0.3-15.5L416.9,335.3z"></path>	<path fill="#963028" d="M360.3,366.9l-0.3,15.5l-77.2,9.9l0.3-15.6L360.3,366.9z"></path>	<g>		<defs>			<path id="SVGID_00000111870735638235030220000002401191840649803152_" d="M280.5,380.9l0.3-15.5c-0.1,3.8,0.7,7.6,2.3,11.4    l-0.3,15.5C281.2,388.4,280.4,384.6,280.5,380.9z"></path>		</defs>		<clipPath id="SVGID_00000137100492967760866940000015520783034947755670_">			<use xlink:href="#SVGID_00000111870735638235030220000002401191840649803152_"></use>		</clipPath>		<g clip-path="url(#SVGID_00000137100492967760866940000015520783034947755670_)">			<path fill="#BF3E33" d="M283.1,376.7l-0.3,15.5c-1.6-3.8-2.3-7.7-2.3-11.4l0.3-15.5C280.7,369.1,281.5,372.9,283.1,376.7z"></path>		</g>	</g>	<path fill="#F76050" d="M416.9,335.3l-56.6,31.6l-77.2,9.9c-10.3-24.8,15.8-49.4,58.5-54.9C369.2,318.4,396.9,323.3,416.9,335.3  L416.9,335.3z"></path>	<path fill="#E9EAF5" d="M360.3,366.9l-44.9,37.4c-4.7-1.9-8.8-4-12.6-6.2c-9.8-5.9-16.3-12.9-19.8-21.4L360.3,366.9z"></path>	<path fill="#84858D" d="M360.3,366.9l-0.3,15.5l-44.9,37.5l0.3-15.6L360.3,366.9z"></path>	<g>		<defs>			<path id="SVGID_00000088120128889031278170000006740942720252548781_" d="M315.4,404.3l-0.3,15.5c-4.7-1.9-8.8-4-12.6-6.2    c-9.8-5.9-16.3-12.9-19.8-21.4l0.3-15.5c3.5,8.5,10,15.5,19.8,21.4C306.6,400.4,310.8,402.4,315.4,404.3z"></path>		</defs>		<clipPath id="SVGID_00000034788384340696134340000013036521218252843915_">			<use xlink:href="#SVGID_00000088120128889031278170000006740942720252548781_"></use>		</clipPath>		<g clip-path="url(#SVGID_00000034788384340696134340000013036521218252843915_)">			<path fill="#D4D6EF" d="M315.4,404.3l-0.3,15.5c-4.7-1.9-8.8-4-12.6-6.2c-9.8-5.9-16.3-12.9-19.8-21.4l0.3-15.5    c3.5,8.5,10,15.5,19.8,21.4C306.6,400.4,310.8,402.4,315.4,404.3z"></path>		</g>	</g>	<g>		<g>			<defs>				<path id="SVGID_00000160882922926450224040000014529260678815923368_" d="M435.7,382.4l-0.3,15.5c-13.8,24-58.8,36.5-100.5,27.9     c-7.3-1.5-13.4-3.3-19.8-5.9l0.3-15.5c6.4,2.6,12.5,4.4,19.8,5.9C376.9,418.8,421.9,406.3,435.7,382.4z"></path>			</defs>			<clipPath id="SVGID_00000102521961147587684860000004147107966777515912_">				<use xlink:href="#SVGID_00000160882922926450224040000014529260678815923368_"></use>			</clipPath>			<g clip-path="url(#SVGID_00000102521961147587684860000004147107966777515912_)">				<path fill="#FFDB3E" d="M435.7,382.4l-0.3,15.5c-13.8,24-58.8,36.5-100.5,27.9c-7.3-1.5-13.4-3.3-19.8-5.9l0.3-15.5     c6.4,2.6,12.5,4.4,19.8,5.9C376.9,418.8,421.9,406.3,435.7,382.4z"></path>			</g>		</g>	</g>	<g>		<path fill="#FFF323" d="M435.7,382.4c-13.8,24-58.8,36.5-100.5,27.9c-7.3-1.5-13.4-3.3-19.8-5.9l44.9-37.4L435.7,382.4z"></path>	</g>	<g>		<g>			<defs>				<path id="SVGID_00000165934368723781777700000008116286535733807535_" d="M463.6,346l-0.3,15.5c-0.1,4.8-1.5,9.7-4.3,14.5     l0.3-15.5C462.1,355.7,463.5,350.8,463.6,346z"></path>			</defs>			<clipPath id="SVGID_00000183955172945585008260000016059122635090802602_">				<use xlink:href="#SVGID_00000165934368723781777700000008116286535733807535_"></use>			</clipPath>			<g clip-path="url(#SVGID_00000183955172945585008260000016059122635090802602_)">				<path fill="#1541D6" d="M463.6,346l-0.3,15.5c-0.1,4.8-1.5,9.7-4.3,14.5l0.3-15.5C462.1,355.7,463.5,350.8,463.6,346z"></path>			</g>		</g>		<g>			<path fill="#144AFC" d="M459.3,360.6l-0.3,15.5l-75.4-15.5l0.3-15.5L459.3,360.6z"></path>		</g>		<g>			<path fill="#1365FD" d="M440.4,313.5c21.7,13,28.6,30.2,18.9,47.1l-75.4-15.5L440.4,313.5z"></path>		</g>	</g></g><g>	<path fill="#BCBEDF" d="M128.5,318.1l-4.3-2.6l1.7-130.1l4.4,2.6L128.5,318.1z"></path>	<path fill="#FFFFFF" d="M130.3,188l-4.4-2.6l190.9-106l4.4,2.6L130.3,188z"></path>	<path fill="#E9EAF5" d="M321.2,82l-1.8,130L128.5,318.1l1.8-130.1L321.2,82z"></path>	<g>		<g opacity="0.4">			<path fill="#3D263D" d="M135.2,309.9l2-118.9h0.1l179.8-99.8L315,210h-0.1L135.2,309.9z M137.3,191.1l-2,118.4l179.4-99.6    l2-118.4L137.3,191.1L137.3,191.1z"></path>			<path fill="#3D263D" d="M137,210.9l-0.1-0.2L316.4,111l0.2,0.2L137,210.9z M136.6,230.7l-0.1-0.2l179.6-99.8l0.1,0.2L136.6,230.7    z M136.3,250.5l-0.1-0.2l179.6-99.8l0.1,0.2L136.3,250.5z M135.7,269.8l179.8-99.4l0.1,0.2L135.8,270L135.7,269.8z M135.7,290    l-0.2-0.2L315.1,190l0.1,0.2L135.7,290z"></path>			<path fill="#3D263D" d="M296.8,219.9l2-118.6l0.2,0l-2,118.6L296.8,219.9z M278.8,229.9l2-118.6l0.2,0l-2,118.6L278.8,229.9z     M260.9,239.8l2-118.6l0.2,0l-2,118.6L260.9,239.8z M242.9,249.8l2-118.6l0.2,0l-2,118.6L242.9,249.8z M225,259.8l2-118.6l0.2,0    l-2,118.6L225,259.8z M207,269.7l2-118.6l0.2,0l-2,118.6L207,269.7z M189,279.8l2-118.6l0.2,0l-2,118.6L189,279.8z M171.1,289.7    l2-118.6l0.2,0l-2,118.6L171.1,289.7z M153.2,299.7l2-118.6l0.2,0l-2,118.6L153.2,299.7z"></path>		</g>		<path fill="#A6A7CD" d="M153.2,299.7l-17.9,10l0.9-54.7l17.9-9.9L153.2,299.7z M180.2,284.7l-18,10l0.3-17l18-10L180.2,284.7z    M287.9,224.9l-17.9,10l1.4-88.7l18-10L287.9,224.9z M234,254.8l-17.9,10l0.7-40.3l17.9-10L234,254.8z M314.9,209.9l-18,10   l0.6-33.6l17.9-9.9L314.9,209.9z M207.1,269.8l-18,9.9l1.8-104.7l17.9-10L207.1,269.8z M261,239.8l-18,10l1.1-67.1l18-10   L261,239.8z"></path>	</g></g><g>	<path fill="#BCBEDF" d="M198.3,219.4l-4.4-2.6l0.7-51.6l4.4,2.6L198.3,219.4z"></path>	<path fill="#FFFFFF" d="M199,167.8l-4.4-2.6L385.5,59.1l4.4,2.7L199,167.8z"></path>	<path fill="#EEEFF8" d="M389.9,61.8l-0.8,51.6l-190.8,106l0.7-51.6L389.9,61.8z"></path>	<g>		<path fill="#7B7C9F" d="M215.4,175.9c0.3,0.5,0.6,1.1,1,1.8s0.8,1.5,1.2,2.4s0.8,1.7,1.2,2.7c0.4,0.9,0.8,1.8,1.2,2.6   c0.4-1.2,0.8-2.5,1.3-3.9c0.4-1.4,0.9-2.8,1.4-4.1s0.9-2.6,1.3-3.8c0.4-1.2,0.8-2.2,1.1-3l3.6-2c0.1,1.3,0.3,2.7,0.4,4.3   c0.1,1.6,0.2,3.3,0.3,5s0.2,3.5,0.2,5.3c0.1,1.8,0.1,3.4,0.2,5l-3.9,2.2c0-1.9-0.1-4.1-0.1-6.3c0-2.3-0.1-4.6-0.3-6.8   c-0.3,1-0.7,2.1-1.1,3.3l-1.2,3.6c-0.4,1.2-0.8,2.4-1.1,3.5c-0.4,1.1-0.7,2-0.9,2.8l-2.8,1.6c-0.2-0.5-0.5-1.1-0.8-1.8   s-0.7-1.5-1-2.3c-0.4-0.8-0.7-1.6-1.1-2.4c-0.4-0.8-0.7-1.5-1-2.2c-0.2,2.5-0.4,4.9-0.5,7.2c-0.1,2.4-0.2,4.6-0.3,6.6l-3.9,2.2   c0.1-1.6,0.2-3.4,0.3-5.3c0.1-1.9,0.3-3.7,0.4-5.6c0.1-1.9,0.3-3.7,0.5-5.4c0.2-1.8,0.4-3.3,0.5-4.8L215.4,175.9L215.4,175.9z    M250.4,166.5c0,1.7-0.3,3.4-0.8,5s-1.1,3-1.9,4.3c-0.8,1.3-1.7,2.5-2.8,3.6s-2.3,1.9-3.5,2.6c-1.2,0.7-2.4,1.1-3.4,1.2   c-1.1,0.1-2,0-2.8-0.4s-1.4-1.2-1.8-2.3c-0.4-1.1-0.6-2.5-0.6-4.2s0.3-3.4,0.8-5s1.2-3.1,2-4.4c0.8-1.3,1.8-2.5,2.9-3.6   c1.1-1,2.2-1.9,3.4-2.5c1.2-0.7,2.4-1.1,3.4-1.2c1.1-0.1,2,0,2.8,0.5s1.4,1.2,1.8,2.3C250.2,163.4,250.4,164.8,250.4,166.5   L250.4,166.5z M236.8,174c0,1,0.1,1.8,0.3,2.5s0.5,1.2,0.9,1.6c0.4,0.4,0.9,0.5,1.5,0.5s1.2-0.2,2-0.6c0.7-0.4,1.4-0.9,2-1.6   c0.6-0.6,1.1-1.4,1.5-2.2s0.7-1.7,1-2.6c0.2-0.9,0.3-1.9,0.4-2.9c0-1-0.1-1.8-0.3-2.5s-0.5-1.2-0.9-1.6c-0.4-0.4-0.9-0.5-1.5-0.5   s-1.2,0.2-2,0.6c-0.8,0.4-1.4,0.9-2,1.6c-0.6,0.6-1.1,1.4-1.5,2.2s-0.7,1.7-1,2.6C237,172.1,236.8,173.1,236.8,174z M265.4,168.2   c-1.1-1.7-2.3-3.3-3.6-4.8c-1.3-1.5-2.7-2.9-4.1-4.1l-0.2,13.3l-3.9,2.2l0.3-20.3l3.3-1.8c0.6,0.3,1.2,0.8,1.8,1.3   c0.7,0.6,1.3,1.2,2,1.8l2.1,2.1c0.7,0.8,1.3,1.5,1.9,2.2l0.2-12l4-2.2l-0.3,20.3L265.4,168.2z M273.2,143.8l4-2.2l-0.3,20.3   l-4,2.2L273.2,143.8z M294.5,131.9l-0.1,3.9l-5.4,3l-0.3,16.4l-4,2.2L285,141l-5.4,3l0.1-3.9L294.5,131.9z M313.2,131.6   c0,1.7-0.3,3.4-0.8,5s-1.1,3-1.9,4.3s-1.7,2.5-2.8,3.6c-1.1,1.1-2.3,1.9-3.5,2.6c-1.2,0.7-2.4,1.1-3.4,1.2c-1.1,0.1-2,0-2.8-0.4   s-1.4-1.2-1.8-2.3s-0.6-2.5-0.6-4.2s0.3-3.4,0.8-5s1.2-3.1,2-4.4c0.8-1.3,1.8-2.5,2.9-3.6c1.1-1,2.2-1.9,3.4-2.5   c1.2-0.7,2.4-1.1,3.4-1.2c1.1-0.1,2,0,2.8,0.5s1.4,1.2,1.8,2.3C313,128.5,313.2,129.9,313.2,131.6L313.2,131.6z M299.7,139.1   c0,1,0.1,1.8,0.3,2.5c0.2,0.7,0.5,1.2,0.9,1.6c0.4,0.4,0.9,0.5,1.5,0.5s1.2-0.2,2-0.6c0.7-0.4,1.4-0.9,2-1.6   c0.6-0.6,1.1-1.4,1.5-2.2s0.7-1.7,1-2.6c0.2-0.9,0.3-1.9,0.4-2.9c0-1-0.1-1.8-0.3-2.5c-0.2-0.7-0.5-1.2-0.9-1.6   c-0.4-0.4-0.9-0.5-1.5-0.5s-1.2,0.2-2,0.6c-0.8,0.4-1.4,0.9-2,1.6c-0.6,0.6-1.1,1.4-1.5,2.2s-0.7,1.7-1,2.6   C299.8,137.2,299.7,138.1,299.7,139.1z M321.9,116.5c2.7-1.5,4.7-2.1,6.1-1.8s2.1,1.6,2,3.9c0,1.4-0.3,2.7-0.9,3.9   c-0.6,1.2-1.4,2.4-2.5,3.5c0.4,0.3,0.7,0.7,1.1,1.1s0.8,0.9,1.1,1.4c0.4,0.5,0.7,1,1.1,1.6c0.3,0.6,0.7,1.1,1,1.7l-4.5,2.5   c-0.3-0.5-0.6-1-1-1.5s-0.7-1-1-1.4s-0.7-0.9-1-1.3c-0.3-0.4-0.7-0.7-1-1l-2,1.1l-0.1,7.4l-4,2.2l0.3-20c0.9-0.7,1.8-1.3,2.7-1.9   C320.4,117.4,321.2,116.9,321.9,116.5L321.9,116.5z M322.1,120.2c-0.3,0.2-0.6,0.3-0.8,0.5c-0.2,0.1-0.4,0.3-0.7,0.4l-0.1,5.5   l1.1-0.6c1.5-0.8,2.6-1.6,3.2-2.4c0.7-0.8,1-1.7,1-2.7s-0.3-1.5-1-1.6C324.3,119.2,323.4,119.5,322.1,120.2z M333.8,110.1l4-2.2   l-0.3,20.3l-4,2.2C333.5,130.4,333.8,110.1,333.8,110.1z M353.5,119.3c-1.1-1.7-2.3-3.3-3.6-4.8c-1.3-1.5-2.7-2.9-4.1-4.1   l-0.2,13.3l-3.9,2.2l0.3-20.3l3.3-1.8c0.6,0.3,1.2,0.8,1.8,1.3c0.7,0.6,1.3,1.2,2,1.8l2.1,2.1c0.7,0.7,1.3,1.5,1.9,2.2l0.2-12   l4-2.2l-0.3,20.3L353.5,119.3L353.5,119.3z M369.9,93.6c-1.9,1-3.2,2.4-4.1,4c-0.8,1.6-1.3,3.5-1.3,5.5c0,1,0.1,1.8,0.3,2.5   c0.2,0.7,0.5,1.2,0.9,1.6s0.9,0.5,1.5,0.5s1.3-0.3,2.1-0.7c0.4-0.2,0.8-0.5,1.1-0.7c0.3-0.2,0.6-0.4,0.8-0.6l0.1-7.1l4-2.2   l-0.2,10.1c-0.5,0.5-1.3,1.1-2.3,2c-1.1,0.8-2.4,1.7-3.9,2.5c-1.3,0.7-2.5,1.2-3.6,1.3c-1.1,0.1-2,0-2.7-0.5   c-0.8-0.5-1.3-1.2-1.7-2.3c-0.4-1.1-0.6-2.5-0.6-4.1c0-1.7,0.3-3.3,0.8-4.9s1.1-3,2-4.4c0.8-1.4,1.8-2.6,2.9-3.6   c1.1-1.1,2.3-1.9,3.5-2.6c0.8-0.5,1.6-0.8,2.3-1.1c0.7-0.2,1.3-0.4,1.7-0.5c0.5-0.1,0.9-0.2,1.2-0.2h0.7l-1.2,4.3   c-0.5,0-1.2,0-1.9,0.2C371.5,92.8,370.7,93.1,369.9,93.6L369.9,93.6z"></path>	</g></g><g>	<path fill="#BCBEDF" d="M74.5,317.4l-4.3-2.6l0.5-38.3l4.3,2.6L74.5,317.4z"></path>	<path fill="#FFFFFF" d="M75,279.1l-4.3-2.6l97.5-54.2l4.4,2.7L75,279.1z"></path>	<path fill="#EEEFF8" d="M172.6,225l-0.5,38.3l-97.6,54.1l0.5-38.3L172.6,225z"></path>	<g>		<path fill="#7B7C9F" d="M94.2,278.9l-0.1,3l-4.2,2.3L89.8,297l-3.1,1.7l0.2-12.7l-4.2,2.3l0.1-3L94.2,278.9L94.2,278.9z    M100.2,275.4c2.1-1.1,3.6-1.6,4.7-1.4s1.6,1.2,1.6,3c0,1.1-0.3,2.1-0.7,3.1c-0.5,0.9-1.1,1.8-1.9,2.7c0.3,0.2,0.6,0.5,0.9,0.9   c0.3,0.3,0.6,0.7,0.9,1.1s0.6,0.8,0.8,1.2c0.3,0.4,0.5,0.9,0.7,1.3l-3.5,1.9c-0.2-0.4-0.5-0.8-0.7-1.1c-0.3-0.4-0.5-0.8-0.8-1.1   c-0.3-0.3-0.5-0.7-0.8-1s-0.5-0.6-0.8-0.8l-1.5,0.9l-0.1,5.8l-3.1,1.7l0.3-15.5l2.1-1.5C99,276.1,99.6,275.7,100.2,275.4z    M100.3,278.3c-0.2,0.1-0.4,0.2-0.6,0.4c-0.2,0.1-0.3,0.2-0.5,0.3l-0.1,4.3l0.9-0.5c1.2-0.6,2-1.3,2.5-1.9s0.8-1.3,0.8-2.1   s-0.2-1.2-0.7-1.2C102.1,277.5,101.3,277.8,100.3,278.3L100.3,278.3z M119,280.7c-0.1-0.5-0.3-0.9-0.5-1.4s-0.3-1-0.5-1.4l-5.4,3   c-0.2,0.7-0.4,1.3-0.6,2s-0.4,1.3-0.5,2l-3.2,1.8c0.5-2,1.1-3.8,1.6-5.5s1-3.3,1.4-4.8c0.5-1.5,0.9-3,1.4-4.4s0.9-2.8,1.4-4.1   l2.9-1.6c0.4,0.8,0.9,1.7,1.3,2.6s0.8,1.9,1.3,2.9c0.4,1,0.9,2.1,1.3,3.3c0.4,1.2,0.9,2.5,1.4,3.9L119,280.7L119,280.7z    M115.5,270.6c-0.1,0.3-0.2,0.6-0.3,1.1c-0.1,0.5-0.3,1-0.5,1.6s-0.4,1.3-0.6,2s-0.4,1.5-0.7,2.3l3.9-2.2   c-0.2-0.6-0.4-1.1-0.6-1.6s-0.4-1-0.5-1.4c-0.2-0.4-0.3-0.8-0.4-1.1C115.7,271,115.6,270.8,115.5,270.6L115.5,270.6z M124.1,277.9   l0.3-15.8l9.2-5.1v3l-6.1,3.4l-0.1,3.3l5.5-3v3l-5.5,3l-0.1,6.5L124.1,277.9L124.1,277.9z M135.6,271.6l0.3-15.8l9.2-5.1v3   l-6.1,3.4l-0.1,3.3l5.5-3v3l-5.5,3l-0.1,6.5L135.6,271.6L135.6,271.6z M147.2,249.5l3.1-1.7l-0.3,15.8l-3.1,1.7L147.2,249.5   L147.2,249.5z M159.6,258.6c-2.2,1.2-3.9,1.5-5.1,0.7c-1.2-0.8-1.7-2.5-1.7-5.1c0-1.3,0.2-2.6,0.6-3.8c0.4-1.2,0.9-2.4,1.5-3.4   c0.6-1.1,1.4-2,2.3-2.8c0.9-0.8,1.8-1.5,2.8-2.1c0.6-0.3,1.1-0.6,1.6-0.7c0.5-0.2,0.9-0.3,1.2-0.4c0.4-0.1,0.7-0.1,0.9-0.1h0.5   l-0.9,3.4c-0.4,0-0.9,0-1.5,0.2c-0.6,0.1-1.2,0.4-1.9,0.8c-0.5,0.3-0.9,0.6-1.4,1.1c-0.5,0.4-0.9,1-1.2,1.6   c-0.4,0.6-0.6,1.3-0.9,2c-0.2,0.8-0.3,1.6-0.4,2.5c0,0.7,0,1.4,0.2,1.9c0.1,0.6,0.3,1,0.7,1.3c0.3,0.3,0.7,0.4,1.2,0.4   s1.1-0.2,1.8-0.6c0.5-0.3,0.9-0.5,1.2-0.8c0.4-0.3,0.7-0.5,1-0.7s0.5-0.5,0.7-0.7l0.6-0.6l0.8,2.4c-0.4,0.5-1.1,1.2-1.9,1.8   C161.5,257.3,160.6,258,159.6,258.6L159.6,258.6z"></path>	</g></g><g>	<path fill="#F76050" d="M92.9,340c-0.4,0-0.8-0.2-1.2-0.5c-0.7-0.7-0.8-1.8-0.1-2.5l63.1-69.2c0.7-0.7,1.8-0.8,2.5-0.1  c0.7,0.7,0.8,1.8,0.1,2.5l-63.1,69.2C93.9,339.8,93.4,340,92.9,340L92.9,340z"></path>	<path fill="#F76050" d="M205.6,274.7h-0.1l-49.6-3.9c-1-0.1-1.7-0.9-1.6-1.9c0.1-1,0.9-1.7,1.9-1.6l49.6,3.9c1,0.1,1.7,0.9,1.6,1.9  C207.3,274,206.5,274.7,205.6,274.7L205.6,274.7z"></path>	<path fill="#F76050" d="M205.6,274.7c-0.3,0-0.7-0.1-1-0.3c-0.8-0.6-1-1.7-0.5-2.5l42.2-61.8c0.6-0.8,1.7-1,2.5-0.5  c0.8,0.6,1,1.7,0.5,2.5l-42.2,61.8C206.8,274.4,206.2,274.7,205.6,274.7z"></path>	<path fill="#F76050" d="M247.8,212.9c-0.5,0-1-0.2-1.4-0.7c-0.6-0.8-0.5-1.9,0.3-2.5l71-55.2c0.8-0.6,1.9-0.5,2.5,0.3  s0.5,1.9-0.3,2.5l-71,55.2C248.6,212.8,248.2,212.9,247.8,212.9L247.8,212.9z"></path>	<path fill="#F76050" d="M318.8,157.7c-0.2,0-0.4,0-0.7-0.1c-0.9-0.4-1.3-1.4-0.9-2.3l26.4-62.7c0.4-0.9,1.4-1.3,2.3-0.9  s1.3,1.4,0.9,2.3l-26.4,62.7C320.1,157.3,319.5,157.7,318.8,157.7L318.8,157.7z"></path>	<g>		<path fill="#E54235" d="M88.4,332.3L88.2,345l11.1-6.2l0.2-12.7L88.4,332.3z M151.6,265.8l-0.2,12.7l11.1-6.1l0.2-12.8   L151.6,265.8z M200.2,268.1l-0.2,12.7l11.1-6.1l0.2-12.7L200.2,268.1z M246.8,203.1l-0.2,12.7l11.1-6.2l0.2-12.7L246.8,203.1z    M317.1,163l11.2-6.2l0.2-12.7l-11.1,6.2L317.1,163z M343.2,85.2L343,97.9l11.1-6.1l0.2-12.7L343.2,85.2z"></path>	</g></g><g>	<path opacity="0.5" fill="#BCBEDF" d="M192.2,426.7l-24.7,13.9l-16.9-10.2V427l24.6-10.5L192.2,426.7z   M172.3,414.7l-24.7,13.9l-16.9-10.2v-3.3l24.7-10.5L172.3,414.7z"></path>	<path opacity="0.5" fill="#BCBEDF" d="M152.5,403l-24.7,13.9l-16.9-10.2v-3.4l24.6-10.5L152.5,403z"></path>	<path fill="#C53024" d="M144.1,322.4l-1.6,81.4l-15.9,8.8l1.6-81.3L144.1,322.4z"></path>	<path fill="#E54235" d="M128.2,331.3l-1.6,81.3l-15.7-9.4l1.6-81.3L128.2,331.3z"></path>	<path fill="#F76050" d="M144.1,322.4l-15.9,8.9l-15.7-9.4l15.9-8.9L144.1,322.4z"></path>	<g>		<path fill="#BCBEDF" d="M163.3,373.2l-0.9,42.5l-15.9,8.9l0.9-42.5L163.3,373.2z"></path>		<path fill="#DDDEF4" d="M147.4,382.1l-0.9,42.5l-15.7-9.4l0.9-42.5L147.4,382.1z"></path>		<path fill="#E9EAF5" d="M163.3,373.2l-15.9,8.9l-15.7-9.4l15.9-8.9L163.3,373.2z"></path>	</g>	<g>		<path fill="#FFDB3E" d="M183.5,364.4l-1.3,63.2l-15.8,8.9l1.2-63.2L183.5,364.4z"></path>		<path fill="#FFDD00" d="M167.6,373.3l-1.2,63.2l-15.7-9.4l1.2-63.2L167.6,373.3z"></path>		<path fill="#FFF323" d="M183.5,364.4l-15.9,8.9l-15.7-9.4l15.9-8.9L183.5,364.4z"></path>	</g></g></svg>