<svg xmlns="http://www.w3.org/2000/svg" xmlns:xlink="http://www.w3.org/1999/xlink" viewBox="0 0 512 512"><path fill="#FFF" d="M94.6 242.2l-57.4-4.3.3-4.1 54.8 4.1 50.5-87.4 31.1 41.3 42.7-34.8 31.9-76.1 56.2-41.8 2.4 3.2-55.3 41.2-31.8 76.1-46.8 38-30-39.7z"></path><g fill="#FFF"><path d="M255.3 80.2c-.1 3.5-2.7 7.7-5.7 9.4-3.1 1.7-5.5.2-5.4-3.3s2.7-7.7 5.7-9.4c3-1.7 5.5-.2 5.4 3.3zM224.2 154.1c-.1 3.5-2.7 7.7-5.7 9.4-3.1 1.7-5.5.2-5.4-3.3.1-3.5 2.7-7.7 5.7-9.4 3.1-1.7 5.5-.2 5.4 3.3zM174.8 200.7c-.1 3.5-2.7 7.7-5.7 9.4-3.1 1.7-5.5.2-5.4-3.3s2.7-7.7 5.7-9.4c3-1.7 5.4-.2 5.4 3.3zM147.5 152.3c-.1 3.5-2.7 7.7-5.7 9.4-3.1 1.7-5.5.2-5.4-3.3.1-3.5 2.7-7.7 5.7-9.4 3.1-1.7 5.5-.2 5.4 3.3zM102.5 257.7c-.1 3.5-2.7 7.7-5.7 9.4-3.1 1.7-5.5.2-5.4-3.3.1-3.5 2.7-7.7 5.7-9.4 3-1.7 5.5-.2 5.4 3.3zM42.9 232.5c-.1 3.5-2.7 7.7-5.7 9.4-3.1 1.7-5.5.2-5.4-3.3.1-3.5 2.7-7.7 5.7-9.4 3.1-1.7 5.5-.2 5.4 3.3z"></path></g><path fill="#13CAFD" d="M40.9 263.3l-3.2-2.6 54.1-66.5 42.5 19.5 54.7-78.2 48.4-3.7 38.8-35.4.4-.2 61-24.7 1.6 3.8-60.8 24.6-39.3 35.9-47.8 3.7-55.6 79.4L93 199.3z"></path><g fill="#13CAFD"><path d="M195.1 135.4c-.1 3.5-2.7 7.7-5.7 9.4-3.1 1.7-5.5.2-5.4-3.3.1-3.5 2.7-7.7 5.7-9.4 3.1-1.7 5.5-.2 5.4 3.3zM141.8 211.7c-.1 3.5-2.7 7.7-5.7 9.4-3.1 1.7-5.5.2-5.4-3.3.1-3.5 2.7-7.7 5.7-9.4 3.1-1.7 5.5-.2 5.4 3.3zM98.5 193.8c-.1 3.5-2.7 7.7-5.7 9.4-3.1 1.7-5.5.2-5.4-3.3.1-3.5 2.7-7.7 5.7-9.4 3-1.7 5.4-.2 5.4 3.3zM45.9 257.7c-.1 3.5-2.7 7.7-5.7 9.4-3.1 1.7-5.5.2-5.4-3.3.1-3.5 2.7-7.7 5.7-9.4 3.1-1.7 5.5-.2 5.4 3.3zM244.4 129.4c-.1 3.5-2.7 7.7-5.7 9.4-3.1 1.7-5.5.2-5.4-3.3s2.7-7.7 5.7-9.4c3-1.7 5.4-.2 5.4 3.3zM281.2 96.4c-.1 3.5-2.7 7.7-5.7 9.4-3.1 1.7-5.5.2-5.4-3.3.1-3.5 2.7-7.7 5.7-9.4 3.1-1.7 5.5-.2 5.4 3.3z"></path></g><g><path fill="#C52449" d="M418.8 137.7l-2.5 96-18.8 10.3 2.5-96z"></path><path fill="#E5355D" d="M400 148l-2.5 96-18.5-11.2 2.5-96z"></path><path fill="#F7506E" d="M418.8 137.7L400 148l-18.5-11.2 18.8-10.4z"></path><path fill="#0797A5" d="M441.1 197.8l-1.4 50.1-18.9 10.4 1.5-50.2z"></path><path fill="#3DC9D6" d="M422.3 208.1l-1.5 50.2-18.4-11.3 1.4-50.1z"></path><path fill="#15ECFD" d="M441.1 197.8l-18.8 10.3-18.5-11.2 18.8-10.4z"></path><g><path fill="#FFBB21" d="M465 187.5l-2 74.6-18.8 10.4 2-74.6z"></path><path fill="#FFD047" d="M446.2 197.9l-2 74.6-18.5-11.2 2.1-74.6z"></path><path fill="#FFD923" d="M465 187.5l-18.8 10.4-18.4-11.2 18.8-10.4z"></path></g><g><path fill="#BCC8DF" d="M487.4 246.1l-1 30.2-18.8 10.4.9-30.3z"></path><path fill="#DDE5F4" d="M468.5 256.4l-.9 30.3-18.5-11.2 1-30.3z"></path><path fill="#E9EDF5" d="M487.4 246.1l-18.9 10.3-18.4-11.2 18.8-10.4z"></path></g></g><g><defs><path id="a" d="M311.1 276.4l-32.4-19.9c2.3 1.4 5 2.1 8.1 2.1 4.1-.1 8.7-1.5 14-4.4 5.2-2.8 9.9-6.5 14.1-11 4.2-4.5 7.8-9.5 10.7-15.1 2.9-5.6 5.2-11.6 6.8-18l32.4 19.9c-1.6 6.4-3.9 12.4-6.8 18s-6.5 10.6-10.7 15.1c-4.2 4.5-8.9 8.1-14.1 11-5.3 2.9-10 4.4-14 4.4-3 0-5.7-.7-8.1-2.1z"></path></defs><use xlink:href="#a" fill="#D4DDEF"></use><clipPath id="b"><use xlink:href="#a"></use></clipPath><g clip-path="url(#b)"><path fill="#BCC8DF" d="M311.1 276.4l-32.4-19.9c2.3 1.4 5 2.1 8.1 2.1 4.1-.1 8.7-1.5 14-4.4 5.2-2.8 9.9-6.5 14.1-11 4.2-4.5 7.8-9.5 10.7-15.1 2.9-5.6 5.2-11.6 6.8-18l32.4 19.9c-1.6 6.4-3.9 12.4-6.8 18s-6.5 10.6-10.7 15.1c-4.2 4.5-8.9 8.1-14.1 11-5.3 2.9-10 4.4-14 4.4-3 0-5.7-.7-8.1-2.1z"></path></g><g><defs><path id="c" d="M325 159.7l32.4 19.9c.7.4 1.4 1 2 1.5 2.8 2.5 4.8 6.2 6.2 11 1.4 4.9 2 10.8 1.9 17.7-.1 7-1 13.7-2.6 20.1L332.5 210c1.6-6.4 2.5-13.1 2.6-20.1.1-7-.5-12.9-1.9-17.7-1.4-4.8-3.5-8.5-6.2-11-.6-.6-1.3-1.1-2-1.5z"></path></defs><use xlink:href="#c" fill="#D4DDEF"></use><clipPath id="d"><use xlink:href="#c"></use></clipPath><g clip-path="url(#d)"><path fill="#BCC8DF" d="M364.9 229.9L332.5 210c1.6-6.4 2.5-13.1 2.6-20.1.1-7-.5-12.9-1.9-17.7-1.4-4.8-3.5-8.5-6.2-11-.6-.6-1.3-1.1-2-1.5l32.4 19.9c.7.4 1.4 1 2 1.5 2.8 2.5 4.8 6.2 6.2 11 1.4 4.9 2 10.8 1.9 17.7-.1 7-1 13.7-2.6 20.1z"></path></g></g><g><defs><path id="e" d="M288.2 307l-32.4-19.9c-5.2-3.2-9.2-8.3-12.1-15.4-3.1-7.5-4.5-17.3-4.2-29.4.2-12.2 2.2-23.8 5.7-34.9 3.6-11.1 8.3-21.3 14.1-30.8 5.9-9.4 12.6-17.8 20.2-25 7.6-7.3 15.6-13.2 23.9-17.7 8.6-4.7 16.6-7.5 24.2-8.5 7.5-1 14.1.1 19.6 3.3l.6.3 32.4 19.9-.6-.3c-5.5-3.2-12.1-4.3-19.6-3.3-7.5 1-15.6 3.9-24.2 8.5-8.3 4.6-16.3 10.5-23.9 17.7-7.6 7.3-14.3 15.6-20.2 25-5.9 9.4-10.6 19.7-14.1 30.8-3.6 11.1-5.5 22.7-5.7 34.9-.2 12.2 1.2 22 4.2 29.4 2.9 7.1 6.9 12.3 12.1 15.4z"></path></defs><use xlink:href="#e" fill="#D4DDEF"></use><clipPath id="f"><use xlink:href="#e"></use></clipPath><g clip-path="url(#f)"><path fill="#D4DDEF" d="M288.2 307l-32.4-19.9c-5.2-3.2-9.2-8.3-12.1-15.4-3.1-7.5-4.5-17.3-4.2-29.4.2-12.2 2.2-23.8 5.7-34.9 3.6-11.1 8.3-21.3 14.1-30.8 5.9-9.4 12.6-17.8 20.2-25 7.6-7.3 15.6-13.2 23.9-17.7 8.6-4.7 16.6-7.5 24.2-8.5 7.5-1 14.1.1 19.6 3.3l.6.3 32.4 19.9-.6-.3c-5.5-3.2-12.1-4.3-19.6-3.3-7.5 1-15.6 3.9-24.2 8.5-8.3 4.6-16.3 10.5-23.9 17.7-7.6 7.3-14.3 15.6-20.2 25-5.9 9.4-10.6 19.7-14.1 30.8-3.6 11.1-5.5 22.7-5.7 34.9-.2 12.2 1.2 22 4.2 29.4 2.9 7.1 6.9 12.3 12.1 15.4z"></path></g></g><g><path fill="#FEFEFE" d="M392.5 164.4c3.1 7.5 4.5 17.3 4.2 29.4-.2 12.2-2.1 23.8-5.5 34.7-3.4 11-7.9 21.1-13.6 30.4-5.7 9.3-12.4 17.6-20.1 24.9-7.7 7.3-16 13.4-24.8 18.2-8.6 4.7-16.6 7.5-24.2 8.5-7.5 1-14.1 0-19.6-3.2-5.5-3.1-9.9-8.4-12.9-15.9-3.1-7.5-4.5-17.3-4.2-29.4.2-12.2 2.2-23.8 5.7-34.9 3.6-11.1 8.3-21.3 14.1-30.8 5.9-9.4 12.6-17.8 20.2-25 7.6-7.3 15.6-13.2 23.9-17.7 8.6-4.7 16.6-7.5 24.2-8.5 7.5-1 14.1.1 19.6 3.3 5.6 3.3 9.9 8.6 13 16zm-27.6 65.5c1.6-6.4 2.5-13.1 2.6-20.1.1-7-.5-12.9-1.9-17.7-1.4-4.8-3.5-8.5-6.2-11-2.8-2.5-6.2-3.7-10.3-3.6-4.1.1-8.8 1.6-14 4.4-5.3 2.9-10 6.6-14.2 11.1-4.1 4.5-7.7 9.5-10.6 15.1-2.9 5.6-5.2 11.6-6.8 18.1-1.6 6.5-2.5 13.2-2.6 20-.1 7 .5 12.9 1.9 17.6 1.4 4.8 3.5 8.4 6.2 10.9 2.8 2.5 6.2 3.7 10.2 3.6 4.1-.1 8.7-1.5 14-4.4 5.2-2.8 9.9-6.5 14.1-11 4.2-4.5 7.8-9.5 10.7-15.1 3-5.4 5.3-11.4 6.9-17.9z"></path></g><g><path fill="#BCC8DF" d="M207.2 341.3l-32.4-19.8 60.6-33.2 32.4 19.9zM208.4 280.8L176 260.9l50.1-27.4 32.5 19.9z"></path><path fill="#BCC8DF" d="M178.4 383.6L146 363.8l2.9-142.2 32.4 19.8z"></path><path fill="#D4DDEF" d="M181.3 241.4l-32.4-19.8 84.7-46.3 32.4 19.8z"></path><path fill="#FEFEFE" d="M266 195.1l-.5 26.9-56.5 30.9-.6 27.9 50.2-27.4-.6 26.2-50.1 27.5-.7 34.2 60.6-33.1-.5 26.9-88.9 48.5 2.9-142.2z"></path></g><g><path fill="#D4DDEF" d="M74.5 432.5l-32.4-19.8 8.5-29.8L83 402.7z"></path><defs><path id="g" d="M101.7 339.9l32.4 19.9c2.3 1.4 3.4 3.9 3.3 7.5 0 2.2-.4 4.3-1 6.4-.6 2.1-1.8 4.2-3.4 6.4-1.6 2.2-3.7 4.3-6.3 6.5-2.6 2.2-5.9 4.3-9.9 6.5-8 4.4-14.7 7.1-20.1 8.3-5.5 1.2-10 1.6-13.7 1.3l-32.4-19.9c3.7.3 8.3-.2 13.7-1.3 5.4-1.2 12.2-3.9 20.1-8.3 4-2.2 7.3-4.3 9.9-6.5 2.6-2.2 4.7-4.3 6.3-6.5 1.6-2.2 2.7-4.3 3.4-6.4.6-2.1 1-4.3 1-6.4.1-3.6-1-6.1-3.3-7.5z"></path></defs><use xlink:href="#g" fill="#D4DDEF"></use><clipPath id="h"><use xlink:href="#g"></use></clipPath><g clip-path="url(#h)"><path fill="#BCC8DF" d="M83 402.7l-32.4-19.9c3.7.3 8.3-.2 13.7-1.3 5.4-1.2 12.2-3.9 20.1-8.3 4-2.2 7.3-4.3 9.9-6.5 2.6-2.2 4.7-4.3 6.3-6.5 1.6-2.2 2.7-4.3 3.4-6.4.6-2.1 1-4.3 1-6.4.1-3.6-1-6.1-3.3-7.5l32.4 19.9c2.3 1.4 3.4 3.9 3.3 7.5 0 2.2-.4 4.3-1 6.4-.6 2.1-1.8 4.2-3.4 6.4-1.6 2.2-3.7 4.3-6.3 6.5-2.6 2.2-5.9 4.3-9.9 6.5-8 4.4-14.7 7.1-20.1 8.3-5.5 1.2-10 1.6-13.7 1.3z"></path></g><defs><path id="i" d="M125.5 307.1l32.4 19.9c-.1-.1-.2-.1-.3-.2-3.1-1.8-7.1-2.7-11.8-2.8-4.8 0-10.4.4-16.8 1.2l-32.4-19.9c6.5-.8 12.1-1.2 16.8-1.2 4.8 0 8.7.9 11.8 2.8.1.1.2.2.3.2z"></path></defs><use xlink:href="#i" fill="#D4DDEF"></use><clipPath id="j"><use xlink:href="#i"></use></clipPath><g clip-path="url(#j)"><path fill="#D4DDEF" d="M129 325.3l-32.4-19.9c6.5-.8 12.1-1.2 16.8-1.2 4.8 0 8.7.9 11.8 2.8.1.1.2.1.3.2l32.4 19.9c-.1-.1-.2-.1-.3-.2-3.1-1.8-7.1-2.7-11.8-2.8-4.8-.1-10.4.3-16.8 1.2z"></path></g><g><defs><path id="k" d="M110.5 325.1l-32.4-19.9c.9.5 1.9.9 3.1 1.1 2 .3 4.2.4 6.8.1 2.6-.3 5.4-.6 8.5-1.1l32.4 19.9c-3.1.5-6 .9-8.5 1.1-2.6.3-4.8.2-6.8-.1-1.2-.2-2.2-.6-3.1-1.1z"></path></defs><use xlink:href="#k" fill="#D4DDEF"></use><clipPath id="l"><use xlink:href="#k"></use></clipPath><g clip-path="url(#l)"><path fill="#D4DDEF" d="M110.5 325.1l-32.4-19.9c.9.5 1.9.9 3.1 1.1 2 .3 4.2.4 6.8.1 2.6-.3 5.4-.6 8.5-1.1l32.4 19.9c-3.1.5-6 .9-8.5 1.1-2.6.3-4.8.2-6.8-.1-1.2-.2-2.2-.6-3.1-1.1z"></path></g></g><g><defs><path id="m" d="M125.6 268.6l-32.4-19.9c8.4-4.6 15.7-7.6 21.8-8.9 6.1-1.3 11.1-1.8 15.1-1.5l32.4 19.9c-3.9-.3-9 .2-15.1 1.5-6 1.3-13.3 4.3-21.8 8.9z"></path></defs><use xlink:href="#m" fill="#D4DDEF"></use><clipPath id="n"><use xlink:href="#m"></use></clipPath><g clip-path="url(#n)"><path fill="#D4DDEF" d="M125.6 268.6l-32.4-19.9c8.4-4.6 15.7-7.6 21.8-8.9 6.1-1.3 11.1-1.8 15.1-1.5l32.4 19.9c-3.9-.3-9 .2-15.1 1.5-6 1.3-13.3 4.3-21.8 8.9z"></path></g></g><g><defs><path id="o" d="M87.3 358l-32.4-19.9c-2.4-1.5-4.4-3.6-6-6.4-2-3.5-2.9-8.5-2.7-15 .1-6.6 1.3-13.1 3.6-19.5 2.3-6.5 5.4-12.6 9.5-18.5s8.9-11.3 14.7-16.4c5.7-5.1 12.1-9.6 19.2-13.5l32.4 19.9c-7.1 3.9-13.5 8.4-19.2 13.5-5.7 5.1-10.6 10.6-14.7 16.4-4.1 5.9-7.2 12-9.5 18.5s-3.5 13-3.6 19.5c-.1 6.6.8 11.6 2.7 15 1.6 2.8 3.6 4.9 6 6.4z"></path></defs><use xlink:href="#o" fill="#D4DDEF"></use><clipPath id="p"><use xlink:href="#o"></use></clipPath><g clip-path="url(#p)"><path fill="#D4DDEF" d="M87.3 358l-32.4-19.9c-2.4-1.5-4.4-3.6-6-6.4-2-3.5-2.9-8.5-2.7-15 .1-6.6 1.3-13.1 3.6-19.5 2.3-6.5 5.4-12.6 9.5-18.5s8.9-11.3 14.7-16.4c5.7-5.1 12.1-9.6 19.2-13.5l32.4 19.9c-7.1 3.9-13.5 8.4-19.2 13.5-5.7 5.1-10.6 10.6-14.7 16.4-4.1 5.9-7.2 12-9.5 18.5s-3.5 13-3.6 19.5c-.1 6.6.8 11.6 2.7 15 1.6 2.8 3.6 4.9 6 6.4z"></path></g></g><g><path fill="#FEFEFE" d="M125.6 268.6c8.4-4.6 15.7-7.6 21.8-8.9 6.1-1.3 11.1-1.8 15.1-1.5l-8.7 29.7c-3.5-.1-7.3.2-11.6.9-4.3.8-9.4 2.8-15.4 6.1-6.8 3.7-11.6 7.4-14.6 11.1-3 3.7-4.5 7.8-4.6 12.2-.1 2.6.4 4.5 1.5 5.7 1 1.2 2.6 2 4.5 2.3 2 .3 4.2.4 6.8.1 2.6-.3 5.4-.6 8.5-1.1 6.5-.8 12.1-1.2 16.8-1.2 4.8 0 8.7.9 11.8 2.8 3.1 1.8 5.4 4.7 6.9 8.6 1.5 3.9 2.1 9.3 2 16.2-.3 13.3-4.6 25.8-12.9 37.6-8.4 11.8-20.8 22.2-37.3 31.3-5.6 3-10.6 5.4-15 7.1-4.5 1.7-8.4 2.9-11.8 3.7-3.4.8-6.4 1.2-8.8 1.4-2.4.1-4.5.1-6.2-.1l8.5-29.8c3.7.3 8.3-.2 13.7-1.3 5.5-1.2 12.2-3.9 20.1-8.3 4-2.2 7.3-4.3 9.9-6.5 2.6-2.2 4.7-4.3 6.3-6.5 1.6-2.2 2.7-4.3 3.4-6.4.6-2.1 1-4.3 1-6.4.1-4.6-1.8-7.5-5.6-8.4-3.8-1-10.4-.7-19.7.9-4.1.6-8.1 1-12.2 1.1-4.1.1-7.7-.5-10.9-2-3.2-1.4-5.8-3.9-7.7-7.3-2-3.5-2.9-8.5-2.7-15 .1-6.6 1.3-13.1 3.6-19.5 2.3-6.5 5.4-12.6 9.5-18.5s8.9-11.3 14.7-16.4c5.8-5.3 12.2-9.8 19.3-13.7z"></path></g></g></g><g><path fill="#0D949F" d="M268.6 385.9l-.5 18.5-17.3 9.5.5-18.5z"></path><path fill="#FFD923" d="M268.6 385.9c7.8 4.8 12.7 9.8 15.5 16.2l-23.5 3.1c-1.6-3.5-4.7-6.9-9.3-9.7l17.3-9.6z"></path><path fill="#A89017" d="M284.1 402l-.5 18.5-23.5 3.1.5-18.5z"></path><defs><path id="y" d="M260.6 405.1l-.5 18.5c-1.6-3.5-4.7-6.9-9.3-9.7l.5-18.5c4.6 2.9 7.7 6.2 9.3 9.7z"></path></defs><clipPath id="z"><use xlink:href="#y"></use></clipPath><g clip-path="url(#z)"><path fill="#FFD047" d="M260.6 405.1l-.5 18.5c-1.6-3.5-4.7-6.9-9.3-9.7l.5-18.5c4.6 2.9 7.7 6.2 9.3 9.7z"></path></g><defs><path id="A" d="M261.7 410.8l-.5 18.5c0-1.9-.3-3.8-1.2-5.7l.5-18.5c.9 1.9 1.3 3.8 1.2 5.7z"></path></defs><clipPath id="B"><use xlink:href="#A"></use></clipPath><g clip-path="url(#B)"><path fill="#D1284F" d="M261.7 410.8l-.5 18.5c0-1.9-.3-3.8-1.2-5.7l.5-18.5c.9 1.9 1.3 3.8 1.2 5.7z"></path></g><defs><path id="C" d="M187.9 427.4l.5-18.5c.1-5.4 3.8-10.7 11-14.7 14.5-8 37.7-7.4 51.9 1.2l-.5 18.5c-14.2-8.6-37.4-9.2-51.9-1.2-7.2 4-10.8 9.3-11 14.7z"></path></defs><clipPath id="D"><use xlink:href="#C"></use></clipPath><g clip-path="url(#D)"><path fill="#3DC9D6" d="M251.3 395.4l-.5 18.5c-14.2-8.6-37.4-9.2-51.9-1.2-7.2 4-10.9 9.3-11 14.7l.5-18.5c.1-5.4 3.8-10.7 11-14.7 14.5-8 37.7-7.4 51.9 1.2z"></path></g><path fill="#14E5F5" d="M268.6 385.9l-17.4 9.6c-14.2-8.6-37.4-9.2-51.9-1.2-9.7 5.3-13 13.1-9.9 20.3l-23.3 3.1c-8.4-19 11.2-37.9 43.8-42.2 21.8-3 43.1.8 58.7 10.4z"></path><g><defs><path id="E" d="M163.8 426.7l.5-18.5c-.1 3.1.5 6.2 1.9 9.4l-.5 18.5c-1.4-3.2-2-6.3-1.9-9.4z"></path></defs><clipPath id="F"><use xlink:href="#E"></use></clipPath><g clip-path="url(#F)"><path fill="#3DC9D6" d="M166.2 417.5l-.5 18.5c-1.4-3.1-2-6.3-1.9-9.4l.5-18.5c-.1 3.2.5 6.3 1.9 9.4z"></path></g></g><g><path fill="#0E9CA7" d="M189.5 414.5L189 433l-23.3 3 .5-18.5z"></path></g><g><path fill="#E9EDF5" d="M215.3 430.1l-6.5 13.3c-10.8-1.9-20-5.2-27.3-9.7-7.3-4.4-12.5-9.9-15.3-16.3l23.3-3.1c1.5 3.5 4.7 6.9 9.3 9.8 4.8 3 10.4 5 16.5 6z"></path></g><g><defs><path id="G" d="M208.8 443.5l-.5 18.5c-10.8-1.9-20-5.2-27.3-9.7-7.3-4.4-12.5-9.9-15.3-16.3l.5-18.5c2.8 6.3 8 11.8 15.3 16.3 7.3 4.4 16.5 7.7 27.3 9.7z"></path></defs><clipPath id="H"><use xlink:href="#G"></use></clipPath><g clip-path="url(#H)"><path fill="#D4DDEF" d="M208.8 443.5l-.5 18.5c-10.8-1.9-20-5.2-27.3-9.7-7.3-4.4-12.5-9.9-15.3-16.3l.5-18.5c2.8 6.3 8 11.8 15.3 16.3 7.3 4.4 16.5 7.7 27.3 9.7z"></path></g></g><g><defs><path id="I" d="M286 411.4l-.5 18.5c-.4 15.5-18.6 29.2-45.7 32.8-10.8 1.4-20.7 1.2-31.5-.7l.5-18.5c10.8 1.9 20.7 2.2 31.5.7 27.2-3.6 45.3-17.3 45.7-32.8z"></path></defs><clipPath id="J"><use xlink:href="#I"></use></clipPath><g clip-path="url(#J)"><path fill="#D1284F" d="M286 411.4l-.5 18.5c-.4 15.5-18.6 29.2-45.7 32.8-10.8 1.4-20.7 1.2-31.5-.7l.5-18.5c10.8 1.9 20.7 2.2 31.5.7 27.2-3.6 45.3-17.3 45.7-32.8z"></path></g></g><g><path fill="#FF446E" d="M284.1 402c8.4 19-11.2 37.9-43.8 42.2-10.8 1.4-20.7 1.2-31.5-.7l6.5-13.3c12.2 2.2 25.8.6 35.5-4.7s13-13.2 9.8-20.3l23.5-3.2z"></path></g></g></svg>