<svg width="512" height="512" viewBox="0 0 512 512" fill="none" xmlns="http://www.w3.org/2000/svg">
<path d="M94.6002 242.2L37.2002 237.9L37.5002 233.8L92.3002 237.9L142.8 150.5L173.9 191.8L216.6 157L248.5 80.8996L304.7 39.0996L307.1 42.2996L251.8 83.4996L220 159.6L173.2 197.6L143.2 157.9L94.6002 242.2Z" fill="white"/>
<path d="M255.3 80.2009C255.2 83.7009 252.6 87.9009 249.6 89.6009C246.5 91.3009 244.1 89.8009 244.2 86.3009C244.3 82.8009 246.9 78.6009 249.9 76.9009C252.9 75.2009 255.4 76.7009 255.3 80.2009ZM224.2 154.101C224.1 157.601 221.5 161.801 218.5 163.501C215.4 165.201 213 163.701 213.1 160.201C213.2 156.701 215.8 152.501 218.8 150.801C221.9 149.101 224.3 150.601 224.2 154.101ZM174.8 200.701C174.7 204.201 172.1 208.401 169.1 210.101C166 211.801 163.6 210.301 163.7 206.801C163.8 203.301 166.4 199.101 169.4 197.401C172.4 195.701 174.8 197.201 174.8 200.701ZM147.5 152.301C147.4 155.801 144.8 160.001 141.8 161.701C138.7 163.401 136.3 161.901 136.4 158.401C136.5 154.901 139.1 150.701 142.1 149.001C145.2 147.301 147.6 148.801 147.5 152.301ZM102.5 257.701C102.4 261.201 99.7999 265.401 96.7999 267.101C93.6999 268.801 91.2999 267.301 91.3999 263.801C91.4999 260.301 94.0999 256.101 97.0999 254.401C100.1 252.701 102.6 254.201 102.5 257.701ZM42.8999 232.501C42.7999 236.001 40.1999 240.201 37.1999 241.901C34.0999 243.601 31.6999 242.101 31.7999 238.601C31.8999 235.101 34.4999 230.901 37.4999 229.201C40.5999 227.501 42.9999 229.001 42.8999 232.501Z" fill="white"/>
<path d="M40.9002 263.3L37.7002 260.7L91.8002 194.2L134.3 213.7L189 135.5L237.4 131.8L276.2 96.4L276.6 96.2L337.6 71.5L339.2 75.3L278.4 99.9L239.1 135.8L191.3 139.5L135.7 218.9L93.0002 199.3L40.9002 263.3Z" fill="#C252E1"/>
<path d="M195.1 135.4C195 138.9 192.4 143.1 189.4 144.8C186.3 146.5 183.9 145 184 141.5C184.1 138 186.7 133.8 189.7 132.1C192.8 130.4 195.2 131.9 195.1 135.4ZM141.8 211.7C141.7 215.2 139.1 219.4 136.1 221.1C133 222.8 130.6 221.3 130.7 217.8C130.8 214.3 133.4 210.1 136.4 208.4C139.5 206.7 141.9 208.2 141.8 211.7ZM98.4999 193.8C98.3999 197.3 95.7999 201.5 92.7999 203.2C89.6999 204.9 87.2999 203.4 87.3999 199.9C87.4999 196.4 90.0999 192.2 93.0999 190.5C96.0999 188.8 98.4999 190.3 98.4999 193.8ZM45.8999 257.7C45.7999 261.2 43.1999 265.4 40.1999 267.1C37.0999 268.8 34.6999 267.3 34.7999 263.8C34.8999 260.3 37.4999 256.1 40.4999 254.4C43.5999 252.7 45.9999 254.2 45.8999 257.7ZM244.4 129.4C244.3 132.9 241.7 137.1 238.7 138.8C235.6 140.5 233.2 139 233.3 135.5C233.4 132 236 127.8 239 126.1C242 124.4 244.4 125.9 244.4 129.4ZM281.2 96.4001C281.1 99.9001 278.5 104.1 275.5 105.8C272.4 107.5 270 106 270.1 102.5C270.2 99.0001 272.8 94.8001 275.8 93.1001C278.9 91.4001 281.3 92.9001 281.2 96.4001Z" fill="#C252E1"/>
<path d="M418.8 137.701L416.3 233.701L397.5 244.001L400 148.001L418.8 137.701Z" fill="#E60049"/>
<path d="M400 148.001L397.5 244.001L379 232.801L381.5 136.801L400 148.001Z" fill="#FF2A6D"/>
<path d="M418.8 137.7L400 148L381.5 136.8L400.3 126.4L418.8 137.7Z" fill="#FF578C"/>
<path d="M441.1 197.801L439.7 247.901L420.8 258.301L422.3 208.101L441.1 197.801Z" fill="#0797A5"/>
<path d="M422.3 208.1L420.8 258.3L402.4 247L403.8 196.9L422.3 208.1Z" fill="#3DC9D6"/>
<path d="M441.1 197.8L422.3 208.1L403.8 196.9L422.6 186.5L441.1 197.8Z" fill="#15ECFD"/>
<path d="M465 187.5L463 262.1L444.2 272.5L446.2 197.9L465 187.5Z" fill="#FFBB21"/>
<path d="M446.2 197.901L444.2 272.501L425.7 261.301L427.8 186.701L446.2 197.901Z" fill="#FFD047"/>
<path d="M465 187.501L446.2 197.901L427.8 186.701L446.6 176.301L465 187.501Z" fill="#FFD923"/>
<path d="M487.4 246.102L486.4 276.302L467.6 286.702L468.5 256.402L487.4 246.102Z" fill="#BCC8DF"/>
<path d="M468.5 256.401L467.6 286.701L449.1 275.501L450.1 245.201L468.5 256.401Z" fill="#DDE5F4"/>
<path d="M487.4 246.101L468.5 256.401L450.1 245.201L468.9 234.801L487.4 246.101Z" fill="#E9EDF5"/>
<path d="M311.099 276.4L278.699 256.5C280.999 257.9 283.699 258.6 286.799 258.6C290.899 258.5 295.499 257.1 300.799 254.2C305.999 251.4 310.699 247.7 314.899 243.2C319.099 238.7 322.699 233.7 325.599 228.1C328.499 222.5 330.799 216.5 332.399 210.1L364.799 230C363.199 236.4 360.899 242.4 357.999 248C355.099 253.6 351.499 258.6 347.299 263.1C343.099 267.6 338.399 271.2 333.199 274.1C327.899 277 323.199 278.5 319.199 278.5C316.199 278.5 313.499 277.8 311.099 276.4Z" fill="#D4DDEF"/>
<mask id="mask0_110_996" style="mask-type:luminance" maskUnits="userSpaceOnUse" x="278" y="210" width="87" height="69">
<path d="M311.099 276.4L278.699 256.5C280.999 257.9 283.699 258.6 286.799 258.6C290.899 258.5 295.499 257.1 300.799 254.2C305.999 251.4 310.699 247.7 314.899 243.2C319.099 238.7 322.699 233.7 325.599 228.1C328.499 222.5 330.799 216.5 332.399 210.1L364.799 230C363.199 236.4 360.899 242.4 357.999 248C355.099 253.6 351.499 258.6 347.299 263.1C343.099 267.6 338.399 271.2 333.199 274.1C327.899 277 323.199 278.5 319.199 278.5C316.199 278.5 313.499 277.8 311.099 276.4Z" fill="white"/>
</mask>
<g mask="url(#mask0_110_996)">
<path d="M311.099 276.4L278.699 256.5C280.999 257.9 283.699 258.6 286.799 258.6C290.899 258.5 295.499 257.1 300.799 254.2C305.999 251.4 310.699 247.7 314.899 243.2C319.099 238.7 322.699 233.7 325.599 228.1C328.499 222.5 330.799 216.5 332.399 210.1L364.799 230C363.199 236.4 360.899 242.4 357.999 248C355.099 253.6 351.499 258.6 347.299 263.1C343.099 267.6 338.399 271.2 333.199 274.1C327.899 277 323.199 278.5 319.199 278.5C316.199 278.5 313.499 277.8 311.099 276.4Z" fill="#BCC8DF"/>
</g>
<path d="M325 159.699L357.4 179.599C358.1 179.999 358.8 180.599 359.4 181.099C362.2 183.599 364.2 187.299 365.6 192.099C367 196.999 367.6 202.899 367.5 209.799C367.4 216.799 366.5 223.499 364.9 229.899L332.5 209.999C334.1 203.599 335 196.899 335.1 189.899C335.2 182.899 334.6 176.999 333.2 172.199C331.8 167.399 329.7 163.699 327 161.199C326.4 160.599 325.7 160.099 325 159.699V159.699Z" fill="#D4DDEF"/>
<mask id="mask1_110_996" style="mask-type:luminance" maskUnits="userSpaceOnUse" x="325" y="159" width="43" height="71">
<path d="M325 159.699L357.4 179.599C358.1 179.999 358.8 180.599 359.4 181.099C362.2 183.599 364.2 187.299 365.6 192.099C367 196.999 367.6 202.899 367.5 209.799C367.4 216.799 366.5 223.499 364.9 229.899L332.5 209.999C334.1 203.599 335 196.899 335.1 189.899C335.2 182.899 334.6 176.999 333.2 172.199C331.8 167.399 329.7 163.699 327 161.199C326.4 160.599 325.7 160.099 325 159.699V159.699Z" fill="white"/>
</mask>
<g mask="url(#mask1_110_996)">
<path d="M364.9 229.899L332.5 209.999C334.1 203.599 335 196.899 335.1 189.899C335.2 182.899 334.6 176.999 333.2 172.199C331.8 167.399 329.7 163.699 327 161.199C326.4 160.599 325.7 160.099 325 159.699L357.4 179.599C358.1 179.999 358.8 180.599 359.4 181.099C362.2 183.599 364.2 187.299 365.6 192.099C367 196.999 367.6 202.899 367.5 209.799C367.4 216.799 366.5 223.499 364.9 229.899Z" fill="#BCC8DF"/>
</g>
<path d="M288.2 307L255.8 287.1C250.6 283.9 246.6 278.8 243.7 271.7C240.6 264.2 239.2 254.4 239.5 242.3C239.7 230.1 241.7 218.5 245.2 207.4C248.8 196.3 253.5 186.1 259.3 176.6C265.2 167.2 271.9 158.8 279.5 151.6C287.1 144.3 295.1 138.4 303.4 133.9C312 129.2 320 126.4 327.6 125.4C335.1 124.4 341.7 125.5 347.2 128.7L347.8 129L380.2 148.9L379.6 148.6C374.1 145.4 367.5 144.3 360 145.3C352.5 146.3 344.4 149.2 335.8 153.8C327.5 158.4 319.5 164.3 311.9 171.5C304.3 178.8 297.6 187.1 291.7 196.5C285.8 205.9 281.1 216.2 277.6 227.3C274 238.4 272.1 250 271.9 262.2C271.7 274.4 273.1 284.2 276.1 291.6C279 298.7 283 303.9 288.2 307Z" fill="#D4DDEF"/>
<mask id="mask2_110_996" style="mask-type:luminance" maskUnits="userSpaceOnUse" x="239" y="125" width="142" height="182">
<path d="M288.2 307L255.8 287.1C250.6 283.9 246.6 278.8 243.7 271.7C240.6 264.2 239.2 254.4 239.5 242.3C239.7 230.1 241.7 218.5 245.2 207.4C248.8 196.3 253.5 186.1 259.3 176.6C265.2 167.2 271.9 158.8 279.5 151.6C287.1 144.3 295.1 138.4 303.4 133.9C312 129.2 320 126.4 327.6 125.4C335.1 124.4 341.7 125.5 347.2 128.7L347.8 129L380.2 148.9L379.6 148.6C374.1 145.4 367.5 144.3 360 145.3C352.5 146.3 344.4 149.2 335.8 153.8C327.5 158.4 319.5 164.3 311.9 171.5C304.3 178.8 297.6 187.1 291.7 196.5C285.8 205.9 281.1 216.2 277.6 227.3C274 238.4 272.1 250 271.9 262.2C271.7 274.4 273.1 284.2 276.1 291.6C279 298.7 283 303.9 288.2 307Z" fill="white"/>
</mask>
<g mask="url(#mask2_110_996)">
<path d="M288.2 307L255.8 287.1C250.6 283.9 246.6 278.8 243.7 271.7C240.6 264.2 239.2 254.4 239.5 242.3C239.7 230.1 241.7 218.5 245.2 207.4C248.8 196.3 253.5 186.1 259.3 176.6C265.2 167.2 271.9 158.8 279.5 151.6C287.1 144.3 295.1 138.4 303.4 133.9C312 129.2 320 126.4 327.6 125.4C335.1 124.4 341.7 125.5 347.2 128.7L347.8 129L380.2 148.9L379.6 148.6C374.1 145.4 367.5 144.3 360 145.3C352.5 146.3 344.4 149.2 335.8 153.8C327.5 158.4 319.5 164.3 311.9 171.5C304.3 178.8 297.6 187.1 291.7 196.5C285.8 205.9 281.1 216.2 277.6 227.3C274 238.4 272.1 250 271.9 262.2C271.7 274.4 273.1 284.2 276.1 291.6C279 298.7 283 303.9 288.2 307Z" fill="#D4DDEF"/>
</g>
<path d="M392.499 164.399C395.599 171.899 396.999 181.699 396.699 193.799C396.499 205.999 394.599 217.599 391.199 228.499C387.799 239.499 383.299 249.599 377.599 258.899C371.899 268.199 365.199 276.499 357.499 283.799C349.799 291.099 341.499 297.199 332.699 301.999C324.099 306.699 316.099 309.499 308.499 310.499C300.999 311.499 294.399 310.499 288.899 307.299C283.399 304.199 278.999 298.899 275.999 291.399C272.899 283.899 271.499 274.099 271.799 261.999C271.999 249.799 273.999 238.199 277.499 227.099C281.099 215.999 285.799 205.799 291.599 196.299C297.499 186.899 304.199 178.499 311.799 171.299C319.399 163.999 327.399 158.099 335.699 153.599C344.299 148.899 352.299 146.099 359.899 145.099C367.399 144.099 373.999 145.199 379.499 148.399C385.099 151.699 389.399 156.999 392.499 164.399ZM364.899 229.899C366.499 223.499 367.399 216.799 367.499 209.799C367.599 202.799 366.999 196.899 365.599 192.099C364.199 187.299 362.099 183.599 359.399 181.099C356.599 178.599 353.199 177.399 349.099 177.499C344.999 177.599 340.299 179.099 335.099 181.899C329.799 184.799 325.099 188.499 320.899 192.999C316.799 197.499 313.199 202.499 310.299 208.099C307.399 213.699 305.099 219.699 303.499 226.199C301.899 232.699 300.999 239.399 300.899 246.199C300.799 253.199 301.399 259.099 302.799 263.799C304.199 268.599 306.299 272.199 308.999 274.699C311.799 277.199 315.199 278.399 319.199 278.299C323.299 278.199 327.899 276.799 333.199 273.899C338.399 271.099 343.099 267.399 347.299 262.899C351.499 258.399 355.099 253.399 357.999 247.799C360.999 242.399 363.299 236.399 364.899 229.899Z" fill="#FEFEFE"/>
<path d="M207.2 341.3L174.8 321.5L235.4 288.3L267.8 308.2L207.2 341.3ZM208.4 280.8L176 260.9L226.1 233.5L258.6 253.4L208.4 280.8Z" fill="#BCC8DF"/>
<path d="M178.4 383.602L146 363.802L148.9 221.602L181.3 241.402L178.4 383.602Z" fill="#BCC8DF"/>
<path d="M181.3 241.401L148.9 221.601L233.6 175.301L266 195.101L181.3 241.401Z" fill="#D4DDEF"/>
<path d="M266 195.102L265.5 222.002L209 252.902L208.4 280.802L258.6 253.402L258 279.602L207.9 307.102L207.2 341.302L267.8 308.202L267.3 335.102L178.4 383.602L181.3 241.402L266 195.102Z" fill="#FEFEFE"/>
<path d="M74.4996 432.498L42.0996 412.698L50.5996 382.898L82.9996 402.698L74.4996 432.498Z" fill="#D4DDEF"/>
<path d="M101.7 339.898L134.1 359.798C136.4 361.198 137.5 363.698 137.4 367.298C137.4 369.498 137 371.598 136.4 373.698C135.8 375.798 134.6 377.898 133 380.098C131.4 382.298 129.3 384.398 126.7 386.598C124.1 388.798 120.8 390.898 116.8 393.098C108.8 397.498 102.1 400.198 96.6996 401.398C91.1996 402.598 86.6996 402.998 82.9996 402.698L50.5996 382.798C54.2996 383.098 58.8996 382.598 64.2996 381.498C69.6996 380.298 76.4996 377.598 84.3996 373.198C88.3996 370.998 91.6996 368.898 94.2996 366.698C96.8996 364.498 98.9996 362.398 100.6 360.198C102.2 357.998 103.3 355.898 104 353.798C104.6 351.698 105 349.498 105 347.398C105.1 343.798 104 341.298 101.7 339.898V339.898Z" fill="#D4DDEF"/>
<mask id="mask3_110_996" style="mask-type:luminance" maskUnits="userSpaceOnUse" x="50" y="339" width="88" height="64">
<path d="M101.7 339.898L134.1 359.798C136.4 361.198 137.5 363.698 137.4 367.298C137.4 369.498 137 371.598 136.4 373.698C135.8 375.798 134.6 377.898 133 380.098C131.4 382.298 129.3 384.398 126.7 386.598C124.1 388.798 120.8 390.898 116.8 393.098C108.8 397.498 102.1 400.198 96.6996 401.398C91.1996 402.598 86.6996 402.998 82.9996 402.698L50.5996 382.798C54.2996 383.098 58.8996 382.598 64.2996 381.498C69.6996 380.298 76.4996 377.598 84.3996 373.198C88.3996 370.998 91.6996 368.898 94.2996 366.698C96.8996 364.498 98.9996 362.398 100.6 360.198C102.2 357.998 103.3 355.898 104 353.798C104.6 351.698 105 349.498 105 347.398C105.1 343.798 104 341.298 101.7 339.898V339.898Z" fill="white"/>
</mask>
<g mask="url(#mask3_110_996)">
<path d="M82.9996 402.698L50.5996 382.798C54.2996 383.098 58.8996 382.598 64.2996 381.498C69.6996 380.298 76.4996 377.598 84.3996 373.198C88.3996 370.998 91.6996 368.898 94.2996 366.698C96.8996 364.498 98.9996 362.398 100.6 360.198C102.2 357.998 103.3 355.898 104 353.798C104.6 351.698 105 349.498 105 347.398C105.1 343.798 104 341.298 101.7 339.898L134.1 359.798C136.4 361.198 137.5 363.698 137.4 367.298C137.4 369.498 137 371.598 136.4 373.698C135.8 375.798 134.6 377.898 133 380.098C131.4 382.298 129.3 384.398 126.7 386.598C124.1 388.798 120.8 390.898 116.8 393.098C108.8 397.498 102.1 400.198 96.6996 401.398C91.1996 402.598 86.6996 402.998 82.9996 402.698Z" fill="#BCC8DF"/>
</g>
<path d="M125.5 307.1L157.9 327C157.8 326.9 157.7 326.9 157.6 326.8C154.5 325 150.5 324.1 145.8 324C141 324 135.4 324.4 129 325.2L96.5996 305.3C103.1 304.5 108.7 304.1 113.4 304.1C118.2 304.1 122.1 305 125.2 306.9C125.3 307 125.4 307.1 125.5 307.1V307.1Z" fill="#D4DDEF"/>
<mask id="mask4_110_996" style="mask-type:luminance" maskUnits="userSpaceOnUse" x="96" y="304" width="62" height="23">
<path d="M125.5 307.1L157.9 327C157.8 326.9 157.7 326.9 157.6 326.8C154.5 325 150.5 324.1 145.8 324C141 324 135.4 324.4 129 325.2L96.5996 305.3C103.1 304.5 108.7 304.1 113.4 304.1C118.2 304.1 122.1 305 125.2 306.9C125.3 307 125.4 307.1 125.5 307.1V307.1Z" fill="white"/>
</mask>
<g mask="url(#mask4_110_996)">
<path d="M129 325.299L96.5996 305.399C103.1 304.599 108.7 304.199 113.4 304.199C118.2 304.199 122.1 305.099 125.2 306.999C125.3 307.099 125.4 307.099 125.5 307.199L157.9 327.099C157.8 326.999 157.7 326.999 157.6 326.899C154.5 325.099 150.5 324.199 145.8 324.099C141 323.999 135.4 324.399 129 325.299Z" fill="#D4DDEF"/>
</g>
<path d="M110.5 325.099L78.0996 305.199C78.9996 305.699 79.9996 306.099 81.1996 306.299C83.1996 306.599 85.3996 306.699 87.9996 306.399C90.5996 306.099 93.3996 305.799 96.4996 305.299L128.9 325.199C125.8 325.699 122.9 326.099 120.4 326.299C117.8 326.599 115.6 326.499 113.6 326.199C112.4 325.999 111.4 325.599 110.5 325.099V325.099Z" fill="#D4DDEF"/>
<mask id="mask5_110_996" style="mask-type:luminance" maskUnits="userSpaceOnUse" x="78" y="305" width="51" height="22">
<path d="M110.5 325.099L78.0996 305.199C78.9996 305.699 79.9996 306.099 81.1996 306.299C83.1996 306.599 85.3996 306.699 87.9996 306.399C90.5996 306.099 93.3996 305.799 96.4996 305.299L128.9 325.199C125.8 325.699 122.9 326.099 120.4 326.299C117.8 326.599 115.6 326.499 113.6 326.199C112.4 325.999 111.4 325.599 110.5 325.099V325.099Z" fill="white"/>
</mask>
<g mask="url(#mask5_110_996)">
<path d="M110.5 325.099L78.0996 305.199C78.9996 305.699 79.9996 306.099 81.1996 306.299C83.1996 306.599 85.3996 306.699 87.9996 306.399C90.5996 306.099 93.3996 305.799 96.4996 305.299L128.9 325.199C125.8 325.699 122.9 326.099 120.4 326.299C117.8 326.599 115.6 326.499 113.6 326.199C112.4 325.999 111.4 325.599 110.5 325.099Z" fill="#D4DDEF"/>
</g>
<path d="M125.599 268.599L93.1992 248.699C101.599 244.099 108.899 241.099 114.999 239.799C121.099 238.499 126.099 237.999 130.099 238.299L162.499 258.199C158.599 257.899 153.499 258.399 147.399 259.699C141.399 260.999 134.099 263.999 125.599 268.599V268.599Z" fill="#D4DDEF"/>
<mask id="mask6_110_996" style="mask-type:luminance" maskUnits="userSpaceOnUse" x="93" y="238" width="70" height="31">
<path d="M125.599 268.599L93.1992 248.699C101.599 244.099 108.899 241.099 114.999 239.799C121.099 238.499 126.099 237.999 130.099 238.299L162.499 258.199C158.599 257.899 153.499 258.399 147.399 259.699C141.399 260.999 134.099 263.999 125.599 268.599V268.599Z" fill="white"/>
</mask>
<g mask="url(#mask6_110_996)">
<path d="M125.599 268.599L93.1992 248.699C101.599 244.099 108.899 241.099 114.999 239.799C121.099 238.499 126.099 237.999 130.099 238.299L162.499 258.199C158.599 257.899 153.499 258.399 147.399 259.699C141.399 260.999 134.099 263.999 125.599 268.599Z" fill="#D4DDEF"/>
</g>
<path d="M87.2991 357.999L54.8991 338.099C52.4991 336.599 50.4991 334.499 48.8991 331.699C46.8991 328.199 45.9991 323.199 46.1991 316.699C46.2991 310.099 47.4991 303.599 49.7991 297.199C52.0991 290.699 55.1991 284.599 59.2991 278.699C63.3991 272.799 68.1991 267.399 73.9991 262.299C79.6991 257.199 86.0991 252.699 93.1991 248.799L125.599 268.699C118.499 272.599 112.099 277.099 106.399 282.199C100.699 287.299 95.7991 292.799 91.6991 298.599C87.5991 304.499 84.4991 310.599 82.1991 317.099C79.8991 323.599 78.6991 330.099 78.5991 336.599C78.4991 343.199 79.3991 348.199 81.2991 351.599C82.8991 354.399 84.8991 356.499 87.2991 357.999Z" fill="#D4DDEF"/>
<mask id="mask7_110_996" style="mask-type:luminance" maskUnits="userSpaceOnUse" x="46" y="248" width="80" height="110">
<path d="M87.2991 357.999L54.8991 338.099C52.4991 336.599 50.4991 334.499 48.8991 331.699C46.8991 328.199 45.9991 323.199 46.1991 316.699C46.2991 310.099 47.4991 303.599 49.7991 297.199C52.0991 290.699 55.1991 284.599 59.2991 278.699C63.3991 272.799 68.1991 267.399 73.9991 262.299C79.6991 257.199 86.0991 252.699 93.1991 248.799L125.599 268.699C118.499 272.599 112.099 277.099 106.399 282.199C100.699 287.299 95.7991 292.799 91.6991 298.599C87.5991 304.499 84.4991 310.599 82.1991 317.099C79.8991 323.599 78.6991 330.099 78.5991 336.599C78.4991 343.199 79.3991 348.199 81.2991 351.599C82.8991 354.399 84.8991 356.499 87.2991 357.999Z" fill="white"/>
</mask>
<g mask="url(#mask7_110_996)">
<path d="M87.2991 357.999L54.8991 338.099C52.4991 336.599 50.4991 334.499 48.8991 331.699C46.8991 328.199 45.9991 323.199 46.1991 316.699C46.2991 310.099 47.4991 303.599 49.7991 297.199C52.0991 290.699 55.1991 284.599 59.2991 278.699C63.3991 272.799 68.1991 267.399 73.9991 262.299C79.6991 257.199 86.0991 252.699 93.1991 248.799L125.599 268.699C118.499 272.599 112.099 277.099 106.399 282.199C100.699 287.299 95.7991 292.799 91.6991 298.599C87.5991 304.499 84.4991 310.599 82.1991 317.099C79.8991 323.599 78.6991 330.099 78.5991 336.599C78.4991 343.199 79.3991 348.199 81.2991 351.599C82.8991 354.399 84.8991 356.499 87.2991 357.999Z" fill="#D4DDEF"/>
</g>
<path d="M125.599 268.6C133.999 264 141.299 261 147.399 259.7C153.499 258.4 158.499 257.9 162.499 258.2L153.799 287.9C150.299 287.8 146.499 288.1 142.199 288.8C137.899 289.6 132.799 291.6 126.799 294.9C119.999 298.6 115.199 302.3 112.199 306C109.199 309.7 107.699 313.8 107.599 318.2C107.499 320.8 107.999 322.7 109.099 323.9C110.099 325.1 111.699 325.9 113.599 326.2C115.599 326.5 117.799 326.6 120.399 326.3C122.999 326 125.799 325.7 128.899 325.2C135.399 324.4 140.999 324 145.699 324C150.499 324 154.399 324.9 157.499 326.8C160.599 328.6 162.899 331.5 164.399 335.4C165.899 339.3 166.499 344.7 166.399 351.6C166.099 364.9 161.799 377.4 153.499 389.2C145.099 401 132.699 411.4 116.199 420.5C110.599 423.5 105.599 425.9 101.199 427.6C96.6994 429.3 92.7994 430.5 89.3994 431.3C85.9994 432.1 82.9994 432.5 80.5994 432.7C78.1994 432.8 76.0994 432.8 74.3994 432.6L82.8994 402.8C86.5994 403.1 91.1994 402.6 96.5994 401.5C102.099 400.3 108.799 397.6 116.699 393.2C120.699 391 123.999 388.9 126.599 386.7C129.199 384.5 131.299 382.4 132.899 380.2C134.499 378 135.599 375.9 136.299 373.8C136.899 371.7 137.299 369.5 137.299 367.4C137.399 362.8 135.499 359.9 131.699 359C127.899 358 121.299 358.3 111.999 359.9C107.899 360.5 103.899 360.9 99.7994 361C95.6994 361.1 92.0994 360.5 88.8994 359C85.6994 357.6 83.0994 355.1 81.1994 351.7C79.1994 348.2 78.2994 343.2 78.4994 336.7C78.5994 330.1 79.7994 323.6 82.0994 317.2C84.3994 310.7 87.4994 304.6 91.5994 298.7C95.6994 292.8 100.499 287.4 106.299 282.3C112.099 277 118.499 272.5 125.599 268.6Z" fill="#FEFEFE"/>
<path d="M268.6 385.9L268.1 404.4L250.8 413.9L251.3 395.4L268.6 385.9Z" fill="#0D949F"/>
<path d="M268.6 385.9C276.4 390.7 281.3 395.7 284.1 402.1L260.6 405.2C259 401.7 255.9 398.3 251.3 395.5L268.6 385.9Z" fill="#FFD923"/>
<path d="M284.1 402L283.6 420.5L260.1 423.6L260.6 405.1L284.1 402Z" fill="#A89017"/>
<mask id="mask8_110_996" style="mask-type:luminance" maskUnits="userSpaceOnUse" x="250" y="395" width="11" height="29">
<path d="M260.6 405.1L260.1 423.6C258.5 420.1 255.4 416.7 250.8 413.9L251.3 395.4C255.9 398.3 259 401.6 260.6 405.1Z" fill="white"/>
</mask>
<g mask="url(#mask8_110_996)">
<path d="M260.6 405.1L260.1 423.6C258.5 420.1 255.4 416.7 250.8 413.9L251.3 395.4C255.9 398.3 259 401.6 260.6 405.1Z" fill="#FFD047"/>
</g>
<mask id="mask9_110_996" style="mask-type:luminance" maskUnits="userSpaceOnUse" x="260" y="405" width="2" height="25">
<path d="M261.7 410.8L261.2 429.3C261.2 427.4 260.9 425.5 260 423.6L260.5 405.1C261.4 407 261.8 408.9 261.7 410.8Z" fill="white"/>
</mask>
<g mask="url(#mask9_110_996)">
<path d="M261.7 410.8L261.2 429.3C261.2 427.4 260.9 425.5 260 423.6L260.5 405.1C261.4 407 261.8 408.9 261.7 410.8Z" fill="#D1284F"/>
</g>
<mask id="mask10_110_996" style="mask-type:luminance" maskUnits="userSpaceOnUse" x="187" y="388" width="65" height="40">
<path d="M187.899 427.4L188.399 408.9C188.499 403.5 192.199 398.2 199.399 394.2C213.899 386.2 237.099 386.8 251.299 395.4L250.799 413.9C236.599 405.3 213.399 404.7 198.899 412.7C191.699 416.7 188.099 422 187.899 427.4Z" fill="white"/>
</mask>
<g mask="url(#mask10_110_996)">
<path d="M251.299 395.4L250.799 413.9C236.599 405.3 213.399 404.7 198.899 412.7C191.699 416.7 187.999 422 187.899 427.4L188.399 408.9C188.499 403.5 192.199 398.2 199.399 394.2C213.899 386.2 237.099 386.8 251.299 395.4Z" fill="#3DC9D6"/>
</g>
<path d="M268.6 385.9L251.2 395.5C237 386.9 213.8 386.3 199.3 394.3C189.6 399.6 186.3 407.4 189.4 414.6L166.1 417.7C157.7 398.7 177.3 379.8 209.9 375.5C231.7 372.5 253 376.3 268.6 385.9Z" fill="#14E5F5"/>
<mask id="mask11_110_996" style="mask-type:luminance" maskUnits="userSpaceOnUse" x="163" y="408" width="4" height="29">
<path d="M163.8 426.699L164.3 408.199C164.2 411.299 164.8 414.399 166.2 417.599L165.7 436.099C164.3 432.899 163.7 429.799 163.8 426.699Z" fill="white"/>
</mask>
<g mask="url(#mask11_110_996)">
<path d="M166.2 417.5L165.7 436C164.3 432.9 163.7 429.7 163.8 426.6L164.3 408.1C164.2 411.3 164.8 414.4 166.2 417.5Z" fill="#3DC9D6"/>
</g>
<path d="M189.5 414.5L189 433L165.7 436L166.2 417.5L189.5 414.5Z" fill="#0E9CA7"/>
<path d="M215.3 430.099L208.8 443.399C198 441.499 188.8 438.199 181.5 433.699C174.2 429.299 169 423.799 166.2 417.399L189.5 414.299C191 417.799 194.2 421.199 198.8 424.099C203.6 427.099 209.2 429.099 215.3 430.099Z" fill="#E9EDF5"/>
<mask id="mask12_110_996" style="mask-type:luminance" maskUnits="userSpaceOnUse" x="165" y="417" width="44" height="45">
<path d="M208.8 443.5L208.3 462C197.5 460.1 188.3 456.8 181 452.3C173.7 447.9 168.5 442.4 165.7 436L166.2 417.5C169 423.8 174.2 429.3 181.5 433.8C188.8 438.2 198 441.5 208.8 443.5Z" fill="white"/>
</mask>
<g mask="url(#mask12_110_996)">
<path d="M208.8 443.5L208.3 462C197.5 460.1 188.3 456.8 181 452.3C173.7 447.9 168.5 442.4 165.7 436L166.2 417.5C169 423.8 174.2 429.3 181.5 433.8C188.8 438.2 198 441.5 208.8 443.5Z" fill="#D4DDEF"/>
</g>
<mask id="mask13_110_996" style="mask-type:luminance" maskUnits="userSpaceOnUse" x="208" y="411" width="78" height="53">
<path d="M286 411.4L285.5 429.9C285.1 445.4 266.9 459.1 239.8 462.7C229 464.1 219.1 463.9 208.3 462L208.8 443.5C219.6 445.4 229.5 445.7 240.3 444.2C267.5 440.6 285.6 426.9 286 411.4Z" fill="white"/>
</mask>
<g mask="url(#mask13_110_996)">
<path d="M286 411.4L285.5 429.9C285.1 445.4 266.9 459.1 239.8 462.7C229 464.1 219.1 463.9 208.3 462L208.8 443.5C219.6 445.4 229.5 445.7 240.3 444.2C267.5 440.6 285.6 426.9 286 411.4Z" fill="#E60049"/>
</g>
<path d="M284.1 402C292.5 421 272.9 439.9 240.3 444.2C229.5 445.6 219.6 445.4 208.8 443.5L215.3 430.2C227.5 432.4 241.1 430.8 250.8 425.5C260.5 420.2 263.8 412.3 260.6 405.2L284.1 402Z" fill="#FF2A6D"/>
</svg>
