<svg xmlns="http://www.w3.org/2000/svg" xmlns:xlink="http://www.w3.org/1999/xlink" viewBox="0 0 512 512"><path fill="#FFB600" d="M431.4 353.4v.4c0 .5 0 1-.1 1.6-.2 2.2-.8 4.5-1.9 6.6-2.3 4.8-6.7 9.3-13.1 13.1-20.2 12.1-53.2 12.7-73.7 1.2-6.1-3.4-10.5-7.6-13-12-1.2-2.2-2-4.4-2.3-6.7-.1-.6-.2-1.2-.2-1.8v-.4l-.1-2.6v-1.3l-.1-3-.1-6.7c.2 7.7 5.3 15.2 15.5 20.9 20.5 11.4 53.5 10.9 73.7-1.2 10.2-6.1 15.2-14 15-21.7l.1 6.6.1 3.1v1.2l.2 2.7z"></path><path fill="#FFDD23" d="M341.9 320c-20.2 12.1-20 31.3.5 42.7 20.5 11.4 53.5 10.9 73.7-1.2 20.2-12.1 20-31.3-.5-42.7-20.5-11.4-53.5-10.9-73.7 1.2z"></path><path fill="#FF9800" d="M422.6 342.4c-.8 5.7-5 11.3-12.4 15.8-17 10.2-44.7 10.7-61.9 1-7.5-4.2-11.8-9.6-12.8-15.2-1.3-7.3 2.8-14.9 12.4-20.6 17-10.2 44.7-10.7 61.9-1 9.6 5.3 13.9 12.7 12.8 20z"></path><path fill="#FFC300" d="M422.6 342.4c-.8 5.7-5 11.3-12.4 15.8-17 10.2-44.7 10.7-61.9 1-7.5-4.2-11.8-9.6-12.8-15.2.8-5.7 5-11.3 12.4-15.8 17-10.2 44.7-10.7 61.9-1 7.5 4.1 11.8 9.5 12.8 15.2z"></path><path fill="#FF9800" d="M406.4 327.7l.1 3.5-5.8 3.5v-3.5l5.7-3.5zm.8 9.3l.1 3.6-8.5 3v-3.5l8.4-3.1z"></path><path fill="#FF9800" d="M381.5 338v-3.5c0-.2 0-.4.1-.6.2-.4.6-.8 1.2-1.1 1-.6 2.1-.8 3.5-.7 1.4.1 3 .6 4.8 1.6s3.4 2.1 4.7 3.2c1.3 1.1 2.3 2.2 3 3.2l.1 3.5c-.7-1-1.7-2.1-3-3.2s-2.8-2.2-4.7-3.2c-1.8-1-3.4-1.6-4.8-1.6-1.4-.1-2.6.2-3.5.7-.6.4-1 .7-1.2 1.1-.2.2-.2.4-.2.6z"></path><defs><path id="a" d="M381.5 338v-3.5c0-.2 0-.4.1-.6.2-.4.6-.8 1.2-1.1 1-.6 2.1-.8 3.5-.7 1.4.1 3 .6 4.8 1.6s3.4 2.1 4.7 3.2c1.3 1.1 2.3 2.2 3 3.2l.1 3.5c-.7-1-1.7-2.1-3-3.2s-2.8-2.2-4.7-3.2c-1.8-1-3.4-1.6-4.8-1.6-1.4-.1-2.6.2-3.5.7-.6.4-1 .7-1.2 1.1-.2.2-.2.4-.2.6z"></path></defs><clipPath id="b"><use xlink:href="#a"></use></clipPath><g clip-path="url(#b)"><path fill="#FF9800" d="M398.8 340.1l.1 3.5c-.7-1-1.7-2.1-3-3.2s-2.8-2.2-4.7-3.2c-1.8-1-3.4-1.6-4.8-1.6-1.4-.1-2.6.2-3.5.7-.6.4-1 .7-1.2 1.1-.1.2-.1.4-.1.6v-3.5c0-.2 0-.4.1-.6.2-.4.6-.8 1.2-1.1 1-.6 2.1-.8 3.5-.7 1.4.1 3 .6 4.8 1.6s3.4 2.1 4.7 3.2c1.1 1.1 2.1 2.2 2.9 3.2z"></path></g><path fill="#FF9800" d="M376.7 346v3.5c0-.3-.1-.7-.2-1-.2-.6-.7-1.3-1.3-2.1-.6-.8-1.3-1.7-2.2-2.7-.8-1-1.5-1.9-2.2-2.9s-1.1-2-1.3-3c0-.2-.1-.5-.1-.7l-.1-3.5c0 .2 0 .5.1.7.2 1 .6 2 1.3 3 .7 1 1.4 2 2.2 2.9.8 1 1.6 1.9 2.2 2.7.6.8 1 1.5 1.3 2.1.2.3.3.6.3 1z"></path><defs><path id="c" d="M376.7 346v3.5c0-.3-.1-.7-.2-1-.2-.6-.7-1.3-1.3-2.1-.6-.8-1.3-1.7-2.2-2.7-.8-1-1.5-1.9-2.2-2.9s-1.1-2-1.3-3c0-.2-.1-.5-.1-.7l-.1-3.5c0 .2 0 .5.1.7.2 1 .6 2 1.3 3 .7 1 1.4 2 2.2 2.9.8 1 1.6 1.9 2.2 2.7.6.8 1 1.5 1.3 2.1.2.3.3.6.3 1z"></path></defs><clipPath id="d"><use xlink:href="#c"></use></clipPath><g clip-path="url(#d)"><path fill="#FF9800" d="M376.7 346v3.5c0-.3-.1-.7-.2-1-.2-.6-.7-1.3-1.3-2.1-.6-.8-1.3-1.7-2.2-2.7-.8-1-1.5-1.9-2.2-2.9s-1.1-2-1.3-3c0-.2-.1-.5-.1-.7l-.1-3.5c0 .2 0 .5.1.7.2 1 .6 2 1.3 3 .7 1 1.4 2 2.2 2.9.8 1 1.6 1.9 2.2 2.7.6.8 1 1.5 1.3 2.1.2.3.3.6.3 1z"></path></g><path fill="#FF9800" d="M356.7 349.4v3.5c-2.6-1.7-4.4-3.2-5.5-4.5s-1.9-2.3-2.3-3.1v-3.5c.4.7 1.2 1.7 2.3 3.1 1.1 1.3 2.9 2.8 5.5 4.5z"></path><defs><path id="e" d="M356.7 349.4v3.5c-2.6-1.7-4.4-3.2-5.5-4.5s-1.9-2.3-2.3-3.1v-3.5c.4.7 1.2 1.7 2.3 3.1 1.1 1.3 2.9 2.8 5.5 4.5z"></path></defs><clipPath id="f"><use xlink:href="#e"></use></clipPath><g clip-path="url(#f)"><path fill="#FF9800" d="M356.7 349.4v3.5c-2.6-1.7-4.4-3.2-5.5-4.5s-1.9-2.3-2.3-3.1v-3.5c.4.7 1.2 1.7 2.3 3.1 1.1 1.3 2.9 2.8 5.5 4.5z"></path></g><path fill="#FF9800" d="M388.4 346.9v3.5c0 .9-.2 1.9-.8 2.8-.6 1.1-1.8 2.1-3.4 3.1-1.1.7-2.4 1.2-3.8 1.7s-3 .8-4.7.9-3.6 0-5.5-.3-4-.9-6.1-1.7l-.1-3.5c2.2.9 4.2 1.4 6.1 1.7 1.9.3 3.8.4 5.5.3s3.3-.4 4.7-.9c1.4-.5 2.7-1 3.8-1.7 1.6-1 2.8-2 3.4-3.1.7-1 .9-1.9.9-2.8z"></path><defs><path id="g" d="M388.4 346.9v3.5c0 .9-.2 1.9-.8 2.8-.6 1.1-1.8 2.1-3.4 3.1-1.1.7-2.4 1.2-3.8 1.7s-3 .8-4.7.9-3.6 0-5.5-.3-4-.9-6.1-1.7l-.1-3.5c2.2.9 4.2 1.4 6.1 1.7 1.9.3 3.8.4 5.5.3s3.3-.4 4.7-.9c1.4-.5 2.7-1 3.8-1.7 1.6-1 2.8-2 3.4-3.1.7-1 .9-1.9.9-2.8z"></path></defs><clipPath id="h"><use xlink:href="#g"></use></clipPath><g clip-path="url(#h)"><path fill="#FF9800" d="M388.4 346.9v3.5c0 .9-.2 1.9-.8 2.8-.6 1.1-1.8 2.1-3.4 3.1-1.1.7-2.4 1.2-3.8 1.7s-3 .8-4.7.9-3.6 0-5.5-.3-4-.9-6.1-1.7l-.1-3.5c2.2.9 4.2 1.4 6.1 1.7 1.9.3 3.8.4 5.5.3s3.3-.4 4.7-.9c1.4-.5 2.7-1 3.8-1.7 1.6-1 2.8-2 3.4-3.1.7-1 .9-1.9.9-2.8z"></path></g><g><path fill="#FF9800" d="M364 353.3l.1 3.5-6.8 4.1-.1-3.5 6.8-4.1z"></path></g><g><path fill="#FFDD23" d="M406.4 327.7l-5.8 3.5c1.8 1.2 3.2 2.3 4.3 3.3 1.1 1 1.8 1.9 2.3 2.6l-8.4 3c-.7-1-1.7-2.1-3-3.2s-2.8-2.2-4.7-3.2c-1.8-1-3.4-1.6-4.8-1.6-1.4-.1-2.6.2-3.5.7-.6.4-1 .7-1.2 1.1s-.2.8 0 1.3.5 1.1 1 1.7 1.1 1.4 1.8 2.2c1.1 1.3 2 2.5 2.7 3.8.7 1.2 1.2 2.4 1.3 3.5.1 1.1-.1 2.2-.7 3.3-.6 1.1-1.8 2.1-3.4 3.1-1.1.7-2.4 1.2-3.8 1.7s-3 .8-4.7.9-3.6 0-5.5-.3-4-.9-6.1-1.7l-6.8 4.1-7.2-4 6.6-4c-2.6-1.7-4.4-3.2-5.5-4.5s-1.9-2.3-2.3-3.1l8.8-2.5c.7 1.1 1.7 2.3 3 3.7 1.3 1.3 3 2.6 5.1 3.7 2.3 1.3 4.2 2 5.7 2.1s2.8-.2 3.9-.9c.7-.4 1.1-.9 1.3-1.4.2-.5.1-1-.1-1.6s-.7-1.3-1.3-2.1c-.6-.8-1.3-1.7-2.2-2.7-.8-1-1.5-1.9-2.2-2.9s-1.1-2-1.3-3c-.2-1 0-2 .5-3s1.6-2 3.2-3c1.2-.7 2.6-1.3 4.1-1.8s3.1-.8 4.8-.9c1.7-.1 3.5-.1 5.3.2 1.9.3 3.8.8 5.8 1.5l6-3.6 7 4z"></path></g><g><path fill="#FF9800" d="M357.2 357.4l.1 3.5-7.2-4-.1-3.5 7.2 4z"></path></g><path fill="#FFDD23" d="M431.3 350.7c-1.5 6.4-6.6 12.4-14.6 17.2-20.5 12.3-54 12.9-74.8 1.3-7.9-4.4-13-10.1-14.9-16.3l.1 2.6v.4c2.4 5.3 7.3 10.2 14.3 14.1 10.5 5.9 24.3 8.7 38 8.4 13.7-.2 27.4-3.5 37.8-9.7 7-4.2 11.9-9.4 14.1-14.9v-3.1zm-89.9 15c10.5 5.9 24.3 8.7 38 8.4 13.7-.2 27.4-3.5 37.8-9.7 7-4.2 11.8-9.4 14.1-14.9l-.1-3.1c-1.6 6.4-6.6 12.3-14.6 17.1-20.5 12.3-54 12.9-74.8 1.3-7.9-4.4-13.1-10.1-14.9-16.3l.1 3c2.5 5.4 7.4 10.3 14.4 14.2zm75.4 6.5c-20.5 12.3-54 12.9-74.8 1.3-7.7-4.3-12.7-9.8-14.7-15.7.3 2.3 1.1 4.5 2.3 6.7 2.7 3.7 6.7 7.1 11.8 9.9 10.5 5.9 24.3 8.7 38 8.4 13.7-.2 27.4-3.5 37.8-9.7 5.4-3.2 9.4-7 12.1-11 1.1-2.2 1.7-4.4 1.9-6.6-1.6 6.2-6.5 12-14.4 16.7z"></path><g><path fill="#FFB600" d="M423.4 337.1v.4c0 .5 0 1-.1 1.6-.2 2.2-.8 4.5-1.9 6.6-2.3 4.8-6.7 9.3-13.1 13.1-20.2 12.1-53.2 12.7-73.7 1.2-6.1-3.4-10.5-7.6-13-12-1.2-2.2-2-4.4-2.3-6.7-.1-.6-.2-1.2-.2-1.8v-.4l-.1-2.6v-1.3l-.1-3-.1-6.7c.2 7.7 5.3 15.2 15.5 20.9 20.5 11.4 53.5 10.9 73.7-1.2 10.2-6.1 15.2-14 15-21.7l.1 6.6.1 3.1v1.2l.2 2.7z"></path><path fill="#FFDD23" d="M333.9 303.8c-20.2 12.1-20 31.3.5 42.7 20.5 11.4 53.5 10.9 73.7-1.2 20.2-12.1 20-31.3-.5-42.7-20.4-11.5-53.4-11-73.7 1.2z"></path><path fill="#FF9800" d="M414.6 326.1c-.8 5.7-5 11.3-12.4 15.8-17 10.2-44.7 10.7-61.9 1-7.5-4.2-11.8-9.6-12.8-15.2-1.3-7.3 2.8-14.9 12.4-20.6 17-10.2 44.7-10.7 61.9-1 9.6 5.3 13.9 12.7 12.8 20z"></path><path fill="#FFC300" d="M414.6 326.1c-.8 5.7-5 11.3-12.4 15.8-17 10.2-44.7 10.7-61.9 1-7.5-4.2-11.8-9.6-12.8-15.2.8-5.7 5-11.3 12.4-15.8 17-10.2 44.7-10.7 61.9-1 7.6 4.1 11.8 9.6 12.8 15.2z"></path><path fill="#FF9800" d="M398.5 311.4v3.5l-5.7 3.5-.1-3.5 5.8-3.5zm.8 9.4v3.5l-8.4 3-.1-3.5 8.5-3zM373.5 321.7v-3.5c0-.2 0-.4.1-.6.2-.4.6-.8 1.2-1.1 1-.6 2.1-.8 3.5-.7 1.4.1 3 .6 4.8 1.6s3.4 2.1 4.7 3.2c1.3 1.1 2.3 2.2 3 3.2v3.5c-.7-1-1.7-2.1-3-3.2s-2.8-2.2-4.7-3.2c-1.8-1-3.4-1.6-4.8-1.6-1.4-.1-2.6.2-3.5.7-.6.4-1 .7-1.2 1.1 0 .2-.1.4-.1.6z"></path><defs><path id="i" d="M373.5 321.7v-3.5c0-.2 0-.4.1-.6.2-.4.6-.8 1.2-1.1 1-.6 2.1-.8 3.5-.7 1.4.1 3 .6 4.8 1.6s3.4 2.1 4.7 3.2c1.3 1.1 2.3 2.2 3 3.2v3.5c-.7-1-1.7-2.1-3-3.2s-2.8-2.2-4.7-3.2c-1.8-1-3.4-1.6-4.8-1.6-1.4-.1-2.6.2-3.5.7-.6.4-1 .7-1.2 1.1 0 .2-.1.4-.1.6z"></path></defs><clipPath id="j"><use xlink:href="#i"></use></clipPath><g clip-path="url(#j)"><path fill="#FF9800" d="M390.8 323.8v3.5c-.7-1-1.7-2.1-3-3.2s-2.8-2.2-4.7-3.2c-1.8-1-3.4-1.6-4.8-1.6-1.4-.1-2.6.2-3.5.7-.6.4-1 .7-1.2 1.1-.1.2-.1.4-.1.6v-3.5c0-.2 0-.4.1-.6.2-.4.6-.8 1.2-1.1 1-.6 2.1-.8 3.5-.7 1.4.1 3 .6 4.8 1.6s3.4 2.1 4.7 3.2c1.3 1.1 2.3 2.2 3 3.2z"></path></g><path fill="#FF9800" d="M368.8 329.7l.1 3.5c0-.3-.1-.7-.2-1-.2-.6-.7-1.3-1.3-2.1-.6-.8-1.3-1.7-2.2-2.7-.8-1-1.5-1.9-2.2-2.9s-1.1-2-1.3-3c0-.2-.1-.5-.1-.7v-3.5c0 .2 0 .5.1.7.2 1 .6 2 1.3 3 .7 1 1.4 2 2.2 2.9.8 1 1.6 1.9 2.2 2.7.6.8 1 1.5 1.3 2.1 0 .3.1.7.1 1z"></path><defs><path id="k" d="M368.8 329.7l.1 3.5c0-.3-.1-.7-.2-1-.2-.6-.7-1.3-1.3-2.1-.6-.8-1.3-1.7-2.2-2.7-.8-1-1.5-1.9-2.2-2.9s-1.1-2-1.3-3c0-.2-.1-.5-.1-.7v-3.5c0 .2 0 .5.1.7.2 1 .6 2 1.3 3 .7 1 1.4 2 2.2 2.9.8 1 1.6 1.9 2.2 2.7.6.8 1 1.5 1.3 2.1 0 .3.1.7.1 1z"></path></defs><clipPath id="l"><use xlink:href="#k"></use></clipPath><g clip-path="url(#l)"><path fill="#FF9800" d="M368.8 329.7l.1 3.5c0-.3-.1-.7-.2-1-.2-.6-.7-1.3-1.3-2.1-.6-.8-1.3-1.7-2.2-2.7-.8-1-1.5-1.9-2.2-2.9s-1.1-2-1.3-3c0-.2-.1-.5-.1-.7v-3.5c0 .2 0 .5.1.7.2 1 .6 2 1.3 3 .7 1 1.4 2 2.2 2.9.8 1 1.6 1.9 2.2 2.7.6.8 1 1.5 1.3 2.1 0 .3.1.7.1 1z"></path></g><path fill="#FF9800" d="M348.7 333.1l.1 3.5c-2.6-1.7-4.4-3.2-5.5-4.5s-1.9-2.3-2.3-3.1v-3.5c.4.7 1.2 1.7 2.3 3.1 1 1.3 2.9 2.8 5.4 4.5z"></path><defs><path id="m" d="M348.7 333.1l.1 3.5c-2.6-1.7-4.4-3.2-5.5-4.5s-1.9-2.3-2.3-3.1v-3.5c.4.7 1.2 1.7 2.3 3.1 1 1.3 2.9 2.8 5.4 4.5z"></path></defs><clipPath id="n"><use xlink:href="#m"></use></clipPath><g clip-path="url(#n)"><path fill="#FF9800" d="M348.7 333.1l.1 3.5c-2.6-1.7-4.4-3.2-5.5-4.5s-1.9-2.3-2.3-3.1v-3.5c.4.7 1.2 1.7 2.3 3.1 1 1.3 2.9 2.8 5.4 4.5z"></path></g><g><path fill="#FF9800" d="M380.5 330.6l.1 3.5c0 .9-.2 1.9-.8 2.8-.6 1.1-1.8 2.1-3.4 3.1-1.1.7-2.4 1.2-3.8 1.7s-3 .8-4.7.9-3.6 0-5.5-.3-4-.9-6.1-1.7v-3.5c2.2.9 4.2 1.4 6.1 1.7 1.9.3 3.8.4 5.5.3s3.3-.4 4.7-.9c1.4-.5 2.7-1 3.8-1.7 1.6-1 2.8-2 3.4-3.1.4-.9.7-1.9.7-2.8z"></path><defs><path id="o" d="M380.5 330.6l.1 3.5c0 .9-.2 1.9-.8 2.8-.6 1.1-1.8 2.1-3.4 3.1-1.1.7-2.4 1.2-3.8 1.7s-3 .8-4.7.9-3.6 0-5.5-.3-4-.9-6.1-1.7v-3.5c2.2.9 4.2 1.4 6.1 1.7 1.9.3 3.8.4 5.5.3s3.3-.4 4.7-.9c1.4-.5 2.7-1 3.8-1.7 1.6-1 2.8-2 3.4-3.1.4-.9.7-1.9.7-2.8z"></path></defs><clipPath id="p"><use xlink:href="#o"></use></clipPath><g clip-path="url(#p)"><path fill="#FF9800" d="M380.5 330.6l.1 3.5c0 .9-.2 1.9-.8 2.8-.6 1.1-1.8 2.1-3.4 3.1-1.1.7-2.4 1.2-3.8 1.7s-3 .8-4.7.9-3.6 0-5.5-.3-4-.9-6.1-1.7v-3.5c2.2.9 4.2 1.4 6.1 1.7 1.9.3 3.8.4 5.5.3s3.3-.4 4.7-.9c1.4-.5 2.7-1 3.8-1.7 1.6-1 2.8-2 3.4-3.1.4-.9.7-1.9.7-2.8z"></path></g></g><g><path fill="#FF9800" d="M356.1 337v3.5l-6.8 4.1v-3.5l6.8-4.1z"></path></g><g><path fill="#FFDD23" d="M398.5 311.4l-5.8 3.5c1.8 1.2 3.2 2.3 4.3 3.3 1.1 1 1.8 1.9 2.3 2.6l-8.4 3c-.7-1-1.7-2.1-3-3.2s-2.8-2.2-4.7-3.2c-1.8-1-3.4-1.6-4.8-1.6-1.4-.1-2.6.2-3.5.7-.6.4-1 .7-1.2 1.1s-.2.8 0 1.3.5 1.1 1 1.7 1.1 1.4 1.8 2.2c1.1 1.3 2 2.5 2.7 3.8.7 1.2 1.2 2.4 1.3 3.5.1 1.1-.1 2.2-.7 3.3-.6 1.1-1.8 2.1-3.4 3.1-1.1.7-2.4 1.2-3.8 1.7s-3 .8-4.7.9-3.6 0-5.5-.3-4-.9-6.1-1.7l-6.8 4.1-7.2-4 6.6-4c-2.6-1.7-4.4-3.2-5.5-4.5s-1.9-2.3-2.3-3.1l8.8-2.5c.7 1.1 1.7 2.3 3 3.7 1.3 1.3 3 2.6 5.1 3.7 2.3 1.3 4.2 2 5.7 2.1s2.8-.2 3.9-.9c.7-.4 1.1-.9 1.3-1.4.2-.5.1-1-.1-1.6s-.7-1.3-1.3-2.1c-.6-.8-1.3-1.7-2.2-2.7-.8-1-1.5-1.9-2.2-2.9s-1.1-2-1.3-3c-.2-1 0-2 .5-3s1.6-2 3.2-3c1.2-.7 2.6-1.3 4.1-1.8s3.1-.8 4.8-.9c1.7-.1 3.5-.1 5.3.2 1.9.3 3.8.8 5.8 1.5l6-3.6 7 4z"></path></g><g><path fill="#FF9800" d="M349.3 341.1v3.5l-7.1-4-.1-3.5 7.2 4z"></path></g><path fill="#FFDD23" d="M423.4 334.4c-1.5 6.4-6.6 12.4-14.6 17.2-20.5 12.3-54 12.9-74.8 1.3-7.9-4.4-13-10.1-14.9-16.3l.1 2.6v.4c2.4 5.3 7.3 10.2 14.3 14.1 10.5 5.9 24.3 8.7 38 8.4 13.7-.2 27.4-3.5 37.8-9.7 7-4.2 11.9-9.4 14.1-14.9v-3.1zm-90 15c10.5 5.9 24.3 8.7 38 8.4 13.7-.2 27.4-3.5 37.8-9.7 7-4.2 11.8-9.4 14.1-14.9l-.1-3.1c-1.6 6.4-6.6 12.3-14.6 17.1-20.5 12.3-54 12.9-74.8 1.3-7.9-4.4-13.1-10.1-14.9-16.3l.1 3c2.5 5.4 7.4 10.3 14.4 14.2zm75.5 6.5c-20.5 12.3-54 12.9-74.8 1.3-7.7-4.3-12.7-9.8-14.7-15.7.3 2.3 1.1 4.5 2.3 6.7 2.7 3.7 6.7 7.1 11.8 9.9 10.5 5.9 24.3 8.7 38 8.4 13.7-.2 27.4-3.5 37.8-9.7 5.4-3.2 9.4-7 12.1-11 1.1-2.2 1.7-4.4 1.9-6.6-1.6 6.2-6.6 12-14.4 16.7z"></path></g><g><path fill="#FFB600" d="M440.9 319.1v.4c0 .5 0 1-.1 1.6-.2 2.2-.8 4.5-1.9 6.6-2.3 4.8-6.7 9.3-13.1 13.1-20.2 12.1-53.2 12.7-73.7 1.2-6.1-3.4-10.5-7.6-13-12-1.2-2.2-2-4.4-2.3-6.7-.1-.6-.2-1.2-.2-1.8v-.4l-.1-2.6v-1.3l-.1-3-.1-6.7c.2 7.7 5.3 15.2 15.5 20.9 20.5 11.4 53.5 10.9 73.7-1.2 10.2-6.1 15.2-14 15-21.7l.1 6.6.1 3.1v1.2l.2 2.7z"></path><path fill="#FFDD23" d="M351.4 285.7c-20.2 12.1-20 31.3.5 42.7 20.5 11.4 53.5 10.9 73.7-1.2 20.2-12.1 20-31.3-.5-42.7-20.5-11.5-53.5-10.9-73.7 1.2z"></path><path fill="#FF9800" d="M432.1 308.1c-.8 5.7-5 11.3-12.4 15.8-17 10.2-44.7 10.7-61.9 1-7.5-4.2-11.8-9.6-12.8-15.2-1.3-7.3 2.8-14.9 12.4-20.6 17-10.2 44.7-10.7 61.9-1 9.5 5.3 13.8 12.7 12.8 20z"></path><path fill="#FFC300" d="M432.1 308.1c-.8 5.7-5 11.3-12.4 15.8-17 10.2-44.7 10.7-61.9 1-7.5-4.2-11.8-9.6-12.8-15.2.8-5.7 5-11.3 12.4-15.8 17-10.2 44.7-10.7 61.9-1 7.5 4.1 11.8 9.5 12.8 15.2z"></path><path fill="#FF9800" d="M415.9 293.4l.1 3.5-5.8 3.5-.1-3.6 5.8-3.4zm.8 9.3v3.6l-8.4 3v-3.5l8.4-3.1zM391 303.7l-.1-3.5c0-.2 0-.4.1-.6.2-.4.6-.8 1.2-1.1 1-.6 2.1-.8 3.5-.7 1.4.1 3 .6 4.8 1.6s3.4 2.1 4.7 3.2c1.3 1.1 2.3 2.2 3 3.2v3.5c-.7-1-1.7-2.1-3-3.2s-2.8-2.2-4.7-3.2c-1.8-1-3.4-1.6-4.8-1.6-1.4-.1-2.6.2-3.5.7-.6.4-1 .7-1.2 1.1v.6z"></path><defs><path id="q" d="M391 303.7l-.1-3.5c0-.2 0-.4.1-.6.2-.4.6-.8 1.2-1.1 1-.6 2.1-.8 3.5-.7 1.4.1 3 .6 4.8 1.6s3.4 2.1 4.7 3.2c1.3 1.1 2.3 2.2 3 3.2v3.5c-.7-1-1.7-2.1-3-3.2s-2.8-2.2-4.7-3.2c-1.8-1-3.4-1.6-4.8-1.6-1.4-.1-2.6.2-3.5.7-.6.4-1 .7-1.2 1.1v.6z"></path></defs><clipPath id="r"><use xlink:href="#q"></use></clipPath><g clip-path="url(#r)"><path fill="#FF9800" d="M408.3 305.8v3.5c-.7-1-1.7-2.1-3-3.2s-2.8-2.2-4.7-3.2c-1.8-1-3.4-1.6-4.8-1.6-1.4-.1-2.6.2-3.5.7-.6.4-1 .7-1.2 1.1-.1.2-.1.4-.1.6l-.1-3.5c0-.2 0-.4.1-.6.2-.4.6-.8 1.2-1.1 1-.6 2.1-.8 3.5-.7 1.4.1 3 .6 4.8 1.6s3.4 2.1 4.7 3.2c1.3 1.1 2.3 2.2 3.1 3.2z"></path></g><path fill="#FF9800" d="M386.2 311.6v3.5c0-.3-.1-.7-.2-1-.2-.6-.7-1.3-1.3-2.1-.6-.8-1.3-1.7-2.2-2.7-.8-1-1.5-1.9-2.2-2.9s-1.1-2-1.3-3c0-.2-.1-.5-.1-.7v-3.5c0 .2 0 .5.1.7.2 1 .6 2 1.3 3 .7 1 1.4 2 2.2 2.9.8 1 1.6 1.9 2.2 2.7.6.8 1 1.5 1.3 2.1.1.4.2.7.2 1z"></path><defs><path id="s" d="M386.2 311.6v3.5c0-.3-.1-.7-.2-1-.2-.6-.7-1.3-1.3-2.1-.6-.8-1.3-1.7-2.2-2.7-.8-1-1.5-1.9-2.2-2.9s-1.1-2-1.3-3c0-.2-.1-.5-.1-.7v-3.5c0 .2 0 .5.1.7.2 1 .6 2 1.3 3 .7 1 1.4 2 2.2 2.9.8 1 1.6 1.9 2.2 2.7.6.8 1 1.5 1.3 2.1.1.4.2.7.2 1z"></path></defs><clipPath id="t"><use xlink:href="#s"></use></clipPath><g clip-path="url(#t)"><path fill="#FF9800" d="M386.2 311.6v3.5c0-.3-.1-.7-.2-1-.2-.6-.7-1.3-1.3-2.1-.6-.8-1.3-1.7-2.2-2.7-.8-1-1.5-1.9-2.2-2.9s-1.1-2-1.3-3c0-.2-.1-.5-.1-.7v-3.5c0 .2 0 .5.1.7.2 1 .6 2 1.3 3 .7 1 1.4 2 2.2 2.9.8 1 1.6 1.9 2.2 2.7.6.8 1 1.5 1.3 2.1.1.4.2.7.2 1z"></path></g><path fill="#FF9800" d="M366.1 315.1v3.5c-2.6-1.7-4.4-3.2-5.5-4.5s-1.9-2.3-2.3-3.1v-3.5c.4.7 1.2 1.7 2.3 3.1 1.2 1.3 3 2.8 5.5 4.5z"></path><defs><path id="u" d="M366.1 315.1v3.5c-2.6-1.7-4.4-3.2-5.5-4.5s-1.9-2.3-2.3-3.1v-3.5c.4.7 1.2 1.7 2.3 3.1 1.2 1.3 3 2.8 5.5 4.5z"></path></defs><clipPath id="v"><use xlink:href="#u"></use></clipPath><g clip-path="url(#v)"><path fill="#FF9800" d="M366.1 315.1v3.5c-2.6-1.7-4.4-3.2-5.5-4.5s-1.9-2.3-2.3-3.1v-3.5c.4.7 1.2 1.7 2.3 3.1 1.2 1.3 3 2.8 5.5 4.5z"></path></g><g><path fill="#FF9800" d="M397.9 312.6v3.5c0 .9-.2 1.9-.8 2.8-.6 1.1-1.8 2.1-3.4 3.1-1.1.7-2.4 1.2-3.8 1.7s-3 .8-4.7.9-3.6 0-5.5-.3-4-.9-6.1-1.7v-3.5c2.2.9 4.2 1.4 6.1 1.7 1.9.3 3.8.4 5.5.3s3.3-.4 4.7-.9c1.4-.5 2.7-1 3.8-1.7 1.6-1 2.8-2 3.4-3.1.5-1 .8-1.9.8-2.8z"></path><defs><path id="w" d="M397.9 312.6v3.5c0 .9-.2 1.9-.8 2.8-.6 1.1-1.8 2.1-3.4 3.1-1.1.7-2.4 1.2-3.8 1.7s-3 .8-4.7.9-3.6 0-5.5-.3-4-.9-6.1-1.7v-3.5c2.2.9 4.2 1.4 6.1 1.7 1.9.3 3.8.4 5.5.3s3.3-.4 4.7-.9c1.4-.5 2.7-1 3.8-1.7 1.6-1 2.8-2 3.4-3.1.5-1 .8-1.9.8-2.8z"></path></defs><clipPath id="x"><use xlink:href="#w"></use></clipPath><g clip-path="url(#x)"><path fill="#FF9800" d="M397.9 312.6v3.5c0 .9-.2 1.9-.8 2.8-.6 1.1-1.8 2.1-3.4 3.1-1.1.7-2.4 1.2-3.8 1.7s-3 .8-4.7.9-3.6 0-5.5-.3-4-.9-6.1-1.7v-3.5c2.2.9 4.2 1.4 6.1 1.7 1.9.3 3.8.4 5.5.3s3.3-.4 4.7-.9c1.4-.5 2.7-1 3.8-1.7 1.6-1 2.8-2 3.4-3.1.5-1 .8-1.9.8-2.8z"></path></g></g><g><path fill="#FF9800" d="M373.5 319l.1 3.5-6.8 4.1-.1-3.5 6.8-4.1z"></path></g><g><path fill="#FFDD23" d="M415.9 293.4l-5.8 3.5c1.8 1.2 3.2 2.3 4.3 3.3 1.1 1 1.8 1.9 2.3 2.6l-8.4 3c-.7-1-1.7-2.1-3-3.2s-2.8-2.2-4.7-3.2c-1.8-1-3.4-1.6-4.8-1.6-1.4-.1-2.6.2-3.5.7-.6.4-1 .7-1.2 1.1s-.2.8 0 1.3.5 1.1 1 1.7 1.1 1.4 1.8 2.2c1.1 1.3 2 2.5 2.7 3.8.7 1.2 1.2 2.4 1.3 3.5.1 1.1-.1 2.2-.7 3.3-.6 1.1-1.8 2.1-3.4 3.1-1.1.7-2.4 1.2-3.8 1.7s-3 .8-4.7.9-3.6 0-5.5-.3-4-.9-6.1-1.7l-6.8 4.1-7.2-4 6.6-4c-2.6-1.7-4.4-3.2-5.5-4.5s-1.9-2.3-2.3-3.1l8.8-2.5c.7 1.1 1.7 2.3 3 3.7 1.3 1.3 3 2.6 5.1 3.7 2.3 1.3 4.2 2 5.7 2.1s2.8-.2 3.9-.9c.7-.4 1.1-.9 1.3-1.4.2-.5.1-1-.1-1.6s-.7-1.3-1.3-2.1c-.6-.8-1.3-1.7-2.2-2.7-.8-1-1.5-1.9-2.2-2.9s-1.1-2-1.3-3c-.2-1 0-2 .5-3s1.6-2 3.2-3c1.2-.7 2.6-1.3 4.1-1.8s3.1-.8 4.8-.9c1.7-.1 3.5-.1 5.3.2 1.9.3 3.8.8 5.8 1.5l6-3.6 7 4z"></path></g><g><path fill="#FF9800" d="M366.7 323.1l.1 3.5-7.2-4-.1-3.5 7.2 4z"></path></g><path fill="#FFDD23" d="M440.8 316.4c-1.5 6.4-6.6 12.4-14.6 17.2-20.5 12.3-54 12.9-74.8 1.3-7.9-4.4-13.1-10.1-14.9-16.3l.1 2.6v.4c2.4 5.3 7.3 10.2 14.3 14.1 10.5 5.9 24.3 8.7 38 8.4 13.7-.2 27.4-3.5 37.8-9.7 7-4.2 11.9-9.4 14.1-14.9v-3.1zm-90 15c10.5 5.9 24.3 8.7 38 8.4 13.7-.2 27.4-3.5 37.8-9.7 7-4.2 11.8-9.4 14.1-14.9l-.1-3.1c-1.6 6.4-6.6 12.3-14.6 17.1-20.5 12.3-54 12.9-74.8 1.3-7.9-4.4-13.1-10.1-14.9-16.3l.1 3c2.6 5.4 7.4 10.3 14.4 14.2zm75.5 6.5c-20.5 12.3-54 12.9-74.8 1.3-7.7-4.3-12.7-9.8-14.7-15.7.3 2.3 1.1 4.5 2.3 6.7 2.7 3.7 6.7 7.1 11.8 9.9 10.5 5.9 24.3 8.7 38 8.4 13.7-.2 27.4-3.5 37.8-9.7 5.4-3.2 9.4-7 12.1-11 1.1-2.2 1.7-4.4 1.9-6.6-1.6 6.2-6.6 12-14.4 16.7z"></path></g><g><path fill="#FFB600" d="M438.2 302v.4c0 .5 0 1-.1 1.6-.2 2.2-.8 4.5-1.9 6.6-2.3 4.8-6.7 9.3-13.1 13.1-20.2 12.1-53.2 12.7-73.7 1.2-6.1-3.4-10.5-7.6-13-12-1.2-2.2-2-4.4-2.3-6.7-.1-.6-.2-1.2-.2-1.8v-.4l-.1-2.6v-1.3l-.1-3-.1-6.7c.2 7.7 5.3 15.2 15.5 20.9 20.5 11.4 53.5 10.9 73.7-1.2 10.2-6.1 15.2-14 15-21.7l.1 6.6.1 3.1v1.2l.2 2.7z"></path><path fill="#FFDD23" d="M348.7 268.7c-20.2 12.1-20 31.3.5 42.7 20.5 11.4 53.5 10.9 73.7-1.2s20-31.3-.5-42.7c-20.5-11.5-53.5-11-73.7 1.2z"></path><path fill="#FF9800" d="M429.4 291c-.8 5.7-5 11.3-12.4 15.8-17 10.2-44.7 10.7-61.9 1-7.5-4.2-11.8-9.6-12.8-15.2-1.3-7.3 2.8-14.9 12.4-20.6 17-10.2 44.7-10.7 61.9-1 9.6 5.3 13.9 12.7 12.8 20z"></path><path fill="#FFC300" d="M429.4 291c-.8 5.7-5 11.3-12.4 15.8-17 10.2-44.7 10.7-61.9 1-7.5-4.2-11.8-9.6-12.8-15.2.8-5.7 5-11.3 12.4-15.8 17-10.2 44.7-10.7 61.9-1 7.6 4.1 11.8 9.5 12.8 15.2z"></path><path fill="#FF9800" d="M413.3 276.3v3.5l-5.8 3.5v-3.5l5.8-3.5zm.7 9.4l.1 3.5-8.4 3-.1-3.5 8.4-3zM388.3 286.6v-3.5c0-.2 0-.4.1-.6.2-.4.6-.8 1.2-1.1 1-.6 2.1-.8 3.5-.7 1.4.1 3 .6 4.8 1.6s3.4 2.1 4.7 3.2c1.3 1.1 2.3 2.2 3 3.2v3.5c-.7-1-1.7-2.1-3-3.2s-2.8-2.2-4.7-3.2c-1.8-1-3.4-1.6-4.8-1.6-1.4-.1-2.6.2-3.5.7-.6.4-1 .7-1.2 1.1 0 .2-.1.4-.1.6z"></path><defs><path id="y" d="M388.3 286.6v-3.5c0-.2 0-.4.1-.6.2-.4.6-.8 1.2-1.1 1-.6 2.1-.8 3.5-.7 1.4.1 3 .6 4.8 1.6s3.4 2.1 4.7 3.2c1.3 1.1 2.3 2.2 3 3.2v3.5c-.7-1-1.7-2.1-3-3.2s-2.8-2.2-4.7-3.2c-1.8-1-3.4-1.6-4.8-1.6-1.4-.1-2.6.2-3.5.7-.6.4-1 .7-1.2 1.1 0 .2-.1.4-.1.6z"></path></defs><clipPath id="z"><use xlink:href="#y"></use></clipPath><g clip-path="url(#z)"><path fill="#FF9800" d="M405.6 288.7l.1 3.5c-.7-1-1.7-2.1-3-3.2s-2.8-2.2-4.7-3.2c-1.8-1-3.4-1.6-4.8-1.6-1.4-.1-2.6.2-3.5.7-.6.4-1 .7-1.2 1.1-.1.2-.1.4-.1.6v-3.5c0-.2 0-.4.1-.6.2-.4.6-.8 1.2-1.1 1-.6 2.1-.8 3.5-.7 1.4.1 3 .6 4.8 1.6s3.4 2.1 4.7 3.2c1.2 1.1 2.2 2.2 2.9 3.2z"></path></g><path fill="#FF9800" d="M383.6 294.6v3.5c0-.3-.1-.7-.2-1-.2-.6-.7-1.3-1.3-2.1-.6-.8-1.3-1.7-2.2-2.7-.8-1-1.5-1.9-2.2-2.9s-1.1-2-1.3-3c0-.2-.1-.5-.1-.7l-.1-3.5c0 .2 0 .5.1.7.2 1 .6 2 1.3 3 .7 1 1.4 2 2.2 2.9.8 1 1.6 1.9 2.2 2.7.6.8 1 1.5 1.3 2.1.2.3.3.6.3 1z"></path><defs><path id="A" d="M383.6 294.6v3.5c0-.3-.1-.7-.2-1-.2-.6-.7-1.3-1.3-2.1-.6-.8-1.3-1.7-2.2-2.7-.8-1-1.5-1.9-2.2-2.9s-1.1-2-1.3-3c0-.2-.1-.5-.1-.7l-.1-3.5c0 .2 0 .5.1.7.2 1 .6 2 1.3 3 .7 1 1.4 2 2.2 2.9.8 1 1.6 1.9 2.2 2.7.6.8 1 1.5 1.3 2.1.2.3.3.6.3 1z"></path></defs><clipPath id="B"><use xlink:href="#A"></use></clipPath><g clip-path="url(#B)"><path fill="#FF9800" d="M383.6 294.6v3.5c0-.3-.1-.7-.2-1-.2-.6-.7-1.3-1.3-2.1-.6-.8-1.3-1.7-2.2-2.7-.8-1-1.5-1.9-2.2-2.9s-1.1-2-1.3-3c0-.2-.1-.5-.1-.7l-.1-3.5c0 .2 0 .5.1.7.2 1 .6 2 1.3 3 .7 1 1.4 2 2.2 2.9.8 1 1.6 1.9 2.2 2.7.6.8 1 1.5 1.3 2.1.2.3.3.6.3 1z"></path></g><path fill="#FF9800" d="M363.5 298v3.5c-2.6-1.7-4.4-3.2-5.5-4.5s-1.9-2.3-2.3-3.1v-3.5c.4.7 1.2 1.7 2.3 3.1 1.1 1.3 2.9 2.8 5.5 4.5z"></path><defs><path id="C" d="M363.5 298v3.5c-2.6-1.7-4.4-3.2-5.5-4.5s-1.9-2.3-2.3-3.1v-3.5c.4.7 1.2 1.7 2.3 3.1 1.1 1.3 2.9 2.8 5.5 4.5z"></path></defs><clipPath id="D"><use xlink:href="#C"></use></clipPath><g clip-path="url(#D)"><path fill="#FF9800" d="M363.5 298v3.5c-2.6-1.7-4.4-3.2-5.5-4.5s-1.9-2.3-2.3-3.1v-3.5c.4.7 1.2 1.7 2.3 3.1 1.1 1.3 2.9 2.8 5.5 4.5z"></path></g><g><path fill="#FF9800" d="M395.2 295.5v3.5c0 .9-.2 1.9-.8 2.8-.6 1.1-1.8 2.1-3.4 3.1-1.1.7-2.4 1.2-3.8 1.7s-3 .8-4.7.9-3.6 0-5.5-.3-4-.9-6.1-1.7l-.1-3.5c2.2.9 4.2 1.4 6.1 1.7 1.9.3 3.8.4 5.5.3s3.3-.4 4.7-.9c1.4-.5 2.7-1 3.8-1.7 1.6-1 2.8-2 3.4-3.1.7-.9.9-1.9.9-2.8z"></path><defs><path id="E" d="M395.2 295.5v3.5c0 .9-.2 1.9-.8 2.8-.6 1.1-1.8 2.1-3.4 3.1-1.1.7-2.4 1.2-3.8 1.7s-3 .8-4.7.9-3.6 0-5.5-.3-4-.9-6.1-1.7l-.1-3.5c2.2.9 4.2 1.4 6.1 1.7 1.9.3 3.8.4 5.5.3s3.3-.4 4.7-.9c1.4-.5 2.7-1 3.8-1.7 1.6-1 2.8-2 3.4-3.1.7-.9.9-1.9.9-2.8z"></path></defs><clipPath id="F"><use xlink:href="#E"></use></clipPath><g clip-path="url(#F)"><path fill="#FF9800" d="M395.2 295.5v3.5c0 .9-.2 1.9-.8 2.8-.6 1.1-1.8 2.1-3.4 3.1-1.1.7-2.4 1.2-3.8 1.7s-3 .8-4.7.9-3.6 0-5.5-.3-4-.9-6.1-1.7l-.1-3.5c2.2.9 4.2 1.4 6.1 1.7 1.9.3 3.8.4 5.5.3s3.3-.4 4.7-.9c1.4-.5 2.7-1 3.8-1.7 1.6-1 2.8-2 3.4-3.1.7-.9.9-1.9.9-2.8z"></path></g></g><g><path fill="#FF9800" d="M370.9 301.9v3.5l-6.8 4.1V306l6.8-4.1z"></path></g><g><path fill="#FFDD23" d="M413.3 276.3l-5.8 3.5c1.8 1.2 3.2 2.3 4.3 3.3 1.1 1 1.8 1.9 2.3 2.6l-8.4 3c-.7-1-1.7-2.1-3-3.2s-2.8-2.2-4.7-3.2c-1.8-1-3.4-1.6-4.8-1.6-1.4-.1-2.6.2-3.5.7-.6.4-1 .7-1.2 1.1s-.2.8 0 1.3.5 1.1 1 1.7 1.1 1.4 1.8 2.2c1.1 1.3 2 2.5 2.7 3.8.7 1.2 1.2 2.4 1.3 3.5.1 1.1-.1 2.2-.7 3.3-.6 1.1-1.8 2.1-3.4 3.1-1.1.7-2.4 1.2-3.8 1.7s-3 .8-4.7.9-3.6 0-5.5-.3-4-.9-6.1-1.7l-6.8 4.1-7.2-4 6.6-4c-2.6-1.7-4.4-3.2-5.5-4.5s-1.9-2.3-2.3-3.1l8.8-2.5c.7 1.1 1.7 2.3 3 3.7 1.3 1.3 3 2.6 5.1 3.7 2.3 1.3 4.2 2 5.7 2.1s2.8-.2 3.9-.9c.7-.4 1.1-.9 1.3-1.4.2-.5.1-1-.1-1.6s-.7-1.3-1.3-2.1c-.6-.8-1.3-1.7-2.2-2.7-.8-1-1.5-1.9-2.2-2.9s-1.1-2-1.3-3c-.2-1 0-2 .5-3s1.6-2 3.2-3c1.2-.7 2.6-1.3 4.1-1.8s3.1-.8 4.8-.9c1.7-.1 3.5-.1 5.3.2 1.9.3 3.8.8 5.8 1.5l6-3.6 7 4z"></path></g><g><path fill="#FF9800" d="M364.1 306v3.5l-7.2-4V302l7.2 4z"></path></g><path fill="#FFDD23" d="M438.1 299.3c-1.5 6.4-6.6 12.4-14.6 17.2-20.5 12.3-54 12.9-74.8 1.3-7.9-4.4-13-10.1-14.9-16.3l.1 2.6v.4c2.4 5.3 7.3 10.2 14.3 14.1 10.5 5.9 24.3 8.7 38 8.4 13.7-.2 27.4-3.5 37.8-9.7 7-4.2 11.9-9.4 14.1-14.9v-3.1zm-89.9 15c10.5 5.9 24.3 8.7 38 8.4 13.7-.2 27.4-3.5 37.8-9.7 7-4.2 11.8-9.4 14.1-14.9l-.1-3.1c-1.6 6.4-6.6 12.3-14.6 17.1-20.5 12.3-54 12.9-74.8 1.3-7.9-4.4-13.1-10.1-14.9-16.3l.1 3c2.5 5.4 7.4 10.3 14.4 14.2zm75.4 6.5c-20.5 12.3-54 12.9-74.8 1.3-7.7-4.3-12.7-9.8-14.7-15.7.3 2.3 1.1 4.5 2.3 6.7 2.7 3.7 6.7 7.1 11.8 9.9 10.5 5.9 24.3 8.7 38 8.4 13.7-.2 27.4-3.5 37.8-9.7 5.4-3.2 9.4-7 12.1-11 1.1-2.2 1.7-4.4 1.9-6.6-1.5 6.2-6.5 12-14.4 16.7z"></path></g><g><path fill="#FFB600" d="M440.5 286.9v.4c0 .5 0 1-.1 1.6-.2 2.2-.8 4.5-1.9 6.6-2.3 4.8-6.7 9.3-13.1 13.1-20.2 12.1-53.2 12.7-73.7 1.2-6.1-3.4-10.5-7.6-13-12-1.2-2.2-2-4.4-2.3-6.7-.1-.6-.2-1.2-.2-1.8v-.4l-.1-2.6V285l-.1-3-.1-6.7c.2 7.7 5.3 15.2 15.5 20.9 20.5 11.4 53.5 10.9 73.7-1.2 10.2-6.1 15.2-14 15-21.7l.1 6.6.1 3.1v1.2l.2 2.7z"></path><path fill="#FFDD23" d="M351.1 253.5c-20.2 12.1-20 31.3.5 42.7 20.5 11.4 53.5 10.9 73.7-1.2 20.2-12.1 20-31.3-.5-42.7-20.5-11.5-53.5-11-73.7 1.2z"></path><path fill="#FF9800" d="M431.8 275.8c-.8 5.7-5 11.3-12.4 15.8-17 10.2-44.7 10.7-61.9 1-7.5-4.2-11.8-9.6-12.8-15.2-1.3-7.3 2.8-14.9 12.4-20.6 17-10.2 44.7-10.7 61.9-1 9.5 5.3 13.8 12.7 12.8 20z"></path><path fill="#FFC300" d="M431.8 275.8c-.8 5.7-5 11.3-12.4 15.8-17 10.2-44.7 10.7-61.9 1-7.5-4.2-11.8-9.6-12.8-15.2.8-5.7 5-11.3 12.4-15.8 17-10.2 44.7-10.7 61.9-1 7.5 4.2 11.7 9.6 12.8 15.2z"></path><path fill="#FF9800" d="M415.6 261.1v3.5l-5.7 3.5-.1-3.5 5.8-3.5zm.8 9.4v3.5l-8.4 3.1-.1-3.6 8.5-3zM390.6 271.4l-.1-3.5c0-.2 0-.4.1-.6.2-.4.6-.8 1.2-1.1 1-.6 2.1-.8 3.5-.7 1.4.1 3 .6 4.8 1.6s3.4 2.1 4.7 3.2c1.3 1.1 2.3 2.2 3 3.2v3.5c-.7-1-1.7-2.1-3-3.2s-2.8-2.2-4.7-3.2c-1.8-1-3.4-1.6-4.8-1.6-1.4-.1-2.6.2-3.5.7-.6.4-1 .7-1.2 1.1.1.2 0 .4 0 .6z"></path><defs><path id="G" d="M390.6 271.4l-.1-3.5c0-.2 0-.4.1-.6.2-.4.6-.8 1.2-1.1 1-.6 2.1-.8 3.5-.7 1.4.1 3 .6 4.8 1.6s3.4 2.1 4.7 3.2c1.3 1.1 2.3 2.2 3 3.2v3.5c-.7-1-1.7-2.1-3-3.2s-2.8-2.2-4.7-3.2c-1.8-1-3.4-1.6-4.8-1.6-1.4-.1-2.6.2-3.5.7-.6.4-1 .7-1.2 1.1.1.2 0 .4 0 .6z"></path></defs><clipPath id="H"><use xlink:href="#G"></use></clipPath><g clip-path="url(#H)"><path fill="#FF9800" d="M407.9 273.5v3.5c-.7-1-1.7-2.1-3-3.2s-2.8-2.2-4.7-3.2c-1.8-1-3.4-1.6-4.8-1.6-1.4-.1-2.6.2-3.5.7-.6.4-1 .7-1.2 1.1-.1.2-.1.4-.1.6l-.1-3.5c0-.2 0-.4.1-.6.2-.4.6-.8 1.2-1.1 1-.6 2.1-.8 3.5-.7 1.4.1 3 .6 4.8 1.6s3.4 2.1 4.7 3.2c1.4 1.2 2.4 2.2 3.1 3.2z"></path></g><path fill="#FF9800" d="M385.9 279.4v3.5c0-.3-.1-.7-.2-1-.2-.6-.7-1.3-1.3-2.1-.6-.8-1.3-1.7-2.2-2.7-.8-1-1.5-1.9-2.2-2.9s-1.1-2-1.3-3c0-.2-.1-.5-.1-.7V267c0 .2 0 .5.1.7.2 1 .6 2 1.3 3 .7 1 1.4 2 2.2 2.9.8 1 1.6 1.9 2.2 2.7.6.8 1 1.5 1.3 2.1.1.3.2.7.2 1z"></path><defs><path id="I" d="M385.9 279.4v3.5c0-.3-.1-.7-.2-1-.2-.6-.7-1.3-1.3-2.1-.6-.8-1.3-1.7-2.2-2.7-.8-1-1.5-1.9-2.2-2.9s-1.1-2-1.3-3c0-.2-.1-.5-.1-.7V267c0 .2 0 .5.1.7.2 1 .6 2 1.3 3 .7 1 1.4 2 2.2 2.9.8 1 1.6 1.9 2.2 2.7.6.8 1 1.5 1.3 2.1.1.3.2.7.2 1z"></path></defs><clipPath id="J"><use xlink:href="#I"></use></clipPath><g clip-path="url(#J)"><path fill="#FF9800" d="M385.9 279.4v3.5c0-.3-.1-.7-.2-1-.2-.6-.7-1.3-1.3-2.1-.6-.8-1.3-1.7-2.2-2.7-.8-1-1.5-1.9-2.2-2.9s-1.1-2-1.3-3c0-.2-.1-.5-.1-.7V267c0 .2 0 .5.1.7.2 1 .6 2 1.3 3 .7 1 1.4 2 2.2 2.9.8 1 1.6 1.9 2.2 2.7.6.8 1 1.5 1.3 2.1.1.3.2.7.2 1z"></path></g><path fill="#FF9800" d="M365.8 282.8v3.5c-2.6-1.7-4.4-3.2-5.5-4.5s-1.9-2.3-2.3-3.1v-3.5c.4.7 1.2 1.7 2.3 3.1 1.1 1.4 3 2.9 5.5 4.5z"></path><defs><path id="K" d="M365.8 282.8v3.5c-2.6-1.7-4.4-3.2-5.5-4.5s-1.9-2.3-2.3-3.1v-3.5c.4.7 1.2 1.7 2.3 3.1 1.1 1.4 3 2.9 5.5 4.5z"></path></defs><clipPath id="L"><use xlink:href="#K"></use></clipPath><g clip-path="url(#L)"><path fill="#FF9800" d="M365.8 282.8v3.5c-2.6-1.7-4.4-3.2-5.5-4.5s-1.9-2.3-2.3-3.1v-3.5c.4.7 1.2 1.7 2.3 3.1 1.1 1.4 3 2.9 5.5 4.5z"></path></g><g><path fill="#FF9800" d="M397.6 280.3v3.5c0 .9-.2 1.9-.8 2.8-.6 1.1-1.8 2.1-3.4 3.1-1.1.7-2.4 1.2-3.8 1.7s-3 .8-4.7.9-3.6 0-5.5-.3-4-.9-6.1-1.7v-3.5c2.2.9 4.2 1.4 6.1 1.7 1.9.3 3.8.4 5.5.3s3.3-.4 4.7-.9c1.4-.5 2.7-1 3.8-1.7 1.6-1 2.8-2 3.4-3.1.5-.9.8-1.8.8-2.8z"></path><defs><path id="M" d="M397.6 280.3v3.5c0 .9-.2 1.9-.8 2.8-.6 1.1-1.8 2.1-3.4 3.1-1.1.7-2.4 1.2-3.8 1.7s-3 .8-4.7.9-3.6 0-5.5-.3-4-.9-6.1-1.7v-3.5c2.2.9 4.2 1.4 6.1 1.7 1.9.3 3.8.4 5.5.3s3.3-.4 4.7-.9c1.4-.5 2.7-1 3.8-1.7 1.6-1 2.8-2 3.4-3.1.5-.9.8-1.8.8-2.8z"></path></defs><clipPath id="N"><use xlink:href="#M"></use></clipPath><g clip-path="url(#N)"><path fill="#FF9800" d="M397.6 280.3v3.5c0 .9-.2 1.9-.8 2.8-.6 1.1-1.8 2.1-3.4 3.1-1.1.7-2.4 1.2-3.8 1.7s-3 .8-4.7.9-3.6 0-5.5-.3-4-.9-6.1-1.7v-3.5c2.2.9 4.2 1.4 6.1 1.7 1.9.3 3.8.4 5.5.3s3.3-.4 4.7-.9c1.4-.5 2.7-1 3.8-1.7 1.6-1 2.8-2 3.4-3.1.5-.9.8-1.8.8-2.8z"></path></g></g><g><path fill="#FF9800" d="M373.2 286.7v3.5l-6.7 4.1-.1-3.5 6.8-4.1z"></path></g><g><path fill="#FFDD23" d="M415.6 261.1l-5.8 3.5c1.8 1.2 3.2 2.3 4.3 3.3 1.1 1 1.8 1.9 2.3 2.6l-8.4 3c-.7-1-1.7-2.1-3-3.2s-2.8-2.2-4.7-3.2c-1.8-1-3.4-1.6-4.8-1.6-1.4-.1-2.6.2-3.5.7-.6.4-1 .7-1.2 1.1s-.2.8 0 1.3.5 1.1 1 1.7 1.1 1.4 1.8 2.2c1.1 1.3 2 2.5 2.7 3.8.7 1.2 1.2 2.4 1.3 3.5.1 1.1-.1 2.2-.7 3.3-.6 1.1-1.8 2.1-3.4 3.1-1.1.7-2.4 1.2-3.8 1.7s-3 .8-4.7.9-3.6 0-5.5-.3-4-.9-6.1-1.7l-6.8 4.1-7.2-4 6.6-4c-2.6-1.7-4.4-3.2-5.5-4.5s-1.9-2.3-2.3-3.1l8.8-2.5c.7 1.1 1.7 2.3 3 3.7 1.3 1.3 3 2.6 5.1 3.7 2.3 1.3 4.2 2 5.7 2.1s2.8-.2 3.9-.9c.7-.4 1.1-.9 1.3-1.4.2-.5.1-1-.1-1.6s-.7-1.3-1.3-2.1c-.6-.8-1.3-1.7-2.2-2.7-.8-1-1.5-1.9-2.2-2.9s-1.1-2-1.3-3c-.2-1 0-2 .5-3s1.6-2 3.2-3c1.2-.7 2.6-1.3 4.1-1.8s3.1-.8 4.8-.9c1.7-.1 3.5-.1 5.3.2 1.9.3 3.8.8 5.8 1.5l6-3.6 7 4z"></path></g><g><path fill="#FF9800" d="M366.4 290.8l.1 3.5-7.2-3.9-.1-3.6 7.2 4z"></path></g><path fill="#FFDD23" d="M440.5 284.1c-1.5 6.4-6.6 12.4-14.6 17.2-20.5 12.3-54 12.9-74.8 1.3-7.9-4.4-13.1-10.1-14.9-16.3l.1 2.6v.4c2.4 5.3 7.3 10.2 14.3 14.1 10.5 5.9 24.3 8.7 38 8.4 13.7-.2 27.4-3.5 37.8-9.7 7-4.2 11.9-9.4 14.1-14.9v-3.1zm-90 15c10.5 5.9 24.3 8.7 38 8.4 13.7-.2 27.4-3.5 37.8-9.7 7-4.2 11.8-9.4 14.1-14.9l-.1-3.1c-1.6 6.4-6.6 12.3-14.6 17.1-20.5 12.3-54 12.9-74.8 1.3-7.9-4.4-13.1-10.1-14.9-16.3l.1 3c2.5 5.5 7.4 10.3 14.4 14.2zm75.5 6.6c-20.5 12.3-54 12.9-74.8 1.3-7.7-4.3-12.7-9.8-14.7-15.7.3 2.3 1.1 4.5 2.3 6.7 2.7 3.7 6.7 7.1 11.8 9.9 10.5 5.9 24.3 8.7 38 8.4 13.7-.2 27.4-3.5 37.8-9.7 5.4-3.2 9.4-7 12.1-11 1.1-2.2 1.7-4.4 1.9-6.6-1.6 6.1-6.6 11.9-14.4 16.7z"></path></g><g><path fill="#FFB600" d="M437.9 269.8v.4c0 .5 0 1-.1 1.6-.2 2.2-.8 4.5-1.9 6.6-2.3 4.8-6.7 9.3-13.1 13.1-20.2 12.1-53.2 12.7-73.7 1.2-6.1-3.4-10.5-7.6-13-12-1.2-2.2-2-4.4-2.3-6.7-.1-.6-.2-1.2-.2-1.8v-.4l-.1-2.6v-1.3l-.1-3-.1-6.7c.2 7.7 5.3 15.2 15.5 20.9 20.5 11.4 53.5 10.9 73.7-1.2 10.2-6.1 15.2-14 15-21.7l.1 6.6.1 3.1v1.2l.2 2.7z"></path><path fill="#FFDD23" d="M348.4 236.4c-20.2 12.1-20 31.3.5 42.7 20.5 11.4 53.5 10.9 73.7-1.2 20.2-12.1 20-31.3-.5-42.7-20.5-11.5-53.5-10.9-73.7 1.2z"></path><path fill="#FF9800" d="M429.1 258.7c-.8 5.7-5 11.3-12.4 15.8-17 10.2-44.7 10.7-61.9 1-7.5-4.2-11.8-9.6-12.8-15.2-1.3-7.3 2.8-14.9 12.4-20.6 17-10.2 44.7-10.7 61.9-1 9.6 5.4 13.9 12.8 12.8 20z"></path><path fill="#FFC300" d="M429.1 258.7c-.8 5.7-5 11.3-12.4 15.8-17 10.2-44.7 10.7-61.9 1-7.5-4.2-11.8-9.6-12.8-15.2.8-5.7 5-11.3 12.4-15.8 17-10.2 44.7-10.7 61.9-1 7.5 4.2 11.8 9.6 12.8 15.2z"></path><path fill="#FF9800" d="M412.9 244l.1 3.5-5.8 3.5v-3.5l5.7-3.5zm.8 9.4l.1 3.5-8.5 3.1v-3.5l8.4-3.1zM388 254.4v-3.5c0-.2 0-.4.1-.6.2-.4.6-.8 1.2-1.1 1-.6 2.1-.8 3.5-.7s3 .6 4.8 1.6 3.4 2.1 4.7 3.2c1.3 1.1 2.3 2.2 3 3.2v3.5c-.7-1-1.7-2.1-3-3.2s-2.8-2.2-4.7-3.2c-1.8-1-3.4-1.6-4.8-1.6-1.4-.1-2.6.2-3.5.7-.6.4-1 .7-1.2 1.1-.1.1-.1.3-.1.6z"></path><defs><path id="O" d="M388 254.4v-3.5c0-.2 0-.4.1-.6.2-.4.6-.8 1.2-1.1 1-.6 2.1-.8 3.5-.7s3 .6 4.8 1.6 3.4 2.1 4.7 3.2c1.3 1.1 2.3 2.2 3 3.2v3.5c-.7-1-1.7-2.1-3-3.2s-2.8-2.2-4.7-3.2c-1.8-1-3.4-1.6-4.8-1.6-1.4-.1-2.6.2-3.5.7-.6.4-1 .7-1.2 1.1-.1.1-.1.3-.1.6z"></path></defs><clipPath id="P"><use xlink:href="#O"></use></clipPath><g clip-path="url(#P)"><path fill="#FF9800" d="M405.3 256.5v3.5c-.7-1-1.7-2.1-3-3.2s-2.8-2.2-4.7-3.2c-1.8-1-3.4-1.6-4.8-1.6-1.4-.1-2.6.2-3.5.7-.6.4-1 .7-1.2 1.1-.1.2-.1.4-.1.6v-3.5c0-.2 0-.4.1-.6.2-.4.6-.8 1.2-1.1 1-.6 2.1-.8 3.5-.7s3 .6 4.8 1.6 3.4 2.1 4.7 3.2c1.2 1.1 2.2 2.1 3 3.2z"></path></g><path fill="#FF9800" d="M383.2 262.3v3.5c0-.3-.1-.7-.2-1-.2-.6-.7-1.3-1.3-2.1-.6-.8-1.3-1.7-2.2-2.7-.8-1-1.5-1.9-2.2-2.9s-1.1-2-1.3-3c0-.2-.1-.5-.1-.7l-.1-3.5c0 .2 0 .5.1.7.2 1 .6 2 1.3 3 .7 1 1.4 2 2.2 2.9.8 1 1.6 1.9 2.2 2.7.6.8 1 1.5 1.3 2.1.3.4.3.7.3 1z"></path><defs><path id="Q" d="M383.2 262.3v3.5c0-.3-.1-.7-.2-1-.2-.6-.7-1.3-1.3-2.1-.6-.8-1.3-1.7-2.2-2.7-.8-1-1.5-1.9-2.2-2.9s-1.1-2-1.3-3c0-.2-.1-.5-.1-.7l-.1-3.5c0 .2 0 .5.1.7.2 1 .6 2 1.3 3 .7 1 1.4 2 2.2 2.9.8 1 1.6 1.9 2.2 2.7.6.8 1 1.5 1.3 2.1.3.4.3.7.3 1z"></path></defs><clipPath id="R"><use xlink:href="#Q"></use></clipPath><g clip-path="url(#R)"><path fill="#FF9800" d="M383.2 262.3v3.5c0-.3-.1-.7-.2-1-.2-.6-.7-1.3-1.3-2.1-.6-.8-1.3-1.7-2.2-2.7-.8-1-1.5-1.9-2.2-2.9s-1.1-2-1.3-3c0-.2-.1-.5-.1-.7l-.1-3.5c0 .2 0 .5.1.7.2 1 .6 2 1.3 3 .7 1 1.4 2 2.2 2.9.8 1 1.6 1.9 2.2 2.7.6.8 1 1.5 1.3 2.1.3.4.3.7.3 1z"></path></g><path fill="#FF9800" d="M363.2 265.7v3.5c-2.6-1.7-4.4-3.2-5.5-4.5s-1.9-2.3-2.3-3.1v-3.5c.4.7 1.2 1.7 2.3 3.1 1.1 1.4 2.9 2.9 5.5 4.5z"></path><defs><path id="S" d="M363.2 265.7v3.5c-2.6-1.7-4.4-3.2-5.5-4.5s-1.9-2.3-2.3-3.1v-3.5c.4.7 1.2 1.7 2.3 3.1 1.1 1.4 2.9 2.9 5.5 4.5z"></path></defs><clipPath id="T"><use xlink:href="#S"></use></clipPath><g clip-path="url(#T)"><path fill="#FF9800" d="M363.2 265.7v3.5c-2.6-1.7-4.4-3.2-5.5-4.5s-1.9-2.3-2.3-3.1v-3.5c.4.7 1.2 1.7 2.3 3.1 1.1 1.4 2.9 2.9 5.5 4.5z"></path></g><g><path fill="#FF9800" d="M394.9 263.2v3.5c0 .9-.2 1.9-.8 2.8-.6 1.1-1.8 2.1-3.4 3.1-1.1.7-2.4 1.2-3.8 1.7s-3 .8-4.7.9-3.6 0-5.5-.3-4-.9-6.1-1.7l-.1-3.5c2.2.9 4.2 1.4 6.1 1.7 1.9.3 3.8.4 5.5.3s3.3-.4 4.7-.9c1.4-.5 2.7-1 3.8-1.7 1.6-1 2.8-2 3.4-3.1.7-.9.9-1.8.9-2.8z"></path><defs><path id="U" d="M394.9 263.2v3.5c0 .9-.2 1.9-.8 2.8-.6 1.1-1.8 2.1-3.4 3.1-1.1.7-2.4 1.2-3.8 1.7s-3 .8-4.7.9-3.6 0-5.5-.3-4-.9-6.1-1.7l-.1-3.5c2.2.9 4.2 1.4 6.1 1.7 1.9.3 3.8.4 5.5.3s3.3-.4 4.7-.9c1.4-.5 2.7-1 3.8-1.7 1.6-1 2.8-2 3.4-3.1.7-.9.9-1.8.9-2.8z"></path></defs><clipPath id="V"><use xlink:href="#U"></use></clipPath><g clip-path="url(#V)"><path fill="#FF9800" d="M394.9 263.2v3.5c0 .9-.2 1.9-.8 2.8-.6 1.1-1.8 2.1-3.4 3.1-1.1.7-2.4 1.2-3.8 1.7s-3 .8-4.7.9-3.6 0-5.5-.3-4-.9-6.1-1.7l-.1-3.5c2.2.9 4.2 1.4 6.1 1.7 1.9.3 3.8.4 5.5.3s3.3-.4 4.7-.9c1.4-.5 2.7-1 3.8-1.7 1.6-1 2.8-2 3.4-3.1.7-.9.9-1.8.9-2.8z"></path></g></g><g><path fill="#FF9800" d="M370.5 269.6l.1 3.6-6.8 4.1-.1-3.6 6.8-4.1z"></path></g><g><path fill="#FFDD23" d="M412.9 244l-5.8 3.5c1.8 1.2 3.2 2.3 4.3 3.3 1.1 1 1.8 1.9 2.3 2.6l-8.4 3c-.7-1-1.7-2.1-3-3.2s-2.8-2.2-4.7-3.2c-1.8-1-3.4-1.6-4.8-1.6-1.4-.1-2.6.2-3.5.7-.6.4-1 .7-1.2 1.1-.2.4-.2.8 0 1.3s.5 1.1 1 1.7c.5.6 1.1 1.4 1.8 2.2 1.1 1.3 2 2.5 2.7 3.8.7 1.2 1.2 2.4 1.3 3.5.1 1.1-.1 2.2-.7 3.3-.6 1.1-1.8 2.1-3.4 3.1-1.1.7-2.4 1.2-3.8 1.7s-3 .8-4.7.9-3.6 0-5.5-.3-4-.9-6.1-1.7l-6.8 4.1-7.2-4 6.6-4c-2.6-1.7-4.4-3.2-5.5-4.5s-1.9-2.3-2.3-3.1l8.8-2.5c.7 1.1 1.7 2.3 3 3.7 1.3 1.3 3 2.6 5.1 3.7 2.3 1.3 4.2 2 5.7 2.1s2.8-.2 3.9-.9c.7-.4 1.1-.9 1.3-1.4.2-.5.1-1-.1-1.6s-.7-1.3-1.3-2.1c-.6-.8-1.3-1.7-2.2-2.7-.8-1-1.5-1.9-2.2-2.9s-1.1-2-1.3-3c-.2-1 0-2 .5-3s1.6-2 3.2-3c1.2-.7 2.6-1.3 4.1-1.8s3.1-.8 4.8-.9c1.7-.1 3.5-.1 5.3.2 1.9.3 3.8.8 5.8 1.5l6-3.6 7 4z"></path></g><g><path fill="#FF9800" d="M363.7 273.7l.1 3.6-7.2-4v-3.6l7.1 4z"></path></g><path fill="#FFDD23" d="M437.8 267c-1.5 6.4-6.6 12.4-14.6 17.2-20.5 12.3-54 12.9-74.8 1.3-7.9-4.4-13-10.1-14.9-16.3l.1 2.6v.4c2.4 5.3 7.3 10.2 14.3 14.1 10.5 5.9 24.3 8.7 38 8.4 13.7-.2 27.4-3.5 37.8-9.7 7-4.2 11.9-9.4 14.1-14.9V267zm-89.9 15c10.5 5.9 24.3 8.7 38 8.4 13.7-.2 27.4-3.5 37.8-9.7 7-4.2 11.8-9.4 14.1-14.9l-.1-3.1c-1.6 6.4-6.6 12.3-14.6 17.1-20.5 12.3-54 12.9-74.8 1.3-7.9-4.4-13.1-10.1-14.9-16.3l.1 3c2.5 5.5 7.4 10.3 14.4 14.2zm75.4 6.6c-20.5 12.3-54 12.9-74.8 1.3-7.7-4.3-12.7-9.8-14.7-15.7.3 2.3 1.1 4.5 2.3 6.7 2.7 3.7 6.7 7.1 11.8 9.9 10.5 5.9 24.3 8.7 38 8.4 13.7-.2 27.4-3.5 37.8-9.7 5.4-3.2 9.4-7 12.1-11 1.1-2.2 1.7-4.4 1.9-6.6-1.5 6.1-6.5 12-14.4 16.7z"></path></g><g><path fill="#C52C45" d="M306.4 67.4l-27.5-10.1c-28.2-10.4-63.3-2.1-98.4 27.4L208 94.8c35.1-29.5 70.2-37.8 98.4-27.4z"></path><defs><path id="W" d="M306.4 67.4l-27.5-10.1c-28.2-10.4-63.3-2.1-98.4 27.4L208 94.8c35.1-29.5 70.2-37.8 98.4-27.4z"></path></defs><clipPath id="X"><use xlink:href="#W"></use></clipPath><g clip-path="url(#X)"><path fill="#C52C45" d="M306.4 67.4l-27.5-10.1c-28.2-10.4-63.3-2.1-98.4 27.4L208 94.8c35.1-29.5 70.2-37.8 98.4-27.4z"></path></g><path fill="#C52C45" d="M139.6 435.3l27.5 10.1c-27.8-10.3-49-38.7-56.9-83.1-15.8-89.2 27.9-209 97.8-267.5l-27.5-10.1C110.6 143.2 66.8 263 82.8 352.3c7.9 44.3 29 72.8 56.8 83z"></path><defs><path id="Y" d="M139.6 435.3l27.5 10.1c-27.8-10.3-49-38.7-56.9-83.1-15.8-89.2 27.9-209 97.8-267.5l-27.5-10.1C110.6 143.2 66.8 263 82.8 352.3c7.9 44.3 29 72.8 56.8 83z"></path></defs><clipPath id="Z"><use xlink:href="#Y"></use></clipPath><g clip-path="url(#Z)"><path fill="#C52C45" d="M208 94.8l-27.5-10.1C110.6 143.2 66.8 263 82.8 352.3c7.9 44.4 29 72.8 56.9 83.1l27.5 10.1c-27.8-10.3-49-38.7-56.9-83.1-15.9-89.3 27.8-209.1 97.7-267.6z"></path></g><path fill="#FF526E" d="M208 94.8c-69.9 58.5-113.6 178.3-97.7 267.6s85.5 114.2 155.3 55.7c69.9-58.5 113.6-178.3 97.7-267.6C347.4 61.2 277.8 36.3 208 94.8z"></path><path fill="#E9ECF5" d="M213.5 126.1c-56.3 47.2-91.6 143.8-78.8 215.8S203.6 434 260 386.8c56.3-47.2 91.6-143.8 78.8-215.8-12.8-72-68.9-92.1-125.3-44.9z"></path><path fill="#FF526E" d="M219.7 160.4c-41.5 34.7-67.5 105.9-58 158.9 9.4 53 50.7 67.8 92.2 33.1s67.5-105.9 58-158.9-50.7-67.8-92.2-33.1z"></path><g><path fill="#E9ECF5" d="M225.4 192.4c-27.7 23.2-45 70.6-38.7 106s33.8 45.2 61.5 22.1c27.7-23.2 45-70.6 38.7-106-6.3-35.4-33.9-45.3-61.5-22.1z"></path></g><g><path fill="#FF526E" d="M230.5 220.9c-15.3 12.8-24.9 39.1-21.4 58.7s18.8 25.1 34.1 12.2c15.3-12.8 24.9-39.1 21.4-58.7-3.5-19.5-18.8-25-34.1-12.2z"></path></g><g><path fill="#BCC6DF" d="M264.5 254.4l10-6.1-5.1-6.4-10 6.1 5.1 6.4z"></path><path fill="#BCC6DF" d="M259.4 248l10-6.1.2-6.6-10.1 6-.1 6.7zm20.7 26l10.1-6.1-15.7-19.6-10 6.1 15.6 19.6z"></path><path fill="#FFF" d="M260 221l-.5 20.4-.1 6.6 5.1 6.4 15.6 19.6-44-19.6c.1-5 .2-10 1-14.8L260 221z"></path><path fill="#BCC6DF" d="M259.5 241.3l10.1-6 .4-20.4-10 6.1-.5 20.3z"></path><path fill="#9AA8D2" d="M434 238.8c.7-1 1.1-2.3 1-3.6-.2-3.2-2.9-5.6-6.1-5.4L268 239.1c-3.2.2-5.6 2.9-5.4 6.1.2 3.2 2.9 5.6 6.1 5.4l160.9-9.3c1.8-.1 3.4-1.1 4.4-2.5z"></path><path fill="#D4DCEF" d="M463.5 267.3l10.1-6.1-30.1-27.1-10.1 6 30.1 27.2zM442.2 211.2l10.1-6-35.2 1.5-10 6.1 35.1-1.6z"></path><path fill="#BCC6DF" d="M433.4 240.1l10.1-6 8.8-28.9-10.1 6-8.8 28.9z"></path><path fill="#FFF" d="M442.2 211.2l-35.1 1.6-19.3 19.4-1.1 11.6 8.8 4.7 32.9 20.4 35.1-1.6-30.1-27.2 8.8-28.9z"></path></g><g><path fill="#BCC6DF" d="M245.4 284.5l.3 11.7 8.3.3-.3-11.7-8.3-.3z"></path><path fill="#BCC6DF" d="M253.7 284.8l.3 11.7 25.4 1-.3-11.8-25.4-.9zm-13 3.8l.2 11.7 4.8-4.1-.3-11.7-4.7 4.1zm-14.2 24l-4-43.1c.3-.2.5-.3.8-.5l2.9 31.8.3 11.8z"></path><path fill="#FFF" d="M235.7 263.3l43.4 22.5-25.4-.9-8.3-.3-4.7 4-14.5 12.3-2.9-31.8c3.9-2.3 8-4.3 12.4-5.8z"></path><path fill="#BCC6DF" d="M226.2 300.9l.3 11.7 14.4-12.3-.2-11.7-14.5 12.3zm104.3 91.3l.2 11.7 5.8-1.7-.2-11.7-5.8 1.7zm-.8 4.4l.2 11.8.8-4.5-.2-11.7-.8 4.4z"></path><path fill="#9AA8D2" d="M350.5 422.4c1.2 0 2.5-.4 3.5-1.3 2.5-2 2.8-5.6.8-8.1l-102-124.8c-2-2.5-5.6-2.8-8.1-.8s-2.8 5.6-.8 8.1l102 124.8c1.2 1.4 2.9 2.1 4.6 2.1z"></path><path fill="#D4DCEF" d="M363.7 428.1l.2 11.7 41.2 8-.3-11.7-41.1-8z"></path><path fill="#BCC6DF" d="M348.9 452.1l.2 11.8 14.8-24.1-.2-11.7-14.8 24z"></path><path fill="#D4DCEF" d="M325 423.2l.3 11.7 23.8 29-.2-11.8-23.9-28.9z"></path><path fill="#FFF" d="M327.7 397.9l-2.7 25.3 23.9 28.9 14.8-24 41.1 8-23.8-29-38.3-14.2-5.3-1.3-9.7 6.3z"></path></g></g></svg>