<svg width="512" height="512" viewBox="0 0 512 512" fill="none" xmlns="http://www.w3.org/2000/svg">
<path d="M431.4 353.401V353.801C431.4 354.301 431.4 354.801 431.3 355.401C431.1 357.601 430.5 359.901 429.4 362.001C427.1 366.801 422.7 371.301 416.3 375.101C396.1 387.201 363.1 387.801 342.6 376.301C336.5 372.901 332.1 368.701 329.6 364.301C328.4 362.101 327.6 359.901 327.3 357.601C327.2 357.001 327.1 356.401 327.1 355.801V355.401L327 352.801V351.501L326.9 348.501L326.8 341.801C327 349.501 332.1 357.001 342.3 362.701C362.8 374.101 395.8 373.601 416 361.501C426.2 355.401 431.2 347.501 431 339.801L431.1 346.401L431.2 349.501V350.701L431.4 353.401Z" fill="#FFB600"/>
<path d="M341.9 320C321.7 332.1 321.9 351.3 342.4 362.7C362.9 374.1 395.9 373.6 416.1 361.5C436.3 349.4 436.1 330.2 415.6 318.8C395.1 307.4 362.1 307.9 341.9 320Z" fill="#FFDD23"/>
<path d="M422.6 342.401C421.8 348.101 417.6 353.701 410.2 358.201C393.2 368.401 365.5 368.901 348.3 359.201C340.8 355.001 336.5 349.601 335.5 344.001C334.2 336.701 338.3 329.101 347.9 323.401C364.9 313.201 392.6 312.701 409.8 322.401C419.4 327.701 423.7 335.101 422.6 342.401Z" fill="#FF9800"/>
<path d="M422.6 342.4C421.8 348.1 417.6 353.7 410.2 358.2C393.2 368.4 365.5 368.9 348.3 359.2C340.8 355 336.5 349.6 335.5 344C336.3 338.3 340.5 332.7 347.9 328.2C364.9 318 392.6 317.5 409.8 327.2C417.3 331.3 421.6 336.7 422.6 342.4Z" fill="#FFC300"/>
<path d="M406.4 327.699L406.5 331.199L400.7 334.699V331.199L406.4 327.699ZM407.2 336.999L407.3 340.599L398.8 343.599V340.099L407.2 336.999Z" fill="#FF9800"/>
<path d="M381.5 338.001V334.501C381.5 334.301 381.5 334.101 381.6 333.901C381.8 333.501 382.2 333.101 382.8 332.801C383.8 332.201 384.9 332.001 386.3 332.101C387.7 332.201 389.3 332.701 391.1 333.701C392.9 334.701 394.5 335.801 395.8 336.901C397.1 338.001 398.1 339.101 398.8 340.101L398.9 343.601C398.2 342.601 397.2 341.501 395.9 340.401C394.6 339.301 393.1 338.201 391.2 337.201C389.4 336.201 387.8 335.601 386.4 335.601C385 335.501 383.8 335.801 382.9 336.301C382.3 336.701 381.9 337.001 381.7 337.401C381.5 337.601 381.5 337.801 381.5 338.001Z" fill="#FF9800"/>
<mask id="mask0_110_1153" style="mask-type:luminance" maskUnits="userSpaceOnUse" x="381" y="332" width="18" height="12">
<path d="M381.5 338.001V334.501C381.5 334.301 381.5 334.101 381.6 333.901C381.8 333.501 382.2 333.101 382.8 332.801C383.8 332.201 384.9 332.001 386.3 332.101C387.7 332.201 389.3 332.701 391.1 333.701C392.9 334.701 394.5 335.801 395.8 336.901C397.1 338.001 398.1 339.101 398.8 340.101L398.9 343.601C398.2 342.601 397.2 341.501 395.9 340.401C394.6 339.301 393.1 338.201 391.2 337.201C389.4 336.201 387.8 335.601 386.4 335.601C385 335.501 383.8 335.801 382.9 336.301C382.3 336.701 381.9 337.001 381.7 337.401C381.5 337.601 381.5 337.801 381.5 338.001V338.001Z" fill="white"/>
</mask>
<g mask="url(#mask0_110_1153)">
<path d="M398.8 340.101L398.9 343.601C398.2 342.601 397.2 341.501 395.9 340.401C394.6 339.301 393.1 338.201 391.2 337.201C389.4 336.201 387.8 335.601 386.4 335.601C385 335.501 383.8 335.801 382.9 336.301C382.3 336.701 381.9 337.001 381.7 337.401C381.6 337.601 381.6 337.801 381.6 338.001V334.501C381.6 334.301 381.6 334.101 381.7 333.901C381.9 333.501 382.3 333.101 382.9 332.801C383.9 332.201 385 332.001 386.4 332.101C387.8 332.201 389.4 332.701 391.2 333.701C393 334.701 394.6 335.801 395.9 336.901C397 338.001 398 339.101 398.8 340.101Z" fill="#FF9800"/>
</g>
<path d="M376.7 346V349.5C376.7 349.2 376.6 348.8 376.5 348.5C376.3 347.9 375.8 347.2 375.2 346.4C374.6 345.6 373.9 344.7 373 343.7C372.2 342.7 371.5 341.8 370.8 340.8C370.1 339.8 369.7 338.8 369.5 337.8C369.5 337.6 369.4 337.3 369.4 337.1L369.3 333.6C369.3 333.8 369.3 334.1 369.4 334.3C369.6 335.3 370 336.3 370.7 337.3C371.4 338.3 372.1 339.3 372.9 340.2C373.7 341.2 374.5 342.1 375.1 342.9C375.7 343.7 376.1 344.4 376.4 345C376.6 345.3 376.7 345.6 376.7 346Z" fill="#FF9800"/>
<mask id="mask1_110_1153" style="mask-type:luminance" maskUnits="userSpaceOnUse" x="369" y="333" width="8" height="17">
<path d="M376.7 346V349.5C376.7 349.2 376.6 348.8 376.5 348.5C376.3 347.9 375.8 347.2 375.2 346.4C374.6 345.6 373.9 344.7 373 343.7C372.2 342.7 371.5 341.8 370.8 340.8C370.1 339.8 369.7 338.8 369.5 337.8C369.5 337.6 369.4 337.3 369.4 337.1L369.3 333.6C369.3 333.8 369.3 334.1 369.4 334.3C369.6 335.3 370 336.3 370.7 337.3C371.4 338.3 372.1 339.3 372.9 340.2C373.7 341.2 374.5 342.1 375.1 342.9C375.7 343.7 376.1 344.4 376.4 345C376.6 345.3 376.7 345.6 376.7 346Z" fill="white"/>
</mask>
<g mask="url(#mask1_110_1153)">
<path d="M376.7 346V349.5C376.7 349.2 376.6 348.8 376.5 348.5C376.3 347.9 375.8 347.2 375.2 346.4C374.6 345.6 373.9 344.7 373 343.7C372.2 342.7 371.5 341.8 370.8 340.8C370.1 339.8 369.7 338.8 369.5 337.8C369.5 337.6 369.4 337.3 369.4 337.1L369.3 333.6C369.3 333.8 369.3 334.1 369.4 334.3C369.6 335.3 370 336.3 370.7 337.3C371.4 338.3 372.1 339.3 372.9 340.2C373.7 341.2 374.5 342.1 375.1 342.9C375.7 343.7 376.1 344.4 376.4 345C376.6 345.3 376.7 345.6 376.7 346Z" fill="#FF9800"/>
</g>
<path d="M356.7 349.401V352.901C354.1 351.201 352.3 349.701 351.2 348.401C350.1 347.101 349.3 346.101 348.9 345.301V341.801C349.3 342.501 350.1 343.501 351.2 344.901C352.3 346.201 354.1 347.701 356.7 349.401Z" fill="#FF9800"/>
<mask id="mask2_110_1153" style="mask-type:luminance" maskUnits="userSpaceOnUse" x="348" y="341" width="9" height="12">
<path d="M356.7 349.401V352.901C354.1 351.201 352.3 349.701 351.2 348.401C350.1 347.101 349.3 346.101 348.9 345.301V341.801C349.3 342.501 350.1 343.501 351.2 344.901C352.3 346.201 354.1 347.701 356.7 349.401Z" fill="white"/>
</mask>
<g mask="url(#mask2_110_1153)">
<path d="M356.7 349.401V352.901C354.1 351.201 352.3 349.701 351.2 348.401C350.1 347.101 349.3 346.101 348.9 345.301V341.801C349.3 342.501 350.1 343.501 351.2 344.901C352.3 346.201 354.1 347.701 356.7 349.401Z" fill="#FF9800"/>
</g>
<path d="M388.4 346.9V350.4C388.4 351.3 388.2 352.3 387.6 353.2C387 354.3 385.8 355.3 384.2 356.3C383.1 357 381.8 357.5 380.4 358C379 358.5 377.4 358.8 375.7 358.9C374 359 372.1 358.9 370.2 358.6C368.3 358.3 366.2 357.7 364.1 356.9L364 353.4C366.2 354.3 368.2 354.8 370.1 355.1C372 355.4 373.9 355.5 375.6 355.4C377.3 355.3 378.9 355 380.3 354.5C381.7 354 383 353.5 384.1 352.8C385.7 351.8 386.9 350.8 387.5 349.7C388.2 348.7 388.4 347.8 388.4 346.9Z" fill="#FF9800"/>
<mask id="mask3_110_1153" style="mask-type:luminance" maskUnits="userSpaceOnUse" x="364" y="346" width="25" height="13">
<path d="M388.4 346.9V350.4C388.4 351.3 388.2 352.3 387.6 353.2C387 354.3 385.8 355.3 384.2 356.3C383.1 357 381.8 357.5 380.4 358C379 358.5 377.4 358.8 375.7 358.9C374 359 372.1 358.9 370.2 358.6C368.3 358.3 366.2 357.7 364.1 356.9L364 353.4C366.2 354.3 368.2 354.8 370.1 355.1C372 355.4 373.9 355.5 375.6 355.4C377.3 355.3 378.9 355 380.3 354.5C381.7 354 383 353.5 384.1 352.8C385.7 351.8 386.9 350.8 387.5 349.7C388.2 348.7 388.4 347.8 388.4 346.9V346.9Z" fill="white"/>
</mask>
<g mask="url(#mask3_110_1153)">
<path d="M388.4 346.9V350.4C388.4 351.3 388.2 352.3 387.6 353.2C387 354.3 385.8 355.3 384.2 356.3C383.1 357 381.8 357.5 380.4 358C379 358.5 377.4 358.8 375.7 358.9C374 359 372.1 358.9 370.2 358.6C368.3 358.3 366.2 357.7 364.1 356.9L364 353.4C366.2 354.3 368.2 354.8 370.1 355.1C372 355.4 373.9 355.5 375.6 355.4C377.3 355.3 378.9 355 380.3 354.5C381.7 354 383 353.5 384.1 352.8C385.7 351.8 386.9 350.8 387.5 349.7C388.2 348.7 388.4 347.8 388.4 346.9Z" fill="#FF9800"/>
</g>
<path d="M364 353.301L364.1 356.801L357.3 360.901L357.2 357.401L364 353.301Z" fill="#FF9800"/>
<path d="M406.4 327.699L400.6 331.199C402.4 332.399 403.8 333.499 404.9 334.499C406 335.499 406.7 336.399 407.2 337.099L398.8 340.099C398.1 339.099 397.1 337.999 395.8 336.899C394.5 335.799 393 334.699 391.1 333.699C389.3 332.699 387.7 332.099 386.3 332.099C384.9 331.999 383.7 332.299 382.8 332.799C382.2 333.199 381.8 333.499 381.6 333.899C381.4 334.299 381.4 334.699 381.6 335.199C381.8 335.699 382.1 336.299 382.6 336.899C383.1 337.499 383.7 338.299 384.4 339.099C385.5 340.399 386.4 341.599 387.1 342.899C387.8 344.099 388.3 345.299 388.4 346.399C388.5 347.499 388.3 348.599 387.7 349.699C387.1 350.799 385.9 351.799 384.3 352.799C383.2 353.499 381.9 353.999 380.5 354.499C379.1 354.999 377.5 355.299 375.8 355.399C374.1 355.499 372.2 355.399 370.3 355.099C368.4 354.799 366.3 354.199 364.2 353.399L357.4 357.499L350.2 353.499L356.8 349.499C354.2 347.799 352.4 346.299 351.3 344.999C350.2 343.699 349.4 342.699 349 341.899L357.8 339.399C358.5 340.499 359.5 341.699 360.8 343.099C362.1 344.399 363.8 345.699 365.9 346.799C368.2 348.099 370.1 348.799 371.6 348.899C373.1 348.999 374.4 348.699 375.5 347.999C376.2 347.599 376.6 347.099 376.8 346.599C377 346.099 376.9 345.599 376.7 344.999C376.5 344.399 376 343.699 375.4 342.899C374.8 342.099 374.1 341.199 373.2 340.199C372.4 339.199 371.7 338.299 371 337.299C370.3 336.299 369.9 335.299 369.7 334.299C369.5 333.299 369.7 332.299 370.2 331.299C370.7 330.299 371.8 329.299 373.4 328.299C374.6 327.599 376 326.999 377.5 326.499C379 325.999 380.6 325.699 382.3 325.599C384 325.499 385.8 325.499 387.6 325.799C389.5 326.099 391.4 326.599 393.4 327.299L399.4 323.699L406.4 327.699Z" fill="#FFDD23"/>
<path d="M357.2 357.4L357.3 360.9L350.1 356.9L350 353.4L357.2 357.4Z" fill="#FF9800"/>
<path d="M431.3 350.7C429.8 357.1 424.7 363.1 416.7 367.9C396.2 380.2 362.7 380.8 341.9 369.2C334 364.8 328.9 359.1 327 352.9L327.1 355.5V355.9C329.5 361.2 334.4 366.1 341.4 370C351.9 375.9 365.7 378.7 379.4 378.4C393.1 378.2 406.8 374.9 417.2 368.7C424.2 364.5 429.1 359.3 431.3 353.8V350.7ZM341.4 365.7C351.9 371.6 365.7 374.4 379.4 374.1C393.1 373.9 406.8 370.6 417.2 364.4C424.2 360.2 429 355 431.3 349.5L431.2 346.4C429.6 352.8 424.6 358.7 416.6 363.5C396.1 375.8 362.6 376.4 341.8 364.8C333.9 360.4 328.7 354.7 326.9 348.5L327 351.5C329.5 356.9 334.4 361.8 341.4 365.7ZM416.8 372.2C396.3 384.5 362.8 385.1 342 373.5C334.3 369.2 329.3 363.7 327.3 357.8C327.6 360.1 328.4 362.3 329.6 364.5C332.3 368.2 336.3 371.6 341.4 374.4C351.9 380.3 365.7 383.1 379.4 382.8C393.1 382.6 406.8 379.3 417.2 373.1C422.6 369.9 426.6 366.1 429.3 362.1C430.4 359.9 431 357.7 431.2 355.5C429.6 361.7 424.7 367.5 416.8 372.2Z" fill="#FFDD23"/>
<path d="M423.4 337.1V337.5C423.4 338 423.4 338.5 423.3 339.1C423.1 341.3 422.5 343.6 421.4 345.7C419.1 350.5 414.7 355 408.3 358.8C388.1 370.9 355.1 371.5 334.6 360C328.5 356.6 324.1 352.4 321.6 348C320.4 345.8 319.6 343.6 319.3 341.3C319.2 340.7 319.1 340.1 319.1 339.5V339.1L319 336.5V335.2L318.9 332.2L318.8 325.5C319 333.2 324.1 340.7 334.3 346.4C354.8 357.8 387.8 357.3 408 345.2C418.2 339.1 423.2 331.2 423 323.5L423.1 330.1L423.2 333.2V334.4L423.4 337.1Z" fill="#FFB600"/>
<path d="M333.9 303.8C313.7 315.9 313.9 335.1 334.4 346.5C354.9 357.9 387.9 357.4 408.1 345.3C428.3 333.2 428.1 314 407.6 302.6C387.2 291.1 354.2 291.6 333.9 303.8Z" fill="#FFDD23"/>
<path d="M414.6 326.1C413.8 331.8 409.6 337.4 402.2 341.9C385.2 352.1 357.5 352.6 340.3 342.9C332.8 338.7 328.5 333.3 327.5 327.7C326.2 320.4 330.3 312.8 339.9 307.1C356.9 296.9 384.6 296.4 401.8 306.1C411.4 311.4 415.7 318.8 414.6 326.1Z" fill="#FF9800"/>
<path d="M414.6 326.099C413.8 331.799 409.6 337.399 402.2 341.899C385.2 352.099 357.5 352.599 340.3 342.899C332.8 338.699 328.5 333.299 327.5 327.699C328.3 321.999 332.5 316.399 339.9 311.899C356.9 301.699 384.6 301.199 401.8 310.899C409.4 314.999 413.6 320.499 414.6 326.099Z" fill="#FFC300"/>
<path d="M398.5 311.4V314.9L392.8 318.4L392.7 314.9L398.5 311.4ZM399.3 320.8V324.3L390.9 327.3L390.8 323.8L399.3 320.8ZM373.5 321.7V318.2C373.5 318 373.5 317.8 373.6 317.6C373.8 317.2 374.2 316.8 374.8 316.5C375.8 315.9 376.9 315.7 378.3 315.8C379.7 315.9 381.3 316.4 383.1 317.4C384.9 318.4 386.5 319.5 387.8 320.6C389.1 321.7 390.1 322.8 390.8 323.8V327.3C390.1 326.3 389.1 325.2 387.8 324.1C386.5 323 385 321.9 383.1 320.9C381.3 319.9 379.7 319.3 378.3 319.3C376.9 319.2 375.7 319.5 374.8 320C374.2 320.4 373.8 320.7 373.6 321.1C373.6 321.3 373.5 321.5 373.5 321.7Z" fill="#FF9800"/>
<mask id="mask4_110_1153" style="mask-type:luminance" maskUnits="userSpaceOnUse" x="373" y="315" width="18" height="13">
<path d="M373.5 321.7V318.2C373.5 318 373.5 317.8 373.6 317.6C373.8 317.2 374.2 316.8 374.8 316.5C375.8 315.9 376.9 315.7 378.3 315.8C379.7 315.9 381.3 316.4 383.1 317.4C384.9 318.4 386.5 319.5 387.8 320.6C389.1 321.7 390.1 322.8 390.8 323.8V327.3C390.1 326.3 389.1 325.2 387.8 324.1C386.5 323 385 321.9 383.1 320.9C381.3 319.9 379.7 319.3 378.3 319.3C376.9 319.2 375.7 319.5 374.8 320C374.2 320.4 373.8 320.7 373.6 321.1C373.6 321.3 373.5 321.5 373.5 321.7Z" fill="white"/>
</mask>
<g mask="url(#mask4_110_1153)">
<path d="M390.8 323.8V327.3C390.1 326.3 389.1 325.2 387.8 324.1C386.5 323 385 321.9 383.1 320.9C381.3 319.9 379.7 319.3 378.3 319.3C376.9 319.2 375.7 319.5 374.8 320C374.2 320.4 373.8 320.7 373.6 321.1C373.5 321.3 373.5 321.5 373.5 321.7V318.2C373.5 318 373.5 317.8 373.6 317.6C373.8 317.2 374.2 316.8 374.8 316.5C375.8 315.9 376.9 315.7 378.3 315.8C379.7 315.9 381.3 316.4 383.1 317.4C384.9 318.4 386.5 319.5 387.8 320.6C389.1 321.7 390.1 322.8 390.8 323.8Z" fill="#FF9800"/>
</g>
<path d="M368.8 329.699L368.9 333.199C368.9 332.899 368.8 332.499 368.7 332.199C368.5 331.599 368 330.899 367.4 330.099C366.8 329.299 366.1 328.399 365.2 327.399C364.4 326.399 363.7 325.499 363 324.499C362.3 323.499 361.9 322.499 361.7 321.499C361.7 321.299 361.6 320.999 361.6 320.799V317.299C361.6 317.499 361.6 317.799 361.7 317.999C361.9 318.999 362.3 319.999 363 320.999C363.7 321.999 364.4 322.999 365.2 323.899C366 324.899 366.8 325.799 367.4 326.599C368 327.399 368.4 328.099 368.7 328.699C368.7 328.999 368.8 329.399 368.8 329.699Z" fill="#FF9800"/>
<mask id="mask5_110_1153" style="mask-type:luminance" maskUnits="userSpaceOnUse" x="361" y="317" width="8" height="17">
<path d="M368.8 329.699L368.9 333.199C368.9 332.899 368.8 332.499 368.7 332.199C368.5 331.599 368 330.899 367.4 330.099C366.8 329.299 366.1 328.399 365.2 327.399C364.4 326.399 363.7 325.499 363 324.499C362.3 323.499 361.9 322.499 361.7 321.499C361.7 321.299 361.6 320.999 361.6 320.799V317.299C361.6 317.499 361.6 317.799 361.7 317.999C361.9 318.999 362.3 319.999 363 320.999C363.7 321.999 364.4 322.999 365.2 323.899C366 324.899 366.8 325.799 367.4 326.599C368 327.399 368.4 328.099 368.7 328.699C368.7 328.999 368.8 329.399 368.8 329.699V329.699Z" fill="white"/>
</mask>
<g mask="url(#mask5_110_1153)">
<path d="M368.8 329.699L368.9 333.199C368.9 332.899 368.8 332.499 368.7 332.199C368.5 331.599 368 330.899 367.4 330.099C366.8 329.299 366.1 328.399 365.2 327.399C364.4 326.399 363.7 325.499 363 324.499C362.3 323.499 361.9 322.499 361.7 321.499C361.7 321.299 361.6 320.999 361.6 320.799V317.299C361.6 317.499 361.6 317.799 361.7 317.999C361.9 318.999 362.3 319.999 363 320.999C363.7 321.999 364.4 322.999 365.2 323.899C366 324.899 366.8 325.799 367.4 326.599C368 327.399 368.4 328.099 368.7 328.699C368.7 328.999 368.8 329.399 368.8 329.699Z" fill="#FF9800"/>
</g>
<path d="M348.7 333.1L348.8 336.6C346.2 334.9 344.4 333.4 343.3 332.1C342.2 330.8 341.4 329.8 341 329V325.5C341.4 326.2 342.2 327.2 343.3 328.6C344.3 329.9 346.2 331.4 348.7 333.1Z" fill="#FF9800"/>
<mask id="mask6_110_1153" style="mask-type:luminance" maskUnits="userSpaceOnUse" x="341" y="325" width="8" height="12">
<path d="M348.7 333.1L348.8 336.6C346.2 334.9 344.4 333.4 343.3 332.1C342.2 330.8 341.4 329.8 341 329V325.5C341.4 326.2 342.2 327.2 343.3 328.6C344.3 329.9 346.2 331.4 348.7 333.1Z" fill="white"/>
</mask>
<g mask="url(#mask6_110_1153)">
<path d="M348.7 333.1L348.8 336.6C346.2 334.9 344.4 333.4 343.3 332.1C342.2 330.8 341.4 329.8 341 329V325.5C341.4 326.2 342.2 327.2 343.3 328.6C344.3 329.9 346.2 331.4 348.7 333.1Z" fill="#FF9800"/>
</g>
<path d="M380.5 330.6L380.6 334.1C380.6 335 380.4 336 379.8 336.9C379.2 338 378 339 376.4 340C375.3 340.7 374 341.2 372.6 341.7C371.2 342.2 369.6 342.5 367.9 342.6C366.2 342.7 364.3 342.6 362.4 342.3C360.5 342 358.4 341.4 356.3 340.6V337.1C358.5 338 360.5 338.5 362.4 338.8C364.3 339.1 366.2 339.2 367.9 339.1C369.6 339 371.2 338.7 372.6 338.2C374 337.7 375.3 337.2 376.4 336.5C378 335.5 379.2 334.5 379.8 333.4C380.2 332.5 380.5 331.5 380.5 330.6Z" fill="#FF9800"/>
<mask id="mask7_110_1153" style="mask-type:luminance" maskUnits="userSpaceOnUse" x="356" y="330" width="25" height="13">
<path d="M380.5 330.6L380.6 334.1C380.6 335 380.4 336 379.8 336.9C379.2 338 378 339 376.4 340C375.3 340.7 374 341.2 372.6 341.7C371.2 342.2 369.6 342.5 367.9 342.6C366.2 342.7 364.3 342.6 362.4 342.3C360.5 342 358.4 341.4 356.3 340.6V337.1C358.5 338 360.5 338.5 362.4 338.8C364.3 339.1 366.2 339.2 367.9 339.1C369.6 339 371.2 338.7 372.6 338.2C374 337.7 375.3 337.2 376.4 336.5C378 335.5 379.2 334.5 379.8 333.4C380.2 332.5 380.5 331.5 380.5 330.6Z" fill="white"/>
</mask>
<g mask="url(#mask7_110_1153)">
<path d="M380.5 330.6L380.6 334.1C380.6 335 380.4 336 379.8 336.9C379.2 338 378 339 376.4 340C375.3 340.7 374 341.2 372.6 341.7C371.2 342.2 369.6 342.5 367.9 342.6C366.2 342.7 364.3 342.6 362.4 342.3C360.5 342 358.4 341.4 356.3 340.6V337.1C358.5 338 360.5 338.5 362.4 338.8C364.3 339.1 366.2 339.2 367.9 339.1C369.6 339 371.2 338.7 372.6 338.2C374 337.7 375.3 337.2 376.4 336.5C378 335.5 379.2 334.5 379.8 333.4C380.2 332.5 380.5 331.5 380.5 330.6Z" fill="#FF9800"/>
</g>
<path d="M356.1 337V340.5L349.3 344.6V341.1L356.1 337Z" fill="#FF9800"/>
<path d="M398.5 311.4L392.7 314.9C394.5 316.1 395.9 317.2 397 318.2C398.1 319.2 398.8 320.1 399.3 320.8L390.9 323.8C390.2 322.8 389.2 321.7 387.9 320.6C386.6 319.5 385.1 318.4 383.2 317.4C381.4 316.4 379.8 315.8 378.4 315.8C377 315.7 375.8 316 374.9 316.5C374.3 316.9 373.9 317.2 373.7 317.6C373.5 318 373.5 318.4 373.7 318.9C373.9 319.4 374.2 320 374.7 320.6C375.2 321.2 375.8 322 376.5 322.8C377.6 324.1 378.5 325.3 379.2 326.6C379.9 327.8 380.4 329 380.5 330.1C380.6 331.2 380.4 332.3 379.8 333.4C379.2 334.5 378 335.5 376.4 336.5C375.3 337.2 374 337.7 372.6 338.2C371.2 338.7 369.6 339 367.9 339.1C366.2 339.2 364.3 339.1 362.4 338.8C360.5 338.5 358.4 337.9 356.3 337.1L349.5 341.2L342.3 337.2L348.9 333.2C346.3 331.5 344.5 330 343.4 328.7C342.3 327.4 341.5 326.4 341.1 325.6L349.9 323.1C350.6 324.2 351.6 325.4 352.9 326.8C354.2 328.1 355.9 329.4 358 330.5C360.3 331.8 362.2 332.5 363.7 332.6C365.2 332.7 366.5 332.4 367.6 331.7C368.3 331.3 368.7 330.8 368.9 330.3C369.1 329.8 369 329.3 368.8 328.7C368.6 328.1 368.1 327.4 367.5 326.6C366.9 325.8 366.2 324.9 365.3 323.9C364.5 322.9 363.8 322 363.1 321C362.4 320 362 319 361.8 318C361.6 317 361.8 316 362.3 315C362.8 314 363.9 313 365.5 312C366.7 311.3 368.1 310.7 369.6 310.2C371.1 309.7 372.7 309.4 374.4 309.3C376.1 309.2 377.9 309.2 379.7 309.5C381.6 309.8 383.5 310.3 385.5 311L391.5 307.4L398.5 311.4Z" fill="#FFDD23"/>
<path d="M349.3 341.1V344.6L342.2 340.6L342.1 337.1L349.3 341.1Z" fill="#FF9800"/>
<path d="M423.4 334.4C421.9 340.8 416.8 346.8 408.8 351.6C388.3 363.9 354.8 364.5 334 352.9C326.1 348.5 321 342.8 319.1 336.6L319.2 339.2V339.6C321.6 344.9 326.5 349.8 333.5 353.7C344 359.6 357.8 362.4 371.5 362.1C385.2 361.9 398.9 358.6 409.3 352.4C416.3 348.2 421.2 343 423.4 337.5V334.4ZM333.4 349.4C343.9 355.3 357.7 358.1 371.4 357.8C385.1 357.6 398.8 354.3 409.2 348.1C416.2 343.9 421 338.7 423.3 333.2L423.2 330.1C421.6 336.5 416.6 342.4 408.6 347.2C388.1 359.5 354.6 360.1 333.8 348.5C325.9 344.1 320.7 338.4 318.9 332.2L319 335.2C321.5 340.6 326.4 345.5 333.4 349.4ZM408.9 355.9C388.4 368.2 354.9 368.8 334.1 357.2C326.4 352.9 321.4 347.4 319.4 341.5C319.7 343.8 320.5 346 321.7 348.2C324.4 351.9 328.4 355.3 333.5 358.1C344 364 357.8 366.8 371.5 366.5C385.2 366.3 398.9 363 409.3 356.8C414.7 353.6 418.7 349.8 421.4 345.8C422.5 343.6 423.1 341.4 423.3 339.2C421.7 345.4 416.7 351.2 408.9 355.9Z" fill="#FFDD23"/>
<path d="M440.9 319.1V319.5C440.9 320 440.9 320.5 440.8 321.1C440.6 323.3 440 325.6 438.9 327.7C436.6 332.5 432.2 337 425.8 340.8C405.6 352.9 372.6 353.5 352.1 342C346 338.6 341.6 334.4 339.1 330C337.9 327.8 337.1 325.6 336.8 323.3C336.7 322.7 336.6 322.1 336.6 321.5V321.1L336.5 318.5V317.2L336.4 314.2L336.3 307.5C336.5 315.2 341.6 322.7 351.8 328.4C372.3 339.8 405.3 339.3 425.5 327.2C435.7 321.1 440.7 313.2 440.5 305.5L440.6 312.1L440.7 315.2V316.4L440.9 319.1Z" fill="#FFB600"/>
<path d="M351.4 285.699C331.2 297.799 331.4 316.999 351.9 328.399C372.4 339.799 405.4 339.299 425.6 327.199C445.8 315.099 445.6 295.899 425.1 284.499C404.6 272.999 371.6 273.599 351.4 285.699Z" fill="#FFDD23"/>
<path d="M432.1 308.1C431.3 313.8 427.1 319.4 419.7 323.9C402.7 334.1 375 334.6 357.8 324.9C350.3 320.7 346 315.3 345 309.7C343.7 302.4 347.8 294.8 357.4 289.1C374.4 278.9 402.1 278.4 419.3 288.1C428.8 293.4 433.1 300.8 432.1 308.1Z" fill="#FF9800"/>
<path d="M432.1 308.099C431.3 313.799 427.1 319.399 419.7 323.899C402.7 334.099 375 334.599 357.8 324.899C350.3 320.699 346 315.299 345 309.699C345.8 303.999 350 298.399 357.4 293.899C374.4 283.699 402.1 283.199 419.3 292.899C426.8 296.999 431.1 302.399 432.1 308.099Z" fill="#FFC300"/>
<path d="M415.9 293.398L416 296.898L410.2 300.398L410.1 296.798L415.9 293.398ZM416.7 302.698V306.298L408.3 309.298V305.798L416.7 302.698ZM391 303.698L390.9 300.198C390.9 299.998 390.9 299.798 391 299.598C391.2 299.198 391.6 298.798 392.2 298.498C393.2 297.898 394.3 297.698 395.7 297.798C397.1 297.898 398.7 298.398 400.5 299.398C402.3 300.398 403.9 301.498 405.2 302.598C406.5 303.698 407.5 304.798 408.2 305.798V309.298C407.5 308.298 406.5 307.198 405.2 306.098C403.9 304.998 402.4 303.898 400.5 302.898C398.7 301.898 397.1 301.298 395.7 301.298C394.3 301.198 393.1 301.498 392.2 301.998C391.6 302.398 391.2 302.698 391 303.098V303.698Z" fill="#FF9800"/>
<mask id="mask8_110_1153" style="mask-type:luminance" maskUnits="userSpaceOnUse" x="390" y="297" width="19" height="13">
<path d="M391 303.7L390.9 300.2C390.9 300 390.9 299.8 391 299.6C391.2 299.2 391.6 298.8 392.2 298.5C393.2 297.9 394.3 297.7 395.7 297.8C397.1 297.9 398.7 298.4 400.5 299.4C402.3 300.4 403.9 301.5 405.2 302.6C406.5 303.7 407.5 304.8 408.2 305.8V309.3C407.5 308.3 406.5 307.2 405.2 306.1C403.9 305 402.4 303.9 400.5 302.9C398.7 301.9 397.1 301.3 395.7 301.3C394.3 301.2 393.1 301.5 392.2 302C391.6 302.4 391.2 302.7 391 303.1V303.7Z" fill="white"/>
</mask>
<g mask="url(#mask8_110_1153)">
<path d="M408.3 305.8V309.3C407.6 308.3 406.6 307.2 405.3 306.1C404 305 402.5 303.9 400.6 302.9C398.8 301.9 397.2 301.3 395.8 301.3C394.4 301.2 393.2 301.5 392.3 302C391.7 302.4 391.3 302.7 391.1 303.1C391 303.3 391 303.5 391 303.7L390.9 300.2C390.9 300 390.9 299.8 391 299.6C391.2 299.2 391.6 298.8 392.2 298.5C393.2 297.9 394.3 297.7 395.7 297.8C397.1 297.9 398.7 298.4 400.5 299.4C402.3 300.4 403.9 301.5 405.2 302.6C406.5 303.7 407.5 304.8 408.3 305.8Z" fill="#FF9800"/>
</g>
<path d="M386.2 311.599V315.099C386.2 314.799 386.1 314.399 386 314.099C385.8 313.499 385.3 312.799 384.7 311.999C384.1 311.199 383.4 310.299 382.5 309.299C381.7 308.299 381 307.399 380.3 306.399C379.6 305.399 379.2 304.399 379 303.399C379 303.199 378.9 302.899 378.9 302.699V299.199C378.9 299.399 378.9 299.699 379 299.899C379.2 300.899 379.6 301.899 380.3 302.899C381 303.899 381.7 304.899 382.5 305.799C383.3 306.799 384.1 307.699 384.7 308.499C385.3 309.299 385.7 309.999 386 310.599C386.1 310.999 386.2 311.299 386.2 311.599Z" fill="#FF9800"/>
<mask id="mask9_110_1153" style="mask-type:luminance" maskUnits="userSpaceOnUse" x="378" y="299" width="9" height="17">
<path d="M386.2 311.599V315.099C386.2 314.799 386.1 314.399 386 314.099C385.8 313.499 385.3 312.799 384.7 311.999C384.1 311.199 383.4 310.299 382.5 309.299C381.7 308.299 381 307.399 380.3 306.399C379.6 305.399 379.2 304.399 379 303.399C379 303.199 378.9 302.899 378.9 302.699V299.199C378.9 299.399 378.9 299.699 379 299.899C379.2 300.899 379.6 301.899 380.3 302.899C381 303.899 381.7 304.899 382.5 305.799C383.3 306.799 384.1 307.699 384.7 308.499C385.3 309.299 385.7 309.999 386 310.599C386.1 310.999 386.2 311.299 386.2 311.599Z" fill="white"/>
</mask>
<g mask="url(#mask9_110_1153)">
<path d="M386.2 311.599V315.099C386.2 314.799 386.1 314.399 386 314.099C385.8 313.499 385.3 312.799 384.7 311.999C384.1 311.199 383.4 310.299 382.5 309.299C381.7 308.299 381 307.399 380.3 306.399C379.6 305.399 379.2 304.399 379 303.399C379 303.199 378.9 302.899 378.9 302.699V299.199C378.9 299.399 378.9 299.699 379 299.899C379.2 300.899 379.6 301.899 380.3 302.899C381 303.899 381.7 304.899 382.5 305.799C383.3 306.799 384.1 307.699 384.7 308.499C385.3 309.299 385.7 309.999 386 310.599C386.1 310.999 386.2 311.299 386.2 311.599Z" fill="#FF9800"/>
</g>
<path d="M366.1 315.1V318.6C363.5 316.9 361.7 315.4 360.6 314.1C359.5 312.8 358.7 311.8 358.3 311V307.5C358.7 308.2 359.5 309.2 360.6 310.6C361.8 311.9 363.6 313.4 366.1 315.1Z" fill="#FF9800"/>
<mask id="mask10_110_1153" style="mask-type:luminance" maskUnits="userSpaceOnUse" x="358" y="307" width="9" height="12">
<path d="M366.1 315.1V318.6C363.5 316.9 361.7 315.4 360.6 314.1C359.5 312.8 358.7 311.8 358.3 311V307.5C358.7 308.2 359.5 309.2 360.6 310.6C361.8 311.9 363.6 313.4 366.1 315.1Z" fill="white"/>
</mask>
<g mask="url(#mask10_110_1153)">
<path d="M366.1 315.1V318.6C363.5 316.9 361.7 315.4 360.6 314.1C359.5 312.8 358.7 311.8 358.3 311V307.5C358.7 308.2 359.5 309.2 360.6 310.6C361.8 311.9 363.6 313.4 366.1 315.1Z" fill="#FF9800"/>
</g>
<path d="M397.9 312.6V316.1C397.9 317 397.7 318 397.1 318.9C396.5 320 395.3 321 393.7 322C392.6 322.7 391.3 323.2 389.9 323.7C388.5 324.2 386.9 324.5 385.2 324.6C383.5 324.7 381.6 324.6 379.7 324.3C377.8 324 375.7 323.4 373.6 322.6V319.1C375.8 320 377.8 320.5 379.7 320.8C381.6 321.1 383.5 321.2 385.2 321.1C386.9 321 388.5 320.7 389.9 320.2C391.3 319.7 392.6 319.2 393.7 318.5C395.3 317.5 396.5 316.5 397.1 315.4C397.6 314.4 397.9 313.5 397.9 312.6Z" fill="#FF9800"/>
<mask id="mask11_110_1153" style="mask-type:luminance" maskUnits="userSpaceOnUse" x="373" y="312" width="25" height="13">
<path d="M397.9 312.6V316.1C397.9 317 397.7 318 397.1 318.9C396.5 320 395.3 321 393.7 322C392.6 322.7 391.3 323.2 389.9 323.7C388.5 324.2 386.9 324.5 385.2 324.6C383.5 324.7 381.6 324.6 379.7 324.3C377.8 324 375.7 323.4 373.6 322.6V319.1C375.8 320 377.8 320.5 379.7 320.8C381.6 321.1 383.5 321.2 385.2 321.1C386.9 321 388.5 320.7 389.9 320.2C391.3 319.7 392.6 319.2 393.7 318.5C395.3 317.5 396.5 316.5 397.1 315.4C397.6 314.4 397.9 313.5 397.9 312.6Z" fill="white"/>
</mask>
<g mask="url(#mask11_110_1153)">
<path d="M397.9 312.6V316.1C397.9 317 397.7 318 397.1 318.9C396.5 320 395.3 321 393.7 322C392.6 322.7 391.3 323.2 389.9 323.7C388.5 324.2 386.9 324.5 385.2 324.6C383.5 324.7 381.6 324.6 379.7 324.3C377.8 324 375.7 323.4 373.6 322.6V319.1C375.8 320 377.8 320.5 379.7 320.8C381.6 321.1 383.5 321.2 385.2 321.1C386.9 321 388.5 320.7 389.9 320.2C391.3 319.7 392.6 319.2 393.7 318.5C395.3 317.5 396.5 316.5 397.1 315.4C397.6 314.4 397.9 313.5 397.9 312.6Z" fill="#FF9800"/>
</g>
<path d="M373.5 319L373.6 322.5L366.8 326.6L366.7 323.1L373.5 319Z" fill="#FF9800"/>
<path d="M415.9 293.398L410.1 296.898C411.9 298.098 413.3 299.198 414.4 300.198C415.5 301.198 416.2 302.098 416.7 302.798L408.3 305.798C407.6 304.798 406.6 303.698 405.3 302.598C404 301.498 402.5 300.398 400.6 299.398C398.8 298.398 397.2 297.798 395.8 297.798C394.4 297.698 393.2 297.998 392.3 298.498C391.7 298.898 391.3 299.198 391.1 299.598C390.9 299.998 390.9 300.398 391.1 300.898C391.3 301.398 391.6 301.998 392.1 302.598C392.6 303.198 393.2 303.998 393.9 304.798C395 306.098 395.9 307.298 396.6 308.598C397.3 309.798 397.8 310.998 397.9 312.098C398 313.198 397.8 314.298 397.2 315.398C396.6 316.498 395.4 317.498 393.8 318.498C392.7 319.198 391.4 319.698 390 320.198C388.6 320.698 387 320.998 385.3 321.098C383.6 321.198 381.7 321.098 379.8 320.798C377.9 320.498 375.8 319.898 373.7 319.098L366.9 323.198L359.7 319.198L366.3 315.198C363.7 313.498 361.9 311.998 360.8 310.698C359.7 309.398 358.9 308.398 358.5 307.598L367.3 305.098C368 306.198 369 307.398 370.3 308.798C371.6 310.098 373.3 311.398 375.4 312.498C377.7 313.798 379.6 314.498 381.1 314.598C382.6 314.698 383.9 314.398 385 313.698C385.7 313.298 386.1 312.798 386.3 312.298C386.5 311.798 386.4 311.298 386.2 310.698C386 310.098 385.5 309.398 384.9 308.598C384.3 307.798 383.6 306.898 382.7 305.898C381.9 304.898 381.2 303.998 380.5 302.998C379.8 301.998 379.4 300.998 379.2 299.998C379 298.998 379.2 297.998 379.7 296.998C380.2 295.998 381.3 294.998 382.9 293.998C384.1 293.298 385.5 292.698 387 292.198C388.5 291.698 390.1 291.398 391.8 291.298C393.5 291.198 395.3 291.198 397.1 291.498C399 291.798 400.9 292.298 402.9 292.998L408.9 289.398L415.9 293.398Z" fill="#FFDD23"/>
<path d="M366.7 323.1L366.8 326.6L359.6 322.6L359.5 319.1L366.7 323.1Z" fill="#FF9800"/>
<path d="M440.8 316.4C439.3 322.8 434.2 328.8 426.2 333.6C405.7 345.9 372.2 346.5 351.4 334.9C343.5 330.5 338.3 324.8 336.5 318.6L336.6 321.2V321.6C339 326.9 343.9 331.8 350.9 335.7C361.4 341.6 375.2 344.4 388.9 344.1C402.6 343.9 416.3 340.6 426.7 334.4C433.7 330.2 438.6 325 440.8 319.5V316.4ZM350.8 331.4C361.3 337.3 375.1 340.1 388.8 339.8C402.5 339.6 416.2 336.3 426.6 330.1C433.6 325.9 438.4 320.7 440.7 315.2L440.6 312.1C439 318.5 434 324.4 426 329.2C405.5 341.5 372 342.1 351.2 330.5C343.3 326.1 338.1 320.4 336.3 314.2L336.4 317.2C339 322.6 343.8 327.5 350.8 331.4ZM426.3 337.9C405.8 350.2 372.3 350.8 351.5 339.2C343.8 334.9 338.8 329.4 336.8 323.5C337.1 325.8 337.9 328 339.1 330.2C341.8 333.9 345.8 337.3 350.9 340.1C361.4 346 375.2 348.8 388.9 348.5C402.6 348.3 416.3 345 426.7 338.8C432.1 335.6 436.1 331.8 438.8 327.8C439.9 325.6 440.5 323.4 440.7 321.2C439.1 327.4 434.1 333.2 426.3 337.9Z" fill="#FFDD23"/>
<path d="M438.2 302V302.4C438.2 302.9 438.2 303.4 438.1 304C437.9 306.2 437.3 308.5 436.2 310.6C433.9 315.4 429.5 319.9 423.1 323.7C402.9 335.8 369.9 336.4 349.4 324.9C343.3 321.5 338.9 317.3 336.4 312.9C335.2 310.7 334.4 308.5 334.1 306.2C334 305.6 333.9 305 333.9 304.4V304L333.8 301.4V300.1L333.7 297.1L333.6 290.4C333.8 298.1 338.9 305.6 349.1 311.3C369.6 322.7 402.6 322.2 422.8 310.1C433 304 438 296.1 437.8 288.4L437.9 295L438 298.1V299.3L438.2 302Z" fill="#FFB600"/>
<path d="M348.7 268.7C328.5 280.8 328.7 300 349.2 311.4C369.7 322.8 402.7 322.3 422.9 310.2C443.1 298.1 442.9 278.9 422.4 267.5C401.9 256 368.9 256.5 348.7 268.7Z" fill="#FFDD23"/>
<path d="M429.4 291C428.6 296.7 424.4 302.3 417 306.8C400 317 372.3 317.5 355.1 307.8C347.6 303.6 343.3 298.2 342.3 292.6C341 285.3 345.1 277.7 354.7 272C371.7 261.8 399.4 261.3 416.6 271C426.2 276.3 430.5 283.7 429.4 291Z" fill="#FF9800"/>
<path d="M429.4 290.999C428.6 296.699 424.4 302.299 417 306.799C400 316.999 372.3 317.499 355.1 307.799C347.6 303.599 343.3 298.199 342.3 292.599C343.1 286.899 347.3 281.299 354.7 276.799C371.7 266.599 399.4 266.099 416.6 275.799C424.2 279.899 428.4 285.299 429.4 290.999Z" fill="#FFC300"/>
<path d="M413.3 276.301V279.801L407.5 283.301V279.801L413.3 276.301ZM414 285.701L414.1 289.201L405.7 292.201L405.6 288.701L414 285.701ZM388.3 286.601V283.101C388.3 282.901 388.3 282.701 388.4 282.501C388.6 282.101 389 281.701 389.6 281.401C390.6 280.801 391.7 280.601 393.1 280.701C394.5 280.801 396.1 281.301 397.9 282.301C399.7 283.301 401.3 284.401 402.6 285.501C403.9 286.601 404.9 287.701 405.6 288.701V292.201C404.9 291.201 403.9 290.101 402.6 289.001C401.3 287.901 399.8 286.801 397.9 285.801C396.1 284.801 394.5 284.201 393.1 284.201C391.7 284.101 390.5 284.401 389.6 284.901C389 285.301 388.6 285.601 388.4 286.001C388.4 286.201 388.3 286.401 388.3 286.601Z" fill="#FF9800"/>
<mask id="mask12_110_1153" style="mask-type:luminance" maskUnits="userSpaceOnUse" x="388" y="280" width="18" height="13">
<path d="M388.3 286.6V283.1C388.3 282.9 388.3 282.7 388.4 282.5C388.6 282.1 389 281.7 389.6 281.4C390.6 280.8 391.7 280.6 393.1 280.7C394.5 280.8 396.1 281.3 397.9 282.3C399.7 283.3 401.3 284.4 402.6 285.5C403.9 286.6 404.9 287.7 405.6 288.7V292.2C404.9 291.2 403.9 290.1 402.6 289C401.3 287.9 399.8 286.8 397.9 285.8C396.1 284.8 394.5 284.2 393.1 284.2C391.7 284.1 390.5 284.4 389.6 284.9C389 285.3 388.6 285.6 388.4 286C388.4 286.2 388.3 286.4 388.3 286.6Z" fill="white"/>
</mask>
<g mask="url(#mask12_110_1153)">
<path d="M405.6 288.7L405.7 292.2C405 291.2 404 290.1 402.7 289C401.4 287.9 399.9 286.8 398 285.8C396.2 284.8 394.6 284.2 393.2 284.2C391.8 284.1 390.6 284.4 389.7 284.9C389.1 285.3 388.7 285.6 388.5 286C388.4 286.2 388.4 286.4 388.4 286.6V283.1C388.4 282.9 388.4 282.7 388.5 282.5C388.7 282.1 389.1 281.7 389.7 281.4C390.7 280.8 391.8 280.6 393.2 280.7C394.6 280.8 396.2 281.3 398 282.3C399.8 283.3 401.4 284.4 402.7 285.5C403.9 286.6 404.9 287.7 405.6 288.7Z" fill="#FF9800"/>
</g>
<path d="M383.6 294.599V298.099C383.6 297.799 383.5 297.399 383.4 297.099C383.2 296.499 382.7 295.799 382.1 294.999C381.5 294.199 380.8 293.299 379.9 292.299C379.1 291.299 378.4 290.399 377.7 289.399C377 288.399 376.6 287.399 376.4 286.399C376.4 286.199 376.3 285.899 376.3 285.699L376.2 282.199C376.2 282.399 376.2 282.699 376.3 282.899C376.5 283.899 376.9 284.899 377.6 285.899C378.3 286.899 379 287.899 379.8 288.799C380.6 289.799 381.4 290.699 382 291.499C382.6 292.299 383 292.999 383.3 293.599C383.5 293.899 383.6 294.199 383.6 294.599Z" fill="#FF9800"/>
<mask id="mask13_110_1153" style="mask-type:luminance" maskUnits="userSpaceOnUse" x="376" y="282" width="8" height="17">
<path d="M383.6 294.599V298.099C383.6 297.799 383.5 297.399 383.4 297.099C383.2 296.499 382.7 295.799 382.1 294.999C381.5 294.199 380.8 293.299 379.9 292.299C379.1 291.299 378.4 290.399 377.7 289.399C377 288.399 376.6 287.399 376.4 286.399C376.4 286.199 376.3 285.899 376.3 285.699L376.2 282.199C376.2 282.399 376.2 282.699 376.3 282.899C376.5 283.899 376.9 284.899 377.6 285.899C378.3 286.899 379 287.899 379.8 288.799C380.6 289.799 381.4 290.699 382 291.499C382.6 292.299 383 292.999 383.3 293.599C383.5 293.899 383.6 294.199 383.6 294.599Z" fill="white"/>
</mask>
<g mask="url(#mask13_110_1153)">
<path d="M383.6 294.599V298.099C383.6 297.799 383.5 297.399 383.4 297.099C383.2 296.499 382.7 295.799 382.1 294.999C381.5 294.199 380.8 293.299 379.9 292.299C379.1 291.299 378.4 290.399 377.7 289.399C377 288.399 376.6 287.399 376.4 286.399C376.4 286.199 376.3 285.899 376.3 285.699L376.2 282.199C376.2 282.399 376.2 282.699 376.3 282.899C376.5 283.899 376.9 284.899 377.6 285.899C378.3 286.899 379 287.899 379.8 288.799C380.6 289.799 381.4 290.699 382 291.499C382.6 292.299 383 292.999 383.3 293.599C383.5 293.899 383.6 294.199 383.6 294.599Z" fill="#FF9800"/>
</g>
<path d="M363.5 298V301.5C360.9 299.8 359.1 298.3 358 297C356.9 295.7 356.1 294.7 355.7 293.9V290.4C356.1 291.1 356.9 292.1 358 293.5C359.1 294.8 360.9 296.3 363.5 298Z" fill="#FF9800"/>
<mask id="mask14_110_1153" style="mask-type:luminance" maskUnits="userSpaceOnUse" x="355" y="290" width="9" height="12">
<path d="M363.5 298V301.5C360.9 299.8 359.1 298.3 358 297C356.9 295.7 356.1 294.7 355.7 293.9V290.4C356.1 291.1 356.9 292.1 358 293.5C359.1 294.8 360.9 296.3 363.5 298Z" fill="white"/>
</mask>
<g mask="url(#mask14_110_1153)">
<path d="M363.5 298V301.5C360.9 299.8 359.1 298.3 358 297C356.9 295.7 356.1 294.7 355.7 293.9V290.4C356.1 291.1 356.9 292.1 358 293.5C359.1 294.8 360.9 296.3 363.5 298Z" fill="#FF9800"/>
</g>
<path d="M395.2 295.5V299C395.2 299.9 395 300.9 394.4 301.8C393.8 302.9 392.6 303.9 391 304.9C389.9 305.6 388.6 306.1 387.2 306.6C385.8 307.1 384.2 307.4 382.5 307.5C380.8 307.6 378.9 307.5 377 307.2C375.1 306.9 373 306.3 370.9 305.5L370.8 302C373 302.9 375 303.4 376.9 303.7C378.8 304 380.7 304.1 382.4 304C384.1 303.9 385.7 303.6 387.1 303.1C388.5 302.6 389.8 302.1 390.9 301.4C392.5 300.4 393.7 299.4 394.3 298.3C395 297.4 395.2 296.4 395.2 295.5Z" fill="#FF9800"/>
<mask id="mask15_110_1153" style="mask-type:luminance" maskUnits="userSpaceOnUse" x="370" y="295" width="26" height="13">
<path d="M395.2 295.5V299C395.2 299.9 395 300.9 394.4 301.8C393.8 302.9 392.6 303.9 391 304.9C389.9 305.6 388.6 306.1 387.2 306.6C385.8 307.1 384.2 307.4 382.5 307.5C380.8 307.6 378.9 307.5 377 307.2C375.1 306.9 373 306.3 370.9 305.5L370.8 302C373 302.9 375 303.4 376.9 303.7C378.8 304 380.7 304.1 382.4 304C384.1 303.9 385.7 303.6 387.1 303.1C388.5 302.6 389.8 302.1 390.9 301.4C392.5 300.4 393.7 299.4 394.3 298.3C395 297.4 395.2 296.4 395.2 295.5V295.5Z" fill="white"/>
</mask>
<g mask="url(#mask15_110_1153)">
<path d="M395.2 295.5V299C395.2 299.9 395 300.9 394.4 301.8C393.8 302.9 392.6 303.9 391 304.9C389.9 305.6 388.6 306.1 387.2 306.6C385.8 307.1 384.2 307.4 382.5 307.5C380.8 307.6 378.9 307.5 377 307.2C375.1 306.9 373 306.3 370.9 305.5L370.8 302C373 302.9 375 303.4 376.9 303.7C378.8 304 380.7 304.1 382.4 304C384.1 303.9 385.7 303.6 387.1 303.1C388.5 302.6 389.8 302.1 390.9 301.4C392.5 300.4 393.7 299.4 394.3 298.3C395 297.4 395.2 296.4 395.2 295.5Z" fill="#FF9800"/>
</g>
<path d="M370.9 301.9V305.4L364.1 309.5V306L370.9 301.9Z" fill="#FF9800"/>
<path d="M413.3 276.301L407.5 279.801C409.3 281.001 410.7 282.101 411.8 283.101C412.9 284.101 413.6 285.001 414.1 285.701L405.7 288.701C405 287.701 404 286.601 402.7 285.501C401.4 284.401 399.9 283.301 398 282.301C396.2 281.301 394.6 280.701 393.2 280.701C391.8 280.601 390.6 280.901 389.7 281.401C389.1 281.801 388.7 282.101 388.5 282.501C388.3 282.901 388.3 283.301 388.5 283.801C388.7 284.301 389 284.901 389.5 285.501C390 286.101 390.6 286.901 391.3 287.701C392.4 289.001 393.3 290.201 394 291.501C394.7 292.701 395.2 293.901 395.3 295.001C395.4 296.101 395.2 297.201 394.6 298.301C394 299.401 392.8 300.401 391.2 301.401C390.1 302.101 388.8 302.601 387.4 303.101C386 303.601 384.4 303.901 382.7 304.001C381 304.101 379.1 304.001 377.2 303.701C375.3 303.401 373.2 302.801 371.1 302.001L364.3 306.101L357.1 302.101L363.7 298.101C361.1 296.401 359.3 294.901 358.2 293.601C357.1 292.301 356.3 291.301 355.9 290.501L364.7 288.001C365.4 289.101 366.4 290.301 367.7 291.701C369 293.001 370.7 294.301 372.8 295.401C375.1 296.701 377 297.401 378.5 297.501C380 297.601 381.3 297.301 382.4 296.601C383.1 296.201 383.5 295.701 383.7 295.201C383.9 294.701 383.8 294.201 383.6 293.601C383.4 293.001 382.9 292.301 382.3 291.501C381.7 290.701 381 289.801 380.1 288.801C379.3 287.801 378.6 286.901 377.9 285.901C377.2 284.901 376.8 283.901 376.6 282.901C376.4 281.901 376.6 280.901 377.1 279.901C377.6 278.901 378.7 277.901 380.3 276.901C381.5 276.201 382.9 275.601 384.4 275.101C385.9 274.601 387.5 274.301 389.2 274.201C390.9 274.101 392.7 274.101 394.5 274.401C396.4 274.701 398.3 275.201 400.3 275.901L406.3 272.301L413.3 276.301Z" fill="#FFDD23"/>
<path d="M364.1 306V309.5L356.9 305.5V302L364.1 306Z" fill="#FF9800"/>
<path d="M438.1 299.3C436.6 305.7 431.5 311.7 423.5 316.5C403 328.8 369.5 329.4 348.7 317.8C340.8 313.4 335.7 307.7 333.8 301.5L333.9 304.1V304.5C336.3 309.8 341.2 314.7 348.2 318.6C358.7 324.5 372.5 327.3 386.2 327C399.9 326.8 413.6 323.5 424 317.3C431 313.1 435.9 307.9 438.1 302.4V299.3ZM348.2 314.3C358.7 320.2 372.5 323 386.2 322.7C399.9 322.5 413.6 319.2 424 313C431 308.8 435.8 303.6 438.1 298.1L438 295C436.4 301.4 431.4 307.3 423.4 312.1C402.9 324.4 369.4 325 348.6 313.4C340.7 309 335.5 303.3 333.7 297.1L333.8 300.1C336.3 305.5 341.2 310.4 348.2 314.3ZM423.6 320.8C403.1 333.1 369.6 333.7 348.8 322.1C341.1 317.8 336.1 312.3 334.1 306.4C334.4 308.7 335.2 310.9 336.4 313.1C339.1 316.8 343.1 320.2 348.2 323C358.7 328.9 372.5 331.7 386.2 331.4C399.9 331.2 413.6 327.9 424 321.7C429.4 318.5 433.4 314.7 436.1 310.7C437.2 308.5 437.8 306.3 438 304.1C436.5 310.3 431.5 316.1 423.6 320.8Z" fill="#FFDD23"/>
<path d="M440.5 286.901V287.301C440.5 287.801 440.5 288.301 440.4 288.901C440.2 291.101 439.6 293.401 438.5 295.501C436.2 300.301 431.8 304.801 425.4 308.601C405.2 320.701 372.2 321.301 351.7 309.801C345.6 306.401 341.2 302.201 338.7 297.801C337.5 295.601 336.7 293.401 336.4 291.101C336.3 290.501 336.2 289.901 336.2 289.301V288.901L336.1 286.301V285.001L336 282.001L335.9 275.301C336.1 283.001 341.2 290.501 351.4 296.201C371.9 307.601 404.9 307.101 425.1 295.001C435.3 288.901 440.3 281.001 440.1 273.301L440.2 279.901L440.3 283.001V284.201L440.5 286.901Z" fill="#FFB600"/>
<path d="M351.1 253.501C330.9 265.601 331.1 284.801 351.6 296.201C372.1 307.601 405.1 307.101 425.3 295.001C445.5 282.901 445.3 263.701 424.8 252.301C404.3 240.801 371.3 241.301 351.1 253.501Z" fill="#FFDD23"/>
<path d="M431.8 275.801C431 281.501 426.8 287.101 419.4 291.601C402.4 301.801 374.7 302.301 357.5 292.601C350 288.401 345.7 283.001 344.7 277.401C343.4 270.101 347.5 262.501 357.1 256.801C374.1 246.601 401.8 246.101 419 255.801C428.5 261.101 432.8 268.501 431.8 275.801Z" fill="#FF9800"/>
<path d="M431.8 275.8C431 281.5 426.8 287.1 419.4 291.6C402.4 301.8 374.7 302.3 357.5 292.6C350 288.4 345.7 283 344.7 277.4C345.5 271.7 349.7 266.1 357.1 261.6C374.1 251.4 401.8 250.9 419 260.6C426.5 264.8 430.7 270.2 431.8 275.8Z" fill="#FFC300"/>
<path d="M415.6 261.102V264.602L409.9 268.102L409.8 264.602L415.6 261.102ZM416.4 270.502V274.002L408 277.102L407.9 273.502L416.4 270.502ZM390.6 271.402L390.5 267.902C390.5 267.702 390.5 267.502 390.6 267.302C390.8 266.902 391.2 266.502 391.8 266.202C392.8 265.602 393.9 265.402 395.3 265.502C396.7 265.602 398.3 266.102 400.1 267.102C401.9 268.102 403.5 269.202 404.8 270.302C406.1 271.402 407.1 272.502 407.8 273.502V277.002C407.1 276.002 406.1 274.902 404.8 273.802C403.5 272.702 402 271.602 400.1 270.602C398.3 269.602 396.7 269.002 395.3 269.002C393.9 268.902 392.7 269.202 391.8 269.702C391.2 270.102 390.8 270.402 390.6 270.802C390.7 271.002 390.6 271.202 390.6 271.402Z" fill="#FF9800"/>
<mask id="mask16_110_1153" style="mask-type:luminance" maskUnits="userSpaceOnUse" x="390" y="265" width="18" height="13">
<path d="M390.6 271.401L390.5 267.901C390.5 267.701 390.5 267.501 390.6 267.301C390.8 266.901 391.2 266.501 391.8 266.201C392.8 265.601 393.9 265.401 395.3 265.501C396.7 265.601 398.3 266.101 400.1 267.101C401.9 268.101 403.5 269.201 404.8 270.301C406.1 271.401 407.1 272.501 407.8 273.501V277.001C407.1 276.001 406.1 274.901 404.8 273.801C403.5 272.701 402 271.601 400.1 270.601C398.3 269.601 396.7 269.001 395.3 269.001C393.9 268.901 392.7 269.201 391.8 269.701C391.2 270.101 390.8 270.401 390.6 270.801C390.7 271.001 390.6 271.201 390.6 271.401Z" fill="white"/>
</mask>
<g mask="url(#mask16_110_1153)">
<path d="M407.9 273.501V277.001C407.2 276.001 406.2 274.901 404.9 273.801C403.6 272.701 402.1 271.601 400.2 270.601C398.4 269.601 396.8 269.001 395.4 269.001C394 268.901 392.8 269.201 391.9 269.701C391.3 270.101 390.9 270.401 390.7 270.801C390.6 271.001 390.6 271.201 390.6 271.401L390.5 267.901C390.5 267.701 390.5 267.501 390.6 267.301C390.8 266.901 391.2 266.501 391.8 266.201C392.8 265.601 393.9 265.401 395.3 265.501C396.7 265.601 398.3 266.101 400.1 267.101C401.9 268.101 403.5 269.201 404.8 270.301C406.2 271.501 407.2 272.501 407.9 273.501Z" fill="#FF9800"/>
</g>
<path d="M385.9 279.4V282.9C385.9 282.6 385.8 282.2 385.7 281.9C385.5 281.3 385 280.6 384.4 279.8C383.8 279 383.1 278.1 382.2 277.1C381.4 276.1 380.7 275.2 380 274.2C379.3 273.2 378.9 272.2 378.7 271.2C378.7 271 378.6 270.7 378.6 270.5V267C378.6 267.2 378.6 267.5 378.7 267.7C378.9 268.7 379.3 269.7 380 270.7C380.7 271.7 381.4 272.7 382.2 273.6C383 274.6 383.8 275.5 384.4 276.3C385 277.1 385.4 277.8 385.7 278.4C385.8 278.7 385.9 279.1 385.9 279.4Z" fill="#FF9800"/>
<mask id="mask17_110_1153" style="mask-type:luminance" maskUnits="userSpaceOnUse" x="378" y="267" width="8" height="16">
<path d="M385.9 279.4V282.9C385.9 282.6 385.8 282.2 385.7 281.9C385.5 281.3 385 280.6 384.4 279.8C383.8 279 383.1 278.1 382.2 277.1C381.4 276.1 380.7 275.2 380 274.2C379.3 273.2 378.9 272.2 378.7 271.2C378.7 271 378.6 270.7 378.6 270.5V267C378.6 267.2 378.6 267.5 378.7 267.7C378.9 268.7 379.3 269.7 380 270.7C380.7 271.7 381.4 272.7 382.2 273.6C383 274.6 383.8 275.5 384.4 276.3C385 277.1 385.4 277.8 385.7 278.4C385.8 278.7 385.9 279.1 385.9 279.4Z" fill="white"/>
</mask>
<g mask="url(#mask17_110_1153)">
<path d="M385.9 279.4V282.9C385.9 282.6 385.8 282.2 385.7 281.9C385.5 281.3 385 280.6 384.4 279.8C383.8 279 383.1 278.1 382.2 277.1C381.4 276.1 380.7 275.2 380 274.2C379.3 273.2 378.9 272.2 378.7 271.2C378.7 271 378.6 270.7 378.6 270.5V267C378.6 267.2 378.6 267.5 378.7 267.7C378.9 268.7 379.3 269.7 380 270.7C380.7 271.7 381.4 272.7 382.2 273.6C383 274.6 383.8 275.5 384.4 276.3C385 277.1 385.4 277.8 385.7 278.4C385.8 278.7 385.9 279.1 385.9 279.4Z" fill="#FF9800"/>
</g>
<path d="M365.8 282.801V286.301C363.2 284.601 361.4 283.101 360.3 281.801C359.2 280.501 358.4 279.501 358 278.701V275.201C358.4 275.901 359.2 276.901 360.3 278.301C361.4 279.701 363.3 281.201 365.8 282.801Z" fill="#FF9800"/>
<mask id="mask18_110_1153" style="mask-type:luminance" maskUnits="userSpaceOnUse" x="358" y="275" width="8" height="12">
<path d="M365.8 282.801V286.301C363.2 284.601 361.4 283.101 360.3 281.801C359.2 280.501 358.4 279.501 358 278.701V275.201C358.4 275.901 359.2 276.901 360.3 278.301C361.4 279.701 363.3 281.201 365.8 282.801Z" fill="white"/>
</mask>
<g mask="url(#mask18_110_1153)">
<path d="M365.8 282.801V286.301C363.2 284.601 361.4 283.101 360.3 281.801C359.2 280.501 358.4 279.501 358 278.701V275.201C358.4 275.901 359.2 276.901 360.3 278.301C361.4 279.701 363.3 281.201 365.8 282.801Z" fill="#FF9800"/>
</g>
<path d="M397.6 280.301V283.801C397.6 284.701 397.4 285.701 396.8 286.601C396.2 287.701 395 288.701 393.4 289.701C392.3 290.401 391 290.901 389.6 291.401C388.2 291.901 386.6 292.201 384.9 292.301C383.2 292.401 381.3 292.301 379.4 292.001C377.5 291.701 375.4 291.101 373.3 290.301V286.801C375.5 287.701 377.5 288.201 379.4 288.501C381.3 288.801 383.2 288.901 384.9 288.801C386.6 288.701 388.2 288.401 389.6 287.901C391 287.401 392.3 286.901 393.4 286.201C395 285.201 396.2 284.201 396.8 283.101C397.3 282.201 397.6 281.301 397.6 280.301Z" fill="#FF9800"/>
<mask id="mask19_110_1153" style="mask-type:luminance" maskUnits="userSpaceOnUse" x="373" y="280" width="25" height="13">
<path d="M397.6 280.301V283.801C397.6 284.701 397.4 285.701 396.8 286.601C396.2 287.701 395 288.701 393.4 289.701C392.3 290.401 391 290.901 389.6 291.401C388.2 291.901 386.6 292.201 384.9 292.301C383.2 292.401 381.3 292.301 379.4 292.001C377.5 291.701 375.4 291.101 373.3 290.301V286.801C375.5 287.701 377.5 288.201 379.4 288.501C381.3 288.801 383.2 288.901 384.9 288.801C386.6 288.701 388.2 288.401 389.6 287.901C391 287.401 392.3 286.901 393.4 286.201C395 285.201 396.2 284.201 396.8 283.101C397.3 282.201 397.6 281.301 397.6 280.301Z" fill="white"/>
</mask>
<g mask="url(#mask19_110_1153)">
<path d="M397.6 280.301V283.801C397.6 284.701 397.4 285.701 396.8 286.601C396.2 287.701 395 288.701 393.4 289.701C392.3 290.401 391 290.901 389.6 291.401C388.2 291.901 386.6 292.201 384.9 292.301C383.2 292.401 381.3 292.301 379.4 292.001C377.5 291.701 375.4 291.101 373.3 290.301V286.801C375.5 287.701 377.5 288.201 379.4 288.501C381.3 288.801 383.2 288.901 384.9 288.801C386.6 288.701 388.2 288.401 389.6 287.901C391 287.401 392.3 286.901 393.4 286.201C395 285.201 396.2 284.201 396.8 283.101C397.3 282.201 397.6 281.301 397.6 280.301Z" fill="#FF9800"/>
</g>
<path d="M373.2 286.701V290.201L366.5 294.301L366.4 290.801L373.2 286.701Z" fill="#FF9800"/>
<path d="M415.6 261.102L409.8 264.602C411.6 265.802 413 266.902 414.1 267.902C415.2 268.902 415.9 269.802 416.4 270.502L408 273.502C407.3 272.502 406.3 271.402 405 270.302C403.7 269.202 402.2 268.102 400.3 267.102C398.5 266.102 396.9 265.502 395.5 265.502C394.1 265.402 392.9 265.702 392 266.202C391.4 266.602 391 266.902 390.8 267.302C390.6 267.702 390.6 268.102 390.8 268.602C391 269.102 391.3 269.702 391.8 270.302C392.3 270.902 392.9 271.702 393.6 272.502C394.7 273.802 395.6 275.002 396.3 276.302C397 277.502 397.5 278.702 397.6 279.802C397.7 280.902 397.5 282.002 396.9 283.102C396.3 284.202 395.1 285.202 393.5 286.202C392.4 286.902 391.1 287.402 389.7 287.902C388.3 288.402 386.7 288.702 385 288.802C383.3 288.902 381.4 288.802 379.5 288.502C377.6 288.202 375.5 287.602 373.4 286.802L366.6 290.902L359.4 286.902L366 282.902C363.4 281.202 361.6 279.702 360.5 278.402C359.4 277.102 358.6 276.102 358.2 275.302L367 272.802C367.7 273.902 368.7 275.102 370 276.502C371.3 277.802 373 279.102 375.1 280.202C377.4 281.502 379.3 282.202 380.8 282.302C382.3 282.402 383.6 282.102 384.7 281.402C385.4 281.002 385.8 280.502 386 280.002C386.2 279.502 386.1 279.002 385.9 278.402C385.7 277.802 385.2 277.102 384.6 276.302C384 275.502 383.3 274.602 382.4 273.602C381.6 272.602 380.9 271.702 380.2 270.702C379.5 269.702 379.1 268.702 378.9 267.702C378.7 266.702 378.9 265.702 379.4 264.702C379.9 263.702 381 262.702 382.6 261.702C383.8 261.002 385.2 260.402 386.7 259.902C388.2 259.402 389.8 259.102 391.5 259.002C393.2 258.902 395 258.902 396.8 259.202C398.7 259.502 400.6 260.002 402.6 260.702L408.6 257.102L415.6 261.102Z" fill="#FFDD23"/>
<path d="M366.4 290.801L366.5 294.301L359.3 290.401L359.2 286.801L366.4 290.801Z" fill="#FF9800"/>
<path d="M440.5 284.101C439 290.501 433.9 296.501 425.9 301.301C405.4 313.601 371.9 314.201 351.1 302.601C343.2 298.201 338 292.501 336.2 286.301L336.3 288.901V289.301C338.7 294.601 343.6 299.501 350.6 303.401C361.1 309.301 374.9 312.101 388.6 311.801C402.3 311.601 416 308.301 426.4 302.101C433.4 297.901 438.3 292.701 440.5 287.201V284.101ZM350.5 299.101C361 305.001 374.8 307.801 388.5 307.501C402.2 307.301 415.9 304.001 426.3 297.801C433.3 293.601 438.1 288.401 440.4 282.901L440.3 279.801C438.7 286.201 433.7 292.101 425.7 296.901C405.2 309.201 371.7 309.801 350.9 298.201C343 293.801 337.8 288.101 336 281.901L336.1 284.901C338.6 290.401 343.5 295.201 350.5 299.101ZM426 305.701C405.5 318.001 372 318.601 351.2 307.001C343.5 302.701 338.5 297.201 336.5 291.301C336.8 293.601 337.6 295.801 338.8 298.001C341.5 301.701 345.5 305.101 350.6 307.901C361.1 313.801 374.9 316.601 388.6 316.301C402.3 316.101 416 312.801 426.4 306.601C431.8 303.401 435.8 299.601 438.5 295.601C439.6 293.401 440.2 291.201 440.4 289.001C438.8 295.101 433.8 300.901 426 305.701Z" fill="#FFDD23"/>
<path d="M437.9 269.801V270.201C437.9 270.701 437.9 271.201 437.8 271.801C437.6 274.001 437 276.301 435.9 278.401C433.6 283.201 429.2 287.701 422.8 291.501C402.6 303.601 369.6 304.201 349.1 292.701C343 289.301 338.6 285.101 336.1 280.701C334.9 278.501 334.1 276.301 333.8 274.001C333.7 273.401 333.6 272.801 333.6 272.201V271.801L333.5 269.201V267.901L333.4 264.901L333.3 258.201C333.5 265.901 338.6 273.401 348.8 279.101C369.3 290.501 402.3 290.001 422.5 277.901C432.7 271.801 437.7 263.901 437.5 256.201L437.6 262.801L437.7 265.901V267.101L437.9 269.801Z" fill="#FFB600"/>
<path d="M348.4 236.4C328.2 248.5 328.4 267.7 348.9 279.1C369.4 290.5 402.4 290 422.6 277.9C442.8 265.8 442.6 246.6 422.1 235.2C401.6 223.7 368.6 224.3 348.4 236.4Z" fill="#FFDD23"/>
<path d="M429.1 258.7C428.3 264.4 424.1 270 416.7 274.5C399.7 284.7 372 285.2 354.8 275.5C347.3 271.3 343 265.9 342 260.3C340.7 253 344.8 245.4 354.4 239.7C371.4 229.5 399.1 229 416.3 238.7C425.9 244.1 430.2 251.5 429.1 258.7Z" fill="#FF9800"/>
<path d="M429.1 258.7C428.3 264.4 424.1 270 416.7 274.5C399.7 284.7 372 285.2 354.8 275.5C347.3 271.3 343 265.9 342 260.3C342.8 254.6 347 249 354.4 244.5C371.4 234.3 399.1 233.8 416.3 243.5C423.8 247.7 428.1 253.1 429.1 258.7Z" fill="#FFC300"/>
<path d="M412.9 244L413 247.5L407.2 251V247.5L412.9 244ZM413.7 253.4L413.8 256.9L405.3 260V256.5L413.7 253.4ZM388 254.4V250.9C388 250.7 388 250.5 388.1 250.3C388.3 249.9 388.7 249.5 389.3 249.2C390.3 248.6 391.4 248.4 392.8 248.5C394.2 248.6 395.8 249.1 397.6 250.1C399.4 251.1 401 252.2 402.3 253.3C403.6 254.4 404.6 255.5 405.3 256.5V260C404.6 259 403.6 257.9 402.3 256.8C401 255.7 399.5 254.6 397.6 253.6C395.8 252.6 394.2 252 392.8 252C391.4 251.9 390.2 252.2 389.3 252.7C388.7 253.1 388.3 253.4 388.1 253.8C388 253.9 388 254.1 388 254.4Z" fill="#FF9800"/>
<mask id="mask20_110_1153" style="mask-type:luminance" maskUnits="userSpaceOnUse" x="388" y="248" width="18" height="13">
<path d="M388 254.401V250.901C388 250.701 388 250.501 388.1 250.301C388.3 249.901 388.7 249.501 389.3 249.201C390.3 248.601 391.4 248.401 392.8 248.501C394.2 248.601 395.8 249.101 397.6 250.101C399.4 251.101 401 252.201 402.3 253.301C403.6 254.401 404.6 255.501 405.3 256.501V260.001C404.6 259.001 403.6 257.901 402.3 256.801C401 255.701 399.5 254.601 397.6 253.601C395.8 252.601 394.2 252.001 392.8 252.001C391.4 251.901 390.2 252.201 389.3 252.701C388.7 253.101 388.3 253.401 388.1 253.801C388 253.901 388 254.101 388 254.401Z" fill="white"/>
</mask>
<g mask="url(#mask20_110_1153)">
<path d="M405.3 256.501V260.001C404.6 259.001 403.6 257.901 402.3 256.801C401 255.701 399.5 254.601 397.6 253.601C395.8 252.601 394.2 252.001 392.8 252.001C391.4 251.901 390.2 252.201 389.3 252.701C388.7 253.101 388.3 253.401 388.1 253.801C388 254.001 388 254.201 388 254.401V250.901C388 250.701 388 250.501 388.1 250.301C388.3 249.901 388.7 249.501 389.3 249.201C390.3 248.601 391.4 248.401 392.8 248.501C394.2 248.601 395.8 249.101 397.6 250.101C399.4 251.101 401 252.201 402.3 253.301C403.5 254.401 404.5 255.401 405.3 256.501Z" fill="#FF9800"/>
</g>
<path d="M383.2 262.3V265.8C383.2 265.5 383.1 265.1 383 264.8C382.8 264.2 382.3 263.5 381.7 262.7C381.1 261.9 380.4 261 379.5 260C378.7 259 378 258.1 377.3 257.1C376.6 256.1 376.2 255.1 376 254.1C376 253.9 375.9 253.6 375.9 253.4L375.8 249.9C375.8 250.1 375.8 250.4 375.9 250.6C376.1 251.6 376.5 252.6 377.2 253.6C377.9 254.6 378.6 255.6 379.4 256.5C380.2 257.5 381 258.4 381.6 259.2C382.2 260 382.6 260.7 382.9 261.3C383.2 261.7 383.2 262 383.2 262.3Z" fill="#FF9800"/>
<mask id="mask21_110_1153" style="mask-type:luminance" maskUnits="userSpaceOnUse" x="375" y="249" width="9" height="17">
<path d="M383.2 262.3V265.8C383.2 265.5 383.1 265.1 383 264.8C382.8 264.2 382.3 263.5 381.7 262.7C381.1 261.9 380.4 261 379.5 260C378.7 259 378 258.1 377.3 257.1C376.6 256.1 376.2 255.1 376 254.1C376 253.9 375.9 253.6 375.9 253.4L375.8 249.9C375.8 250.1 375.8 250.4 375.9 250.6C376.1 251.6 376.5 252.6 377.2 253.6C377.9 254.6 378.6 255.6 379.4 256.5C380.2 257.5 381 258.4 381.6 259.2C382.2 260 382.6 260.7 382.9 261.3C383.2 261.7 383.2 262 383.2 262.3Z" fill="white"/>
</mask>
<g mask="url(#mask21_110_1153)">
<path d="M383.2 262.3V265.8C383.2 265.5 383.1 265.1 383 264.8C382.8 264.2 382.3 263.5 381.7 262.7C381.1 261.9 380.4 261 379.5 260C378.7 259 378 258.1 377.3 257.1C376.6 256.1 376.2 255.1 376 254.1C376 253.9 375.9 253.6 375.9 253.4L375.8 249.9C375.8 250.1 375.8 250.4 375.9 250.6C376.1 251.6 376.5 252.6 377.2 253.6C377.9 254.6 378.6 255.6 379.4 256.5C380.2 257.5 381 258.4 381.6 259.2C382.2 260 382.6 260.7 382.9 261.3C383.2 261.7 383.2 262 383.2 262.3Z" fill="#FF9800"/>
</g>
<path d="M363.2 265.7V269.2C360.6 267.5 358.8 266 357.7 264.7C356.6 263.4 355.8 262.4 355.4 261.6V258.1C355.8 258.8 356.6 259.8 357.7 261.2C358.8 262.6 360.6 264.1 363.2 265.7Z" fill="#FF9800"/>
<mask id="mask22_110_1153" style="mask-type:luminance" maskUnits="userSpaceOnUse" x="355" y="258" width="9" height="12">
<path d="M363.2 265.7V269.2C360.6 267.5 358.8 266 357.7 264.7C356.6 263.4 355.8 262.4 355.4 261.6V258.1C355.8 258.8 356.6 259.8 357.7 261.2C358.8 262.6 360.6 264.1 363.2 265.7Z" fill="white"/>
</mask>
<g mask="url(#mask22_110_1153)">
<path d="M363.2 265.7V269.2C360.6 267.5 358.8 266 357.7 264.7C356.6 263.4 355.8 262.4 355.4 261.6V258.1C355.8 258.8 356.6 259.8 357.7 261.2C358.8 262.6 360.6 264.1 363.2 265.7Z" fill="#FF9800"/>
</g>
<path d="M394.9 263.201V266.701C394.9 267.601 394.7 268.601 394.1 269.501C393.5 270.601 392.3 271.601 390.7 272.601C389.6 273.301 388.3 273.801 386.9 274.301C385.5 274.801 383.9 275.101 382.2 275.201C380.5 275.301 378.6 275.201 376.7 274.901C374.8 274.601 372.7 274.001 370.6 273.201L370.5 269.701C372.7 270.601 374.7 271.101 376.6 271.401C378.5 271.701 380.4 271.801 382.1 271.701C383.8 271.601 385.4 271.301 386.8 270.801C388.2 270.301 389.5 269.801 390.6 269.101C392.2 268.101 393.4 267.101 394 266.001C394.7 265.101 394.9 264.201 394.9 263.201Z" fill="#FF9800"/>
<mask id="mask23_110_1153" style="mask-type:luminance" maskUnits="userSpaceOnUse" x="370" y="263" width="25" height="13">
<path d="M394.9 263.201V266.701C394.9 267.601 394.7 268.601 394.1 269.501C393.5 270.601 392.3 271.601 390.7 272.601C389.6 273.301 388.3 273.801 386.9 274.301C385.5 274.801 383.9 275.101 382.2 275.201C380.5 275.301 378.6 275.201 376.7 274.901C374.8 274.601 372.7 274.001 370.6 273.201L370.5 269.701C372.7 270.601 374.7 271.101 376.6 271.401C378.5 271.701 380.4 271.801 382.1 271.701C383.8 271.601 385.4 271.301 386.8 270.801C388.2 270.301 389.5 269.801 390.6 269.101C392.2 268.101 393.4 267.101 394 266.001C394.7 265.101 394.9 264.201 394.9 263.201V263.201Z" fill="white"/>
</mask>
<g mask="url(#mask23_110_1153)">
<path d="M394.9 263.201V266.701C394.9 267.601 394.7 268.601 394.1 269.501C393.5 270.601 392.3 271.601 390.7 272.601C389.6 273.301 388.3 273.801 386.9 274.301C385.5 274.801 383.9 275.101 382.2 275.201C380.5 275.301 378.6 275.201 376.7 274.901C374.8 274.601 372.7 274.001 370.6 273.201L370.5 269.701C372.7 270.601 374.7 271.101 376.6 271.401C378.5 271.701 380.4 271.801 382.1 271.701C383.8 271.601 385.4 271.301 386.8 270.801C388.2 270.301 389.5 269.801 390.6 269.101C392.2 268.101 393.4 267.101 394 266.001C394.7 265.101 394.9 264.201 394.9 263.201Z" fill="#FF9800"/>
</g>
<path d="M370.5 269.6L370.6 273.2L363.8 277.3L363.7 273.7L370.5 269.6Z" fill="#FF9800"/>
<path d="M412.9 244L407.1 247.5C408.9 248.7 410.3 249.8 411.4 250.8C412.5 251.8 413.2 252.7 413.7 253.4L405.3 256.4C404.6 255.4 403.6 254.3 402.3 253.2C401 252.1 399.5 251 397.6 250C395.8 249 394.2 248.4 392.8 248.4C391.4 248.3 390.2 248.6 389.3 249.1C388.7 249.5 388.3 249.8 388.1 250.2C387.9 250.6 387.9 251 388.1 251.5C388.3 252 388.6 252.6 389.1 253.2C389.6 253.8 390.2 254.6 390.9 255.4C392 256.7 392.9 257.9 393.6 259.2C394.3 260.4 394.8 261.6 394.9 262.7C395 263.8 394.8 264.9 394.2 266C393.6 267.1 392.4 268.1 390.8 269.1C389.7 269.8 388.4 270.3 387 270.8C385.6 271.3 384 271.6 382.3 271.7C380.6 271.8 378.7 271.7 376.8 271.4C374.9 271.1 372.8 270.5 370.7 269.7L363.9 273.8L356.7 269.8L363.3 265.8C360.7 264.1 358.9 262.6 357.8 261.3C356.7 260 355.9 259 355.5 258.2L364.3 255.7C365 256.8 366 258 367.3 259.4C368.6 260.7 370.3 262 372.4 263.1C374.7 264.4 376.6 265.1 378.1 265.2C379.6 265.3 380.9 265 382 264.3C382.7 263.9 383.1 263.4 383.3 262.9C383.5 262.4 383.4 261.9 383.2 261.3C383 260.7 382.5 260 381.9 259.2C381.3 258.4 380.6 257.5 379.7 256.5C378.9 255.5 378.2 254.6 377.5 253.6C376.8 252.6 376.4 251.6 376.2 250.6C376 249.6 376.2 248.6 376.7 247.6C377.2 246.6 378.3 245.6 379.9 244.6C381.1 243.9 382.5 243.3 384 242.8C385.5 242.3 387.1 242 388.8 241.9C390.5 241.8 392.3 241.8 394.1 242.1C396 242.4 397.9 242.9 399.9 243.6L405.9 240L412.9 244Z" fill="#FFDD23"/>
<path d="M363.7 273.701L363.8 277.301L356.6 273.301V269.701L363.7 273.701Z" fill="#FF9800"/>
<path d="M437.8 267.001C436.3 273.401 431.2 279.401 423.2 284.201C402.7 296.501 369.2 297.101 348.4 285.501C340.5 281.101 335.4 275.401 333.5 269.201L333.6 271.801V272.201C336 277.501 340.9 282.401 347.9 286.301C358.4 292.201 372.2 295.001 385.9 294.701C399.6 294.501 413.3 291.201 423.7 285.001C430.7 280.801 435.6 275.601 437.8 270.101V267.001ZM347.9 282.001C358.4 287.901 372.2 290.701 385.9 290.401C399.6 290.201 413.3 286.901 423.7 280.701C430.7 276.501 435.5 271.301 437.8 265.801L437.7 262.701C436.1 269.101 431.1 275.001 423.1 279.801C402.6 292.101 369.1 292.701 348.3 281.101C340.4 276.701 335.2 271.001 333.4 264.801L333.5 267.801C336 273.301 340.9 278.101 347.9 282.001ZM423.3 288.601C402.8 300.901 369.3 301.501 348.5 289.901C340.8 285.601 335.8 280.101 333.8 274.201C334.1 276.501 334.9 278.701 336.1 280.901C338.8 284.601 342.8 288.001 347.9 290.801C358.4 296.701 372.2 299.501 385.9 299.201C399.6 299.001 413.3 295.701 423.7 289.501C429.1 286.301 433.1 282.501 435.8 278.501C436.9 276.301 437.5 274.101 437.7 271.901C436.2 278.001 431.2 283.901 423.3 288.601Z" fill="#FFDD23"/>
<path d="M306.4 67.3993L278.9 57.2993C250.7 46.8993 215.6 55.1993 180.5 84.6993L208 94.7993C243.1 65.2993 278.2 56.9993 306.4 67.3993Z" fill="#C52C45"/>
<mask id="mask24_110_1153" style="mask-type:luminance" maskUnits="userSpaceOnUse" x="180" y="53" width="127" height="42">
<path d="M306.4 67.3993L278.9 57.2993C250.7 46.8993 215.6 55.1993 180.5 84.6993L208 94.7993C243.1 65.2993 278.2 56.9993 306.4 67.3993Z" fill="white"/>
</mask>
<g mask="url(#mask24_110_1153)">
<path d="M306.4 67.3993L278.9 57.2993C250.7 46.8993 215.6 55.1993 180.5 84.6993L208 94.7993C243.1 65.2993 278.2 56.9993 306.4 67.3993Z" fill="#E60049"/>
</g>
<path d="M139.6 435.299L167.1 445.399C139.3 435.099 118.1 406.699 110.2 362.299C94.4002 273.099 138.1 153.299 208 94.7992L180.5 84.6992C110.6 143.199 66.8002 262.999 82.8002 352.299C90.7002 396.599 111.8 425.099 139.6 435.299Z" fill="#C52C45"/>
<mask id="mask25_110_1153" style="mask-type:luminance" maskUnits="userSpaceOnUse" x="79" y="84" width="129" height="362">
<path d="M139.6 435.299L167.1 445.399C139.3 435.099 118.1 406.699 110.2 362.299C94.4002 273.099 138.1 153.299 208 94.7992L180.5 84.6992C110.6 143.199 66.8002 262.999 82.8002 352.299C90.7002 396.599 111.8 425.099 139.6 435.299Z" fill="white"/>
</mask>
<g mask="url(#mask25_110_1153)">
<path d="M208 94.7992L180.5 84.6992C110.6 143.199 66.8002 262.999 82.8002 352.299C90.7002 396.699 111.8 425.099 139.7 435.399L167.2 445.499C139.4 435.199 118.2 406.799 110.3 362.399C94.4002 273.099 138.1 153.299 208 94.7992Z" fill="#E60049"/>
</g>
<path d="M208 94.7991C138.1 153.299 94.4001 273.099 110.3 362.399C126.2 451.699 195.8 476.599 265.6 418.099C335.5 359.599 379.2 239.799 363.3 150.499C347.4 61.1991 277.8 36.2991 208 94.7991Z" fill="#FF2A6D"/>
<path d="M213.5 126.099C157.2 173.299 121.9 269.899 134.7 341.899C147.5 413.899 203.6 433.999 260 386.799C316.3 339.599 351.6 242.999 338.8 170.999C326 98.9994 269.9 78.8994 213.5 126.099Z" fill="#E9ECF5"/>
<path d="M219.7 160.399C178.2 195.099 152.2 266.299 161.7 319.299C171.1 372.299 212.4 387.099 253.9 352.399C295.4 317.699 321.4 246.499 311.9 193.499C302.4 140.499 261.2 125.699 219.7 160.399Z" fill="#FF2A6D"/>
<path d="M225.4 192.4C197.7 215.6 180.4 263 186.7 298.4C193 333.8 220.5 343.6 248.2 320.5C275.9 297.3 293.2 249.9 286.9 214.5C280.6 179.1 253 169.2 225.4 192.4Z" fill="#E9ECF5"/>
<path d="M230.5 220.899C215.2 233.699 205.6 259.999 209.1 279.599C212.6 299.199 227.9 304.699 243.2 291.799C258.5 278.999 268.1 252.699 264.6 233.099C261.1 213.599 245.8 208.099 230.5 220.899Z" fill="#FF2A6D"/>
<path d="M264.5 254.398L274.5 248.298L269.4 241.898L259.4 247.998L264.5 254.398Z" fill="#BCC6DF"/>
<path d="M259.4 247.999L269.4 241.899L269.6 235.299L259.5 241.299L259.4 247.999ZM280.1 273.999L290.2 267.899L274.5 248.299L264.5 254.399L280.1 273.999Z" fill="#BCC6DF"/>
<path d="M260 221L259.5 241.4L259.4 248L264.5 254.4L280.1 274L236.1 254.4C236.2 249.4 236.3 244.4 237.1 239.6L260 221Z" fill="white"/>
<path d="M259.5 241.298L269.6 235.298L270 214.898L260 220.998L259.5 241.298Z" fill="#BCC6DF"/>
<path d="M434 238.799C434.7 237.799 435.1 236.499 435 235.199C434.8 231.999 432.1 229.599 428.9 229.799L268 239.099C264.8 239.299 262.4 241.999 262.6 245.199C262.8 248.399 265.5 250.799 268.7 250.599L429.6 241.299C431.4 241.199 433 240.199 434 238.799Z" fill="#9AA8D2"/>
<path d="M463.5 267.299L473.6 261.199L443.5 234.099L433.4 240.099L463.5 267.299ZM442.2 211.199L452.3 205.199L417.1 206.699L407.1 212.799L442.2 211.199Z" fill="#D4DCEF"/>
<path d="M433.4 240.099L443.5 234.099L452.3 205.199L442.2 211.199L433.4 240.099Z" fill="#BCC6DF"/>
<path d="M442.2 211.199L407.1 212.799L387.8 232.199L386.7 243.799L395.5 248.499L428.4 268.899L463.5 267.299L433.4 240.099L442.2 211.199Z" fill="white"/>
<path d="M245.4 284.498L245.7 296.198L254 296.498L253.7 284.798L245.4 284.498Z" fill="#BCC6DF"/>
<path d="M253.7 284.798L254 296.498L279.4 297.498L279.1 285.698L253.7 284.798ZM240.7 288.598L240.9 300.298L245.7 296.198L245.4 284.498L240.7 288.598ZM226.5 312.598L222.5 269.498C222.8 269.298 223 269.198 223.3 268.998L226.2 300.798L226.5 312.598Z" fill="#BCC6DF"/>
<path d="M235.7 263.299L279.1 285.799L253.7 284.899L245.4 284.599L240.7 288.599L226.2 300.899L223.3 269.099C227.2 266.799 231.3 264.799 235.7 263.299Z" fill="white"/>
<path d="M226.2 300.9L226.5 312.6L240.9 300.3L240.7 288.6L226.2 300.9ZM330.5 392.2L330.7 403.9L336.5 402.2L336.3 390.5L330.5 392.2ZM329.7 396.6L329.9 408.4L330.7 403.9L330.5 392.2L329.7 396.6Z" fill="#BCC6DF"/>
<path d="M350.5 422.399C351.7 422.399 353 421.999 354 421.099C356.5 419.099 356.8 415.499 354.8 412.999L252.8 288.199C250.8 285.699 247.2 285.399 244.7 287.399C242.2 289.399 241.9 292.999 243.9 295.499L345.9 420.299C347.1 421.699 348.8 422.399 350.5 422.399Z" fill="#9AA8D2"/>
<path d="M363.7 428.1L363.9 439.8L405.1 447.8L404.8 436.1L363.7 428.1Z" fill="#D4DCEF"/>
<path d="M348.9 452.1L349.1 463.9L363.9 439.8L363.7 428.1L348.9 452.1Z" fill="#BCC6DF"/>
<path d="M325 423.199L325.3 434.899L349.1 463.899L348.9 452.099L325 423.199Z" fill="#D4DCEF"/>
<path d="M327.7 397.9L325 423.2L348.9 452.1L363.7 428.1L404.8 436.1L381 407.1L342.7 392.9L337.4 391.6L327.7 397.9Z" fill="white"/>
</svg>
